<svg width="16" height="20" viewBox="0 0 16 20" fill="none" xmlns="http://www.w3.org/2000/svg">
<path d="M8.0008 0.835938C6.3432 0.835938 4.75349 1.49442 3.58139 2.66652C2.40928 3.83862 1.7508 5.42833 1.7508 7.08594V11.9609L0.367471 14.0443C0.201664 14.2999 0.107616 14.5954 0.0951691 14.8999C0.0827224 15.2043 0.152334 15.5065 0.29672 15.7749C0.441107 16.0432 0.654959 16.2678 0.915899 16.4251C1.17684 16.5825 1.47527 16.6668 1.77997 16.6693H14.2216C14.5283 16.6683 14.829 16.5843 15.0918 16.4263C15.3547 16.2683 15.5699 16.0422 15.7146 15.7719C15.8594 15.5015 15.9284 15.1971 15.9142 14.8907C15.9 14.5844 15.8033 14.2876 15.6341 14.0318L14.2508 11.9609V7.08594C14.2508 5.42833 13.5923 3.83862 12.4202 2.66652C11.2481 1.49442 9.65841 0.835938 8.0008 0.835938Z" fill="#8D9DCF"/>
<path d="M8.0026 19.1667C8.5191 19.1661 9.02274 19.0055 9.44429 18.7071C9.86584 18.4086 10.1846 17.987 10.3568 17.5H5.64844C5.8206 17.987 6.13937 18.4086 6.56092 18.7071C6.98247 19.0055 7.48611 19.1661 8.0026 19.1667Z" fill="#8D9DCF"/>
</svg>
