<svg width="20" height="16" viewBox="0 0 20 16" fill="none" xmlns="http://www.w3.org/2000/svg">
<path d="M19.8854 5.30184C19.7876 5.18251 19.6416 5.11287 19.4885 5.11287H17.542C17.0617 3.8459 16.4359 2.60455 15.7246 2.13596C13.2639 0.517179 6.73725 0.517179 4.27662 2.13596C3.5648 2.60506 2.94158 3.84795 2.45867 5.11287H0.512186C0.357533 5.11287 0.212097 5.18251 0.11531 5.30184C0.0180113 5.42065 -0.0209081 5.57786 0.010842 5.72894L0.299153 7.12598C0.348315 7.36411 0.558275 7.53413 0.800498 7.53413H1.37712C0.820469 8.17632 0.550594 8.98494 0.547009 9.79408C0.543424 10.7937 0.922889 11.6971 1.61678 12.3362C1.62446 12.3429 1.63215 12.3475 1.63931 12.3541V14.3089C1.63931 14.7324 1.98345 15.077 2.40746 15.077H4.20288C4.6269 15.077 4.97103 14.7324 4.97103 14.3089V13.5233H15.0292V14.3089C15.0292 14.7324 15.3733 15.077 15.7973 15.077H17.5927C18.0157 15.077 18.3609 14.7324 18.3609 14.3089V12.3925C19.0973 11.7181 19.4491 10.7901 19.4537 9.86372C19.4568 9.02693 19.1746 8.18861 18.5852 7.53311H19.2002C19.4434 7.53311 19.6534 7.36308 19.7015 7.12444L19.9904 5.72791C20.0201 5.57786 19.9827 5.42167 19.8854 5.30184ZM5.12005 3.4188C7.08138 2.12777 12.9188 2.12777 14.8791 3.4188C15.2601 3.66871 15.7502 4.67911 16.1993 5.91637H3.80088C4.24897 4.67962 4.73905 3.66974 5.12005 3.4188ZM2.82277 9.98663C2.82277 9.15189 3.49977 8.4759 4.33398 8.4759C5.16921 8.4759 5.84518 9.15189 5.84518 9.98663C5.84518 10.8214 5.16921 11.4979 4.33398 11.4979C3.49977 11.4979 2.82277 10.8214 2.82277 9.98663ZM15.6862 11.4979C14.852 11.4979 14.175 10.8214 14.175 9.98663C14.175 9.15189 14.852 8.4759 15.6862 8.4759C16.5214 8.4759 17.1974 9.15189 17.1974 9.98663C17.1974 10.8214 16.5204 11.4979 15.6862 11.4979Z" fill="#8D9DCF"/>
</svg>
