<svg width="20" height="20" viewBox="0 0 20 20" fill="none" xmlns="http://www.w3.org/2000/svg">
<path d="M16.5234 8.26086H15.8715V5.86957C15.8714 2.63293 13.2386 0 10.0019 0C6.76527 0 4.13234 2.63293 4.13234 5.86957V8.26086H3.47996C2.40109 8.26086 1.52344 9.13852 1.52344 10.2174V18.0435C1.52344 19.1223 2.40109 20 3.47996 20H16.5234C17.6023 20 18.48 19.1223 18.48 18.0435V10.2174C18.4799 9.13852 17.6023 8.26086 16.5234 8.26086ZM10.6539 14.6624V16.7391C10.6539 17.0993 10.3619 17.3913 10.0017 17.3913C9.64152 17.3913 9.34949 17.0993 9.34949 16.7391V14.6624C8.59152 14.3927 8.04582 13.6768 8.04516 12.8261C8.04602 11.7453 8.92094 10.8704 10.0017 10.8696C11.0824 10.8704 11.9573 11.7453 11.9582 12.8261C11.9575 13.6768 11.4118 14.3927 10.6539 14.6624ZM13.2628 8.26086H6.74102V5.86957C6.74102 4.07102 8.20332 2.60871 10.0019 2.60871C11.8004 2.60871 13.2627 4.07102 13.2627 5.86957V8.26086H13.2628Z" fill="#8D9DCF"/>
</svg>
