<svg width="20" height="20" viewBox="0 0 20 20" fill="none" xmlns="http://www.w3.org/2000/svg">
<path d="M19.5081 6.63077C19.7293 6.4487 19.7864 6.13347 19.6432 5.88542L18.1712 3.33601C18.028 3.08792 17.7264 2.97984 17.4582 3.08027L16.957 3.26804L19.0949 6.97089L19.5081 6.63077Z" fill="#8D9DCF"/>
<path d="M11.4657 13.9492C10.414 14.2788 9.355 14.7064 8.39227 15.2619L7.88281 15.556L10.066 19.3375C10.1745 19.5255 10.3715 19.6305 10.574 19.6305C10.6734 19.6305 10.7741 19.6052 10.8664 19.5519L13.2345 18.1847C13.369 18.107 13.4672 17.9791 13.5075 17.8289C13.5477 17.6788 13.5266 17.5189 13.4489 17.3843L11.4657 13.9492Z" fill="#8D9DCF"/>
<path d="M2.50159 10.8554C2.1853 11.038 1.95909 11.3329 1.86455 11.6856C1.82358 11.8385 1.80959 11.9943 1.82162 12.1476L0.297249 13.0107C0.161312 13.0877 0.0617025 13.2157 0.0206088 13.3665C-0.020485 13.5173 0.000413447 13.6782 0.0784994 13.8135L1.45834 16.2034C1.56678 16.3913 1.76369 16.4965 1.96631 16.4965C2.06412 16.4965 2.1633 16.472 2.25448 16.4204L3.75201 15.5725C3.99698 15.7704 4.30264 15.8773 4.61412 15.8773C4.84592 15.8773 5.08065 15.8184 5.29537 15.6945L6.79084 14.8311L3.9969 9.99219L2.50159 10.8554Z" fill="#8D9DCF"/>
<path d="M19.9214 10.7495L14.0984 0.663984C13.9939 0.483164 13.8012 0.371602 13.5924 0.371094C13.5919 0.371094 13.5914 0.371094 13.5909 0.371094C13.3827 0.371094 13.19 0.48168 13.0849 0.661563C13.0489 0.723203 9.43305 6.8552 5.01172 9.40777L7.80562 14.2466C10.2724 12.8225 13.2838 12.1863 15.3757 11.9033C17.6578 11.5946 19.3737 11.6277 19.4005 11.6283C19.6116 11.6333 19.81 11.5234 19.918 11.3412C20.0259 11.1591 20.0272 10.9329 19.9214 10.7495Z" fill="#8D9DCF"/>
</svg>
