<svg width="30" height="30" viewBox="0 0 30 30" fill="none" xmlns="http://www.w3.org/2000/svg">
<rect x="0.5" y="0.5" width="29" height="29" rx="14.5" fill="#E1F4DF"/>
<g clip-path="url(#clip0_835_1252)">
<path d="M9.72 21.1958C9.544 21.1958 9.368 21.1289 9.23417 20.9942C7.63183 19.3928 6.75 17.2643 6.75 14.9992C6.75 12.7341 7.63183 10.6056 9.23417 9.00417C9.50275 8.73559 9.93817 8.73559 10.2068 9.00417C10.4753 9.27276 10.4753 9.70817 10.2068 9.97676C8.86383 11.3178 8.125 13.1017 8.125 14.9992C8.125 16.8967 8.86383 18.6805 10.2068 20.0216C10.4753 20.2893 10.4753 20.7256 10.2068 20.9942C10.072 21.1289 9.896 21.1958 9.72 21.1958Z" fill="#47B43E"/>
<path d="M7.77667 23.1391C7.60067 23.1391 7.42467 23.0722 7.29083 22.9375C5.16875 20.8154 4 17.9966 4 14.9991C4 12.0016 5.16875 9.1829 7.29083 7.06081C7.55942 6.79223 7.99483 6.79223 8.26342 7.06081C8.532 7.3294 8.532 7.76481 8.26342 8.0334C6.40075 9.89515 5.375 12.3692 5.375 14.9991C5.375 17.6291 6.40075 20.1031 8.2625 21.9658C8.53108 22.2344 8.53108 22.6698 8.2625 22.9384C8.12867 23.0722 7.95267 23.1391 7.77667 23.1391Z" fill="#47B43E"/>
<path d="M22.2224 23.139C22.0464 23.139 21.8704 23.0721 21.7366 22.9374C21.468 22.6688 21.468 22.2334 21.7366 21.9648C23.5993 20.1021 24.6241 17.6289 24.6241 14.9981C24.6241 12.3673 23.5983 9.89411 21.7366 8.03144C21.468 7.76286 21.468 7.32744 21.7366 7.05886C22.0052 6.79028 22.4406 6.79028 22.7092 7.05886C24.8303 9.18278 25.9991 12.0015 25.9991 14.999C25.9991 17.9965 24.8303 20.8153 22.7083 22.9374C22.5744 23.0721 22.3984 23.139 22.2224 23.139Z" fill="#47B43E"/>
<path d="M20.2819 21.1958C20.1059 21.1958 19.9299 21.1289 19.7961 20.9942C19.5275 20.7256 19.5275 20.2902 19.7961 20.0216C21.1381 18.6805 21.8769 16.8967 21.8769 14.9992C21.8769 13.1017 21.1381 11.3178 19.7952 9.97676C19.5266 9.70909 19.5266 9.27276 19.7952 9.00417C20.0638 8.73559 20.4992 8.73559 20.7678 9.00417C22.3701 10.6056 23.2519 12.7341 23.2519 14.9992C23.2519 17.2643 22.3701 19.3928 20.7678 20.9942C20.6339 21.1289 20.4579 21.1958 20.2819 21.1958Z" fill="#47B43E"/>
<path d="M13.0057 22.333C12.9076 22.333 12.8077 22.3119 12.7142 22.2679C12.4172 22.1285 12.2595 21.7985 12.3383 21.4795L13.6638 16.1455H11.1054C10.8487 16.1455 10.6132 16.0025 10.4949 15.7742C10.3767 15.546 10.3959 15.271 10.5444 15.061L15.5705 7.95688C15.7538 7.69838 16.0884 7.59846 16.3808 7.71305C16.6751 7.82763 16.8538 8.12738 16.8135 8.43996L16.2406 12.9371H18.8971C19.1565 12.9371 19.3939 13.0829 19.5103 13.3139C19.6277 13.5449 19.6047 13.8226 19.4517 14.0316L13.5602 22.0525C13.4273 22.234 13.2192 22.333 13.0057 22.333Z" fill="#47B43E"/>
</g>
<rect x="0.5" y="0.5" width="29" height="29" rx="14.5" stroke="#47B43E"/>
<defs>
<clipPath id="clip0_835_1252">
<rect width="22" height="22" fill="white" transform="translate(4 4)"/>
</clipPath>
</defs>
</svg>
