<svg width="18" height="18" viewBox="0 0 18 18" fill="none" xmlns="http://www.w3.org/2000/svg">
<rect x="0.5" y="0.5" width="17" height="17" rx="8.5" fill="#E1F4DF"/>
<g clip-path="url(#clip0_8592_24317)">
<path d="M6.12 12.38C6.024 12.38 5.928 12.3435 5.855 12.27C4.981 11.3965 4.5 10.2355 4.5 8.99999C4.5 7.76449 4.981 6.60349 5.855 5.72999C6.0015 5.58349 6.239 5.58349 6.3855 5.72999C6.532 5.87649 6.532 6.11399 6.3855 6.26049C5.653 6.99199 5.25 7.96499 5.25 8.99999C5.25 10.035 5.653 11.008 6.3855 11.7395C6.532 11.8855 6.532 12.1235 6.3855 12.27C6.312 12.3435 6.216 12.38 6.12 12.38Z" fill="#47B43E"/>
<path d="M5.06 13.4399C4.964 13.4399 4.868 13.4034 4.795 13.3299C3.6375 12.1724 3 10.6349 3 8.99993C3 7.36493 3.6375 5.82743 4.795 4.66993C4.9415 4.52343 5.179 4.52343 5.3255 4.66993C5.472 4.81643 5.472 5.05393 5.3255 5.20043C4.3095 6.21593 3.75 7.56543 3.75 8.99993C3.75 10.4344 4.3095 11.7839 5.325 12.7999C5.4715 12.9464 5.4715 13.1839 5.325 13.3304C5.252 13.4034 5.156 13.4399 5.06 13.4399Z" fill="#47B43E"/>
<path d="M12.9403 13.44C12.8443 13.44 12.7483 13.4035 12.6753 13.33C12.5288 13.1835 12.5288 12.946 12.6753 12.7995C13.6913 11.7835 14.2503 10.4345 14.2503 8.99946C14.2503 7.56446 13.6908 6.21546 12.6753 5.19946C12.5288 5.05296 12.5288 4.81546 12.6753 4.66896C12.8218 4.52246 13.0593 4.52246 13.2058 4.66896C14.3628 5.82746 15.0003 7.36496 15.0003 8.99996C15.0003 10.635 14.3628 12.1725 13.2053 13.33C13.1323 13.4035 13.0363 13.44 12.9403 13.44Z" fill="#47B43E"/>
<path d="M11.8803 12.38C11.7843 12.38 11.6883 12.3435 11.6153 12.27C11.4688 12.1235 11.4688 11.886 11.6153 11.7395C12.3473 11.008 12.7503 10.035 12.7503 8.99999C12.7503 7.96499 12.3473 6.99199 11.6148 6.26049C11.4683 6.11449 11.4683 5.87649 11.6148 5.72999C11.7613 5.58349 11.9988 5.58349 12.1453 5.72999C13.0193 6.60349 13.5003 7.76449 13.5003 8.99999C13.5003 10.2355 13.0193 11.3965 12.1453 12.27C12.0723 12.3435 11.9763 12.38 11.8803 12.38Z" fill="#47B43E"/>
<path d="M7.91147 13.0002C7.85797 13.0002 7.80347 12.9887 7.75247 12.9647C7.59047 12.8887 7.50447 12.7087 7.54747 12.5347L8.27047 9.62515H6.87497C6.73497 9.62515 6.60647 9.54715 6.54197 9.42265C6.47747 9.29815 6.48797 9.14815 6.56897 9.03365L9.31047 5.15865C9.41047 5.01765 9.59296 4.96315 9.75246 5.02565C9.91296 5.08815 10.0105 5.25165 9.98846 5.42215L9.67597 7.87515H11.125C11.2665 7.87515 11.396 7.95465 11.4595 8.08065C11.5235 8.20665 11.511 8.35815 11.4275 8.47215L8.21397 12.8472C8.14147 12.9462 8.02797 13.0002 7.91147 13.0002Z" fill="#47B43E"/>
</g>
<rect x="0.5" y="0.5" width="17" height="17" rx="8.5" stroke="#47B43E"/>
<defs>
<clipPath id="clip0_8592_24317">
<rect width="12" height="12" fill="white" transform="translate(3 3)"/>
</clipPath>
</defs>
</svg>
