<svg width="18" height="18" viewBox="0 0 18 18" xmlns="http://www.w3.org/2000/svg">
<path d="M17.3332 9.00972L15.9067 7.14952L16.2258 4.83836L14.0486 3.97402L13.1853 1.79439L10.8767 2.11382L8.99984 0.666992L7.14173 2.09503L4.83317 1.7756L3.96981 3.95523L1.79263 4.81957L2.1117 7.13073L0.666504 9.00972L2.09293 10.8699L1.77386 13.1811L3.95104 14.0454L4.8144 16.2251L7.12296 15.9056L8.98107 17.3337L10.8392 15.9056L13.1477 16.2251L14.0111 14.0454L16.1883 13.1623L15.8692 10.8511L17.3332 9.00972ZM8.32416 11.7155L5.54638 9.4231L6.14698 8.69029L8.21155 10.3814L11.7401 6.30397L12.4533 6.92404L8.32416 11.7155Z"/>
</svg>
