<svg width="15" height="15" viewBox="0 0 15 15" fill="none" xmlns="http://www.w3.org/2000/svg">
<rect x="2" y="2" width="11" height="11" rx="5.5" fill="#F74E4E"/>
<path d="M6.0838 6.0838C6.19554 5.97207 6.37669 5.97207 6.48843 6.0838L8.9162 8.51157C9.02793 8.62331 9.02793 8.80446 8.9162 8.9162C8.80446 9.02793 8.62331 9.02793 8.51157 8.9162L6.0838 6.48843C5.97207 6.37669 5.97207 6.19554 6.0838 6.0838Z" fill="white"/>
<path d="M8.9162 6.0838C9.02793 6.19554 9.02793 6.37669 8.9162 6.48843L6.48843 8.9162C6.37669 9.02793 6.19554 9.02793 6.0838 8.9162C5.97207 8.80446 5.97207 8.62331 6.0838 8.51157L8.51157 6.0838C8.62331 5.97207 8.80446 5.97207 8.9162 6.0838Z" fill="white"/>
</svg>
