<svg width="24" height="24" viewBox="0 0 24 24" fill="none" xmlns="http://www.w3.org/2000/svg">
<rect x="1" y="0.5" width="22" height="22" rx="11" fill="#F74E4E"/>
<path d="M9.1676 8.6676C9.39107 8.44413 9.75339 8.44413 9.97686 8.6676L14.8324 13.5231C15.0559 13.7466 15.0559 14.1089 14.8324 14.3324C14.6089 14.5559 14.2466 14.5559 14.0231 14.3324L9.1676 9.47686C8.94413 9.25339 8.94413 8.89107 9.1676 8.6676Z" fill="white"/>
<path d="M14.8324 8.6676C15.0559 8.89107 15.0559 9.25339 14.8324 9.47686L9.97686 14.3324C9.75339 14.5559 9.39107 14.5559 9.1676 14.3324C8.94413 14.1089 8.94413 13.7466 9.1676 13.5231L14.0231 8.6676C14.2466 8.44413 14.6089 8.44413 14.8324 8.6676Z" fill="white"/>
</svg>
