<svg width="24" height="24" viewBox="0 0 24 24" fill="none" xmlns="http://www.w3.org/2000/svg">
<rect y="0.5" width="24" height="24" rx="12" fill="#E1F4DF"/>
<path d="M7.63886 10.3395C7.45096 10.1371 7.13459 10.1254 6.93224 10.3133C6.72988 10.5012 6.71816 10.8176 6.90606 11.0199L7.63886 10.3395ZM11.9997 15.7706L11.6333 16.1108L11.9997 16.5054L12.3661 16.1108L11.9997 15.7706ZM17.0934 11.0199C17.2813 10.8176 17.2696 10.5012 17.0672 10.3133C16.8649 10.1254 16.5485 10.1371 16.3606 10.3395L17.0934 11.0199ZM6.90606 11.0199L11.6333 16.1108L12.3661 15.4304L7.63886 10.3395L6.90606 11.0199ZM12.3661 16.1108L17.0934 11.0199L16.3606 10.3395L11.6333 15.4304L12.3661 16.1108Z" fill="#47B43E"/>
</svg>
