<svg width="24" height="24" viewBox="0 0 24 24" fill="none" xmlns="http://www.w3.org/2000/svg">
<path fill-rule="evenodd" clip-rule="evenodd" d="M12 24C5.37258 24 0 18.6274 0 12C0 5.37258 5.37258 0 12 0C18.6274 0 24 5.37258 24 12C24 18.6274 18.6274 24 12 24ZM12.6289 8.2097C12.6289 7.86089 12.3461 7.57812 11.9973 7.57812C11.6485 7.57812 11.3657 7.86089 11.3657 8.2097V11.3672H8.2097C7.86089 11.3672 7.57812 11.65 7.57812 11.9988C7.57812 12.3476 7.86089 12.6303 8.2097 12.6303H11.3657V15.7887C11.3657 16.1375 11.6485 16.4202 11.9973 16.4202C12.3461 16.4202 12.6289 16.1375 12.6289 15.7887V12.6303H15.7887C16.1375 12.6303 16.4202 12.3476 16.4202 11.9988C16.4202 11.65 16.1375 11.3672 15.7887 11.3672H12.6289V8.2097Z" fill="#4E77F7"/>
</svg>
