<svg width="97" height="96" viewBox="0 0 97 96" fill="none" xmlns="http://www.w3.org/2000/svg">
    <path d="M38.3496 24.8398C38.3496 24.8398 42.1644 27.1299 45.3257 34.9125C51.5305 50.2186 55.4336 58.4603 55.4336 58.4603L83.9265 67.4615L81.6483 78.8823C81.6483 78.8823 52.7668 74.8615 48.8991 73.4074C43.6008 71.4235 39.6801 60.9859 39.6801 60.9859L38.3496 24.8398Z" fill="#E0E0E0"/>
    <path d="M39.3423 36.1719C39.2835 36.1719 39.2305 44.3194 39.2305 54.3685C39.2305 64.4176 39.2835 72.5592 39.3423 72.5592C39.4012 72.5592 39.4542 64.4176 39.4542 54.3685C39.4542 44.3194 39.4012 36.1719 39.3423 36.1719Z" fill="#2A2B2E"/>
    <path d="M25.6752 39.4673C25.6752 39.4673 25.9577 40.5152 26.3993 42.3637C27.3995 40.9226 28.6811 39.6991 30.1669 38.7667C30.1669 38.7667 37.6846 31.2667 40.1159 23.4076C41.882 17.6914 41.4287 11.3629 41.4287 11.3629C41.3581 11.0568 40.7694 8.37229 40.2866 6.17645C40.1 5.31056 40.2548 4.40605 40.7187 3.65148C41.1826 2.89692 41.9199 2.35053 42.7768 2.12622C46.515 1.11954 56.6524 -0.852592 58.9778 5.95275C62.4452 16.1019 56.8349 27.0752 56.8997 30.213C56.8997 30.8017 56.8997 31.2844 56.8997 31.6729C59.8431 30.9842 62.1979 30.4955 62.1979 30.5426L81.6956 25.9685C81.6956 25.9685 88.1712 24.014 90.3553 30.625C92.5394 37.2361 85.057 39.4555 85.057 39.4555C85.057 39.4555 88.5892 39.2966 89.5429 45.3072C90.4966 51.3178 84.0504 53.2722 84.0504 53.2722C84.0504 53.2722 88.0005 53.0132 89.0249 58.3409C90.0198 63.5273 83.5735 66.6533 83.2262 66.8182C83.7381 66.69 84.257 66.5917 84.7803 66.5238C84.3974 66.6683 84.0038 66.7824 83.603 66.8652C86.6112 67.2479 87.0468 70.8272 87.0468 70.8272C88.9837 78.1682 83.3322 79.7106 83.3322 79.7106L47.7101 88.0289C44.1602 88.8596 40.4528 88.7255 36.9723 87.6404C37.3137 89.1592 37.4962 89.9952 37.4844 89.9952L12.6002 95.8056C12.5472 95.8056 9.86275 84.5144 6.60137 70.5564C3.33998 56.5984 0.714393 45.2424 0.796811 45.2424L25.6752 39.4673Z" fill="#4E77F7"/>
    <g opacity="0.3">
        <path opacity="0.3" d="M25.6732 39.4634C25.6732 39.4634 25.9558 40.5113 26.3973 42.3598C27.3975 40.9187 28.6791 39.6952 30.165 38.7628C30.165 38.7628 37.6826 31.2628 40.1139 23.4037C41.88 17.6875 41.4267 11.359 41.4267 11.359C41.3561 11.0528 40.7674 8.36839 40.2847 6.17255C40.0981 5.30665 40.2528 4.40214 40.7168 3.64758C41.1807 2.89301 41.918 2.34662 42.7749 2.12231C46.5131 1.11564 56.6504 -0.856499 58.9758 5.94884C62.4432 16.098 56.8329 27.0713 56.8977 30.2091C56.8977 30.7977 56.8977 31.2805 56.8977 31.669C59.8412 30.9802 62.196 30.4916 62.196 30.5387L81.6936 25.9645C81.6936 25.9645 88.1693 24.0101 90.3534 30.6211C92.5374 37.2322 85.0551 39.4516 85.0551 39.4516C85.0551 39.4516 88.5873 39.2926 89.541 45.3032C90.4947 51.3138 84.0484 53.2683 84.0484 53.2683C84.0484 53.2683 87.9986 53.0093 89.0229 58.337C90.0178 63.5234 83.5716 66.6494 83.2242 66.8142C83.7361 66.6861 84.2551 66.5878 84.7784 66.5199C84.3955 66.6644 84.0018 66.7785 83.601 66.8613C86.6092 67.244 87.0449 70.8233 87.0449 70.8233C88.9817 78.1643 83.3302 79.7067 83.3302 79.7067L47.7081 88.025C44.1583 88.8557 40.4508 88.7216 36.9703 87.6365C37.3117 89.1553 37.4942 89.9912 37.4825 89.9912L12.5982 95.8017C12.5453 95.8017 9.86079 84.5105 6.59941 70.5525C3.33803 56.5945 0.71244 45.2385 0.794857 45.2385L25.6732 39.4634Z" fill="#2A2B2E"/>
    </g>
    <path d="M30.4847 46.5701L30.002 49.8079L37.9553 83.864C40.2861 85.4124 42.909 86.4675 45.6627 86.9646C48.4164 87.4617 51.2427 87.3902 53.9678 86.7545L89.5663 78.4127C89.5663 78.4127 95.2178 76.8703 93.281 69.5351C93.281 69.5351 92.8159 65.6321 89.4545 65.5261C89.4545 65.5261 96.2834 62.3766 95.2649 57.0489C94.2465 51.7212 90.2963 51.9743 90.2963 51.9743C90.2963 51.9743 96.7426 50.0198 95.783 44.0092C94.8234 37.9986 91.2971 38.1576 91.2971 38.1576C91.2971 38.1576 98.7971 35.9617 96.5954 29.3271C94.3937 22.6925 87.9356 24.6705 87.9356 24.6705L62.6217 30.5575L40.4101 35.791C37.8659 36.3859 35.5592 37.7316 33.7893 39.6537C32.0194 41.5758 30.8681 43.9855 30.4847 46.5701Z" fill="#4E77F7"/>
    <path d="M36.4062 37.4696C36.4062 37.4696 43.9416 29.9872 46.3493 22.1105C48.1154 16.3942 47.6621 10.0657 47.6621 10.0657C47.5915 9.7596 47.0028 7.07514 46.526 4.8793C46.3391 4.0142 46.4931 3.11038 46.9558 2.35596C47.4186 1.60153 48.1544 1.05462 49.0103 0.829058C52.7544 -0.177614 59.5067 1.68267 61.8321 8.48212C65.2995 18.643 63.0742 25.778 63.1331 28.9099L63.192 32.0477L36.4062 37.4696Z" fill="#4E77F7"/>
    <path d="M31.94 38.164L7.06055 43.9766L18.8704 94.5267L43.7499 88.7141L31.94 38.164Z" fill="#4E77F7"/>
    <path d="M43.7417 88.7214C43.7947 88.7214 41.1926 77.3831 37.9371 63.4075C34.6816 49.4318 31.9913 38.1406 31.9383 38.1524C31.8853 38.1641 34.4815 49.4907 37.7429 63.4663C41.0042 77.442 43.6887 88.7332 43.7417 88.7214Z" fill="#2A2B2E"/>
    <path d="M18.8608 94.53C18.9138 94.53 16.3118 83.1917 13.0504 69.2161C9.78902 55.2404 7.10456 43.9492 7.05158 43.9609C6.9986 43.9727 9.59475 55.2993 12.8561 69.2749C16.1175 83.2506 18.802 94.5418 18.8608 94.53Z" fill="#2A2B2E"/>
    <path d="M25.8578 51.7927C26.072 52.7127 26.0088 53.6756 25.6762 54.5598C25.3436 55.4439 24.7565 56.2098 23.989 56.7605C23.2214 57.3112 22.308 57.6222 21.3638 57.6542C20.4197 57.6861 19.4873 57.4376 18.6843 56.9401C17.8813 56.4425 17.2437 55.7182 16.8521 54.8585C16.4604 53.9989 16.3323 53.0425 16.4838 52.11C16.6353 51.1776 17.0596 50.3109 17.7033 49.6195C18.347 48.9281 19.1811 48.4429 20.1003 48.2252C20.7126 48.0809 21.3474 48.0588 21.9682 48.1601C22.5891 48.2614 23.1839 48.484 23.7186 48.8154C24.2533 49.1467 24.7175 49.5802 25.0846 50.0911C25.4516 50.6019 25.7144 51.1802 25.8578 51.7927Z" fill="white"/>
    <path d="M68.4475 29.2455C68.4475 29.1925 65.71 29.7812 62.3662 30.5642C59.0224 31.3471 56.3144 32.0242 56.3262 32.0771C56.338 32.1301 59.0636 31.5414 62.4074 30.7585C65.7512 29.9755 68.4593 29.2985 68.4475 29.2455Z" fill="#2A2B2E"/>
    <path d="M90.8781 52.1016C89.5657 52.3011 88.2648 52.5703 86.9809 52.9081C85.6813 53.1754 84.3962 53.5094 83.1309 53.9089C84.4427 53.7059 85.7434 53.4367 87.028 53.1023C89.165 52.602 90.8899 52.1545 90.8781 52.1016Z" fill="#2A2B2E"/>
    <path d="M91.784 37.9224C91.784 37.8635 89.2997 38.3992 86.262 39.0998C83.2244 39.8003 80.7754 40.4302 80.7872 40.4832C80.7989 40.5362 83.2715 40.0064 86.3091 39.3058C89.3468 38.6053 91.7958 37.9754 91.784 37.9224Z" fill="#2A2B2E"/>
    <path d="M91.0477 65.2349C91.0477 65.176 88.5634 65.7117 85.5257 66.4123C82.488 67.1128 80.039 67.7369 80.0508 67.7957C80.0626 67.8546 82.5351 67.3189 85.5728 66.6183C88.6105 65.9178 91.0595 65.2879 91.0477 65.2349Z" fill="#2A2B2E"/>
    <g opacity="0.3">
        <path opacity="0.3" d="M49.2217 3.3336C48.8685 3.72629 48.6275 4.20677 48.524 4.72466C48.4204 5.24255 48.4581 5.77876 48.633 6.27708C49.0069 7.26653 49.4617 8.22347 49.9929 9.13815C51.0148 11.2669 51.3085 13.6726 50.8289 15.9847C50.6758 16.6852 50.4815 17.4977 50.9348 18.051C51.5706 18.8399 52.8481 18.4042 53.6546 17.7861C55.1608 16.5847 56.295 14.9804 56.9255 13.1599C57.556 11.3393 57.6568 9.37717 57.2162 7.50157C56.8656 5.90869 55.9807 4.48366 54.7084 3.46311C53.4074 2.49765 51.4117 1.62049 49.2041 3.31005" fill="white"/>
    </g>
    <g opacity="0.3">
        <path opacity="0.3" d="M90.2822 25.5801C89.3958 25.4768 88.4975 25.5692 87.6507 25.8509L72.6154 29.6657C70.9788 30.0836 67.9058 30.4545 67.8705 32.1264C67.5408 33.0448 68.2355 34.075 69.1303 34.4459C70.0611 34.7483 71.0576 34.787 72.009 34.5577C74.0165 34.2339 76.0004 33.763 77.9843 33.292C81.9973 32.4319 85.9346 31.2507 89.7583 29.7598C90.326 29.5674 90.8574 29.2808 91.3301 28.9121C91.5659 28.7188 91.7554 28.4752 91.8848 28.1992C92.0141 27.9231 92.0801 27.6216 92.0777 27.3168C92.0054 26.8725 91.7915 26.4635 91.468 26.1506C91.1445 25.8377 90.7286 25.6376 90.2822 25.5801Z" fill="white"/>
    </g>
    <path d="M26.4049 40.9758C26.4049 40.9169 22.9021 41.6881 18.6164 42.6889C14.3307 43.6897 10.8633 44.5492 10.875 44.6022C10.8868 44.6552 14.3719 43.884 18.6635 42.8832C22.9551 41.8824 26.4166 41.0288 26.4049 40.9758Z" fill="white"/>
    <path d="M93.5285 46.7037C93.5768 46.6118 93.6086 46.5122 93.6227 46.4093C93.696 46.1362 93.7395 45.8559 93.7522 45.5734C93.781 45.1551 93.7672 44.7349 93.711 44.3194C93.6305 43.8102 93.4963 43.311 93.3107 42.83C93.114 42.3528 92.8652 41.8987 92.569 41.476C92.3245 41.1351 92.0442 40.8213 91.733 40.54C91.5279 40.3445 91.303 40.1708 91.0619 40.022C90.897 39.916 90.797 39.8689 90.7911 39.8807C90.7852 39.8924 91.1384 40.1456 91.6388 40.6401C91.9257 40.93 92.1858 41.2452 92.4159 41.582C92.6969 41.9977 92.9337 42.4416 93.1223 42.9066C93.3039 43.3711 93.4399 43.8522 93.5285 44.343C93.5905 44.7481 93.618 45.1577 93.6109 45.5675C93.5933 46.268 93.4873 46.6978 93.5285 46.7037Z" fill="white"/>
    <path d="M94.217 33.0316C94.4225 32.8462 94.5835 32.6168 94.688 32.3605C94.9759 31.7576 95.1017 31.09 95.053 30.4237C95.0175 29.7582 94.8151 29.1123 94.4643 28.5457C94.3237 28.3125 94.135 28.1118 93.9109 27.957C93.8814 27.957 94.0993 28.2102 94.3406 28.634C94.6494 29.1892 94.8285 29.8071 94.8646 30.4413C94.9071 31.0776 94.8065 31.7152 94.5702 32.3075C94.3701 32.7667 94.1876 33.0316 94.217 33.0316Z" fill="white"/>
    <path d="M92.3375 61.4204C92.6097 61.2581 92.8381 61.0318 93.0027 60.761C93.4536 60.1281 93.6738 59.3598 93.6267 58.5841C93.5795 57.8085 93.2679 57.0725 92.7437 56.4989C92.5486 56.2446 92.2939 56.0424 92.002 55.9102C92.002 55.9102 92.2845 56.1339 92.6377 56.5754C93.1059 57.1438 93.382 57.8459 93.4265 58.5809C93.4709 59.316 93.2813 60.0462 92.885 60.6668C92.5907 61.1613 92.3081 61.3968 92.3375 61.4204Z" fill="white"/>
    <path d="M90.0772 74.607C90.2721 74.4037 90.4242 74.1635 90.5247 73.9005C90.8021 73.2734 90.931 72.5906 90.9014 71.9055C90.8717 71.2204 90.6844 70.5513 90.3539 69.9504C90.2298 69.698 90.0579 69.472 89.8477 69.2852C89.8477 69.2852 90.0125 69.5618 90.2303 70.0151C90.5102 70.6121 90.6702 71.2581 90.7013 71.9166C90.7276 72.5742 90.6236 73.2304 90.3951 73.8476C90.2185 74.3185 90.0478 74.5893 90.0772 74.607Z" fill="white"/>
    <path d="M62.101 20.4172C62.1752 20.2277 62.2266 20.0301 62.254 19.8285C62.2952 19.6401 62.3423 19.4105 62.3835 19.1397C62.4248 18.8689 62.4777 18.551 62.5013 18.2214C62.5881 17.4239 62.6176 16.6212 62.5896 15.8195C62.5542 14.8317 62.446 13.8478 62.2658 12.876C62.0682 11.9228 61.8046 10.9845 61.4769 10.0679C61.1984 9.31492 60.87 8.58135 60.4938 7.87206C60.3408 7.56593 60.1759 7.28336 60.0405 7.06554C59.9051 6.84772 59.7756 6.63579 59.6638 6.47685C59.5585 6.30902 59.4404 6.14959 59.3105 6C59.3922 6.18038 59.4887 6.35366 59.599 6.51805C59.6991 6.68289 59.8168 6.88305 59.9404 7.10675C60.0641 7.33046 60.223 7.60714 60.3702 7.91915C60.726 8.6357 61.0385 9.37289 61.3062 10.1268C61.6258 11.046 61.8815 11.9862 62.0715 12.9407C62.2504 13.8994 62.3645 14.869 62.413 15.843C62.4427 16.6282 62.4269 17.4144 62.3659 18.1978C62.3659 18.5392 62.307 18.8454 62.2776 19.1103C62.2481 19.3752 62.2128 19.6107 62.1834 19.7991C62.1406 20.0028 62.1131 20.2094 62.101 20.4172Z" fill="white"/>
</svg>
