<svg width="123" height="123" viewBox="0 0 123 123" fill="none" xmlns="http://www.w3.org/2000/svg">
    <path d="M117.933 66.1217C119.468 68.1637 120.379 70.6981 120.379 73.444C120.379 75.522 119.858 77.4799 118.935 79.1928C118.058 80.8336 116.811 82.251 115.312 83.3369C116.848 85.3764 117.758 87.9133 117.758 90.6592C117.758 94.724 115.762 98.3323 112.696 100.554C114.229 102.594 115.137 105.129 115.137 107.872C115.137 114.606 109.66 120.083 102.928 120.083H64.486C58.1535 120.083 51.9386 118.956 46.0096 116.734L26.7812 109.525V58.7032H27.8119C42.2692 43.4291 57.9733 26.0698 60.3492 22.2693V8.09547C60.3492 5.23908 62.6723 2.91602 65.5286 2.91602C77.3097 2.91602 86.8951 12.499 86.8951 24.2801V30.6727L83.0297 44.0177H110.789C117.523 44.0177 123 49.4951 123 56.2288C123 60.2936 121.001 63.8995 117.933 66.1217Z" fill="#FFBD86"/>
    <path d="M112.696 100.555C114.229 102.595 115.137 105.129 115.137 107.873C115.137 114.606 109.66 120.084 102.928 120.084H64.486C58.1535 120.084 51.9386 118.957 46.0096 116.735L26.7812 109.525V79.1934H118.935C118.058 80.8342 116.811 82.2515 115.312 83.3374C116.848 85.377 117.758 87.9139 117.758 90.6597C117.758 94.7245 115.762 98.3328 112.696 100.555Z" fill="#F6A96C"/>
    <path d="M33.9884 41.6426H0V117.73H33.9884V41.6426Z" fill="#6288FF"/>
    <path d="M33.9884 79.1934H0V117.729H33.9884V79.1934Z" fill="#4E77F7"/>
</svg>
