<svg width="128" height="140" viewBox="0 0 128 140" fill="none" xmlns="http://www.w3.org/2000/svg">
<path d="M27.2116 118.739C27.3491 120.341 27.0086 121.947 26.2331 123.354C25.4576 124.762 24.2821 125.908 22.8551 126.648C21.4282 127.387 19.814 127.687 18.2167 127.509C16.6194 127.331 15.1108 126.683 13.8817 125.647C12.6526 124.612 11.7583 123.235 11.3119 121.691C10.8655 120.147 10.887 118.505 11.3737 116.974C11.8605 115.442 12.7906 114.089 14.0464 113.086C15.3021 112.083 16.8272 111.475 18.4286 111.339C19.4915 111.247 20.5621 111.365 21.5791 111.688C22.5961 112.01 23.5395 112.53 24.3554 113.217C25.1712 113.904 25.8434 114.746 26.3336 115.694C26.8237 116.641 27.122 117.676 27.2116 118.739Z" fill="white"/>
<path d="M27.2069 118.738C27.3909 120.913 26.728 123.075 25.3565 124.773C23.985 126.471 22.0109 127.573 19.846 127.851C18.7296 127.967 17.6012 127.86 16.5266 127.535C15.452 127.211 14.4527 126.676 13.5871 125.961C12.7215 125.247 12.0069 124.367 11.485 123.373C10.9631 122.379 10.6443 121.292 10.5473 120.173C10.4502 119.055 10.5768 117.929 10.9198 116.86C11.2627 115.791 11.815 114.801 12.5445 113.948C13.2741 113.095 14.1662 112.396 15.1688 111.891C16.1715 111.386 17.2646 111.087 18.3844 111.009C20.5684 110.909 22.7064 111.658 24.3509 113.098C25.9953 114.539 27.0187 116.56 27.2069 118.738V118.738ZM27.2069 118.738C27.1195 117.69 26.8204 116.67 26.3278 115.741C25.8352 114.811 25.1592 113.991 24.3407 113.33C23.5223 112.669 22.5783 112.181 21.5658 111.895C20.5534 111.609 19.4935 111.532 18.4502 111.667C16.4649 111.949 14.661 112.975 13.4042 114.538C12.1474 116.1 11.5317 118.082 11.6819 120.082C11.8564 122.085 12.7972 123.944 14.3083 125.271C15.8193 126.598 17.7841 127.291 19.7933 127.205C20.8442 127.16 21.8749 126.901 22.8232 126.446C23.7714 125.991 24.6176 125.348 25.3105 124.557C26.0034 123.766 26.5287 122.842 26.8546 121.842C27.1806 120.842 27.3004 119.786 27.2069 118.738V118.738Z" fill="#CBD4EE"/>
<path d="M9.69705 133.712C9.77164 134.602 9.58111 135.493 9.14949 136.274C8.71787 137.055 8.06451 137.691 7.2719 138.101C6.47929 138.511 5.58295 138.677 4.69601 138.579C3.80907 138.48 2.97128 138.12 2.28841 137.546C1.60554 136.971 1.10818 136.207 0.859126 135.35C0.610071 134.493 0.620491 133.582 0.889044 132.731C1.1576 131.88 1.67225 131.127 2.36806 130.568C3.06387 130.009 3.90963 129.669 4.7986 129.591C5.99455 129.488 7.18217 129.865 8.10062 130.638C9.01907 131.411 9.59325 132.516 9.69705 133.712V133.712Z" fill="white"/>
<path d="M9.69559 133.71C9.80789 134.944 9.44744 136.174 8.68716 137.152C7.92688 138.13 6.82353 138.782 5.60038 138.977C4.6389 139.126 3.65499 138.982 2.77604 138.565C1.89709 138.148 1.16356 137.477 0.670438 136.638C0.177312 135.8 -0.0527032 134.832 0.0101555 133.861C0.0730141 132.891 0.42587 131.961 1.02302 131.193C1.62018 130.425 2.43412 129.854 3.35951 129.554C4.2849 129.253 5.27911 129.238 6.21342 129.509C7.14773 129.78 7.97913 130.326 8.59996 131.075C9.22079 131.824 9.60246 132.742 9.69559 133.71V133.71ZM9.69559 133.71C9.63951 133.123 9.4633 132.553 9.17788 132.037C8.89247 131.52 8.50395 131.068 8.03644 130.708C7.3876 130.222 6.61197 129.934 5.80315 129.879C4.99433 129.824 4.18687 130.004 3.4782 130.398C2.76952 130.792 2.18992 131.382 1.80931 132.098C1.4287 132.814 1.26335 133.624 1.33321 134.432C1.40307 135.24 1.70516 136.01 2.20302 136.65C2.70089 137.289 3.37325 137.771 4.139 138.038C4.90475 138.304 5.73116 138.343 6.51853 138.15C7.30589 137.957 8.02056 137.54 8.57631 136.95C8.97469 136.515 9.27959 136.003 9.47212 135.446C9.66465 134.889 9.74071 134.298 9.69559 133.71V133.71Z" fill="#CBD4EE"/>
<path d="M126.514 60.2431C127.242 66.1829 126.397 72.2099 124.065 77.719C121.732 83.2282 117.995 88.0257 113.227 91.6298C108.459 95.2339 102.829 97.5178 96.9011 98.2521C90.9737 98.9865 84.9577 98.1455 79.4573 95.8136C76.7822 99.3014 73.3412 102.125 69.4011 104.065C65.461 106.005 61.1278 107.009 56.7377 107C52.3476 106.991 48.0187 105.968 44.0867 104.012C40.1547 102.056 36.7254 99.2178 34.0649 95.7188C32.8305 96.0979 31.5645 96.3643 30.2822 96.5148C25.8295 97.0718 21.3111 96.3223 17.2751 94.3573C13.2391 92.3923 9.8588 89.2961 7.54423 85.4442C5.22966 81.5924 4.08025 77.1504 4.23538 72.657C4.3905 68.1636 5.84351 63.8118 8.41819 60.1294C3.33519 53.7373 0.711695 45.729 1.02517 37.5621C1.33864 29.3952 4.56824 21.6124 10.1262 15.6304C15.6841 9.6483 23.201 5.86454 31.3086 4.96772C39.4163 4.0709 47.5759 6.12064 54.3023 10.7439C57.4555 6.79564 61.596 3.75446 66.3027 1.9296C71.0095 0.104734 76.1145 -0.43872 81.0988 0.354489C86.0832 1.1477 90.769 3.24927 94.6798 6.44553C98.5906 9.64179 101.587 13.8187 103.364 18.5516C104.555 18.1469 105.785 17.8675 107.033 17.7177C110.823 17.2508 114.665 17.9587 118.042 19.7459C121.419 21.5332 124.168 24.3141 125.919 27.7143C127.67 31.1145 128.34 34.9707 127.838 38.7638C127.335 42.5568 125.685 46.1046 123.11 48.9295C124.908 52.4675 126.061 56.2989 126.514 60.2431V60.2431Z" fill="white"/>
<rect x="44.2305" y="49.4258" width="21.4783" height="2.14783" rx="1.07392" transform="rotate(33.6781 44.2305 49.4258)" fill="#4E77F7"/>
<rect x="59.4141" y="47.8594" width="21.4783" height="2.14783" rx="1.07392" transform="rotate(123.678 59.4141 47.8594)" fill="#4E77F7"/>
<circle cx="52.761" cy="55.7596" r="17.4286" transform="rotate(-11.6131 52.761 55.7596)" stroke="#4E77F7" stroke-width="2"/>
<path d="M126.558 60.079C127.265 65.9658 126.423 71.9337 124.114 77.4021C122.939 80.1238 121.431 82.6921 119.624 85.0491C117.78 87.3668 115.648 89.4438 113.278 91.2305C108.492 94.8339 102.839 97.1336 96.8808 97.9015C90.9222 98.6694 84.8648 97.8789 79.3094 95.6083H79.6314C76.9214 99.1383 73.4281 102.002 69.4224 103.978C65.4166 105.953 61.006 106.987 56.5324 107C52.0587 107.013 47.6422 106.004 43.6251 104.051C39.608 102.098 36.0983 99.2544 33.3678 95.7398L34.0499 95.9653C31.6921 96.6716 29.2375 97.0076 26.775 96.9611C24.3062 96.9576 21.8548 96.5514 19.5191 95.7586C14.7925 94.1894 10.6747 91.2019 7.7353 87.2098C6.30605 85.2017 5.17664 82.9995 4.38203 80.6713C3.6206 78.3326 3.21202 75.895 3.16955 73.4377C3.12316 68.4744 4.63982 63.6205 7.50797 59.5529V60.5299C2.33561 54.0305 -0.317274 45.9081 0.0302897 37.6354C0.377853 29.3627 3.70285 21.4874 9.40246 15.4372C15.1159 9.41673 22.7936 5.59622 31.0755 4.65254C39.3387 3.77405 47.6458 5.86035 54.4915 10.5334L53.6579 10.6649C56.9033 6.69708 61.1538 3.65613 65.9741 1.85353C70.7944 0.0509272 76.0112 -0.448536 81.0902 0.40631C86.1275 1.237 90.8543 3.37186 94.793 6.59508C98.7316 9.81831 101.742 14.0156 103.521 18.7628L103.275 18.6501C107.249 17.3743 111.535 17.4271 115.475 18.8004C118.404 19.8304 121.03 21.5639 123.118 23.8459C125.207 26.128 126.692 28.8876 127.443 31.8781C128.194 34.8686 128.185 37.997 127.419 40.9836C126.653 43.9703 125.153 46.7223 123.053 48.9937C124.873 52.4544 126.059 56.2076 126.558 60.079V60.079ZM126.558 60.079C126.091 56.146 124.917 52.3279 123.091 48.8058C125.163 46.5432 126.636 43.806 127.378 40.8398C128.121 37.8736 128.109 34.771 127.345 31.8102C126.581 28.8495 125.088 26.123 123 23.8754C120.912 21.6277 118.294 19.9292 115.381 18.9319C111.501 17.6077 107.287 17.6077 103.407 18.9319H103.218V18.744C101.411 14.1189 98.4045 10.0487 94.5032 6.94476C90.6243 3.82522 85.9728 1.7944 81.0334 1.06391C76.1252 0.312106 71.1037 0.867598 66.4832 2.67348C61.8627 4.47937 57.8091 7.47075 54.7378 11.3413L54.3968 11.7922L53.9042 11.454C47.2835 7.08227 39.3108 5.18834 31.4115 6.11082C23.5121 7.03329 16.2011 10.712 10.7854 16.4894C5.43042 22.2771 2.31541 29.7588 1.99289 37.6074C1.67037 45.456 4.16117 53.1643 9.02354 59.365L9.4214 59.8723L9.0425 60.4172C6.36327 64.1733 4.93873 68.6678 4.96932 73.2686C4.9859 75.558 5.34995 77.8318 6.0492 80.0137C6.77396 82.1871 7.81425 84.2442 9.13724 86.12C11.866 89.8588 15.6792 92.6837 20.0685 94.2179C22.2597 94.9903 24.5634 95.4029 26.8887 95.4392C29.2119 95.5247 31.5338 95.2392 33.7657 94.5937L34.1825 94.4622L34.4666 94.8192C37.0659 98.2264 40.4076 101.007 44.2423 102.955C50.0886 105.885 56.7805 106.708 63.1714 105.282C69.5622 103.856 75.2541 100.27 79.2715 95.1386L79.4041 94.9695H79.5935C85.0557 97.3119 91.0471 98.1739 96.9553 97.4675C102.863 96.7611 108.477 94.5115 113.221 90.9487C115.591 89.1771 117.729 87.1196 119.586 84.8236C121.393 82.5104 122.907 79.9865 124.095 77.3082C126.399 71.8714 127.247 65.9366 126.558 60.079V60.079Z" fill="#CBD4EE"/>
<path d="M89.3488 40.2313L88.79 42.9907C88.7481 43.2701 88.6499 43.5373 88.5016 43.7751C88.3534 44.0128 88.1584 44.2159 87.9293 44.3712C87.7002 44.5265 87.4421 44.6304 87.1716 44.6765C86.9011 44.7225 86.6242 44.7095 86.3589 44.6383C86.0934 44.5818 85.8414 44.4717 85.6173 44.3145C85.3932 44.1573 85.2014 43.956 85.0529 43.7221C84.9045 43.4883 84.8023 43.2265 84.7522 42.9518C84.7021 42.6771 84.7051 42.3949 84.761 42.1214L85.6531 37.7043C85.6531 37.7043 85.6531 37.7043 85.7119 37.6335C85.7707 37.5628 85.7119 37.6335 85.7119 37.5325C85.8384 36.9894 86.162 36.517 86.616 36.2124C87.0701 35.9078 87.62 35.7942 88.1528 35.895C89.3774 36.1631 90.655 35.9186 91.7047 35.2153C92.7545 34.5121 93.4903 33.4076 93.7503 32.145C94.0102 30.8823 93.7731 29.5649 93.0911 28.4825C92.409 27.4001 91.3379 26.6414 90.1134 26.3734C89.3124 26.2023 88.482 26.2503 87.7047 26.5128C86.9273 26.7752 86.2302 27.2429 85.6825 27.8693C85.5067 28.0955 85.2881 28.2824 85.0399 28.4185C84.7917 28.5546 84.5192 28.6372 84.2391 28.6611C83.959 28.685 83.677 28.6498 83.4105 28.5576C83.144 28.4654 82.8985 28.3182 82.6891 28.1249C82.4796 27.9316 82.3105 27.6963 82.1922 27.4334C82.0739 27.1705 82.0087 26.8855 82.0008 26.5957C81.9929 26.306 82.0423 26.0176 82.1461 25.7483C82.2499 25.4789 82.4058 25.2342 82.6044 25.029C83.5791 23.9064 84.8091 23.051 86.1837 22.5397C87.5583 22.0285 89.0346 21.8772 90.4799 22.0997C91.9252 22.3221 93.2943 22.9113 94.4642 23.8142C95.6341 24.7171 96.5682 25.9055 97.1825 27.2727C97.7968 28.6399 98.0722 30.143 97.9839 31.647C97.8955 33.151 97.4463 34.6089 96.6764 35.8896C95.9066 37.1704 94.8402 38.2339 93.5732 38.9846C92.3062 39.7354 90.8782 40.1499 89.4174 40.1908L89.3488 40.2313ZM87.4764 49.5305L87.3196 50.2987C87.2697 50.5751 87.1661 50.8381 87.015 51.0721C86.8638 51.306 86.6684 51.506 86.4403 51.6599C86.2122 51.8139 85.9563 51.9186 85.6879 51.9678C85.4195 52.017 85.1442 52.0097 84.8787 51.9463C84.3451 51.8273 83.8784 51.4965 83.5794 51.0256C83.2804 50.5546 83.1732 49.9813 83.2808 49.4294L83.4376 48.6612C83.5597 48.1162 83.8828 47.6415 84.3384 47.3377C84.794 47.0339 85.3464 46.925 85.8786 47.0339C86.4106 47.1483 86.8771 47.475 87.1765 47.9427C87.4758 48.4104 87.5836 48.9812 87.4764 49.5305V49.5305Z" fill="#4E77F7"/>
</svg>
