<svg width="128" height="128" viewBox="0 0 128 128" fill="none" xmlns="http://www.w3.org/2000/svg">
    <path d="M65.5 0C29.5006 0 0 29.5006 0 65.5C0 101.499 29.5006 128 65.5 128C101.499 128 128 101.499 128 65.5C128 29.5006 101.499 0 65.5 0ZM15.6074 65.5C15.6074 38.0204 38.0204 15.6074 65.5 15.6074C75.862 15.6074 85.8411 18.831 94.3609 24.8949L65.5 53.7558L24.8954 94.3609C18.831 85.8406 15.6074 75.862 15.6074 65.5ZM65.5 115.393C55.138 115.393 45.1589 112.168 36.6391 106.105L106.105 36.6388C112.169 45.1589 115.393 55.1374 115.393 65.5C115.393 92.979 92.9796 115.393 65.5 115.393Z" fill="#4E77F7"/>
    <path d="M128 65.5C128 101.499 101.499 128 65.5 128V115.393C92.9796 115.393 115.393 92.979 115.393 65.5C115.393 55.1374 112.169 45.1589 106.105 36.6391L65.5 77.2437V53.7558L94.3609 24.8949C85.8411 18.831 75.862 15.6074 65.5 15.6074V0C101.499 0 128 29.5006 128 65.5Z" fill="#2A2B2E" fill-opacity="0.1"/>
</svg>
