<svg width="100" height="100" viewBox="0 0 100 100" fill="none" xmlns="http://www.w3.org/2000/svg">
    <rect width="100" height="100" rx="50" fill="#4E77F7"/>
    <g clip-path="url(#clip0_8271_72808)">
        <path d="M64.5131 45.0249C64.2975 45.0249 64.0762 45.0559 63.855 45.1166L61.3542 45.8055L58.7578 39.4798C58.0219 37.6878 55.8474 36.2296 53.9103 36.2296H29.608C27.6707 36.2296 25.4964 37.6878 24.7608 39.4798L22.1675 45.7967L19.6977 45.1164C19.4767 45.0557 19.2554 45.0247 19.0398 45.0247C17.8578 45.0247 17 45.9277 17 47.1715V48.6456C17 50.0976 18.1816 51.2791 19.6336 51.2791H19.9165L19.4974 52.3001C18.8139 53.9646 18.2575 56.7835 18.2575 58.5836V71.1503C18.2575 72.6023 19.4391 73.7838 20.8911 73.7838H24.3305C25.7825 73.7838 26.9641 72.6023 26.9641 71.1503V68.0122H56.554V71.1503C56.554 72.6023 57.7355 73.7838 59.1875 73.7838H62.6265C64.0785 73.7838 65.26 72.6023 65.26 71.1503V58.5838C65.26 56.784 64.7037 53.965 64.0202 52.3004L63.601 51.2794H63.9191C65.3711 51.2794 66.5527 50.0978 66.5527 48.6458V47.1717C66.553 45.9279 65.6949 45.0249 64.5131 45.0249ZM24.0554 49.849L27.9836 40.281C28.4237 39.2091 29.7316 38.3319 30.8903 38.3319H52.628C53.7867 38.3319 55.0946 39.2088 55.5347 40.281L59.4629 49.849C59.9027 50.9209 59.3149 51.7981 58.1562 51.7981H25.3624C24.2034 51.7979 23.6156 50.9209 24.0554 49.849ZM32.8242 61.9515C32.8242 62.531 32.3499 63.0047 31.771 63.0047H24.3089C23.7294 63.0047 23.2554 62.5307 23.2554 61.9515V58.3704C23.2554 57.7912 23.7294 57.3172 24.3089 57.3172H31.771C32.3499 57.3172 32.8242 57.7912 32.8242 58.3704V61.9515ZM60.1921 61.9515C60.1921 62.531 59.7178 63.0047 59.1388 63.0047H51.6768C51.0978 63.0047 50.6235 62.5307 50.6235 61.9515V58.3704C50.6235 57.7912 51.0978 57.3172 51.6768 57.3172H59.1388C59.7178 57.3172 60.1921 57.7912 60.1921 58.3704V61.9515Z" fill="white"/>
        <path d="M80.7061 25.2159H68.2329C66.4165 25.2159 64.939 26.6938 64.939 28.5099V40.9833C64.939 42.7997 66.4168 44.2775 68.2329 44.2775H73.2401V72.273C73.2401 72.9521 73.7903 73.5023 74.4694 73.5023C75.1484 73.5023 75.6986 72.9521 75.6986 72.273V44.2777H80.7061C82.5225 44.2777 84 42.7999 84 40.9836V28.5101C84 26.6938 82.5225 25.2159 80.7061 25.2159ZM77.881 35.5581C77.1636 36.204 76.107 36.5315 74.7405 36.5315H72.9343C72.7174 36.5315 72.5409 36.7082 72.5409 36.9251V39.9709C72.5409 40.3018 72.2717 40.5708 71.9408 40.5708H70.5729C70.2417 40.5708 69.9728 40.3016 69.9728 39.9709V29.5235C69.9728 29.1923 70.242 28.9231 70.5729 28.9231H74.0187C76.3014 28.9231 77.1536 29.2671 77.8537 29.8613C78.5923 30.488 78.9665 31.4478 78.9665 32.7146C78.9662 33.9525 78.6014 34.9089 77.881 35.5581Z" fill="white"/>
        <path d="M75.9259 31.4456C75.5925 31.1938 75.0027 31.066 74.1732 31.066H72.9344C72.7175 31.066 72.541 31.2425 72.541 31.4591V33.9623C72.541 34.1789 72.7175 34.3555 72.9344 34.3555H73.6766C73.9492 34.3555 74.3898 34.3353 74.6585 34.3105C74.9194 34.2866 75.6557 34.1799 75.9259 33.9759C76.2502 33.7305 76.4146 33.3062 76.4146 32.7149C76.4146 32.118 76.2502 31.6909 75.9259 31.4456Z" fill="white"/>
    </g>
    <defs>
        <clipPath id="clip0_8271_72808">
            <rect width="67" height="67" fill="white" transform="translate(17 16)"/>
        </clipPath>
    </defs>
</svg>
