<svg width="100" height="100" viewBox="0 0 100 100" fill="none" xmlns="http://www.w3.org/2000/svg">
    <rect width="100" height="100" rx="50" fill="#4E77F7"/>
    <path d="M80.7061 24.7137H68.2329C66.4165 24.7137 64.939 26.1915 64.939 28.0076V40.4811C64.939 42.2974 66.4168 43.7752 68.2329 43.7752H73.2401V72.7707C73.2401 73.4498 73.7903 74 74.4694 74C75.1484 74 75.6986 73.4498 75.6986 72.7707V43.7755H80.7061C82.5225 43.7755 84 42.2977 84 40.4813V28.0078C84 26.1915 82.5225 24.7137 80.7061 24.7137ZM77.881 35.0559C77.1636 35.7017 76.107 36.0292 74.7405 36.0292H72.9343C72.7174 36.0292 72.5409 36.206 72.5409 36.4228V39.4687C72.5409 39.7996 72.2717 40.0685 71.9408 40.0685H70.5729C70.2417 40.0685 69.9728 39.7993 69.9728 39.4687V29.0212C69.9728 28.6901 70.242 28.4209 70.5729 28.4209H74.0187C76.3014 28.4209 77.1536 28.7648 77.8537 29.359C78.5923 29.9857 78.9665 30.9455 78.9665 32.2124C78.9662 33.4502 78.6014 34.4066 77.881 35.0559Z" fill="white"/>
    <path d="M75.9259 31.4455C75.5925 31.1938 75.0027 31.0659 74.1732 31.0659H72.9344C72.7175 31.0659 72.541 31.2424 72.541 31.459V33.9623C72.541 34.1789 72.7175 34.3554 72.9344 34.3554H73.6766C73.9492 34.3554 74.3898 34.3352 74.6585 34.3104C74.9194 34.2866 75.6557 34.1799 75.9259 33.9758C76.2502 33.7304 76.4146 33.3061 76.4146 32.7148C76.4146 32.1179 76.2502 31.6909 75.9259 31.4455Z" fill="white"/>
    <rect x="17" y="72" width="50" height="2" rx="1" fill="white"/>
</svg>
