<svg width="340" height="40" viewBox="0 0 340 40" fill="none" xmlns="http://www.w3.org/2000/svg">
<rect x="0.5" y="0.5" width="339" height="39" rx="4.5" fill="#EDF0FB" stroke="#CBD4EE"/>
<path d="M307.144 13.8066C303.517 13.8066 300.228 15.7858 297.801 19.0006C297.603 19.2639 297.603 19.6319 297.801 19.8953C300.228 23.1139 303.517 25.093 307.144 25.093C310.771 25.093 314.06 23.1139 316.487 19.8991C316.685 19.6358 316.685 19.2678 316.487 19.0044C314.06 15.7858 310.771 13.8066 307.144 13.8066ZM307.404 23.4237C304.996 23.5748 303.008 21.5956 303.16 19.1903C303.284 17.2073 304.895 15.5999 306.884 15.476C309.291 15.3249 311.279 17.3041 311.128 19.7093C311 21.6885 309.388 23.2959 307.404 23.4237ZM307.284 21.5878C305.987 21.6692 304.915 20.604 305 19.3104C305.066 18.2414 305.936 17.3777 307.008 17.308C308.305 17.2266 309.377 18.2918 309.291 19.5854C309.221 20.6583 308.351 21.522 307.284 21.5878Z" fill="#CBD4EE"/>
<rect width="27.0795" height="0.811007" transform="matrix(0.871039 -0.491214 0.508838 0.860862 296 26.3027)" fill="#CBD4EE"/>
<rect x="15" y="19.2734" width="16" height="1.45455" fill="#CBD4EE"/>
<rect x="23.7266" y="12" width="16" height="1.45455" transform="rotate(90 23.7266 12)" fill="#CBD4EE"/>
<rect x="17.8594" y="13.8281" width="16" height="1.45455" transform="rotate(45 17.8594 13.8281)" fill="#CBD4EE"/>
<rect x="29.1719" y="14.8594" width="16" height="1.45455" transform="rotate(135 29.1719 14.8594)" fill="#CBD4EE"/>
<rect x="41" y="19.2734" width="16" height="1.45455" fill="#CBD4EE"/>
<rect x="49.7266" y="12" width="16" height="1.45455" transform="rotate(90 49.7266 12)" fill="#CBD4EE"/>
<rect x="43.8594" y="13.8281" width="16" height="1.45455" transform="rotate(45 43.8594 13.8281)" fill="#CBD4EE"/>
<rect x="55.1719" y="14.8594" width="16" height="1.45455" transform="rotate(135 55.1719 14.8594)" fill="#CBD4EE"/>
<rect x="67" y="19.2734" width="16" height="1.45455" fill="#CBD4EE"/>
<rect x="75.7266" y="12" width="16" height="1.45455" transform="rotate(90 75.7266 12)" fill="#CBD4EE"/>
<rect x="69.8594" y="13.8281" width="16" height="1.45455" transform="rotate(45 69.8594 13.8281)" fill="#CBD4EE"/>
<rect x="81.1719" y="14.8594" width="16" height="1.45455" transform="rotate(135 81.1719 14.8594)" fill="#CBD4EE"/>
<rect x="93" y="19.2734" width="16" height="1.45455" fill="#CBD4EE"/>
<rect x="101.727" y="12" width="16" height="1.45455" transform="rotate(90 101.727 12)" fill="#CBD4EE"/>
<rect x="95.8594" y="13.8281" width="16" height="1.45455" transform="rotate(45 95.8594 13.8281)" fill="#CBD4EE"/>
<rect x="107.172" y="14.8594" width="16" height="1.45455" transform="rotate(135 107.172 14.8594)" fill="#CBD4EE"/>
<rect x="119" y="19.2734" width="16" height="1.45455" fill="#CBD4EE"/>
<rect x="127.727" y="12" width="16" height="1.45455" transform="rotate(90 127.727 12)" fill="#CBD4EE"/>
<rect x="121.859" y="13.8281" width="16" height="1.45455" transform="rotate(45 121.859 13.8281)" fill="#CBD4EE"/>
<rect x="133.172" y="14.8594" width="16" height="1.45455" transform="rotate(135 133.172 14.8594)" fill="#CBD4EE"/>
<rect x="145" y="19.2734" width="16" height="1.45455" fill="#CBD4EE"/>
<rect x="153.727" y="12" width="16" height="1.45455" transform="rotate(90 153.727 12)" fill="#CBD4EE"/>
<rect x="147.859" y="13.8281" width="16" height="1.45455" transform="rotate(45 147.859 13.8281)" fill="#CBD4EE"/>
<rect x="159.172" y="14.8594" width="16" height="1.45455" transform="rotate(135 159.172 14.8594)" fill="#CBD4EE"/>
</svg>
