<svg width="255" height="41" viewBox="0 0 255 41" fill="none" xmlns="http://www.w3.org/2000/svg">
    <rect x="0.5" y="1.16016" width="254" height="39" rx="4.5" fill="#EDF0FB" stroke="#CBD4EE"/>
    <path d="M228.5 13.6602C224.106 13.6602 220.121 16.1152 217.18 20.1028C216.94 20.4295 216.94 20.886 217.18 21.2127C220.121 25.2051 224.106 27.6602 228.5 27.6602C232.894 27.6602 236.879 25.2051 239.82 21.2175C240.06 20.8908 240.06 20.4344 239.82 20.1077C236.879 16.1152 232.894 13.6602 228.5 13.6602ZM228.815 25.5895C225.898 25.7768 223.489 23.3218 223.673 20.3383C223.823 17.8784 225.776 15.8846 228.185 15.7308C231.102 15.5435 233.511 17.9985 233.327 20.982C233.172 23.4371 231.219 25.4309 228.815 25.5895ZM228.669 23.3122C227.098 23.4131 225.799 22.0919 225.903 20.4872C225.983 19.1612 227.037 18.0898 228.335 18.0033C229.907 17.9024 231.205 19.2236 231.102 20.8283C231.017 22.1591 229.963 23.2305 228.669 23.3122Z" fill="#CBD4EE"/>
    <rect x="215" y="29.1602" width="33" height="1" transform="rotate(-30 215 29.1602)" fill="#CBD4EE"/>
    <rect x="15" y="19.9336" width="16" height="1.45455" fill="#CBD4EE"/>
    <rect x="23.7275" y="12.6602" width="16" height="1.45455" transform="rotate(90 23.7275 12.6602)" fill="#CBD4EE"/>
    <rect x="17.8574" y="14.4883" width="16" height="1.45455" transform="rotate(45 17.8574 14.4883)" fill="#CBD4EE"/>
    <rect x="29.1699" y="15.5195" width="16" height="1.45455" transform="rotate(135 29.1699 15.5195)" fill="#CBD4EE"/>
    <rect x="41" y="19.9336" width="16" height="1.45455" fill="#CBD4EE"/>
    <rect x="49.7275" y="12.6602" width="16" height="1.45455" transform="rotate(90 49.7275 12.6602)" fill="#CBD4EE"/>
    <rect x="43.8574" y="14.4883" width="16" height="1.45455" transform="rotate(45 43.8574 14.4883)" fill="#CBD4EE"/>
    <rect x="55.1699" y="15.5195" width="16" height="1.45455" transform="rotate(135 55.1699 15.5195)" fill="#CBD4EE"/>
    <rect x="67" y="19.9336" width="16" height="1.45455" fill="#CBD4EE"/>
    <rect x="75.7275" y="12.6602" width="16" height="1.45455" transform="rotate(90 75.7275 12.6602)" fill="#CBD4EE"/>
    <rect x="69.8574" y="14.4883" width="16" height="1.45455" transform="rotate(45 69.8574 14.4883)" fill="#CBD4EE"/>
    <rect x="81.1699" y="15.5195" width="16" height="1.45455" transform="rotate(135 81.1699 15.5195)" fill="#CBD4EE"/>
    <rect x="93" y="19.9336" width="16" height="1.45455" fill="#CBD4EE"/>
    <rect x="101.728" y="12.6602" width="16" height="1.45455" transform="rotate(90 101.728 12.6602)" fill="#CBD4EE"/>
    <rect x="95.8574" y="14.4883" width="16" height="1.45455" transform="rotate(45 95.8574 14.4883)" fill="#CBD4EE"/>
    <rect x="107.17" y="15.5195" width="16" height="1.45455" transform="rotate(135 107.17 15.5195)" fill="#CBD4EE"/>
    <rect x="119" y="19.9336" width="16" height="1.45455" fill="#CBD4EE"/>
    <rect x="127.728" y="12.6602" width="16" height="1.45455" transform="rotate(90 127.728 12.6602)" fill="#CBD4EE"/>
    <rect x="121.857" y="14.4883" width="16" height="1.45455" transform="rotate(45 121.857 14.4883)" fill="#CBD4EE"/>
    <rect x="133.17" y="15.5195" width="16" height="1.45455" transform="rotate(135 133.17 15.5195)" fill="#CBD4EE"/>
    <rect x="145" y="19.9336" width="16" height="1.45455" fill="#CBD4EE"/>
    <rect x="153.728" y="12.6602" width="16" height="1.45455" transform="rotate(90 153.728 12.6602)" fill="#CBD4EE"/>
    <rect x="147.857" y="14.4883" width="16" height="1.45455" transform="rotate(45 147.857 14.4883)" fill="#CBD4EE"/>
    <rect x="159.17" y="15.5195" width="16" height="1.45455" transform="rotate(135 159.17 15.5195)" fill="#CBD4EE"/>
</svg>
