<svg width="183" height="163" viewBox="0 0 183 163" fill="none" xmlns="http://www.w3.org/2000/svg">
<path d="M0.908447 122.505V118.297L110.731 55.1816L180.287 95.1501V99.3578L70.4643 162.473L0.908447 122.505Z" fill="#236D1D"/>
<path d="M0.908447 118.297L70.4643 158.265L180.287 95.1501L110.731 55.1816L0.908447 118.297Z" fill="#47B43E"/>
<path d="M90.5904 102.516L103.406 109.882V60L59.4714 34.7539L59.4804 84.636L90.5904 102.516Z" fill="#EBEBEB"/>
<path d="M99.7449 59.5251L147.338 71.0088V68.9005L99.7449 57.4258V59.5251Z" fill="#304984"/>
<path d="M55.8196 32.1582L99.7449 57.4222L147.338 68.8969L103.413 43.6419L55.8196 32.1582Z" fill="#4E77F7"/>
<path opacity="0.5" d="M55.8196 32.1582L99.7449 57.4222L147.338 68.8969L103.413 43.6419L55.8196 32.1582Z" fill="#37474F"/>
<path d="M55.8196 32.1582L99.7449 57.4222V59.5216L55.8196 34.2665V32.1582Z" fill="#2D55D0"/>
<path d="M103.405 109.881L143.681 86.7348V70.1194L103.405 60.4121V109.881Z" fill="#EBEBEB"/>
<path d="M103.405 62.8703L143.681 72.5866V70.1194L103.405 60.4121V62.8703Z" fill="#E0E0E0"/>
<path d="M110.726 105.671V86.7322L136.366 72.0098V90.9398L110.726 105.671Z" fill="#4E77F7"/>
<path opacity="0.5" d="M110.726 105.671V86.7322L136.366 72.0098V90.9398L110.726 105.671Z" fill="#37474F"/>
<path d="M136.363 72.0098L136.011 72.2071V90.7425L136.363 90.9309V72.0098Z" fill="#2D55D0"/>
<path d="M136.005 90.75L110.726 105.275V105.67L136.366 90.9384L136.005 90.75Z" fill="#37474F"/>
<path d="M70.469 145.648V69.9013L22.8757 42.5469V118.294L70.469 145.648Z" fill="#EBEBEB"/>
<path d="M22.8757 42.5469V53.0706L70.469 80.425V69.9013L22.8757 42.5469Z" fill="#E0E0E0"/>
<path d="M33.8589 63.5132L26.532 59.3145V114.014L33.8589 118.222V63.5132Z" fill="#4E77F7"/>
<path d="M27.1174 113.682V59.6465L33.8585 63.5132V117.549L27.1174 113.682Z" fill="#FAFAFA"/>
<path d="M27.1174 59.6465L33.8585 63.5132V65.5139L27.1174 61.6651V59.6465Z" fill="#E0E0E0"/>
<path d="M26.532 114.017L27.1178 113.686L33.8589 117.552V118.225L26.532 114.017Z" fill="#37474F"/>
<path d="M59.4788 80.4302L44.834 72.0059V88.8456L59.4788 97.2609V80.4302Z" fill="#4E77F7"/>
<path d="M45.4238 88.5086V72.3418L59.4828 80.4252V96.5831L45.4238 88.5086Z" fill="#FAFAFA"/>
<path d="M45.4238 72.3418V74.9166L59.4828 83.0001V80.4252L45.4238 72.3418Z" fill="#E0E0E0"/>
<path d="M44.834 88.8437L45.4198 88.5117L59.4788 96.5862V97.259L44.834 88.8437Z" fill="#37474F"/>
<path d="M51.5693 75.8828L52.1557 76.2148V93.0545L51.5693 92.7225V75.8828Z" fill="#4E77F7"/>
<path d="M52.1506 76.2148V93.0545L52.746 92.7136V76.5558L52.1506 76.2148Z" fill="#37474F"/>
<path d="M59.4788 109.882L44.834 101.467V118.298L59.4788 126.713V109.882Z" fill="#4E77F7"/>
<path d="M45.4238 117.966V101.799L59.4828 109.882V126.04L45.4238 117.966Z" fill="#FAFAFA"/>
<path d="M45.4238 101.799V104.374L59.4828 112.457V109.882L45.4238 101.799Z" fill="#E0E0E0"/>
<path d="M44.834 118.297L45.4198 117.965L59.4788 126.039V126.712L44.834 118.297Z" fill="#37474F"/>
<path d="M51.5693 105.332L52.1557 105.673V122.504L51.5693 122.172V105.332Z" fill="#4E77F7"/>
<path d="M52.1506 105.678V122.508L52.746 122.177V106.01L52.1506 105.678Z" fill="#37474F"/>
<path d="M70.4658 69.9023L107.073 32.0332V124.611L70.4658 145.649V69.9023Z" fill="#FAFAFA"/>
<path d="M107.073 95.15L70.4658 116.188V105.674L107.073 84.4648V95.15Z" fill="#E0E0E0"/>
<path d="M70.4658 75.3212L107.073 37.5866V32.0332L70.4658 69.9023V75.3212Z" fill="#F0F0F0"/>
<path d="M81.4426 74.013L96.0874 65.5977V88.8431L81.4426 97.2584V74.013Z" fill="#4E77F7"/>
<path d="M95.5016 88.512V65.9395L81.4426 74.0139V96.5864L95.5016 88.512Z" fill="#E6E6E6"/>
<path d="M95.5016 65.9395V68.5143L81.4426 76.5887V74.0139L95.5016 65.9395Z" fill="#E0E0E0"/>
<path d="M96.0874 88.8437L95.5016 88.5117L81.4426 96.5862V97.259L96.0874 88.8437Z" fill="#37474F"/>
<path d="M89.3542 69.4746L88.7678 69.8066V93.052L89.3542 92.72V69.4746Z" fill="#4E77F7"/>
<path d="M88.7689 69.8066V93.052L88.1736 92.7111V70.1476L88.7689 69.8066Z" fill="#37474F"/>
<path d="M83.2727 138.294V115.084L94.2585 108.777V131.978L83.2727 138.294Z" fill="#37474F"/>
<path d="M93.907 131.718V108.975L83.2727 115.084V137.827L93.907 131.718Z" fill="#4E77F7"/>
<path d="M94.259 108.777L93.9072 108.975V131.718L94.259 131.978V108.777Z" fill="#2D55D0"/>
<path d="M70.4658 103.564L107.073 82.5254L114.391 86.7331L77.7837 107.771L70.4658 103.564Z" fill="#E0E0E0"/>
<path d="M70.4658 103.564V105.673L77.7837 109.88V107.772L70.4658 103.564Z" fill="#EBEBEB"/>
<path d="M77.7864 107.771L114.394 86.7324V88.8408L77.7864 109.879V107.771Z" fill="#F5F5F5"/>
<path d="M78.0452 94.1016V106.608C78.0452 106.631 78.0383 106.654 78.0255 106.673C78.0126 106.692 77.9944 106.707 77.973 106.716C77.9146 106.746 77.8496 106.762 77.7836 106.762C77.7175 106.762 77.6525 106.746 77.5941 106.716C77.5728 106.707 77.5545 106.692 77.5417 106.673C77.5288 106.654 77.522 106.631 77.522 106.608V94.1016H78.0452Z" fill="#37474F"/>
<path d="M81.207 92.2754V104.782C81.2083 104.805 81.202 104.828 81.189 104.848C81.176 104.867 81.1569 104.882 81.1348 104.889C81.0764 104.92 81.0114 104.936 80.9454 104.936C80.8794 104.936 80.8143 104.92 80.7559 104.889C80.7338 104.882 80.7148 104.867 80.7018 104.848C80.6888 104.828 80.6824 104.805 80.6838 104.782V92.2754H81.207Z" fill="#37474F"/>
<path d="M84.3818 90.4668V102.973C84.3818 102.973 84.3818 103.045 84.3006 103.081C84.2411 103.108 84.1765 103.121 84.1112 103.121C84.0459 103.121 83.9813 103.108 83.9218 103.081C83.9026 103.069 83.8861 103.054 83.8736 103.035C83.8612 103.016 83.853 102.995 83.8496 102.973V90.4668H84.3818Z" fill="#37474F"/>
<path d="M87.5437 88.6484V101.155C87.5408 101.178 87.5318 101.201 87.5176 101.219C87.5033 101.238 87.4843 101.253 87.4625 101.262C87.4041 101.293 87.3391 101.309 87.2731 101.309C87.2071 101.309 87.142 101.293 87.0836 101.262C87.0635 101.252 87.0463 101.237 87.0337 101.218C87.0211 101.199 87.0134 101.177 87.0115 101.155V88.6484H87.5437Z" fill="#37474F"/>
<path d="M90.7097 86.8223V99.3287C90.7069 99.3521 90.6979 99.3744 90.6836 99.3933C90.6694 99.4122 90.6504 99.427 90.6285 99.4363C90.5717 99.467 90.5082 99.483 90.4436 99.483C90.379 99.483 90.3155 99.467 90.2587 99.4363C90.2369 99.427 90.2178 99.4122 90.2036 99.3933C90.1893 99.3744 90.1803 99.3521 90.1775 99.3287V86.8223H90.7097Z" fill="#37474F"/>
<path d="M93.8713 85V97.5064C93.8695 97.5302 93.8608 97.5529 93.8465 97.572C93.8321 97.591 93.8125 97.6056 93.7901 97.6141C93.7334 97.6447 93.6698 97.6607 93.6052 97.6607C93.5406 97.6607 93.4771 97.6447 93.4203 97.6141C93.3979 97.6056 93.3784 97.591 93.364 97.572C93.3496 97.5529 93.341 97.5302 93.3391 97.5064V85H93.8713Z" fill="#37474F"/>
<path d="M97.0329 83.1895V95.6959C97.0329 95.6959 97.033 95.7676 96.9518 95.8035C96.8938 95.8301 96.8307 95.8438 96.7668 95.8438C96.703 95.8438 96.6399 95.8301 96.5819 95.8035C96.5278 95.7676 96.5007 95.7317 96.5007 95.6959V83.1895H97.0329Z" fill="#37474F"/>
<path d="M100.195 81.3691V93.8755C100.193 93.8981 100.185 93.9198 100.172 93.9386C100.16 93.9574 100.143 93.9727 100.122 93.9832C100.064 94.0138 99.999 94.0299 99.933 94.0299C99.8669 94.0299 99.8019 94.0138 99.7435 93.9832C99.7217 93.9739 99.7027 93.9591 99.6884 93.9402C99.6742 93.9213 99.6652 93.899 99.6624 93.8755V81.3691H100.195Z" fill="#37474F"/>
<path d="M103.361 79.5488V92.0552C103.36 92.078 103.352 92.1001 103.34 92.119C103.327 92.138 103.309 92.1531 103.288 92.1629C103.23 92.1935 103.165 92.2095 103.099 92.2095C103.033 92.2095 102.968 92.1935 102.91 92.1629C102.887 92.1545 102.868 92.1399 102.853 92.1208C102.839 92.1017 102.83 92.079 102.828 92.0552V79.5488H103.361Z" fill="#37474F"/>
<path d="M106.527 77.7383V90.2447C106.526 90.2675 106.518 90.2895 106.506 90.3085C106.493 90.3274 106.475 90.3426 106.454 90.3523C106.395 90.3791 106.33 90.3929 106.265 90.3929C106.2 90.3929 106.135 90.3791 106.076 90.3523C106.021 90.3165 105.994 90.2806 105.994 90.2447V77.7383H106.527Z" fill="#37474F"/>
<path d="M109.688 75.916V88.4224C109.688 88.4454 109.681 88.468 109.668 88.4871C109.655 88.5063 109.637 88.5212 109.616 88.5301C109.557 88.5607 109.492 88.5767 109.426 88.5767C109.36 88.5767 109.295 88.5607 109.237 88.5301C109.216 88.5212 109.197 88.5063 109.185 88.4871C109.172 88.468 109.165 88.4454 109.165 88.4224V75.916H109.688Z" fill="#37474F"/>
<path d="M112.859 74.0938V86.6002C112.857 86.6239 112.848 86.6466 112.834 86.6657C112.819 86.6848 112.8 86.6994 112.777 86.7078C112.719 86.7385 112.654 86.7545 112.588 86.7545C112.522 86.7545 112.457 86.7385 112.399 86.7078C112.378 86.6981 112.36 86.6829 112.347 86.6639C112.335 86.645 112.327 86.6229 112.326 86.6002V74.0938H112.859Z" fill="#37474F"/>
<path d="M77.7861 94.5523C77.7064 94.5538 77.628 94.532 77.5608 94.4895L71.6758 91.17C71.5787 91.1083 71.509 91.0119 71.481 90.9006C71.453 90.7893 71.469 90.6716 71.5255 90.5716C71.5821 90.4717 71.6749 90.3971 71.785 90.3632C71.8951 90.3293 72.0141 90.3387 72.1174 90.3895L77.7861 93.5834L113.483 73.0653L105.147 68.3462C105.096 68.3168 105.05 68.2775 105.014 68.2307C104.978 68.1839 104.951 68.1304 104.936 68.0733C104.92 68.0163 104.916 67.9567 104.924 67.8981C104.932 67.8395 104.951 67.7829 104.98 67.7317C105.01 67.6804 105.049 67.6355 105.096 67.5994C105.143 67.5633 105.197 67.5368 105.254 67.5214C105.312 67.506 105.372 67.502 105.43 67.5096C105.489 67.5172 105.546 67.5363 105.598 67.5657L114.61 72.6706C114.678 72.7118 114.734 72.7697 114.774 72.8388C114.813 72.9079 114.834 72.9859 114.835 73.0653C114.835 73.1436 114.814 73.2204 114.774 73.2881C114.735 73.3558 114.678 73.4119 114.61 73.4511L78.0024 94.4895C77.9377 94.5303 77.8627 94.5521 77.7861 94.5523Z" fill="#4E77F7"/>
<path d="M67.4646 72.8541L108.38 30.6786V28.5703L67.4646 70.7458V72.8541Z" fill="#2D55D0"/>
<path d="M67.465 72.853L18.5649 44.745V42.6367L67.465 70.7447V72.853Z" fill="#2D55D0"/>
<path d="M59.4802 0.472656L108.38 28.5717L67.465 70.7472L18.5649 42.6392L59.4802 0.472656Z" fill="#4E77F7"/>
<path d="M136.366 90.9414L161.988 105.673L136.366 120.404L110.726 105.673L136.366 90.9414Z" fill="#F0F0F0"/>
<path d="M94.2585 131.979L83.2727 138.295L94.2495 144.602L105.235 138.286L94.2585 131.979Z" fill="#F0F0F0"/>
<path d="M175.156 82.673L172.378 88.1211L172.828 88.3485L175.606 82.9004L175.156 82.673Z" fill="#2A2B2E"/>
<path d="M170.015 82.2512L169.585 82.5156L172.294 86.8713L172.723 86.6069L170.015 82.2512Z" fill="#2A2B2E"/>
<path d="M173.035 81.7637V94.8981C173.029 94.9344 173.015 94.9688 172.993 94.9984C172.971 95.028 172.942 95.0521 172.909 95.0686C172.816 95.1131 172.714 95.1362 172.611 95.1362C172.508 95.1362 172.407 95.1131 172.314 95.0686C172.282 95.0516 172.255 95.0272 172.234 94.9975C172.214 94.9679 172.201 94.9338 172.196 94.8981V81.7637H173.035Z" fill="#2A2B2E"/>
<path d="M183 77.671C183 78.878 182.64 80.0579 181.967 81.0613C181.293 82.0647 180.335 82.8467 179.215 83.3081C178.095 83.7696 176.862 83.8899 175.673 83.6538C174.484 83.4177 173.392 82.8357 172.535 81.9816C171.679 81.1276 171.096 80.0397 170.86 78.8557C170.625 77.6717 170.747 76.4447 171.213 75.3301C171.678 74.2155 172.465 73.2634 173.474 72.5941C174.483 71.9248 175.668 71.5685 176.881 71.5703C177.685 71.5703 178.482 71.7282 179.225 72.0349C179.968 72.3416 180.643 72.7911 181.211 73.3577C181.779 73.9243 182.23 74.5969 182.537 75.337C182.844 76.0771 183.001 76.8703 183 77.671Z" fill="#47B43E"/>
<path opacity="0.2" d="M178.848 76.1125C179.632 73.6364 180.48 72.6675 179.948 72.3624C178.933 71.7903 177.775 71.5184 176.611 71.5785C175.446 71.6387 174.323 72.0284 173.373 72.702C172.423 73.3756 171.686 74.3051 171.248 75.3812C170.81 76.4573 170.69 77.6355 170.901 78.7773C171.113 79.919 171.647 80.977 172.442 81.827C173.236 82.6769 174.258 83.2835 175.387 83.5756C176.515 83.8676 177.705 83.8329 178.814 83.4756C179.924 83.1182 180.908 82.4531 181.651 81.5583C179.795 82.0876 177.776 79.3244 178.848 76.1125Z" fill="#2A2B2E"/>
<path d="M171.526 79.4037C171.526 80.2522 171.274 81.0817 170.8 81.7871C170.326 82.4925 169.653 83.0422 168.865 83.3665C168.077 83.6908 167.211 83.7752 166.375 83.609C165.539 83.4428 164.771 83.0335 164.169 82.4329C163.567 81.8322 163.158 81.0672 162.992 80.2348C162.827 79.4023 162.914 78.5398 163.241 77.7563C163.569 76.9729 164.122 76.3038 164.832 75.8336C165.541 75.3635 166.375 75.1135 167.228 75.1152C167.793 75.1152 168.353 75.2262 168.875 75.4418C169.397 75.6575 169.871 75.9735 170.27 76.3718C170.67 76.7702 170.986 77.243 171.202 77.7632C171.417 78.2835 171.528 78.8409 171.526 79.4037Z" fill="#47B43E"/>
<path opacity="0.2" d="M167.232 75.1153C166.326 75.1119 165.443 75.3946 164.708 75.9227C164.6 78.5424 166.826 81.0903 166.204 81.9516C165.583 82.8129 164.041 82.2836 163.501 81.5569C163.881 82.2038 164.426 82.7398 165.08 83.1114C165.734 83.4829 166.474 83.677 167.227 83.6741C167.98 83.6712 168.719 83.4715 169.37 83.095C170.021 82.7184 170.561 82.1782 170.937 81.5285C171.312 80.8787 171.51 80.1422 171.509 79.3926C171.509 78.643 171.311 77.9067 170.935 77.2573C170.559 76.6079 170.018 76.0682 169.366 75.6923C168.715 75.3164 167.976 75.1174 167.223 75.1153H167.232Z" fill="#2A2B2E"/>
<path d="M172.61 82.6444C176.975 82.6444 180.514 79.1217 180.514 74.7763C180.514 70.4309 176.975 66.9082 172.61 66.9082C168.245 66.9082 164.706 70.4309 164.706 74.7763C164.706 79.1217 168.245 82.6444 172.61 82.6444Z" fill="#47B43E"/>
<path opacity="0.1" d="M180.297 76.5802C179.995 77.8503 179.38 79.0255 178.508 79.9998C177.636 80.9741 176.533 81.7169 175.301 82.161C174.068 82.6052 172.744 82.7367 171.447 82.5438C170.15 82.3508 168.922 81.8395 167.874 81.056C166.826 80.2724 165.99 79.2413 165.442 78.0556C164.894 76.87 164.651 75.5672 164.736 74.2648C164.82 72.9624 165.229 71.7015 165.926 70.5958C166.622 69.4901 167.584 68.5745 168.725 67.9316C168.057 68.3238 167.45 68.8103 166.923 69.3761C166.533 71.0561 166.709 72.817 167.424 74.3874C168.139 75.9579 169.353 77.2507 170.879 78.0668C172.404 78.8828 174.157 79.1767 175.867 78.9032C177.577 78.6297 179.15 77.804 180.342 76.5533L180.297 76.5802Z" fill="#2A2B2E"/>
<path d="M12.2369 106.189L9.45923 111.637L9.90926 111.864L12.6869 106.416L12.2369 106.189Z" fill="#2A2B2E"/>
<path d="M8.33108 104.751L7.9021 105.018L10.6294 109.372L11.0584 109.106L8.33108 104.751Z" fill="#2A2B2E"/>
<path d="M10.1114 105.262V118.414C10.1088 118.451 10.0955 118.487 10.0732 118.518C10.0508 118.548 10.0203 118.571 9.9851 118.585C9.89514 118.633 9.79434 118.659 9.69192 118.659C9.5895 118.659 9.48873 118.633 9.39876 118.585C9.36361 118.571 9.33304 118.548 9.31067 118.518C9.28831 118.487 9.27506 118.451 9.27246 118.414V105.262H10.1114Z" fill="#2A2B2E"/>
<path d="M20.0893 101.171C20.0928 102.377 19.7373 103.556 19.0677 104.561C18.3981 105.566 17.4443 106.351 16.327 106.816C15.2096 107.282 13.9787 107.407 12.7897 107.177C11.6008 106.946 10.5071 106.37 9.64682 105.521C8.78655 104.672 8.19828 103.589 7.9563 102.407C7.71431 101.226 7.82949 99.9994 8.28727 98.883C8.74504 97.7666 9.52487 96.8103 10.5283 96.1348C11.5317 95.4594 12.7137 95.0951 13.925 95.088C14.7312 95.0833 15.5306 95.237 16.2771 95.5403C17.0236 95.8437 17.7026 96.2907 18.2752 96.8558C18.8479 97.4209 19.3029 98.0929 19.6142 98.8333C19.9255 99.5737 20.0869 100.368 20.0893 101.171Z" fill="#47B43E"/>
<path opacity="0.2" d="M15.8776 99.6193C16.6707 97.1431 17.5088 96.1742 16.9771 95.8692C15.9623 95.2958 14.8042 95.0228 13.6388 95.0822C12.4735 95.1416 11.3494 95.531 10.3988 96.2045C9.44809 96.8781 8.71033 97.8078 8.27225 98.8845C7.83417 99.9611 7.71398 101.14 7.92577 102.282C8.13756 103.425 8.67254 104.483 9.46783 105.333C10.2631 106.183 11.2857 106.789 12.4152 107.081C13.5448 107.372 14.7344 107.336 15.8443 106.978C16.9541 106.619 17.9381 105.952 18.6804 105.056C16.869 105.585 14.8232 102.831 15.8776 99.6193Z" fill="#2A2B2E"/>
<path d="M8.61562 102.904C8.61562 103.752 8.36297 104.581 7.88963 105.286C7.41628 105.991 6.74351 106.541 5.95636 106.866C5.16921 107.19 4.30303 107.275 3.4674 107.11C2.63176 106.944 1.8642 106.536 1.26175 105.936C0.659287 105.336 0.248995 104.572 0.0827769 103.74C-0.0834411 102.908 0.0018623 102.046 0.327911 101.263C0.653959 100.479 1.20611 99.8092 1.91453 99.338C2.62294 98.8667 3.4558 98.6152 4.30781 98.6152C5.45031 98.6152 6.54602 99.067 7.3539 99.8713C8.16177 100.676 8.61562 101.766 8.61562 102.904Z" fill="#47B43E"/>
<path opacity="0.2" d="M4.30793 98.6152C3.40562 98.6162 2.52632 98.8985 1.79355 99.4227C1.67639 102.042 3.91141 104.599 3.28055 105.452C2.6497 106.304 1.11763 105.784 0.576904 105.057C0.956428 105.708 1.50128 106.247 2.15673 106.622C2.81218 106.997 3.55515 107.194 4.31103 107.192C5.06692 107.191 5.8091 106.991 6.46303 106.614C7.11696 106.236 7.65961 105.694 8.0365 105.042C8.41339 104.39 8.61125 103.65 8.61018 102.898C8.60912 102.145 8.40918 101.406 8.03045 100.755C7.65172 100.104 7.10751 99.5632 6.45252 99.1877C5.79753 98.8121 5.05482 98.6146 4.29893 98.6152H4.30793Z" fill="#2A2B2E"/>
<path d="M9.69492 106.148C14.06 106.148 17.5986 102.626 17.5986 98.2802C17.5986 93.9348 14.06 90.4121 9.69492 90.4121C5.32984 90.4121 1.79126 93.9348 1.79126 98.2802C1.79126 102.626 5.32984 106.148 9.69492 106.148Z" fill="#47B43E"/>
<path opacity="0.1" d="M17.3847 100.075C17.087 101.35 16.4747 102.531 15.6029 103.511C14.7312 104.491 13.6277 105.238 12.3924 105.687C11.1571 106.135 9.82899 106.269 8.52839 106.077C7.22778 105.886 5.99579 105.374 4.94395 104.589C3.89212 103.803 3.0537 102.769 2.50464 101.58C1.95558 100.391 1.71322 99.0838 1.79952 97.7777C1.88581 96.4717 2.29805 95.2077 2.99886 94.1003C3.69968 92.9928 4.66695 92.0769 5.81305 91.4355C5.12957 91.8209 4.50703 92.3046 3.96557 92.871C3.8286 93.4594 3.75905 94.0613 3.75828 94.6653C3.76069 96.238 4.23699 97.7737 5.12558 99.074C6.01418 100.374 7.27419 101.379 8.74269 101.959C10.2112 102.539 11.8206 102.667 13.3629 102.326C14.9051 101.985 16.3093 101.192 17.3937 100.048L17.3847 100.075Z" fill="#2A2B2E"/>
</svg>
