<svg width="227" height="250" viewBox="0 0 227 250" fill="none" xmlns="http://www.w3.org/2000/svg">
<path d="M86.9607 142.104V181.026H75.8605V142.104C75.8605 127.285 64.5241 115.233 50.5897 115.233C36.6554 115.233 25.319 127.285 25.319 142.104V181.026H14.2188V142.104C14.2188 120.884 30.5384 103.627 50.5897 103.627C70.641 103.627 86.9607 120.884 86.9607 142.104Z" fill="#CBD4EE"/>
<path d="M14.2188 152.225L25.319 152.67V181.065H14.2188V152.225Z" fill="#8D9DCF"/>
<path d="M86.9596 155.186V181.072H75.8594V154.717L86.9596 155.186Z" fill="#8D9DCF"/>
<path d="M101.177 158.883H0V249.999H101.177V158.883Z" fill="#4E77F7"/>
<path opacity="0.1" d="M101.183 158.883H50.5938V249.999H101.183V158.883Z" fill="#2A2B2E"/>
<path d="M54.8627 207.779L59.1139 227.733H41.1173L45.3685 207.779C43.7016 206.759 42.4156 205.226 41.7057 203.414C40.9958 201.602 40.9008 199.609 41.4351 197.738C41.9694 195.868 43.1038 194.221 44.6662 193.049C46.2285 191.877 48.1336 191.242 50.092 191.242C52.0505 191.242 53.9555 191.877 55.5178 193.049C57.0802 194.221 58.2147 195.868 58.749 197.738C59.2833 199.609 59.1883 201.602 58.4784 203.414C57.7685 205.226 56.4825 206.759 54.8155 207.779H54.8627Z" fill="#EDF0FB"/>
<path d="M146.844 103.291C147.022 105.362 146.58 107.439 145.574 109.259C144.569 111.079 143.044 112.561 141.193 113.517C139.342 114.473 137.248 114.861 135.176 114.631C133.104 114.4 131.147 113.563 129.553 112.224C127.959 110.885 126.798 109.104 126.219 107.108C125.64 105.112 125.668 102.989 126.3 101.009C126.931 99.0281 128.137 97.2788 129.766 95.9819C131.395 94.685 133.374 93.8988 135.451 93.7227C136.83 93.6037 138.218 93.7569 139.537 94.1736C140.857 94.5903 142.08 95.2623 143.139 96.1511C144.197 97.0399 145.069 98.1281 145.705 99.3534C146.34 100.579 146.727 101.917 146.844 103.291Z" fill="white"/>
<path d="M146.846 103.289C147.085 106.101 146.225 108.896 144.446 111.092C142.667 113.287 140.106 114.712 137.298 115.071C135.85 115.222 134.386 115.083 132.992 114.664C131.598 114.244 130.302 113.552 129.18 112.628C128.057 111.704 127.13 110.567 126.453 109.282C125.776 107.997 125.362 106.59 125.236 105.144C125.11 103.698 125.275 102.242 125.72 100.86C126.164 99.4779 126.881 98.1981 127.827 97.0951C128.773 95.992 129.931 95.0879 131.231 94.4354C132.532 93.7829 133.95 93.3951 135.402 93.2947C138.235 93.1655 141.009 94.1336 143.142 95.9965C145.275 97.8594 146.602 100.473 146.846 103.289ZM146.846 103.289C146.733 101.933 146.345 100.615 145.706 99.4129C145.067 98.211 144.19 97.1507 143.129 96.2961C142.067 95.4415 140.842 94.8104 139.529 94.4408C138.216 94.0712 136.841 93.9709 135.488 94.146C132.912 94.5103 130.572 95.8371 128.942 97.8573C127.312 99.8776 126.513 102.44 126.708 105.026C126.935 107.616 128.155 110.02 130.115 111.736C132.075 113.452 134.624 114.347 137.23 114.237C138.593 114.178 139.93 113.844 141.16 113.255C142.39 112.667 143.488 111.836 144.386 110.813C145.285 109.789 145.967 108.595 146.389 107.302C146.812 106.009 146.968 104.644 146.846 103.289Z" fill="#CBD4EE"/>
<path d="M124.127 122.651C124.223 123.801 123.976 124.954 123.416 125.964C122.856 126.974 122.009 127.796 120.981 128.326C119.953 128.856 118.79 129.071 117.639 128.943C116.489 128.816 115.402 128.351 114.516 127.608C113.631 126.865 112.986 125.877 112.662 124.769C112.339 123.661 112.353 122.482 112.701 121.382C113.05 120.282 113.717 119.309 114.62 118.586C115.522 117.863 116.619 117.424 117.773 117.322C119.324 117.19 120.864 117.677 122.056 118.676C123.247 119.675 123.992 121.105 124.127 122.651Z" fill="white"/>
<path d="M124.131 122.648C124.277 124.243 123.809 125.834 122.823 127.098C121.837 128.362 120.406 129.206 118.819 129.459C117.572 129.65 116.296 129.465 115.156 128.926C114.015 128.386 113.064 127.518 112.424 126.434C111.785 125.35 111.486 124.099 111.568 122.844C111.649 121.588 112.107 120.386 112.882 119.393C113.656 118.4 114.712 117.662 115.912 117.273C117.113 116.885 118.402 116.865 119.614 117.216C120.826 117.566 121.905 118.272 122.71 119.24C123.515 120.209 124.01 121.396 124.131 122.648ZM124.131 122.648C124.059 121.889 123.83 121.152 123.46 120.484C123.09 119.816 122.586 119.232 121.979 118.766C121.137 118.138 120.131 117.765 119.082 117.694C118.033 117.623 116.986 117.856 116.066 118.365C115.147 118.874 114.395 119.638 113.902 120.563C113.408 121.489 113.193 122.537 113.284 123.581C113.375 124.626 113.767 125.621 114.412 126.449C115.058 127.276 115.93 127.899 116.924 128.243C117.917 128.588 118.989 128.638 120.01 128.388C121.032 128.139 121.959 127.6 122.679 126.836C123.196 126.275 123.592 125.613 123.841 124.892C124.091 124.172 124.19 123.408 124.131 122.648Z" fill="#CBD4EE"/>
<path d="M225.656 54.4434C226.313 59.7799 225.55 65.1948 223.444 70.1445C221.337 75.0942 217.962 79.4045 213.656 82.6425C209.35 85.8806 204.265 87.9325 198.912 88.5923C193.559 89.2521 188.126 88.4965 183.159 86.4015C180.743 89.535 177.636 92.0717 174.077 93.8147C170.519 95.5576 166.606 96.46 162.641 96.4517C158.676 96.4435 154.767 95.5249 151.216 93.7672C147.665 92.0095 144.568 89.4599 142.165 86.3163C141.051 86.6569 139.907 86.8962 138.749 87.0314C134.728 87.5319 130.648 86.8585 127.003 85.0931C123.358 83.3276 120.305 80.5458 118.215 77.0852C116.124 73.6245 115.086 69.6337 115.227 65.5966C115.367 61.5595 116.679 57.6496 119.004 54.3412C114.414 48.5983 112.044 41.4033 112.327 34.0658C112.611 26.7282 115.527 19.7359 120.547 14.3614C125.566 8.98681 132.354 5.58732 139.676 4.78158C146.998 3.97584 154.367 5.81741 160.442 9.97114C163.289 6.42386 167.029 3.69153 171.279 2.05199C175.53 0.412457 180.14 -0.0758054 184.642 0.636848C189.143 1.3495 193.375 3.23764 196.906 6.1093C200.438 8.98096 203.144 12.7337 204.749 16.9859C205.825 16.6224 206.935 16.3713 208.063 16.2368C211.486 15.8173 214.955 16.4532 218.005 18.059C221.054 19.6647 223.537 22.1632 225.118 25.2181C226.7 28.273 227.305 31.7376 226.851 35.1454C226.397 38.5532 224.907 41.7407 222.581 44.2788C224.205 47.4574 225.246 50.8997 225.656 54.4434Z" fill="white"/>
<path d="M225.659 54.4432C226.296 59.7778 225.537 65.1858 223.455 70.1413C222.396 72.6077 221.036 74.935 219.407 77.0709C217.745 79.1712 215.822 81.0533 213.685 82.6725C209.37 85.9378 204.274 88.0218 198.902 88.7177C193.53 89.4136 188.068 88.6972 183.06 86.6396H183.35C180.907 89.8385 177.757 92.4336 174.146 94.2237C170.534 96.0139 166.557 96.9511 162.524 96.9626C158.491 96.9741 154.509 96.0597 150.887 94.2902C147.265 92.5207 144.101 89.9437 141.639 86.7588L142.254 86.9631C140.128 87.6031 137.915 87.9076 135.695 87.8655C133.469 87.8624 131.259 87.4942 129.153 86.7758C124.892 85.3538 121.179 82.6466 118.529 79.0289C117.24 77.2092 116.222 75.2136 115.506 73.1038C114.819 70.9845 114.451 68.7756 114.412 66.5488C114.371 62.0511 115.738 57.6525 118.324 53.9665V54.8518C113.66 48.9621 111.269 41.6016 111.582 34.105C111.895 26.6083 114.893 19.4717 120.032 13.9891C125.183 8.53338 132.105 5.07126 139.572 4.21611C147.022 3.42002 154.512 5.31061 160.684 9.54528L159.932 9.66446C162.858 6.06885 166.691 3.31316 171.037 1.67966C175.383 0.0461499 180.086 -0.40646 184.665 0.368196C189.207 1.12096 193.468 3.05556 197.02 5.97642C200.571 8.89728 203.285 12.7009 204.889 17.0027L204.667 16.9006C208.249 15.7444 212.114 15.7923 215.667 17.0368C218.307 17.9702 220.675 19.541 222.557 21.609C224.44 23.677 225.78 26.1777 226.457 28.8877C227.133 31.5977 227.126 34.4326 226.435 37.1391C225.745 39.8456 224.392 42.3394 222.499 44.3978C224.139 47.5339 225.209 50.9349 225.659 54.4432ZM225.659 54.4432C225.238 50.8792 224.179 47.4192 222.533 44.2275C224.401 42.1771 225.729 39.6967 226.398 37.0088C227.068 34.3208 227.057 31.5093 226.368 28.8262C225.679 26.1432 224.333 23.6725 222.451 21.6357C220.568 19.5989 218.208 18.0597 215.581 17.156C212.084 15.956 208.284 15.956 204.786 17.156H204.615V16.9857C202.986 12.7944 200.276 9.1061 196.758 6.2933C193.261 3.46639 189.067 1.62607 184.614 0.964108C180.189 0.282829 175.661 0.786212 171.496 2.42269C167.33 4.05917 163.675 6.76995 160.906 10.2774L160.599 10.686L160.154 10.3796C154.185 6.41791 146.997 4.70164 139.875 5.53758C132.753 6.37352 126.162 9.70718 121.279 14.9426C116.451 20.1874 113.642 26.9672 113.351 34.0796C113.061 41.192 115.306 48.1772 119.69 53.7962L120.049 54.2559L119.707 54.7497C117.292 58.1534 116.007 62.2263 116.035 66.3955C116.05 68.4702 116.378 70.5307 117.009 72.5079C117.662 74.4774 118.6 76.3415 119.793 78.0414C122.253 81.4295 125.691 83.9894 129.648 85.3797C131.624 86.0796 133.701 86.4535 135.797 86.4864C137.892 86.5638 139.985 86.3052 141.998 85.7202L142.373 85.601L142.63 85.9245C144.973 89.0121 147.986 91.5323 151.443 93.2968C156.714 95.9524 162.748 96.698 168.51 95.4058C174.272 94.1135 179.403 90.864 183.025 86.214L183.145 86.0607H183.316C188.24 88.1834 193.642 88.9646 198.969 88.3244C204.296 87.6842 209.357 85.6457 213.634 82.4171C215.771 80.8117 217.699 78.9472 219.373 76.8666C221.002 74.7704 222.367 72.4832 223.438 70.0562C225.515 65.1294 226.28 59.7513 225.659 54.4432Z" fill="#CBD4EE"/>
<path d="M185.859 53.6079L184.886 58.2561C184.813 58.7266 184.642 59.1767 184.383 59.5772C184.125 59.9778 183.785 60.3199 183.386 60.5814C182.987 60.8429 182.537 61.0181 182.066 61.0956C181.594 61.1731 181.112 61.1512 180.65 61.0313C180.187 60.9361 179.748 60.7507 179.358 60.4859C178.967 60.221 178.633 59.882 178.374 59.488C178.115 59.0941 177.937 58.6532 177.85 58.1905C177.763 57.7278 177.768 57.2525 177.866 56.7918L179.42 49.3514C179.42 49.3514 179.42 49.3514 179.522 49.2322C179.625 49.113 179.522 49.2322 179.522 49.062C179.743 48.1472 180.307 47.3514 181.098 46.8383C181.889 46.3253 182.847 46.1339 183.775 46.3037C185.909 46.7553 188.135 46.3435 189.964 45.1589C191.793 43.9742 193.076 42.1139 193.529 39.987C193.982 37.8602 193.568 35.641 192.38 33.8178C191.192 31.9946 189.325 30.7166 187.192 30.2651C185.796 29.9769 184.349 30.0578 182.995 30.4999C181.64 30.942 180.425 31.7298 179.471 32.785C179.165 33.166 178.784 33.4807 178.351 33.71C177.919 33.9393 177.444 34.0784 176.956 34.1187C176.468 34.159 175.977 34.0997 175.512 33.9444C175.048 33.7891 174.62 33.5411 174.255 33.2155C173.89 32.8899 173.596 32.4936 173.39 32.0507C173.183 31.6078 173.07 31.1277 173.056 30.6397C173.042 30.1517 173.128 29.6659 173.309 29.2122C173.49 28.7584 173.762 28.3462 174.108 28.0006C175.806 26.1097 177.949 24.6689 180.344 23.8076C182.74 22.9464 185.312 22.6916 187.83 23.0663C190.349 23.441 192.734 24.4334 194.773 25.9543C196.811 27.4752 198.439 29.477 199.509 31.78C200.579 34.0829 201.059 36.6148 200.905 39.1482C200.751 41.6817 199.969 44.1374 198.627 46.2947C197.286 48.452 195.428 50.2434 193.22 51.508C191.012 52.7726 188.524 53.4708 185.979 53.5398L185.859 53.6079ZM182.597 69.272L182.324 70.5659C182.237 71.0314 182.056 71.4745 181.793 71.8686C181.53 72.2627 181.189 72.5995 180.792 72.8588C180.394 73.1181 179.948 73.2945 179.481 73.3775C179.013 73.4604 178.533 73.448 178.071 73.3412C177.141 73.1407 176.328 72.5836 175.807 71.7903C175.286 70.997 175.099 70.0312 175.286 69.1017L175.56 67.8077C175.772 66.8895 176.335 66.09 177.129 65.5783C177.923 65.0666 178.885 64.8831 179.813 65.0665C180.74 65.2592 181.553 65.8095 182.074 66.5973C182.596 67.3851 182.784 68.3466 182.597 69.272Z" fill="#4E77F7"/>
<path d="M148.538 44.1569L148.042 39.5258C147.957 39.0549 147.972 38.5714 148.087 38.1068C148.202 37.6423 148.414 37.207 148.709 36.8295C149.004 36.452 149.375 36.1407 149.799 35.9158C150.223 35.691 150.689 35.5577 151.168 35.5246C152.112 35.4138 153.061 35.6791 153.81 36.2626C154.558 36.8461 155.045 37.7007 155.165 38.6404L156.104 46.183C156.104 46.183 156.104 46.183 156.104 46.3362C156.104 46.4895 156.104 46.3362 156.19 46.4724C156.283 47.4099 156.01 48.3471 155.428 49.0891C154.846 49.8312 153.999 50.3209 153.064 50.4565C151.962 50.5491 150.89 50.8625 149.913 51.378C148.935 51.8934 148.072 52.6002 147.375 53.4561C146.678 54.312 146.162 55.2993 145.857 56.3588C145.552 57.4184 145.465 58.5285 145.6 59.6225C145.736 60.7165 146.092 61.7719 146.647 62.7255C147.202 63.679 147.944 64.5112 148.829 65.172C149.714 65.8328 150.724 66.3087 151.798 66.5712C152.872 66.8337 153.988 66.8773 155.079 66.6995C156.493 66.5363 157.839 66.003 158.979 65.1537C160.119 64.3044 161.013 63.1694 161.57 61.864C161.755 61.4225 162.025 61.0219 162.367 60.6855C162.708 60.3492 163.113 60.0838 163.558 59.9048C164.003 59.7258 164.479 59.6367 164.959 59.6427C165.439 59.6488 165.912 59.7499 166.353 59.9401C166.784 60.1269 167.174 60.3969 167.501 60.7345C167.827 61.0721 168.084 61.4707 168.255 61.9074C168.427 62.3441 168.51 62.8103 168.5 63.2791C168.49 63.748 168.387 64.2102 168.197 64.6393C167.188 66.9615 165.618 68.9984 163.627 70.5681C161.635 72.1378 159.285 73.1914 156.785 73.6349C154.286 74.0784 151.715 73.8979 149.303 73.1096C146.89 72.3213 144.711 70.9496 142.96 69.1172C141.209 67.2847 139.941 65.0485 139.268 62.6083C138.595 60.1681 138.54 57.5997 139.106 55.1328C139.671 52.6658 140.842 50.3769 142.511 48.4705C144.181 46.5642 146.298 45.0997 148.674 44.208L148.538 44.1569ZM146.573 28.2885L146.402 26.9775C146.32 26.5079 146.337 26.0262 146.453 25.5637C146.57 25.1012 146.782 24.6681 147.077 24.2925C147.371 23.9169 147.742 23.6072 148.164 23.3835C148.586 23.1597 149.051 23.0268 149.528 22.9934C149.996 22.9339 150.472 22.9676 150.926 23.0923C151.381 23.2171 151.807 23.4305 152.179 23.7202C152.55 24.01 152.861 24.3703 153.092 24.7803C153.323 25.1904 153.47 25.642 153.525 26.1092L153.696 27.4032C153.798 28.3441 153.529 29.2879 152.946 30.0347C152.363 30.7815 151.511 31.2727 150.57 31.4043C150.102 31.4661 149.626 31.4342 149.17 31.3103C148.714 31.1865 148.287 30.9733 147.915 30.6831C147.543 30.393 147.233 30.0318 147.002 29.6206C146.772 29.2094 146.626 28.7566 146.573 28.2885Z" fill="#4E77F7"/>
</svg>
