<svg width="175" height="196" viewBox="0 0 175 196" fill="none" xmlns="http://www.w3.org/2000/svg">
    <path d="M67.0394 111.261V141.485H58.482V111.261C58.482 99.7539 49.7424 90.3954 39.0001 90.3954C28.2578 90.3954 19.5184 99.7539 19.5184 111.261V141.485H10.9609V111.261C10.9609 94.7834 23.5422 81.3828 39.0001 81.3828C54.4581 81.3828 67.0394 94.7834 67.0394 111.261Z" fill="#CBD4EE"/>
    <path d="M10.9609 119.121L19.5184 119.467V141.516H10.9609V119.121Z" fill="#8D9DCF"/>
    <path d="M67.0398 121.419V141.52H58.4824V121.055L67.0398 121.419Z" fill="#8D9DCF"/>
    <path d="M78 124.289H0V195.043H78V124.289Z" fill="#4E77F7"/>
    <path opacity="0.1" d="M78 124.289H39V195.043H78V124.289Z" fill="#2A2B2E"/>
    <path d="M42.2965 162.259L45.5738 177.754H31.6998L34.9772 162.259C33.6921 161.467 32.7007 160.277 32.1534 158.869C31.6061 157.462 31.5329 155.915 31.9448 154.462C32.3567 153.01 33.2312 151.731 34.4357 150.821C35.6402 149.911 37.1088 149.418 38.6186 149.418C40.1284 149.418 41.597 149.911 42.8015 150.821C44.006 151.731 44.8805 153.01 45.2924 154.462C45.7043 155.915 45.6311 157.462 45.0838 158.869C44.5366 160.277 43.5451 161.467 42.2601 162.259H42.2965Z" fill="#EDF0FB"/>
    <path d="M113.21 79.8837C113.347 81.485 113.007 83.0911 112.231 84.4989C111.456 85.9066 110.28 87.0527 108.853 87.7922C107.426 88.5317 105.812 88.8314 104.215 88.6534C102.617 88.4753 101.109 87.8275 99.8798 86.7919C98.6507 85.7563 97.7564 84.3795 97.31 82.8355C96.8635 81.2916 96.885 79.65 97.3718 78.1182C97.8585 76.5865 98.7886 75.2336 100.044 74.2306C101.3 73.2276 102.825 72.6195 104.427 72.4834C105.49 72.3913 106.56 72.5098 107.577 72.8321C108.594 73.1543 109.538 73.6741 110.353 74.3615C111.169 75.0489 111.841 75.8905 112.332 76.8381C112.822 77.7857 113.12 78.8207 113.21 79.8837Z" fill="white"/>
    <path d="M113.209 79.8829C113.393 82.0577 112.73 84.2195 111.358 85.9173C109.987 87.6151 108.013 88.7177 105.848 88.9951C104.732 89.1115 103.603 89.0044 102.529 88.68C101.454 88.3557 100.455 87.8206 99.5891 87.1059C98.7235 86.3913 98.0089 85.5114 97.487 84.5176C96.9651 83.5239 96.6463 82.4361 96.5492 81.3178C96.4522 80.1995 96.5788 79.0731 96.9217 78.0043C97.2646 76.9355 97.817 75.9457 98.5465 75.0926C99.276 74.2395 100.168 73.5402 101.171 73.0356C102.173 72.531 103.267 72.2311 104.386 72.1534C106.57 72.0535 108.708 72.8023 110.353 74.243C111.997 75.6837 113.021 77.7047 113.209 79.8829ZM113.209 79.8829C113.121 78.8345 112.822 77.8148 112.33 76.8852C111.837 75.9557 111.161 75.1356 110.343 74.4747C109.524 73.8137 108.58 73.3256 107.568 73.0398C106.555 72.754 105.495 72.6764 104.452 72.8118C102.467 73.0936 100.663 74.1197 99.4061 75.6821C98.1493 77.2446 97.5336 79.2265 97.6839 81.2261C97.8584 83.2295 98.7992 85.0884 100.31 86.4155C101.821 87.7426 103.786 88.4355 105.795 88.3499C106.846 88.3042 107.877 88.046 108.825 87.5908C109.773 87.1356 110.62 86.4929 111.312 85.7016C112.005 84.9102 112.531 83.9865 112.857 82.9865C113.183 81.9864 113.302 80.9306 113.209 79.8829Z" fill="#CBD4EE"/>
    <path d="M95.6951 94.8568C95.7697 95.7461 95.5792 96.6375 95.1475 97.4186C94.7159 98.1998 94.0626 98.8355 93.2699 99.2456C92.4773 99.6558 91.581 99.8219 90.6941 99.723C89.8071 99.6242 88.9693 99.2648 88.2865 98.6902C87.6036 98.1157 87.1062 97.3517 86.8572 96.4947C86.6081 95.6377 86.6185 94.7262 86.8871 93.8751C87.1556 93.0241 87.6703 92.2716 88.3661 91.7128C89.0619 91.1539 89.9077 90.8138 90.7966 90.7352C91.9926 90.633 93.1802 91.0097 94.0987 91.7824C95.0171 92.5552 95.5913 93.661 95.6951 94.8568Z" fill="white"/>
    <path d="M95.6956 94.8548C95.8079 96.0883 95.4474 97.3185 94.6872 98.2963C93.9269 99.2742 92.8235 99.9267 91.6004 100.122C90.6389 100.27 89.655 100.127 88.776 99.7098C87.8971 99.2927 87.1636 98.6214 86.6704 97.7828C86.1773 96.9441 85.9473 95.9768 86.0102 95.006C86.073 94.0351 86.4259 93.1055 87.023 92.3375C87.6202 91.5694 88.4341 90.9983 89.3595 90.6981C90.2849 90.3979 91.2791 90.3823 92.2134 90.6535C93.1477 90.9247 93.9791 91.4702 94.6 92.2192C95.2208 92.9682 95.6025 93.8864 95.6956 94.8548ZM95.6956 94.8548C95.6395 94.2674 95.4633 93.6978 95.1779 93.1813C94.8925 92.6648 94.504 92.2125 94.0364 91.8525C93.3876 91.3665 92.612 91.0786 91.8032 91.0236C90.9943 90.9686 90.1869 91.1488 89.4782 91.5425C88.7695 91.9362 88.1899 92.5266 87.8093 93.2424C87.4287 93.9582 87.2634 94.7688 87.3332 95.5765C87.4031 96.3841 87.7052 97.1543 88.203 97.7941C88.7009 98.4339 89.3733 98.916 90.139 99.1822C90.9048 99.4483 91.7312 99.4872 92.5185 99.2942C93.3059 99.1011 94.0206 98.6843 94.5763 98.0941C94.9747 97.6595 95.2796 97.1478 95.4721 96.5906C95.6646 96.0334 95.7407 95.4426 95.6956 94.8548Z" fill="#CBD4EE"/>
    <path d="M173.965 42.106C174.472 46.2332 173.883 50.4211 172.26 54.2491C170.636 58.0772 168.034 61.4107 164.714 63.915C161.395 66.4193 157.475 68.0062 153.348 68.5165C149.221 69.0268 145.033 68.4424 141.203 66.8221C139.341 69.2456 136.945 71.2074 134.202 72.5554C131.459 73.9034 128.442 74.6013 125.386 74.5949C122.329 74.5885 119.315 73.8781 116.578 72.5187C113.84 71.1593 111.453 69.1875 109.6 66.7563C108.741 67.0196 107.86 67.2047 106.967 67.3093C103.867 67.6964 100.721 67.1756 97.9111 65.8102C95.1011 64.4448 92.7477 62.2934 91.1363 59.617C89.5248 56.9405 88.7246 53.854 88.8326 50.7318C88.9406 47.6095 89.9522 44.5857 91.7447 42.027C88.2059 37.5854 86.3794 32.0209 86.5976 26.3461C86.8158 20.6713 89.0643 15.2635 92.9339 11.1068C96.8034 6.95021 102.037 4.32107 107.681 3.69791C113.326 3.07476 119.007 4.49901 123.69 7.71148C125.885 4.96804 128.768 2.85488 132.045 1.58687C135.322 0.318868 138.876 -0.0587503 142.346 0.49241C145.816 1.04357 149.079 2.50385 151.801 4.72476C154.524 6.94568 156.61 9.84802 157.847 13.1366C158.677 12.8555 159.533 12.6613 160.402 12.5573C163.041 12.2328 165.716 12.7247 168.067 13.9665C170.417 15.2084 172.331 17.1408 173.551 19.5034C174.77 21.866 175.236 24.5455 174.886 27.1811C174.537 29.8167 173.388 32.2818 171.595 34.2448C172.847 36.7031 173.649 39.3653 173.965 42.106Z" fill="white"/>
    <path d="M173.965 42.1059C174.457 46.2317 173.871 50.4142 172.267 54.2467C171.45 56.1542 170.402 57.9542 169.146 59.6061C167.864 61.2304 166.382 62.686 164.735 63.9383C161.408 66.4637 157.48 68.0754 153.338 68.6136C149.196 69.1518 144.986 68.5977 141.125 67.0064H141.349C139.465 69.4804 137.037 71.4874 134.253 72.8719C131.468 74.2564 128.403 74.9812 125.293 74.9901C122.184 74.999 119.114 74.2918 116.322 72.9233C113.53 71.5548 111.09 69.5617 109.193 67.0986L109.667 67.2566C108.028 67.7516 106.322 67.9871 104.61 67.9545C102.894 67.9521 101.19 67.6674 99.5669 67.1118C96.2817 66.012 93.4195 63.9183 91.3765 61.1204C90.3831 59.713 89.5981 58.1696 89.0458 56.538C88.5165 54.8988 88.2325 53.1905 88.203 51.4683C88.1708 47.9898 89.2249 44.588 91.2185 41.7372V42.422C87.6234 37.8669 85.7795 32.1744 86.0211 26.3765C86.2626 20.5787 88.5737 15.0593 92.5353 10.8191C96.5064 6.59965 101.843 3.92207 107.599 3.2607C113.343 2.64501 119.117 4.10719 123.875 7.38225L123.295 7.47442C125.551 4.6936 128.506 2.56238 131.856 1.29903C135.206 0.035692 138.832 -0.314353 142.363 0.28476C145.864 0.866942 149.149 2.36314 151.887 4.62212C154.624 6.88109 156.717 9.82276 157.953 13.1498L157.782 13.0708C160.544 12.1766 163.523 12.2136 166.262 13.1761C168.298 13.898 170.123 15.1129 171.575 16.7123C173.026 18.3116 174.059 20.2456 174.58 22.3415C175.102 24.4374 175.097 26.6299 174.564 28.7231C174.032 30.8163 172.989 32.745 171.529 34.3369C172.794 36.7623 173.619 39.3927 173.965 42.1059ZM173.965 42.1059C173.641 39.3496 172.825 36.6737 171.556 34.2052C172.996 32.6194 174.019 30.7012 174.535 28.6223C175.052 26.5434 175.044 24.369 174.512 22.294C173.981 20.2189 172.944 18.3081 171.492 16.7329C170.041 15.1577 168.221 13.9672 166.196 13.2683C163.5 12.3403 160.571 12.3403 157.874 13.2683H157.743V13.1366C156.486 9.89512 154.397 7.04259 151.685 4.86719C148.989 2.68088 145.756 1.25759 142.323 0.745633C138.912 0.218738 135.421 0.60805 132.21 1.87369C128.998 3.13933 126.181 5.23582 124.046 7.94847L123.809 8.26449L123.467 8.02747C118.865 4.96356 113.323 3.63621 107.833 4.28272C102.342 4.92923 97.2607 7.50745 93.4965 11.5565C89.7745 15.6128 87.6094 20.8563 87.3852 26.3569C87.161 31.8576 88.8923 37.2598 92.2719 41.6056L92.5484 41.9611L92.2851 42.343C90.4229 44.9754 89.4327 48.1254 89.454 51.3498C89.4655 52.9543 89.7185 54.5479 90.2046 56.0771C90.7083 57.6003 91.4314 59.042 92.3509 60.3566C94.2476 62.9769 96.898 64.9567 99.9488 66.032C101.472 66.5733 103.073 66.8624 104.689 66.8879C106.304 66.9478 107.918 66.7477 109.469 66.2954L109.759 66.2032L109.956 66.4534C111.763 68.8413 114.086 70.7904 116.751 72.1551C120.815 74.2089 125.466 74.7855 129.908 73.7861C134.35 72.7867 138.306 70.2735 141.098 66.6772L141.191 66.5587H141.322C145.119 68.2004 149.283 68.8045 153.39 68.3094C157.496 67.8143 161.398 66.2377 164.695 63.7408C166.343 62.4992 167.829 61.0572 169.12 59.448C170.375 57.8269 171.428 56.058 172.254 54.1809C173.855 50.3705 174.444 46.2112 173.965 42.1059Z" fill="#CBD4EE"/>
    <path d="M143.285 41.4614L142.535 45.0562C142.479 45.4202 142.347 45.7683 142.147 46.078C141.948 46.3878 141.686 46.6524 141.379 46.8546C141.071 47.0569 140.724 47.1924 140.361 47.2523C139.998 47.3122 139.626 47.2953 139.269 47.2026C138.913 47.129 138.574 46.9856 138.273 46.7808C137.972 46.576 137.714 46.3137 137.515 46.0091C137.316 45.7044 137.178 45.3634 137.111 45.0055C137.044 44.6477 137.048 44.2801 137.123 43.9238L138.321 38.1695C138.321 38.1695 138.321 38.1694 138.4 38.0773C138.479 37.9851 138.4 38.0773 138.4 37.9456C138.57 37.2381 139.005 36.6227 139.615 36.2259C140.225 35.8291 140.963 35.6811 141.679 35.8124C143.324 36.1616 145.04 35.8431 146.45 34.927C147.86 34.0108 148.849 32.572 149.198 30.9271C149.547 29.2822 149.229 27.566 148.312 26.1559C147.396 24.7459 145.957 23.7575 144.313 23.4082C143.237 23.1854 142.121 23.248 141.077 23.5899C140.033 23.9318 139.096 24.541 138.361 25.3571C138.125 25.6518 137.831 25.8952 137.497 26.0725C137.164 26.2499 136.798 26.3574 136.422 26.3886C136.045 26.4197 135.667 26.3739 135.309 26.2538C134.951 26.1337 134.621 25.9419 134.34 25.6901C134.058 25.4383 133.831 25.1317 133.672 24.7892C133.513 24.4467 133.426 24.0754 133.415 23.698C133.405 23.3205 133.471 22.9449 133.61 22.5939C133.75 22.243 133.959 21.9242 134.226 21.6569C135.535 20.1945 137.187 19.0802 139.034 18.4141C140.88 17.748 142.863 17.551 144.805 17.8408C146.746 18.1306 148.585 18.8981 150.157 20.0743C151.728 21.2506 152.983 22.7988 153.808 24.5798C154.633 26.3609 155.003 28.319 154.885 30.2784C154.766 32.2378 154.163 34.137 153.128 35.8054C152.094 37.4739 150.662 38.8594 148.96 39.8374C147.258 40.8154 145.34 41.3554 143.378 41.4087L143.285 41.4614ZM140.77 53.5759L140.56 54.5766C140.493 54.9366 140.353 55.2793 140.151 55.5841C139.948 55.8888 139.685 56.1493 139.379 56.3499C139.072 56.5504 138.728 56.6869 138.368 56.751C138.007 56.8151 137.638 56.8056 137.281 56.723C136.564 56.5679 135.937 56.137 135.536 55.5235C135.134 54.91 134.99 54.1631 135.135 53.4442L135.345 52.4434C135.509 51.7333 135.943 51.1149 136.555 50.7192C137.167 50.3235 137.909 50.1815 138.624 50.3234C139.339 50.4724 139.965 50.898 140.367 51.5073C140.77 52.1166 140.914 52.8602 140.77 53.5759Z" fill="#4E77F7"/>
    <path d="M114.513 34.1515L114.131 30.5698C114.065 30.2056 114.077 29.8317 114.166 29.4724C114.254 29.1131 114.418 28.7765 114.645 28.4845C114.872 28.1926 115.159 27.9518 115.485 27.7779C115.812 27.604 116.172 27.5009 116.541 27.4754C117.268 27.3897 118 27.5948 118.577 28.0461C119.154 28.4974 119.53 29.1583 119.622 29.8851L120.346 35.7185C120.346 35.7185 120.346 35.7185 120.346 35.837C120.346 35.9555 120.346 35.837 120.412 35.9423C120.484 36.6673 120.274 37.3921 119.825 37.966C119.376 38.5399 118.723 38.9187 118.002 39.0236C117.153 39.0952 116.327 39.3376 115.573 39.7362C114.819 40.1348 114.154 40.6815 113.617 41.3434C113.079 42.0053 112.681 42.7689 112.446 43.5884C112.211 44.4079 112.144 45.2664 112.249 46.1125C112.353 46.9585 112.628 47.7748 113.055 48.5123C113.483 49.2498 114.055 49.8933 114.738 50.4044C115.42 50.9155 116.198 51.2835 117.026 51.4865C117.854 51.6895 118.715 51.7233 119.556 51.5858C120.646 51.4596 121.683 51.0471 122.562 50.3902C123.441 49.7334 124.13 48.8556 124.56 47.8461C124.702 47.5046 124.911 47.1948 125.174 46.9346C125.437 46.6745 125.749 46.4692 126.092 46.3308C126.435 46.1923 126.802 46.1234 127.172 46.1281C127.542 46.1328 127.908 46.211 128.247 46.3581C128.58 46.5026 128.881 46.7113 129.132 46.9725C129.384 47.2336 129.582 47.5419 129.714 47.8796C129.846 48.2173 129.91 48.5779 129.902 48.9405C129.895 49.3031 129.815 49.6606 129.669 49.9924C128.891 51.7884 127.681 53.3637 126.145 54.5777C124.61 55.7917 122.798 56.6066 120.871 56.9496C118.944 57.2925 116.962 57.153 115.103 56.5433C113.243 55.9336 111.563 54.8728 110.213 53.4556C108.863 52.0384 107.885 50.3089 107.367 48.4217C106.848 46.5344 106.805 44.5481 107.242 42.6401C107.678 40.7322 108.58 38.962 109.867 37.4876C111.154 36.0133 112.787 34.8807 114.618 34.191L114.513 34.1515ZM112.999 21.879L112.867 20.8651C112.803 20.5019 112.817 20.1293 112.906 19.7716C112.996 19.4139 113.159 19.079 113.387 18.7885C113.614 18.4981 113.899 18.2585 114.225 18.0855C114.55 17.9124 114.909 17.8096 115.277 17.7838C115.637 17.7378 116.004 17.7638 116.355 17.8603C116.705 17.9568 117.033 18.1219 117.32 18.3459C117.606 18.57 117.846 18.8487 118.024 19.1658C118.202 19.4829 118.316 19.8322 118.358 20.1935L118.49 21.1943C118.569 21.922 118.361 22.652 117.911 23.2295C117.462 23.8071 116.805 24.187 116.08 24.2887C115.719 24.3365 115.352 24.3118 115 24.2161C114.649 24.1203 114.32 23.9554 114.033 23.731C113.746 23.5066 113.507 23.2272 113.329 22.9092C113.152 22.5912 113.039 22.241 112.999 21.879Z" fill="#4E77F7"/>
</svg>
