<svg width="78" height="114" viewBox="0 0 78 114" fill="none" xmlns="http://www.w3.org/2000/svg">
    <path d="M67.0403 29.8781V32.1022H58.4829V29.8781C58.4829 18.3711 49.7434 9.0126 39.0011 9.0126C28.2588 9.0126 19.5194 18.3711 19.5194 29.8781V60.1022H10.9619V29.8781C10.9619 13.4005 23.5431 0 39.0011 0C54.4591 0 67.0403 13.4005 67.0403 29.8781Z" fill="#CBD4EE"/>
    <path d="M10.9619 37.7383L19.5194 38.0842V60.1332H10.9619V37.7383Z" fill="#8D9DCF"/>
    <path d="M78 42.9062H0V113.66H78V42.9062Z" fill="#4E77F7"/>
    <path opacity="0.1" d="M78 42.9062H39V113.66H78V42.9062Z" fill="#2A2B2E"/>
    <path d="M42.2965 80.8765L45.5738 96.3709H31.6998L34.9772 80.8765C33.6921 80.0839 32.7007 78.8938 32.1534 77.4866C31.6061 76.0795 31.5329 74.5322 31.9448 73.0796C32.3567 71.6271 33.2312 70.3486 34.4357 69.4382C35.6402 68.5277 37.1088 68.0352 38.6186 68.0352C40.1284 68.0352 41.597 68.5277 42.8015 69.4382C44.006 70.3486 44.8805 71.6271 45.2924 73.0796C45.7043 74.5322 45.6311 76.0795 45.0838 77.4866C44.5366 78.8938 43.5451 80.0839 42.2601 80.8765H42.2965Z" fill="#EDF0FB"/>
</svg>
