<svg width="118" height="170" viewBox="0 0 118 170" fill="none" xmlns="http://www.w3.org/2000/svg">
<path d="M101.415 44.6882V48.0148H88.4689V44.6882C88.4689 27.4774 75.2476 13.48 58.9964 13.48C42.7452 13.48 29.524 27.4774 29.524 44.6882V89.8939H16.5781V44.6882C16.5781 20.043 35.6112 0 58.9964 0C82.3815 0 101.415 20.043 101.415 44.6882Z" fill="#CBD4EE"/>
<path d="M16.5781 56.4453L29.524 56.9627V89.9411H16.5781V56.4453Z" fill="#8D9DCF"/>
<path d="M118 64.1738H0V169.999H118V64.1738Z" fill="#4E77F7"/>
<path opacity="0.1" d="M118 64.1738H59V169.999H118V64.1738Z" fill="#2A2B2E"/>
<path d="M63.988 120.966L68.946 144.141H47.9572L52.9152 120.966C50.9711 119.781 49.4713 118.001 48.6433 115.896C47.8154 113.791 47.7047 111.477 48.3278 109.305C48.9509 107.132 50.2739 105.22 52.0961 103.858C53.9182 102.497 56.14 101.76 58.4241 101.76C60.7082 101.76 62.9299 102.497 64.752 103.858C66.5742 105.22 67.8972 107.132 68.5204 109.305C69.1435 111.477 69.0327 113.791 68.2048 115.896C67.3769 118.001 65.877 119.781 63.9329 120.966H63.988Z" fill="#EDF0FB"/>
</svg>
