<svg width="129" height="110" viewBox="0 0 129 110" fill="none" xmlns="http://www.w3.org/2000/svg">
    <path d="M60.1664 60C51.2546 60 44 67.1077 44 75.8391C44 76.8332 44.093 77.8356 44.2875 78.8131C44.2959 78.8711 44.3298 79.0451 44.3974 79.3433C44.6426 80.4119 45.0062 81.464 45.4797 82.4664C47.2214 86.4842 51.0517 92.6558 59.4562 99.2665C59.6676 99.4321 59.9212 99.515 60.1749 99.515C60.4285 99.515 60.6822 99.4321 60.8936 99.2665C69.2896 92.6558 73.1283 86.4842 74.8701 82.4664C75.3436 81.464 75.7071 80.4202 75.9523 79.3433C76.02 79.0451 76.0538 78.8711 76.0623 78.8131C76.2483 77.8356 76.3497 76.8332 76.3497 75.8391C76.3328 67.1077 69.0782 60 60.1664 60ZM73.7963 78.4238C73.7963 78.4403 73.7878 78.4569 73.7878 78.4735C73.7793 78.5149 73.754 78.6391 73.7117 78.8297C73.7117 78.838 73.7117 78.838 73.7117 78.8462C73.5003 79.7741 73.1875 80.677 72.7732 81.5469C72.7647 81.5551 72.7647 81.5717 72.7563 81.58C71.1751 85.2498 67.7085 90.8499 60.1664 96.9552C52.6243 90.8499 49.1577 85.2498 47.5766 81.58C47.5681 81.5717 47.5681 81.5551 47.5597 81.5469C47.1538 80.6853 46.841 79.7741 46.6211 78.8462C46.6211 78.838 46.6211 78.838 46.6211 78.8297C46.5704 78.6391 46.5535 78.5149 46.545 78.4735C46.545 78.4569 46.5366 78.4403 46.5366 78.4155C46.3675 77.5622 46.2829 76.7007 46.2829 75.8308C46.2829 68.3338 52.5144 62.2284 60.1664 62.2284C67.8184 62.2284 74.0499 68.3338 74.0499 75.8308C74.0499 76.709 73.9654 77.5788 73.7963 78.4238Z" fill="#4E77F7"/>
    <path d="M73.7963 78.4238C73.7963 78.4403 73.7878 78.4569 73.7878 78.4735C73.7793 78.5149 73.754 78.6391 73.7117 78.8297V78.8462C73.5003 79.7741 73.1875 80.677 72.7732 81.5469C72.7647 81.5551 72.7647 81.5717 72.7563 81.58C71.1751 85.2498 67.7085 90.8499 60.1664 96.9552C52.6243 90.8499 49.1577 85.2498 47.5766 81.58C47.5681 81.5717 47.5681 81.5551 47.5597 81.5469C47.1538 80.6853 46.841 79.7741 46.6211 78.8462V78.8297C46.5704 78.6391 46.5535 78.5149 46.545 78.4735C46.545 78.4569 46.5366 78.4403 46.5366 78.4155C46.3675 77.5622 46.2829 76.7007 46.2829 75.8308C46.2829 68.3338 52.5144 62.2284 60.1664 62.2284C67.8184 62.2284 74.0499 68.3338 74.0499 75.8308C74.0499 76.709 73.9654 77.5788 73.7963 78.4238Z" fill="#4E77F7"/>
    <path d="M60.6544 82.4715C59.6358 82.4715 58.7289 82.2946 57.9335 81.9406C57.1382 81.5866 56.5103 81.1053 56.0498 80.4965C55.5893 79.8735 55.3312 79.1797 55.2754 78.4152H58.8126C58.8544 78.8258 59.0428 79.1585 59.3777 79.4133C59.7126 79.6682 60.1242 79.7956 60.6126 79.7956C61.0591 79.7956 61.401 79.7107 61.6382 79.5408C61.8893 79.3567 62.0149 79.1231 62.0149 78.8399C62.0149 78.5001 61.8405 78.2524 61.4917 78.0966C61.1428 77.9267 60.5777 77.7427 59.7963 77.5445C58.9591 77.3462 58.2614 77.1409 57.7033 76.9286C57.1452 76.702 56.6638 76.3552 56.2591 75.8879C55.8545 75.4066 55.6521 74.7624 55.6521 73.9553C55.6521 73.2757 55.8335 72.6598 56.1963 72.1077C56.5731 71.5413 57.1172 71.0954 57.8289 70.7697C58.5545 70.4441 59.4126 70.2812 60.4033 70.2812C61.8684 70.2812 63.0196 70.6494 63.8568 71.3856C64.7079 72.1218 65.1963 73.0988 65.3219 74.3164H62.0149C61.9591 73.9058 61.7777 73.5801 61.4707 73.3394C61.1777 73.0988 60.787 72.9784 60.2986 72.9784C59.88 72.9784 59.5591 73.0634 59.3358 73.2333C59.1126 73.389 59.001 73.6084 59.001 73.8916C59.001 74.2314 59.1754 74.4863 59.5242 74.6562C59.887 74.8261 60.4451 74.996 61.1986 75.1659C62.0637 75.3924 62.7684 75.6189 63.3126 75.8455C63.8568 76.0578 64.3312 76.4118 64.7358 76.9073C65.1544 77.3887 65.3707 78.04 65.3847 78.8612C65.3847 79.5549 65.1893 80.1779 64.7986 80.7301C64.4219 81.2681 63.8707 81.6928 63.1451 82.0043C62.4335 82.3158 61.6033 82.4715 60.6544 82.4715Z" fill="#F3F94E"/>
    <ellipse cx="60.3652" cy="106" rx="9.5" ry="1" fill="#CBD4EE"/>
    <path d="M28.9728 109.602L16 40.0999C16 40.0999 28.7692 48.6997 42 40.0999C55.2308 31.5 46.3837 8.60156 46.3837 8.60156L129 109.602H28.9728Z" fill="url(#paint0_linear_2986_64312)"/>
    <path opacity="0.5" d="M40.8323 34.0069C43.171 31.6684 44.7638 28.6889 45.4091 25.4452C46.0544 22.2015 45.7233 18.8392 44.4577 15.7837C43.192 12.7282 41.0487 10.1166 38.2987 8.27911C35.5487 6.44167 32.3156 5.46094 29.0082 5.46094C25.7009 5.46094 22.4677 6.44167 19.7178 8.27911C16.9678 10.1166 14.8245 12.7282 13.5588 15.7837C12.2932 18.8392 11.9621 22.2015 12.6074 25.4452C13.2527 28.6889 14.8455 31.6684 17.1842 34.0069C18.7368 35.5599 20.5802 36.7918 22.6089 37.6323C24.6377 38.4728 26.8122 38.9054 29.0082 38.9054C31.2043 38.9054 33.3788 38.4728 35.4076 37.6323C37.4363 36.7918 39.2797 35.5599 40.8323 34.0069Z" fill="white"/>
    <path d="M0.060112 47.5189C0.12883 47.1619 0.284538 46.8273 0.513439 46.5447C0.973869 46.0541 1.46452 45.5937 1.94807 45.1226C2.43161 44.6515 2.92582 44.1981 3.42714 43.7484C3.92846 43.2986 4.43333 42.8506 4.94176 42.4097C5.9693 41.5333 7.02172 40.6818 8.11147 39.8694C8.60923 39.5014 9.11411 39.1387 9.62788 38.7867C9.50698 38.4571 9.48274 38.0997 9.55801 37.7568C9.63327 37.4138 9.80492 37.0995 10.0527 36.8508L10.8012 36.1023C10.9321 35.9711 11.0819 35.8603 11.2456 35.7735C7.81674 31.286 6.22181 25.6629 6.78394 20.0434C7.34608 14.4239 10.0232 9.22824 14.2731 5.50888C18.5229 1.78953 24.0276 -0.175351 29.672 0.0123027C35.3164 0.199957 40.6785 2.52611 44.6719 6.51952C48.6653 10.5129 50.9914 15.875 51.1791 21.5194C51.3668 27.1638 49.4019 32.6685 45.6825 36.9183C41.9632 41.1682 36.7675 43.8453 31.148 44.4075C25.5285 44.9696 19.9054 43.3747 15.4179 39.9458C15.3316 40.1094 15.2214 40.2592 15.0908 40.3902L14.3424 41.1387C14.0942 41.3872 13.7798 41.5594 13.4367 41.6347C13.0935 41.71 12.736 41.6853 12.4065 41.5635C12.0509 42.0791 11.6954 42.5822 11.3221 43.0799C10.5096 44.1715 9.65987 45.2132 8.78345 46.2496C8.3408 46.7598 7.89458 47.2701 7.44482 47.766C6.99505 48.262 6.53462 48.758 6.06885 49.2451C5.60308 49.7322 5.14088 50.2193 4.64667 50.678C4.36448 50.9078 4.02979 51.0641 3.67247 51.1331C3.18029 51.226 2.67345 51.2066 2.18984 51.0762C1.68692 50.9531 1.22739 50.6945 0.861279 50.3284C0.495167 49.9622 0.236507 49.5027 0.113449 48.9998C-0.0156975 48.5165 -0.0339394 48.0103 0.060112 47.5189ZM43.6039 36.9308C46.5063 34.0297 48.4831 30.3332 49.2844 26.3085C50.0857 22.2839 49.6754 18.1121 48.1055 14.3206C46.5355 10.5292 43.8765 7.28851 40.4646 5.00847C37.0527 2.72842 33.0412 1.51144 28.9376 1.51144C24.834 1.51144 20.8226 2.72842 17.4107 5.00847C13.9988 7.28851 11.3397 10.5292 9.76974 14.3206C8.1998 18.1121 7.78953 22.2839 8.59081 26.3085C9.39209 30.3332 11.3689 34.0297 14.2713 36.9308C18.1617 40.8193 23.4371 43.0037 28.9376 43.0037C34.4381 43.0037 39.7135 40.8193 43.6039 36.9308Z" fill="#4E77F7"/>
    <path opacity="0.3" d="M12.4062 41.5659L9.62765 38.7891C9.62765 38.7891 10.3654 40.9046 12.4062 41.5659Z" fill="black"/>
    <path d="M8.13346 13.1048C8.39834 12.4986 8.69345 11.8977 9.00988 11.3271L8.84277 11.2364C8.52456 11.8177 8.22768 12.424 7.95391 13.0355L8.13346 13.1048ZM9.77253 10.0169C10.6571 8.63162 11.6895 7.34649 12.8516 6.18411L12.7165 6.05078C11.5447 7.22266 10.5039 8.51855 9.61253 9.91557L9.77253 10.0169Z" fill="#4E77F7"/>
    <rect x="8.5" y="2.10156" width="41" height="40" rx="20" stroke="#4E77F7" stroke-width="3"/>
    <defs>
        <linearGradient id="paint0_linear_2986_64312" x1="33.4109" y1="22.9812" x2="56.0639" y2="107.857" gradientUnits="userSpaceOnUse">
            <stop stop-color="#E7ECFF"/>
            <stop offset="1" stop-color="#E7ECFF" stop-opacity="0"/>
        </linearGradient>
    </defs>
</svg>
