<svg width="200" height="209" viewBox="0 0 200 209" fill="none" xmlns="http://www.w3.org/2000/svg">
<path d="M1.47391 77.3312L194.614 75.9121L199.994 208.995L0 207.12L1.47391 77.3312Z" fill="#4E77F7"/>
<path d="M1.46875 77.3296L92.8843 2.36449C94.7626 0.826064 97.1067 -0.00899736 99.5216 7.31209e-05C101.937 0.0091436 104.274 0.861789 106.141 2.41428L194.617 75.9105" fill="#4E77F7"/>
<g opacity="0.3">
<path opacity="0.3" d="M1.4707 77.3296L92.8863 2.36449C94.7645 0.826064 97.1087 -0.00899736 99.5236 7.31209e-05C101.938 0.0091436 104.276 0.861789 106.143 2.41428L194.619 75.9105" fill="#2A2B2E"/>
</g>
<path d="M0.00269938 207.122C-0.234765 206.89 15.225 189.777 34.5415 168.905C53.8579 148.033 69.7025 131.294 69.9482 131.518C70.1938 131.742 54.7259 148.855 35.4094 169.735C16.0929 190.615 0.248352 207.346 0.00269938 207.122Z" fill="#2A2B2E"/>
<path d="M199.996 208.998C199.75 209.222 184.691 192.458 166.366 171.561C148.04 150.664 133.383 133.535 133.612 133.311C133.841 133.087 148.916 149.851 167.242 170.756C185.568 191.661 200.258 208.774 199.996 208.998Z" fill="#2A2B2E"/>
<g opacity="0.5">
<path opacity="0.5" d="M194.619 75.9141L97.627 154.439L1.47852 77.3332" fill="#2A2B2E"/>
</g>
<path d="M11.1991 84.6034L10.9043 23.4727L180.02 21.4395L181.928 85.7652L97.6197 153.411L11.1991 84.6034Z" fill="white"/>
<path d="M11.1966 84.5979C11.1966 84.5979 11.7452 85.0129 12.7851 85.8345L17.3707 89.4529L34.853 103.287L97.7482 153.264H97.5353L181.819 85.5938L181.737 85.7681C181.377 73.5021 180.992 60.622 180.599 47.5262C180.345 38.7043 180.083 29.9903 179.829 21.4423L180.042 21.6498L10.9264 23.6001L11.0574 23.4673C11.1229 42.6961 11.1802 57.9747 11.213 68.448C11.213 73.6847 11.213 77.718 11.213 80.4484V83.544C11.213 84.2411 11.213 84.5979 11.213 84.5979C11.213 84.5979 11.213 84.2494 11.213 83.5606C11.213 82.8717 11.213 81.8344 11.213 80.4816C11.213 77.7512 11.1557 73.7262 11.1147 68.4978C11.0492 58.0078 10.951 42.721 10.8281 23.4673V23.3262H10.9591L180.083 21.2266H180.288V21.4423C180.541 29.982 180.795 38.696 181.057 47.5179C181.45 60.622 181.827 73.4938 182.195 85.7681V85.876L182.114 85.9424L97.7728 153.555L97.6664 153.638L97.5599 153.555L34.7056 103.412L17.3297 89.511L12.7442 85.8594C11.7125 85.0295 11.1966 84.5979 11.1966 84.5979Z" fill="#2A2B2E"/>
<path d="M153.29 52.2217C153.29 52.3378 127.423 52.5951 95.5291 52.786C63.6352 52.9769 37.7598 53.0516 37.7598 52.9271C37.7598 52.8026 63.6188 52.5536 95.5291 52.3544C127.439 52.1553 153.29 52.0972 153.29 52.2217Z" fill="#2A2B2E"/>
<path d="M153.29 69.4891C153.29 69.6136 127.423 69.8708 95.5291 70.0617C63.6352 70.2526 37.7598 70.319 37.7598 70.2028C37.7598 70.0866 63.6188 69.8293 95.5291 69.6302C127.439 69.431 153.29 69.3729 153.29 69.4891Z" fill="#2A2B2E"/>
<path d="M153.29 89.3991C153.29 89.5152 127.423 89.7725 95.5291 89.9717C63.6352 90.1709 37.7598 90.2289 37.7598 90.1045C37.7598 89.98 63.6188 89.731 95.5291 89.5401C127.439 89.3493 153.29 89.2746 153.29 89.3991Z" fill="#2A2B2E"/>
<path d="M153.289 109.293C153.289 109.417 128.617 109.658 98.1807 109.849C67.7444 110.04 43.0726 110.089 43.0645 109.973C43.0563 109.857 67.7362 109.608 98.1807 109.417C128.625 109.226 153.289 109.176 153.289 109.293Z" fill="#2A2B2E"/>
<path d="M131.655 126.766C131.433 126.804 131.208 126.821 130.983 126.816L129.035 126.874L121.894 126.99L98.3198 127.33C89.116 127.488 80.772 127.538 74.7372 127.546H67.5968H65.648C65.4234 127.55 65.1989 127.536 64.9766 127.505C65.1983 127.467 65.4231 127.45 65.648 127.455L67.5968 127.405L74.7372 127.281L98.3116 126.94C107.515 126.783 115.859 126.733 121.886 126.725H129.035H130.983C131.208 126.724 131.432 126.738 131.655 126.766Z" fill="#2A2B2E"/>
<path d="M109.884 143.56C109.884 143.676 104.373 143.775 97.601 143.775C90.8292 143.775 85.3184 143.676 85.3184 143.56C85.3184 143.443 90.8374 143.344 97.601 143.344C104.365 143.344 109.884 143.435 109.884 143.56Z" fill="#2A2B2E"/>
<path d="M166.813 130.004C178.096 130.004 187.243 120.734 187.243 109.298C187.243 97.8622 178.096 88.5918 166.813 88.5918C155.53 88.5918 146.383 97.8622 146.383 109.298C146.383 120.734 155.53 130.004 166.813 130.004Z" fill="#2A2B2E"/>
<path d="M166.397 130.008C177.68 130.008 186.827 120.737 186.827 109.302C186.827 97.8661 177.68 88.5957 166.397 88.5957C155.114 88.5957 145.967 97.8661 145.967 109.302C145.967 120.737 155.114 130.008 166.397 130.008Z" fill="#2A2B2E"/>
<path d="M168.989 99.6601V116.872H165.853V102.308H162.258V99.627L168.989 99.6601Z" fill="white"/>
</svg>
