<svg width="127" height="132" viewBox="0 0 164 164" fill="none" xmlns="http://www.w3.org/2000/svg">
    <path d="M1.20328 62.2916L158.881 61.1484L163.273 168.348L0 166.837L1.20328 62.2916Z" fill="#4E77F7"/>
    <path d="M1.2002 62.2896L75.8308 1.90462C77.3641 0.665401 79.2779 -0.00724745 81.2494 5.88995e-05C83.2209 0.00736524 85.1296 0.694178 86.6537 1.94472L158.884 61.1465" fill="#4E77F7"/>
    <g opacity="0.3">
        <path opacity="0.3" d="M1.2002 62.2896L75.8308 1.90462C77.3641 0.665401 79.2779 -0.00724745 81.2494 5.88995e-05C83.2209 0.00736524 85.1296 0.694178 86.6537 1.94472L158.884 61.1465" fill="#2A2B2E"/>
    </g>
    <path d="M0.00220374 166.839C-0.191659 166.652 12.4295 152.868 28.1992 136.055C43.969 119.242 56.9043 105.759 57.1049 105.939C57.3054 106.12 44.6776 119.904 28.9078 136.723C13.1381 153.543 0.202752 167.02 0.00220374 166.839Z" fill="#263238"/>
    <path d="M163.275 168.347C163.074 168.528 150.781 155.024 135.82 138.192C120.859 121.359 108.893 107.561 109.08 107.381C109.267 107.2 121.574 120.704 136.535 137.543C151.496 154.382 163.489 168.167 163.275 168.347Z" fill="#263238"/>
    <g opacity="0.5">
        <path opacity="0.5" d="M158.885 61.1484L79.7015 124.401L1.20703 62.2916" fill="#2A2B2E"/>
    </g>
    <path d="M9.14299 68.1485L8.90234 18.9073L146.966 17.2695L148.524 69.0844L79.6958 123.573L9.14299 68.1485Z" fill="#FAFAFA"/>
    <path d="M9.14065 68.1438C9.14065 68.1438 9.58855 68.478 10.4375 69.1398L14.1811 72.0545L28.4534 83.1982L79.8004 123.455H79.6266L148.435 68.946L148.368 69.0864C148.074 59.206 147.759 48.831 147.439 38.2822C147.231 31.1761 147.017 24.1569 146.81 17.2715L146.984 17.4386L8.92006 19.0095L9.02702 18.9026C9.0805 34.3916 9.1273 46.6985 9.15404 55.1349C9.15404 59.3531 9.15404 62.602 9.15404 64.8013V67.2948C9.15404 67.8563 9.15404 68.1438 9.15404 68.1438C9.15404 68.1438 9.15404 67.863 9.15404 67.3082C9.15404 66.7533 9.15404 65.9177 9.15404 64.8281C9.15404 62.6287 9.10725 59.3865 9.07382 55.175C9.02034 46.7253 8.94012 34.4116 8.83984 18.9026V18.7889H8.94681L147.017 17.0977H147.185V17.2715C147.392 24.1503 147.599 31.1694 147.813 38.2755C148.134 48.831 148.441 59.1994 148.742 69.0864V69.1733L148.675 69.2267L79.8205 123.689L79.7335 123.756L79.6466 123.689L28.3331 83.2985L14.1477 72.1013L10.4041 69.1599C9.56181 68.4914 9.14065 68.1438 9.14065 68.1438Z" fill="#263238"/>
    <path d="M125.146 42.0644C125.146 42.158 104.028 42.3652 77.9903 42.519C51.9525 42.6727 30.8281 42.7329 30.8281 42.6326C30.8281 42.5324 51.9392 42.3318 77.9903 42.1714C104.042 42.0109 125.146 41.9641 125.146 42.0644Z" fill="#263238"/>
    <path d="M125.146 55.9736C125.146 56.0739 104.028 56.2811 77.9903 56.4349C51.9525 56.5886 30.8281 56.6421 30.8281 56.5485C30.8281 56.4549 51.9392 56.2477 77.9903 56.0873C104.042 55.9268 125.146 55.88 125.146 55.9736Z" fill="#263238"/>
    <path d="M125.146 72.0102C125.146 72.1038 104.028 72.311 77.9903 72.4715C51.9525 72.6319 30.8281 72.6787 30.8281 72.5784C30.8281 72.4781 51.9392 72.2776 77.9903 72.1239C104.042 71.9701 125.146 71.9099 125.146 72.0102Z" fill="#263238"/>
    <path d="M125.143 88.0383C125.143 88.1386 105.001 88.3325 80.1535 88.4862C55.3056 88.64 35.1639 88.6801 35.1572 88.5865C35.1505 88.4929 55.2989 88.2924 80.1535 88.1386C105.008 87.9848 125.143 87.9447 125.143 88.0383Z" fill="#263238"/>
    <path d="M107.482 102.112C107.301 102.142 107.118 102.156 106.934 102.152L105.343 102.198L99.5138 102.292L80.2679 102.566C72.7541 102.693 65.9421 102.733 61.0153 102.74H55.186H53.595C53.4117 102.743 53.2284 102.732 53.0469 102.706C53.2279 102.676 53.4114 102.662 53.595 102.666L55.186 102.626L61.0153 102.526L80.2612 102.252C87.7751 102.125 94.587 102.085 99.5071 102.078H105.343H106.934C107.117 102.078 107.3 102.089 107.482 102.112Z" fill="#263238"/>
    <path d="M89.7062 115.639C89.7062 115.732 85.2072 115.812 79.6788 115.812C74.1503 115.812 69.6514 115.732 69.6514 115.639C69.6514 115.545 74.157 115.465 79.6788 115.465C85.2005 115.465 89.7062 115.538 89.7062 115.639Z" fill="#263238"/>
    <path d="M136.182 104.721C145.393 104.721 152.861 97.2537 152.861 88.0422C152.861 78.8307 145.393 71.3633 136.182 71.3633C126.97 71.3633 119.503 78.8307 119.503 88.0422C119.503 97.2537 126.97 104.721 136.182 104.721Z" fill="#263238"/>
    <path d="M131.843 104.721C141.054 104.721 148.522 97.2537 148.522 88.0422C148.522 78.8307 141.054 71.3633 131.843 71.3633C122.631 71.3633 115.164 78.8307 115.164 88.0422C115.164 97.2537 122.631 104.721 131.843 104.721Z" fill="#455A64"/>
    <path d="M133.96 80.2767V94.1413H131.4V82.4092H128.465V80.25L133.96 80.2767Z" fill="#EBEBEB"/>
</svg>
