<svg viewBox="0 0 50 50" fill="none" xmlns="http://www.w3.org/2000/svg">
<circle cx="25" cy="25" r="25" fill="#4E77F7"/>
<path d="M25.4101 34.5902C23.8615 34.5902 22.4723 34.3169 21.2424 33.7703C20.0126 33.2009 19.0333 32.438 18.3046 31.4815C17.5986 30.525 17.2114 29.466 17.1431 28.3045H21.9598C22.0509 29.0332 22.4039 29.6368 23.0188 30.115C23.6565 30.5933 24.4422 30.8324 25.376 30.8324C26.287 30.8324 26.993 30.6502 27.494 30.2858C28.0178 29.9214 28.2797 29.4546 28.2797 28.8852C28.2797 28.2703 27.9609 27.8148 27.3232 27.5187C26.7083 27.1999 25.7176 26.8583 24.3511 26.4939C22.9391 26.1523 21.7776 25.7993 20.8667 25.4349C19.9785 25.0705 19.2041 24.5125 18.5437 23.761C17.906 23.0094 17.5872 21.996 17.5872 20.7206C17.5872 19.673 17.8832 18.7165 18.4754 17.851C19.0903 16.9856 19.9557 16.3024 21.0716 15.8014C22.2104 15.3003 23.5427 15.0498 25.0685 15.0498C27.3232 15.0498 29.1224 15.6192 30.466 16.7579C31.8097 17.8738 32.5499 19.3883 32.6865 21.3014H28.1089C28.0406 20.5498 27.7217 19.9577 27.1524 19.525C26.6058 19.0695 25.8656 18.8417 24.9319 18.8417C24.0665 18.8417 23.3946 19.0012 22.9164 19.32C22.4609 19.6388 22.2331 20.0829 22.2331 20.6523C22.2331 21.29 22.552 21.7796 23.1897 22.1212C23.8273 22.4401 24.818 22.7703 26.1617 23.1119C27.5282 23.4535 28.6555 23.8065 29.5437 24.1709C30.4319 24.5353 31.1948 25.1047 31.8325 25.879C32.493 26.6305 32.8346 27.6326 32.8574 28.8852C32.8574 29.9784 32.5499 30.9577 31.935 31.8231C31.3429 32.6885 30.4774 33.3717 29.3387 33.8728C28.2228 34.351 26.9133 34.5902 25.4101 34.5902Z" fill="#F3F94E"/>
</svg>
