<svg viewBox="0 0 35 35" fill="none" xmlns="http://www.w3.org/2000/svg">
    <circle cx="17.5" cy="17.5" r="17.5"/>
    <path d="M17.787 24.2129C16.7029 24.2129 15.7304 24.0216 14.8696 23.639C14.0087 23.2405 13.3232 22.7064 12.813 22.0368C12.3188 21.3673 12.0478 20.626 12 19.8129H15.3717C15.4355 20.3231 15.6826 20.7455 16.113 21.0803C16.5594 21.4151 17.1094 21.5825 17.763 21.5825C18.4007 21.5825 18.8949 21.455 19.2457 21.1999C19.6123 20.9448 19.7957 20.618 19.7957 20.2194C19.7957 19.789 19.5725 19.4702 19.1261 19.2629C18.6957 19.0397 18.0022 18.8006 17.0457 18.5455C16.0572 18.3064 15.2442 18.0593 14.6065 17.8042C13.9848 17.5492 13.4428 17.1586 12.9804 16.6325C12.5341 16.1064 12.3109 15.397 12.3109 14.5042C12.3109 13.7709 12.5181 13.1013 12.9326 12.4955C13.363 11.8897 13.9688 11.4115 14.75 11.0608C15.5471 10.71 16.4797 10.5347 17.5478 10.5347C19.1261 10.5347 20.3855 10.9332 21.3261 11.7303C22.2667 12.5115 22.7848 13.5716 22.8804 14.9108H19.6761C19.6283 14.3847 19.4051 13.9702 19.0065 13.6673C18.6239 13.3484 18.1058 13.189 17.4522 13.189C16.8464 13.189 16.3761 13.3006 16.0413 13.5238C15.7225 13.747 15.563 14.0579 15.563 14.4564C15.563 14.9028 15.7862 15.2455 16.2326 15.4847C16.679 15.7079 17.3725 15.939 18.313 16.1781C19.2696 16.4173 20.0587 16.6644 20.6804 16.9195C21.3022 17.1745 21.8362 17.5731 22.2826 18.1151C22.7449 18.6412 22.9841 19.3426 23 20.2194C23 20.9847 22.7848 21.6702 22.3543 22.276C21.9399 22.8818 21.3341 23.36 20.537 23.7108C19.7558 24.0455 18.8391 24.2129 17.787 24.2129Z" fill="#4E77F7"/>
</svg>
