<svg width="100" height="100" viewBox="0 0 100 100" fill="none" xmlns="http://www.w3.org/2000/svg">
<g clip-path="url(#clip0_765_6822)">
<path d="M100 23.9586V76.0414C100 82.3753 94.8753 87.5 88.5414 87.5H11.4586C10.4164 87.5 9.41696 87.3749 8.49991 87.0834C3.58353 85.7918 0 81.3332 0 76.0414V23.9586C0 17.6247 5.12466 12.5 11.4586 12.5H88.5414C94.8753 12.5 100 17.6247 100 23.9586Z" fill="#EDF0FB"/>
<path d="M29.1664 33.3336C29.1664 37.9356 25.4356 41.6664 20.8336 41.6664C16.2308 41.6664 12.5 37.9356 12.5 33.3336C12.5 28.7308 16.2308 25 20.8336 25C25.4356 25 29.1664 28.7308 29.1664 33.3336Z" fill="#FFC83A"/>
<path d="M100 66.4181V76.0426C100 82.3765 94.8754 87.5012 88.5415 87.5012H11.4587C10.4165 87.5012 9.41705 87.3761 8.5 87.0846L59.4171 36.1676C62.2498 33.3348 66.9167 33.3348 69.7503 36.1676L100 66.4181Z" fill="#365FDD"/>
<path d="M71.0831 87.5002H11.4586C10.4164 87.5002 9.41696 87.3751 8.49991 87.0836C3.58353 85.792 0 81.3334 0 76.0416V74.75L23.9998 50.7502C26.8333 47.9166 31.5002 47.9166 34.333 50.7502L71.0831 87.5002Z" fill="#4E77F7"/>
</g>
<defs>
<clipPath id="clip0_765_6822">
<rect width="100" height="100" fill="white"/>
</clipPath>
</defs>
</svg>
