<svg width="202" height="220" viewBox="0 0 202 220" fill="none" xmlns="http://www.w3.org/2000/svg">
    <path d="M42.9434 187.385C43.1604 189.912 42.623 192.446 41.3992 194.668C40.1754 196.889 38.3203 198.698 36.0684 199.865C33.8165 201.032 31.269 201.505 28.7483 201.224C26.2276 200.943 23.8468 199.921 21.9072 198.287C19.9676 196.652 18.5562 194.479 17.8517 192.043C17.1472 189.606 17.1812 187.016 17.9493 184.598C18.7174 182.181 20.1852 180.046 22.167 178.463C24.1488 176.88 26.5555 175.921 29.0828 175.706C30.7601 175.561 32.4496 175.748 34.0546 176.256C35.6595 176.765 37.1484 177.585 38.4359 178.67C39.7234 179.755 40.7843 181.083 41.5578 182.578C42.3312 184.074 42.8021 185.707 42.9434 187.385Z" fill="white"/>
    <path d="M42.9358 187.384C43.2262 190.816 42.1801 194.228 40.0157 196.907C37.8513 199.586 34.7359 201.326 31.3195 201.764C29.5576 201.948 27.7768 201.779 26.081 201.267C24.3851 200.755 22.8082 199.911 21.4422 198.783C20.0762 197.655 18.9485 196.266 18.1248 194.698C17.3012 193.13 16.7981 191.413 16.6449 189.648C16.4918 187.884 16.6916 186.106 17.2327 184.419C17.7739 182.733 18.6455 181.171 19.7968 179.824C20.9481 178.478 22.356 177.374 23.9383 176.578C25.5206 175.782 27.2457 175.308 29.0128 175.186C32.4595 175.028 35.8336 176.21 38.4287 178.484C41.0239 180.757 42.6389 183.947 42.9358 187.384ZM42.9358 187.384C42.7979 185.73 42.326 184.12 41.5486 182.653C40.7712 181.186 39.7044 179.892 38.4127 178.849C37.1211 177.806 35.6313 177.036 34.0336 176.585C32.4358 176.134 30.7631 176.011 29.1167 176.225C25.9837 176.67 23.1369 178.289 21.1535 180.755C19.1701 183.22 18.1984 186.348 18.4355 189.504C18.7109 192.665 20.1956 195.599 22.5802 197.693C24.9648 199.788 28.0655 200.881 31.2364 200.746C32.8947 200.674 34.5213 200.266 36.0178 199.548C37.5143 198.83 38.8496 197.815 39.9431 196.567C41.0366 195.318 41.8656 193.86 42.38 192.282C42.8943 190.704 43.0834 189.037 42.9358 187.384Z" fill="#CBD4EE"/>
    <path d="M15.3033 211.015C15.421 212.418 15.1203 213.825 14.4392 215.058C13.758 216.29 12.7269 217.294 11.4761 217.941C10.2252 218.588 8.81071 218.85 7.41101 218.694C6.0113 218.538 4.68918 217.971 3.61152 217.064C2.53387 216.158 1.74897 214.952 1.35593 213.6C0.962891 212.247 0.979335 210.809 1.40314 209.466C1.82695 208.122 2.63914 206.935 3.73722 206.053C4.83529 205.171 6.17001 204.634 7.57291 204.51C9.46027 204.349 11.3345 204.943 12.7839 206.163C14.2333 207.383 15.1395 209.128 15.3033 211.015Z" fill="white"/>
    <path d="M15.3008 211.012C15.4781 212.959 14.9092 214.9 13.7094 216.443C12.5096 217.987 10.7684 219.016 8.83809 219.324C7.32076 219.559 5.76803 219.332 4.38094 218.674C2.99385 218.016 1.83625 216.956 1.05804 215.633C0.279821 214.309 -0.0831722 212.783 0.0160266 211.251C0.115225 209.719 0.672076 208.252 1.61446 207.04C2.55684 205.827 3.84134 204.926 5.30173 204.452C6.76211 203.979 8.3311 203.954 9.80556 204.382C11.28 204.81 12.5921 205.671 13.5718 206.853C14.5516 208.035 15.1539 209.484 15.3008 211.012ZM15.3008 211.012C15.2123 210.085 14.9343 209.186 14.4838 208.371C14.0334 207.556 13.4203 206.842 12.6825 206.274C11.6586 205.507 10.4345 205.053 9.1581 204.966C7.88168 204.879 6.6074 205.164 5.48903 205.785C4.37066 206.406 3.45596 207.338 2.85531 208.468C2.25466 209.597 1.99372 210.876 2.10398 212.151C2.21423 213.426 2.69095 214.641 3.47664 215.651C4.26234 216.661 5.32341 217.421 6.53186 217.841C7.74031 218.261 9.04449 218.323 10.2871 218.018C11.5296 217.713 12.6574 217.056 13.5345 216.124C14.1632 215.438 14.6444 214.631 14.9482 213.751C15.252 212.872 15.3721 211.94 15.3008 211.012Z" fill="#CBD4EE"/>
    <path d="M199.655 95.0712C200.803 104.445 199.47 113.956 195.79 122.65C192.109 131.345 186.21 138.916 178.686 144.603C171.162 150.291 162.276 153.895 152.922 155.054C143.568 156.213 134.074 154.886 125.394 151.206C121.172 156.71 115.742 161.166 109.524 164.227C103.306 167.289 96.4673 168.874 89.5392 168.859C82.6111 168.845 75.7794 167.231 69.5743 164.144C63.3691 161.056 57.9573 156.578 53.7586 151.056C51.8107 151.654 49.8127 152.075 47.7891 152.312C40.7621 153.191 33.6316 152.009 27.2623 148.908C20.8929 145.807 15.5584 140.92 11.9057 134.842C8.25305 128.763 6.43914 121.753 6.68395 114.662C6.92876 107.571 9.22179 100.703 13.2849 94.8917C5.26335 84.8042 1.12314 72.1662 1.61784 59.2777C2.11254 46.3892 7.20926 34.1071 15.9804 24.6667C24.7515 15.2262 36.614 9.25498 49.4089 7.83969C62.2039 6.42439 75.0807 9.65913 85.6958 16.9552C90.672 10.7244 97.2062 5.92501 104.634 3.04515C112.062 0.165284 120.118 -0.692355 127.984 0.559428C135.85 1.81121 143.245 5.12775 149.417 10.1718C155.588 15.2159 160.317 21.8077 163.121 29.2767C165.001 28.6382 166.941 28.1971 168.912 27.9608C174.893 27.224 180.956 28.341 186.285 31.1616C191.614 33.9821 195.952 38.3708 198.716 43.7367C201.48 49.1026 202.536 55.1881 201.744 61.1741C200.951 67.16 198.347 72.7588 194.282 77.2169C197.12 82.8003 198.94 88.8467 199.655 95.0712Z" fill="white"/>
    <g clip-path="url(#clip0_6978_45415)">
        <path d="M76.0814 116.421C77.2471 120.208 81.2583 122.331 85.0452 121.165L112.461 112.726C116.248 111.56 118.371 107.549 117.205 103.762L104.547 62.6383L63.4229 75.2969L76.0814 116.421Z" fill="#4E77F7"/>
        <path d="M92.8129 54.9933L88.331 52.6213L71.1961 57.8956L68.8239 62.3775L56.8295 66.0695L58.9393 72.9236L106.917 58.1553L104.807 51.3012L92.8129 54.9933Z" fill="#4E77F7"/>
    </g>
    <path d="M199.725 94.8122C200.84 104.102 199.511 113.52 195.868 122.15C194.013 126.445 191.633 130.498 188.782 134.218C185.872 137.876 182.506 141.153 178.766 143.973C171.214 149.66 162.293 153.289 152.89 154.501C143.487 155.713 133.927 154.465 125.16 150.882H125.668C121.392 156.453 115.879 160.972 109.557 164.09C103.236 167.207 96.2751 168.839 89.2152 168.859C82.1552 168.879 75.1853 167.287 68.8459 164.205C62.5064 161.124 56.9676 156.636 52.6586 151.089L53.7349 151.445C50.0141 152.56 46.1404 153.09 42.2543 153.017C38.3583 153.011 34.4897 152.37 30.8035 151.119C23.3445 148.643 16.846 143.928 12.2073 137.628C9.95173 134.459 8.16938 130.984 6.91539 127.309C5.71375 123.619 5.06897 119.772 5.00195 115.894C4.92874 108.061 7.32221 100.401 11.8485 93.9819V95.5238C3.68588 85.2669 -0.500698 72.4487 0.047801 59.3934C0.5963 46.3381 5.84357 33.9098 14.8383 24.3619C23.8547 14.8608 35.9711 8.83153 49.041 7.3423C62.0813 5.95591 75.1911 9.24836 85.9943 16.623L84.6789 16.8305C89.8005 10.5688 96.5083 5.76983 104.115 2.9251C111.722 0.0803695 119.955 -0.707846 127.97 0.641208C135.92 1.95214 143.379 5.32121 149.595 10.4079C155.811 15.4945 160.562 22.1184 163.369 29.61L162.98 29.4321C169.252 27.4187 176.016 27.5021 182.234 29.6694C186.856 31.2949 191 34.0305 194.296 37.6319C197.592 41.2332 199.936 45.5882 201.121 50.3076C202.305 55.027 202.293 59.9639 201.084 64.6773C199.875 69.3906 197.508 73.7336 194.194 77.3182C197.065 82.7796 198.938 88.7025 199.725 94.8122ZM199.725 94.8122C198.987 88.6054 197.134 82.58 194.253 77.0217C197.523 73.4509 199.847 69.1314 201.019 64.4503C202.191 59.7693 202.173 54.873 200.967 50.2005C199.761 45.5281 197.404 41.2254 194.109 37.6783C190.814 34.1313 186.682 31.4507 182.085 29.8769C175.963 27.7872 169.312 27.7872 163.19 29.8769H162.891V29.5804C160.039 22.2814 155.295 15.8582 149.138 10.9597C143.016 6.03668 135.676 2.83179 127.881 1.67898C120.135 0.492543 112.211 1.36918 104.919 4.21909C97.627 7.069 91.2301 11.7898 86.383 17.898L85.8449 18.6096L85.0675 18.0759C74.6193 11.1767 62.0374 8.18785 49.5712 9.64363C37.1051 11.0994 25.5674 16.9049 17.0208 26.0223C8.56989 35.1561 3.65401 46.9631 3.14503 59.3492C2.63605 71.7353 6.56684 83.8999 14.2403 93.6855L14.8681 94.486L14.2702 95.3459C10.042 101.273 7.79394 108.366 7.84221 115.627C7.86838 119.24 8.44289 122.828 9.54639 126.272C10.6902 129.702 12.3319 132.948 14.4197 135.908C18.726 141.808 24.7438 146.266 31.6705 148.688C35.1286 149.907 38.7641 150.558 42.4337 150.615C46.1 150.75 49.7644 150.299 53.2865 149.281L53.9442 149.073L54.3927 149.637C58.4947 155.014 63.7683 159.402 69.8198 162.475C79.046 167.1 89.6068 168.398 99.6923 166.148C109.778 163.898 118.76 158.238 125.1 150.141L125.31 149.874H125.609C134.229 153.57 143.684 154.931 153.008 153.816C162.331 152.701 171.19 149.151 178.677 143.528C182.417 140.733 185.792 137.486 188.722 133.862C191.574 130.212 193.963 126.229 195.838 122.002C199.473 113.422 200.812 104.056 199.725 94.8122Z" fill="#CBD4EE"/>
    <path d="M141.004 63.49L140.122 67.8447C140.056 68.2856 139.901 68.7073 139.667 69.0825C139.433 69.4578 139.125 69.7783 138.763 70.0233C138.402 70.2683 137.994 70.4324 137.568 70.505C137.141 70.5776 136.704 70.5571 136.285 70.4448C135.866 70.3556 135.468 70.1819 135.115 69.9338C134.761 69.6857 134.458 69.368 134.224 68.999C133.99 68.6299 133.829 68.2168 133.75 67.7833C133.67 67.3498 133.675 66.9045 133.764 66.4729L135.171 59.5021C135.171 59.5021 135.171 59.5021 135.264 59.3904C135.357 59.2788 135.264 59.3904 135.264 59.2309C135.464 58.3739 135.974 57.6283 136.691 57.1477C137.407 56.667 138.275 56.4877 139.116 56.6468C141.049 57.0698 143.065 56.684 144.722 55.5742C146.378 54.4643 147.539 52.7214 147.95 50.7288C148.36 48.7362 147.986 46.6571 146.909 44.949C145.833 43.2408 144.143 42.0435 142.21 41.6204C140.946 41.3504 139.636 41.4263 138.409 41.8405C137.182 42.2546 136.082 42.9927 135.218 43.9813C134.94 44.3382 134.595 44.6331 134.204 44.848C133.812 45.0628 133.382 45.1931 132.94 45.2308C132.498 45.2686 132.053 45.213 131.632 45.0675C131.212 44.922 130.824 44.6897 130.494 44.3846C130.163 44.0796 129.896 43.7083 129.71 43.2934C129.523 42.8784 129.42 42.4286 129.408 41.9714C129.395 41.5142 129.473 41.0591 129.637 40.634C129.801 40.2089 130.047 39.8227 130.36 39.4989C131.898 37.7273 133.839 36.3774 136.009 35.5705C138.178 34.7636 140.508 34.525 142.789 34.8761C145.069 35.2271 147.23 36.1568 149.076 37.5817C150.923 39.0067 152.397 40.8821 153.366 43.0397C154.336 45.1973 154.77 47.5694 154.631 49.9429C154.491 52.3165 153.782 54.6172 152.567 56.6383C151.353 58.6595 149.67 60.3378 147.67 61.5226C145.671 62.7074 143.417 63.3615 141.112 63.4262L141.004 63.49ZM138.049 78.1654L137.801 79.3777C137.723 79.8138 137.559 80.2289 137.32 80.5981C137.082 80.9673 136.774 81.2829 136.414 81.5258C136.054 81.7687 135.65 81.9341 135.226 82.0117C134.803 82.0894 134.368 82.0779 133.949 81.9778C133.107 81.7899 132.371 81.268 131.899 80.5247C131.427 79.7815 131.258 78.8767 131.427 78.0058L131.675 76.7935C131.868 75.9333 132.377 75.1842 133.097 74.7048C133.816 74.2254 134.687 74.0535 135.527 74.2253C136.367 74.4059 137.103 74.9214 137.575 75.6595C138.048 76.3976 138.218 77.2984 138.049 78.1654Z" fill="#4E77F7"/>
    <defs>
        <clipPath id="clip0_6978_45415">
            <rect width="64.5421" height="64.5421" fill="white" transform="translate(48.9219 64.752) rotate(-17.1091)"/>
        </clipPath>
    </defs>
</svg>
