<svg width="85" height="37" viewBox="0 0 85 37" fill="none" xmlns="http://www.w3.org/2000/svg">
    <path d="M7.55495 27.9834C6.29208 27.9834 5.04777 27.8437 3.82204 27.5644C2.59631 27.2663 1.61201 26.8845 0.869141 26.4189L2.45702 22.7869C3.14417 23.2153 3.96133 23.5599 4.90849 23.8206C5.85564 24.0628 6.79351 24.1838 7.7221 24.1838C8.5764 24.1838 9.17998 24.1 9.53284 23.9324C9.90427 23.7461 10.09 23.4854 10.09 23.1501C10.09 22.8149 9.86713 22.582 9.42141 22.4517C8.99426 22.3027 8.30711 22.163 7.35995 22.0326C6.15279 21.8836 5.12206 21.688 4.26776 21.4459C3.43204 21.2038 2.70774 20.7568 2.09487 20.1049C1.48201 19.453 1.17557 18.5403 1.17557 17.3669C1.17557 16.3984 1.46344 15.5416 2.03916 14.7966C2.61488 14.033 3.45061 13.437 4.54634 13.0086C5.66064 12.5616 6.98852 12.3381 8.52997 12.3381C9.6257 12.3381 10.7121 12.4498 11.7893 12.6733C12.8665 12.8968 13.7672 13.2135 14.4915 13.6232L12.9036 17.2272C11.5664 16.4822 10.1178 16.1097 8.55783 16.1097C7.7221 16.1097 7.10923 16.2121 6.71923 16.417C6.32922 16.6033 6.13422 16.8547 6.13422 17.1714C6.13422 17.5252 6.34779 17.7767 6.77494 17.9257C7.20209 18.0561 7.90782 18.1958 8.89212 18.3448C10.1364 18.531 11.1672 18.7452 11.9843 18.9873C12.8015 19.2295 13.5072 19.6765 14.1015 20.3284C14.7143 20.9616 15.0208 21.8557 15.0208 23.0104C15.0208 23.9603 14.7329 24.8171 14.1572 25.5807C13.5815 26.3258 12.7272 26.9125 11.5943 27.3408C10.48 27.7692 9.13355 27.9834 7.55495 27.9834Z" />
    <path d="M44.2486 27.9834C42.6328 27.9834 41.175 27.6482 39.8749 26.9777C38.5749 26.3071 37.5535 25.3759 36.8106 24.1838C36.0863 22.9918 35.7242 21.6415 35.7242 20.1328C35.7242 18.6428 36.0863 17.3017 36.8106 16.1097C37.5535 14.9177 38.5656 13.9957 39.8471 13.3438C41.1471 12.6733 42.6143 12.3381 44.2486 12.3381C45.8829 12.3381 47.35 12.6733 48.6501 13.3438C49.9501 13.9957 50.9622 14.9177 51.6865 16.1097C52.4108 17.2831 52.773 18.6241 52.773 20.1328C52.773 21.6415 52.4108 22.9918 51.6865 24.1838C50.9622 25.3759 49.9501 26.3071 48.6501 26.9777C47.35 27.6482 45.8829 27.9834 44.2486 27.9834ZM44.2486 23.7648C45.1772 23.7648 45.9386 23.4481 46.5329 22.8149C47.1272 22.163 47.4243 21.269 47.4243 20.1328C47.4243 19.0153 47.1272 18.1399 46.5329 17.5066C45.9386 16.8734 45.1772 16.5567 44.2486 16.5567C43.32 16.5567 42.5585 16.8734 41.9643 17.5066C41.37 18.1399 41.0728 19.0153 41.0728 20.1328C41.0728 21.269 41.37 22.163 41.9643 22.8149C42.5585 23.4481 43.32 23.7648 44.2486 23.7648Z" />
    <path d="M66.7638 27.1173C66.3181 27.3967 65.7702 27.6109 65.1202 27.7599C64.4888 27.9089 63.8109 27.9834 63.0866 27.9834C61.118 27.9834 59.6044 27.4992 58.5458 26.5306C57.5058 25.5621 56.9858 24.1186 56.9858 22.2002C56.9858 20.2631 56.9858 18.6509 56.9858 17.1155C56.9858 15.7891 56.9858 14.52 56.9858 13.1483C56.9858 11.9492 56.9858 10.6718 56.9858 9.20898H62.2788V13.1483H65.7052V17.1155H62.2788V22.1444C62.2788 22.7031 62.418 23.1315 62.6966 23.4295C62.9752 23.7275 63.3559 23.8765 63.8388 23.8765C64.4516 23.8765 64.9902 23.7182 65.4545 23.4016L66.7638 27.1173Z" />
    <path d="M75.9359 27.9834C74.3202 27.9834 72.8623 27.6482 71.5623 26.9777C70.2623 26.3071 69.2408 25.3759 68.4979 24.1838C67.7737 22.9918 67.4115 21.6415 67.4115 20.1328C67.4115 18.6428 67.7737 17.3017 68.4979 16.1097C69.2408 14.9177 70.253 13.9957 71.5344 13.3438C72.8344 12.6733 74.3016 12.3381 75.9359 12.3381C77.5702 12.3381 79.0374 12.6733 80.3374 13.3438C81.6374 13.9957 82.6496 14.9177 83.3739 16.1097C84.0982 17.2831 84.4603 18.6241 84.4603 20.1328C84.4603 21.6415 84.0982 22.9918 83.3739 24.1838C82.6496 25.3759 81.6374 26.3071 80.3374 26.9777C79.0374 27.6482 77.5702 27.9834 75.9359 27.9834ZM75.9359 23.7648C76.8645 23.7648 77.6259 23.4481 78.2202 22.8149C78.8145 22.163 79.1117 21.269 79.1117 20.1328C79.1117 19.0153 78.8145 18.1399 78.2202 17.5066C77.6259 16.8734 76.8645 16.5567 75.9359 16.5567C75.0073 16.5567 74.2459 16.8734 73.6516 17.5066C73.0573 18.1399 72.7602 19.0153 72.7602 20.1328C72.7602 21.269 73.0573 22.163 73.6516 22.8149C74.2459 23.4481 75.0073 23.7648 75.9359 23.7648Z" />
    <path d="M56.9858 13.1483H53.6969V17.1155H56.9858V13.1483Z" />
    <path fill-rule="evenodd" clip-rule="evenodd" d="M17.4444 20.1787C17.4444 15.7477 21.0364 12.1558 25.4673 12.1558C29.8983 12.1558 33.4902 15.7477 33.4902 20.1787C33.4902 24.6096 29.8983 28.2016 25.4673 28.2016C25.2458 28.2016 25.0264 28.1926 24.8094 28.175C24.3822 28.1403 23.9551 28.3015 23.6945 28.6417L19.5183 34.0919C18.8462 34.9691 17.4444 34.4938 17.4444 33.3887V20.1787ZM25.4674 24.1266C23.2871 24.1266 21.5197 22.3591 21.5197 20.1788C21.5197 17.9985 23.2871 16.231 25.4674 16.231C27.6477 16.231 29.4152 17.9985 29.4152 20.1788C29.4152 22.3591 27.6477 24.1266 25.4674 24.1266Z" fill=""/>
    <path d="M27.2176 8.35632C27.2697 7.73389 27.8183 7.26587 28.4324 7.3799C29.8091 7.63554 31.1298 8.14528 32.3255 8.88639C33.5213 9.62749 34.5654 10.5834 35.4069 11.7026C35.7823 12.2018 35.6073 12.9013 35.0731 13.225C34.5389 13.5486 33.8486 13.3725 33.4609 12.8828C32.8128 12.0644 32.0262 11.3619 31.134 10.809C30.2418 10.256 29.2627 9.86404 28.2413 9.64785C27.6303 9.5185 27.1654 8.97874 27.2176 8.35632Z"/>
    <path d="M27.6062 3.71595C27.6577 3.10138 28.1986 2.64092 28.8081 2.73527C30.9199 3.06221 32.9484 3.8108 34.7713 4.94055C36.5941 6.0703 38.1671 7.55389 39.3996 9.29965C39.7553 9.80347 39.5836 10.4928 39.0561 10.8124C38.5286 11.1319 37.8456 10.9602 37.4842 10.4605C36.4382 9.01422 35.1179 7.7829 33.5947 6.83887C32.0715 5.89484 30.3813 5.26028 28.6207 4.96713C28.0124 4.86584 27.5547 4.33052 27.6062 3.71595Z" />
</svg>
