<svg width="224" height="224" viewBox="0 0 224 224" fill="none" xmlns="http://www.w3.org/2000/svg">
<g filter="url(#filter0_d_135_27819)">
<rect x="12" y="12" width="200" height="200" rx="12.0482" fill="#4E77F7"/>
</g>
<path fill-rule="evenodd" clip-rule="evenodd" d="M110.999 85.7975C94.58 85.7975 81.2695 99.2243 81.2695 115.787V171.175C81.2695 173.358 84.0151 174.298 85.3316 172.564L105.17 146.447C105.681 145.775 106.517 145.45 107.35 145.553C108.546 145.701 109.764 145.777 110.999 145.777C127.419 145.777 140.729 132.35 140.729 115.787C140.729 99.2243 127.419 85.7975 110.999 85.7975ZM111 130.545C102.921 130.545 96.3709 123.938 96.3709 115.788C96.3709 107.638 102.921 101.031 111 101.031C119.079 101.031 125.629 107.638 125.629 115.788C125.629 123.938 119.079 130.545 111 130.545Z" fill="#F3F94E"/>
<path d="M123.378 50.5831C131.204 51.8052 138.721 54.6034 145.476 58.8264C152.23 63.0494 158.059 68.5951 162.626 75.1208C163.944 77.0041 163.308 79.5807 161.354 80.7753C159.399 81.9698 156.868 81.328 155.529 79.46C151.653 74.0538 146.76 69.4511 141.116 65.9224C135.472 62.3936 129.208 60.0216 122.684 58.9258C120.43 58.5471 118.734 56.5461 118.925 54.2489C119.115 51.9516 121.12 50.2304 123.378 50.5831Z" fill="#F3F94E"/>
<path d="M121.986 67.9457C127.087 68.9013 131.981 70.8067 136.412 73.5769C140.843 76.3472 144.712 79.9203 147.83 84.1038C149.221 85.9699 148.573 88.5848 146.593 89.7946C144.614 91.0045 142.056 90.3461 140.619 88.5157C138.218 85.4562 135.303 82.8305 131.997 80.7636C128.69 78.6966 125.062 77.2314 121.278 76.4233C119.013 75.9398 117.291 73.9222 117.484 71.5955C117.677 69.2689 119.71 67.5194 121.986 67.9457Z" fill="#F3F94E"/>
<defs>
<filter id="filter0_d_135_27819" x="0" y="0" width="224" height="224" filterUnits="userSpaceOnUse" color-interpolation-filters="sRGB">
<feFlood flood-opacity="0" result="BackgroundImageFix"/>
<feColorMatrix in="SourceAlpha" type="matrix" values="0 0 0 0 0 0 0 0 0 0 0 0 0 0 0 0 0 0 127 0" result="hardAlpha"/>
<feOffset/>
<feGaussianBlur stdDeviation="6"/>
<feComposite in2="hardAlpha" operator="out"/>
<feColorMatrix type="matrix" values="0 0 0 0 0.305882 0 0 0 0 0.466667 0 0 0 0 0.968627 0 0 0 0.35 0"/>
<feBlend mode="normal" in2="BackgroundImageFix" result="effect1_dropShadow_135_27819"/>
<feBlend mode="normal" in="SourceGraphic" in2="effect1_dropShadow_135_27819" result="shape"/>
</filter>
</defs>
</svg>
