<svg width="124" height="124" viewBox="0 0 124 124" fill="none" xmlns="http://www.w3.org/2000/svg">
<g filter="url(#filter0_d_8100_86297)">
<rect x="12" y="12" width="100" height="100" rx="12.0482" fill="#4E77F7"/>
</g>
<path fill-rule="evenodd" clip-rule="evenodd" d="M61.4996 48.8997C53.29 48.8997 46.6348 55.6131 46.6348 63.8946V91.5885C46.6348 92.6802 48.0076 93.1498 48.6658 92.2832L58.585 79.2247C58.8403 78.8886 59.2586 78.7262 59.6752 78.7776C60.2731 78.8514 60.882 78.8894 61.4996 78.8894C69.7093 78.8894 76.3645 72.176 76.3645 63.8946C76.3645 55.6131 69.7093 48.8997 61.4996 48.8997ZM61.4999 71.2735C57.4603 71.2735 54.1855 67.97 54.1855 63.895C54.1855 59.82 57.4603 56.5166 61.4999 56.5166C65.5396 56.5166 68.8144 59.82 68.8144 63.895C68.8144 67.97 65.5396 71.2735 61.4999 71.2735Z" fill="#F3F94E"/>
<path d="M67.6892 31.2925C71.6019 31.9036 75.3605 33.3027 78.7378 35.4142C82.1152 37.5257 85.0297 40.2985 87.3132 43.5614C87.9722 44.503 87.6541 45.7913 86.6768 46.3886C85.6995 46.9859 84.4339 46.665 83.7643 45.731C81.8264 43.0279 79.3801 40.7265 76.5579 38.9622C73.7358 37.1978 70.6042 36.0118 67.3421 35.4639C66.2149 35.2745 65.3669 34.274 65.4623 33.1254C65.5577 31.9768 66.56 31.1162 67.6892 31.2925Z" fill="#F3F94E"/>
<path d="M66.9928 39.9738C69.5436 40.4516 71.9905 41.4043 74.206 42.7895C76.4215 44.1746 78.3561 45.9611 79.9152 48.0529C80.6107 48.9859 80.2864 50.2934 79.2966 50.8983C78.3069 51.5032 77.028 51.174 76.3096 50.2588C75.1089 48.7291 73.6513 47.4163 71.9983 46.3828C70.3452 45.3493 68.5311 44.6167 66.6388 44.2126C65.5066 43.9709 64.6453 42.9621 64.7419 41.7987C64.8386 40.6354 65.855 39.7607 66.9928 39.9738Z" fill="#F3F94E"/>
<defs>
<filter id="filter0_d_8100_86297" x="0" y="0" width="124" height="124" filterUnits="userSpaceOnUse" color-interpolation-filters="sRGB">
<feFlood flood-opacity="0" result="BackgroundImageFix"/>
<feColorMatrix in="SourceAlpha" type="matrix" values="0 0 0 0 0 0 0 0 0 0 0 0 0 0 0 0 0 0 127 0" result="hardAlpha"/>
<feOffset/>
<feGaussianBlur stdDeviation="6"/>
<feComposite in2="hardAlpha" operator="out"/>
<feColorMatrix type="matrix" values="0 0 0 0 0.305882 0 0 0 0 0.466667 0 0 0 0 0.968627 0 0 0 0.35 0"/>
<feBlend mode="normal" in2="BackgroundImageFix" result="effect1_dropShadow_8100_86297"/>
<feBlend mode="normal" in="SourceGraphic" in2="effect1_dropShadow_8100_86297" result="shape"/>
</filter>
</defs>
</svg>
