<svg width="104" height="42" viewBox="0 0 104 42" fill="none" xmlns="http://www.w3.org/2000/svg">
<path d="M8.31816 32.2613C6.74695 32.2613 5.19885 32.0829 3.67385 31.7261C2.14886 31.3455 0.92424 30.8578 0 30.2631L1.97556 25.6246C2.83048 26.1717 3.84715 26.6117 5.02555 26.9448C6.20396 27.254 7.37081 27.4086 8.52611 27.4086C9.58899 27.4086 10.3399 27.3016 10.7789 27.0875C11.2411 26.8496 11.4721 26.5166 11.4721 26.0884C11.4721 25.6602 11.1949 25.3629 10.6403 25.1964C10.1089 25.0061 9.25395 24.8277 8.07554 24.6612C6.57365 24.4709 5.29127 24.2211 4.2284 23.9119C3.18863 23.6026 2.28749 23.0317 1.525 22.1992C0.762498 21.3666 0.381249 20.201 0.381249 18.7024C0.381249 17.4654 0.739392 16.3712 1.45568 15.4197C2.17196 14.4444 3.21173 13.6832 4.57499 13.1361C5.96134 12.5652 7.61342 12.2798 9.53122 12.2798C10.8945 12.2798 12.2462 12.4225 13.5863 12.7079C14.9265 12.9934 16.0471 13.3978 16.9482 13.9211L14.9727 18.524C13.309 17.5725 11.5068 17.0967 9.56588 17.0967C8.52611 17.0967 7.76361 17.2276 7.27839 17.4892C6.79316 17.7271 6.55055 18.0482 6.55055 18.4526C6.55055 18.9046 6.81627 19.2257 7.3477 19.416C7.87914 19.5825 8.75717 19.7609 9.98179 19.9512C11.5299 20.1891 12.8123 20.4627 13.8289 20.7719C14.8456 21.0811 15.7236 21.652 16.463 22.4846C17.2255 23.2934 17.6068 24.4352 17.6068 25.91C17.6068 27.1232 17.2486 28.2174 16.5323 29.1927C15.816 30.1442 14.7532 30.8935 13.3437 31.4406C11.9573 31.9877 10.2822 32.2613 8.31816 32.2613Z" fill="#F3F94E"/>
<path fill-rule="evenodd" clip-rule="evenodd" d="M30.6045 12.0473C25.0918 12.0473 20.6228 16.6348 20.6228 22.2938V41.218C20.6228 41.964 21.5446 42.2848 21.9866 41.6927L28.6474 32.7694C28.8188 32.5397 29.0996 32.4287 29.3794 32.4639C29.7809 32.5143 30.1897 32.5403 30.6045 32.5403C36.1173 32.5403 40.5862 27.9528 40.5862 22.2938C40.5862 16.6348 36.1173 12.0473 30.6045 12.0473ZM30.6047 27.336C27.8921 27.336 25.6931 25.0787 25.6931 22.2941C25.6931 19.5095 27.8921 17.2522 30.6047 17.2522C33.3173 17.2522 35.5163 19.5095 35.5163 22.2941C35.5163 25.0787 33.3173 27.336 30.6047 27.336Z" fill="#F3F94E"/>
<path fill-rule="evenodd" clip-rule="evenodd" d="M53.9705 32.2613C51.9603 32.2613 50.1465 31.8331 48.5291 30.9767C46.9116 30.1204 45.6408 28.931 44.7166 27.4086C43.8154 25.8862 43.3649 24.1616 43.3649 22.2348C43.3649 20.3318 43.8154 18.6191 44.7166 17.0967C45.6408 15.5743 46.9001 14.3968 48.4944 13.5643C50.1118 12.7079 51.9372 12.2798 53.9705 12.2798C56.0039 12.2798 57.8292 12.7079 59.4467 13.5643C61.0641 14.3968 62.3233 15.5743 63.2245 17.0967C64.1256 18.5953 64.5762 20.308 64.5762 22.2348C64.5762 24.1616 64.1256 25.8862 63.2245 27.4086C62.3233 28.931 61.0641 30.1204 59.4467 30.9767C57.8292 31.8331 56.0039 32.2613 53.9705 32.2613ZM56.8126 25.6602C56.0732 26.469 55.1258 26.8734 53.9705 26.8734C52.8152 26.8734 51.8679 26.469 51.1285 25.6602C50.3891 24.8277 50.0194 23.6859 50.0194 22.2348C50.0194 20.8076 50.3891 19.6896 51.1285 18.8808C51.8679 18.072 52.8152 17.6676 53.9705 17.6676C55.1258 17.6676 56.0732 18.072 56.8126 18.8808C57.552 19.6896 57.9216 20.8076 57.9216 22.2348C57.9216 23.6859 57.552 24.8277 56.8126 25.6602Z" fill="#F3F94E"/>
<path d="M79.938 31.9758C80.7467 31.7855 81.4283 31.512 81.9829 31.1552L80.3539 26.4095C79.7762 26.8139 79.1062 27.0161 78.3437 27.0161C77.7429 27.0161 77.2692 26.8258 76.9227 26.4452C76.5761 26.0646 76.4028 25.5175 76.4028 24.8039V18.3813H80.6658V13.3145H76.4028V8.28344H69.8176V13.3145V18.3813V18.3963V24.8752C69.8176 27.3254 70.4645 29.1689 71.7585 30.4058C73.0755 31.6428 74.9587 32.2613 77.4079 32.2613C78.309 32.2613 79.1524 32.1661 79.938 31.9758Z" fill="#F3F94E"/>
<path d="M69.8176 13.3145H65.7257V18.3813H69.8176V13.3145Z" fill="#F3F94E"/>
<path fill-rule="evenodd" clip-rule="evenodd" d="M93.3943 32.2613C91.3841 32.2613 89.5703 31.8331 87.9529 30.9767C86.3355 30.1204 85.0646 28.931 84.1404 27.4086C83.2393 25.8862 82.7887 24.1616 82.7887 22.2348C82.7887 20.3318 83.2393 18.6191 84.1404 17.0967C85.0646 15.5743 86.3239 14.3968 87.9182 13.5643C89.5356 12.7079 91.361 12.2798 93.3943 12.2798C95.4277 12.2798 97.253 12.7079 98.8705 13.5643C100.488 14.3968 101.747 15.5743 102.648 17.0967C103.549 18.5953 104 20.308 104 22.2348C104 24.1616 103.549 25.8862 102.648 27.4086C101.747 28.931 100.488 30.1204 98.8705 30.9767C97.253 31.8331 95.4277 32.2613 93.3943 32.2613ZM96.2364 25.6602C95.497 26.469 94.5496 26.8734 93.3943 26.8734C92.2391 26.8734 91.2917 26.469 90.5523 25.6602C89.8129 24.8277 89.4432 23.6859 89.4432 22.2348C89.4432 20.8076 89.8129 19.6896 90.5523 18.8808C91.2917 18.072 92.2391 17.6676 93.3943 17.6676C94.5496 17.6676 95.497 18.072 96.2364 18.8808C96.9758 19.6896 97.3455 20.8076 97.3455 22.2348C97.3455 23.6859 96.9758 24.8277 96.2364 25.6602Z" fill="#F3F94E"/>
<path d="M34.7607 0.0157C37.3881 0.43325 39.912 1.38931 42.1799 2.83218C44.4477 4.27504 46.4048 6.16982 47.9382 8.39942C48.3807 9.04288 48.1671 9.92322 47.5109 10.3314C46.8546 10.7395 46.0048 10.5202 45.5551 9.882C44.2539 8.03487 42.6111 6.4623 40.7161 5.25663C38.821 4.05095 36.7181 3.24053 34.5277 2.86613C33.7708 2.73676 33.2014 2.05308 33.2654 1.26818C33.3295 0.483279 34.0025 -0.104804 34.7607 0.0157Z" fill="#F3F94E"/>
<path d="M34.2932 5.94793C36.006 6.27442 37.6491 6.92544 39.1368 7.87195C40.6245 8.81845 41.9235 10.0393 42.9705 11.4686C43.4375 12.1062 43.2197 12.9996 42.5551 13.413C41.8905 13.8263 41.0318 13.6014 40.5494 12.976C39.7431 11.9307 38.7643 11.0336 37.6543 10.3274C36.5443 9.62115 35.3261 9.12056 34.0554 8.84445C33.2951 8.67925 32.7168 7.98989 32.7817 7.19496C32.8466 6.40004 33.5291 5.80229 34.2932 5.94793Z" fill="#F3F94E"/>
</svg>
