<svg width="206" height="84" viewBox="0 0 206 84" fill="none" xmlns="http://www.w3.org/2000/svg">
    <path d="M16.88 64.5226C13.6916 64.5226 10.55 64.1657 7.45533 63.4521C4.36067 62.6909 1.87556 61.7156 0 60.5262L4.009 51.2491C5.74389 52.3433 7.807 53.2235 10.1983 53.8895C12.5897 54.508 14.9576 54.8172 17.302 54.8172C19.4589 54.8172 20.9828 54.6031 21.8737 54.175C22.8114 53.6992 23.2803 53.0332 23.2803 52.1768C23.2803 51.3205 22.7177 50.7258 21.5923 50.3928C20.5139 50.0122 18.779 49.6553 16.3877 49.3223C13.3399 48.9417 10.7376 48.4422 8.58067 47.8237C6.47067 47.2052 4.642 46.0634 3.09467 44.3983C1.54733 42.7332 0.773667 40.402 0.773667 37.4048C0.773667 34.9309 1.50044 32.7424 2.954 30.8394C4.40756 28.8888 6.51756 27.3664 9.284 26.2722C12.0973 25.1304 15.4499 24.5595 19.3417 24.5595C22.1081 24.5595 24.8511 24.845 27.5707 25.4159C30.2902 25.9868 32.5643 26.7955 34.393 27.8422L30.384 37.048C27.008 35.145 23.3507 34.1935 19.412 34.1935C17.302 34.1935 15.7547 34.4551 14.77 34.9784C13.7853 35.4542 13.293 36.0965 13.293 36.9052C13.293 37.8092 13.8322 38.4514 14.9107 38.832C15.9891 39.165 17.7709 39.5219 20.256 39.9025C23.3976 40.3782 25.9999 40.9253 28.063 41.5438C30.1261 42.1623 31.9079 43.3041 33.4083 44.9692C34.9557 46.5868 35.7293 48.8704 35.7293 51.82C35.7293 54.2463 35.0025 56.4348 33.549 58.3854C32.0954 60.2884 29.9386 61.787 27.0783 62.8812C24.265 63.9754 20.8656 64.5226 16.88 64.5226Z" fill="#CBD4EE"/>
    <path fill-rule="evenodd" clip-rule="evenodd" d="M62.1056 24.0946C50.9186 24.0946 41.8498 33.2696 41.8498 44.5876V82.436C41.8498 83.928 43.7204 84.5697 44.6174 83.3854L58.134 65.5388C58.4819 65.0794 59.0518 64.8574 59.6195 64.9277C60.4342 65.0286 61.2639 65.0806 62.1056 65.0806C73.2926 65.0806 82.3615 55.9055 82.3615 44.5876C82.3615 33.2696 73.2926 24.0946 62.1056 24.0946ZM62.106 54.672C56.6013 54.672 52.1388 50.1574 52.1388 44.5882C52.1388 39.019 56.6013 34.5044 62.106 34.5044C67.6107 34.5044 72.0732 39.019 72.0732 44.5882C72.0732 50.1574 67.6107 54.672 62.106 54.672Z" fill="#CBD4EE"/>
    <path fill-rule="evenodd" clip-rule="evenodd" d="M109.522 64.5226C105.443 64.5226 101.762 63.6662 98.4798 61.9535C95.1976 60.2408 92.6187 57.862 90.7432 54.8172C88.9145 51.7724 88.0002 48.3232 88.0002 44.4697C88.0002 40.6637 88.9145 37.2383 90.7432 34.1935C92.6187 31.1486 95.1742 28.7937 98.4095 27.1286C101.692 25.4159 105.396 24.5595 109.522 24.5595C113.648 24.5595 117.353 25.4159 120.635 27.1286C123.917 28.7937 126.473 31.1486 128.301 34.1935C130.13 37.1907 131.044 40.6161 131.044 44.4697C131.044 48.3232 130.13 51.7724 128.301 54.8172C126.473 57.862 123.917 60.2408 120.635 61.9535C117.353 63.6662 113.648 64.5226 109.522 64.5226ZM115.29 51.3205C113.789 52.938 111.867 53.7468 109.522 53.7468C107.178 53.7468 105.255 52.938 103.755 51.3205C102.254 49.6553 101.504 47.3717 101.504 44.4697C101.504 41.6152 102.254 39.3791 103.755 37.7616C105.255 36.144 107.178 35.3353 109.522 35.3353C111.867 35.3353 113.789 36.144 115.29 37.7616C116.79 39.3791 117.54 41.6152 117.54 44.4697C117.54 47.3717 116.79 49.6553 115.29 51.3205Z" fill="#CBD4EE"/>
    <path d="M157.171 63.9517C158.812 63.5711 160.195 63.0239 161.321 62.3103L158.015 52.8191C156.843 53.6279 155.483 54.0323 153.936 54.0323C152.717 54.0323 151.755 53.6517 151.052 52.8905C150.349 52.1292 149.997 51.035 149.997 49.6078V36.7625H158.648V26.629H149.997V16.5669H136.634V26.629V36.7625V36.7926V49.7505C136.634 54.6507 137.947 58.3378 140.572 60.8117C143.245 63.2856 147.067 64.5226 152.037 64.5226C153.865 64.5226 155.577 64.3323 157.171 63.9517Z" fill="#CBD4EE"/>
    <path fill-rule="evenodd" clip-rule="evenodd" d="M184.478 64.5226C180.399 64.5226 176.718 63.6662 173.436 61.9535C170.153 60.2408 167.575 57.862 165.699 54.8172C163.87 51.7724 162.956 48.3232 162.956 44.4697C162.956 40.6637 163.87 37.2383 165.699 34.1935C167.575 31.1486 170.13 28.7937 173.365 27.1286C176.648 25.4159 180.352 24.5595 184.478 24.5595C188.604 24.5595 192.308 25.4159 195.591 27.1286C198.873 28.7937 201.428 31.1486 203.257 34.1935C205.086 37.1907 206 40.6161 206 44.4697C206 48.3232 205.086 51.7724 203.257 54.8172C201.428 57.862 198.873 60.2408 195.591 61.9535C192.308 63.6662 188.604 64.5226 184.478 64.5226ZM190.245 51.3205C188.745 52.938 186.822 53.7468 184.478 53.7468C182.134 53.7468 180.211 52.938 178.711 51.3205C177.21 49.6553 176.46 47.3717 176.46 44.4697C176.46 41.6152 177.21 39.3791 178.711 37.7616C180.211 36.144 182.134 35.3353 184.478 35.3353C186.822 35.3353 188.745 36.144 190.245 37.7616C191.746 39.3791 192.496 41.6152 192.496 44.4697C192.496 47.3717 191.746 49.6553 190.245 51.3205Z" fill="#CBD4EE"/>
    <path d="M70.5398 0.0314001C75.8716 0.866501 80.9932 2.77862 85.5954 5.66435C90.1976 8.55009 94.1691 12.3396 97.2808 16.7988C98.1788 18.0858 97.7453 19.8464 96.4136 20.6627C95.0819 21.479 93.3573 21.0405 92.4449 19.764C89.8042 16.0697 86.4706 12.9246 82.625 10.5133C78.7793 8.10191 74.512 6.48105 70.0669 5.73225C68.531 5.47352 67.3754 4.10616 67.5054 2.53636C67.6354 0.966559 69.0011 -0.209608 70.5398 0.0314001Z" fill="#CBD4EE"/>
    <path d="M69.591 11.8959C73.0668 12.5488 76.4011 13.8509 79.4201 15.7439C82.4391 17.6369 85.0753 20.0785 87.1999 22.9372C88.1476 24.2124 87.7057 25.9993 86.3569 26.826C85.0082 27.6527 83.2656 27.2028 82.2866 25.952C80.6504 23.8614 78.6643 22.0672 76.4117 20.6547C74.1591 19.2423 71.6871 18.2411 69.1085 17.6889C67.5657 17.3585 66.3921 15.9798 66.5238 14.3899C66.6554 12.8001 68.0405 11.6046 69.591 11.8959Z" fill="#CBD4EE"/>
</svg>
