<svg width="200" height="87" viewBox="0 0 200 87" fill="none" xmlns="http://www.w3.org/2000/svg">
<path d="M15.9965 65.7986C12.9749 65.7986 9.99778 65.4702 7.0651 64.8132C4.13242 64.1125 1.77738 63.2147 0 62.1198L3.79916 53.5798C5.44324 54.5871 7.39836 55.3973 9.66452 56.0105C11.9307 56.5798 14.1746 56.8645 16.3964 56.8645C18.4404 56.8645 19.8845 56.6674 20.7287 56.2732C21.6174 55.8353 22.0618 55.2221 22.0618 54.4338C22.0618 53.6455 21.5286 53.0981 20.4621 52.7915C19.4401 52.4412 17.7961 52.1127 15.5299 51.8061C12.6416 51.4558 10.1755 50.9959 8.13153 50.4266C6.13197 49.8573 4.39902 48.8062 2.93268 47.2734C1.46634 45.7405 0.733171 43.5946 0.733171 40.8355C0.733171 38.5582 1.42191 36.5436 2.79938 34.7918C4.17685 32.9962 6.17641 31.5948 8.79805 30.5875C11.4641 29.5364 14.6412 29.0109 18.3293 29.0109C20.9509 29.0109 23.5503 29.2736 26.1275 29.7992C28.7047 30.3247 30.8598 31.0692 32.5928 32.0327L28.7936 40.507C25.5943 38.7552 22.1284 37.8793 18.3959 37.8793C16.3964 37.8793 14.93 38.1202 13.9969 38.602C13.0638 39.0399 12.5972 39.6311 12.5972 40.3757C12.5972 41.2078 13.1082 41.799 14.1302 42.1494C15.1522 42.4559 16.8407 42.7844 19.1957 43.1347C22.1729 43.5727 24.639 44.0763 26.5941 44.6457C28.5492 45.215 30.2377 46.2661 31.6596 47.7989C33.126 49.2879 33.8592 51.3901 33.8592 54.1054C33.8592 56.3389 33.1704 58.3535 31.7929 60.1491C30.4155 61.9009 28.3715 63.2804 25.661 64.2877C22.9949 65.295 19.7734 65.7986 15.9965 65.7986Z" fill="#4E77F7"/>
<path d="M103.789 65.7986C99.9237 65.7986 96.4356 65.0103 93.3251 63.4337C90.2147 61.8571 87.7708 59.6673 85.9934 56.8645C84.2605 54.0616 83.394 50.8864 83.394 47.3391C83.394 43.8355 84.2605 40.6822 85.9934 37.8793C87.7708 35.0765 90.1925 32.9086 93.2585 31.3758C96.3689 29.7992 99.8792 29.0109 103.789 29.0109C107.7 29.0109 111.21 29.7992 114.32 31.3758C117.431 32.9086 119.853 35.0765 121.586 37.8793C123.319 40.6384 124.185 43.7917 124.185 47.3391C124.185 50.8864 123.319 54.0616 121.586 56.8645C119.853 59.6673 117.431 61.8571 114.32 63.4337C111.21 65.0103 107.7 65.7986 103.789 65.7986ZM103.789 55.8791C106.011 55.8791 107.833 55.1346 109.255 53.6455C110.677 52.1127 111.388 50.0105 111.388 47.3391C111.388 44.7114 110.677 42.653 109.255 41.164C107.833 39.6749 106.011 38.9304 103.789 38.9304C101.568 38.9304 99.7459 39.6749 98.324 41.164C96.9021 42.653 96.1912 44.7114 96.1912 47.3391C96.1912 50.0105 96.9021 52.1127 98.324 53.6455C99.7459 55.1346 101.568 55.8791 103.789 55.8791Z" fill="#4E77F7"/>
<path d="M157.659 63.7622C156.593 64.4191 155.282 64.9227 153.727 65.2731C152.216 65.6234 150.594 65.7986 148.861 65.7986C144.151 65.7986 140.53 64.66 137.997 62.3826C135.509 60.1053 134.265 56.7112 134.265 52.2003C134.265 47.6454 134.265 43.8545 134.265 40.2443C134.265 37.1255 134.265 34.1414 134.265 30.916C134.265 28.0966 134.265 25.0928 134.265 21.6533H146.928V30.916H155.127V40.2443H146.928V52.0689C146.928 53.3828 147.262 54.39 147.928 55.0908C148.595 55.7915 149.506 56.1418 150.661 56.1418C152.127 56.1418 153.416 55.7696 154.527 55.0251L157.659 63.7622Z" fill="#4E77F7"/>
<path d="M179.605 65.7986C175.739 65.7986 172.251 65.0103 169.14 63.4337C166.03 61.8571 163.586 59.6673 161.808 56.8645C160.076 54.0616 159.209 50.8864 159.209 47.3391C159.209 43.8355 160.076 40.6822 161.808 37.8793C163.586 35.0765 166.008 32.9086 169.074 31.3758C172.184 29.7992 175.694 29.0109 179.605 29.0109C183.515 29.0109 187.025 29.7992 190.136 31.3758C193.246 32.9086 195.668 35.0765 197.401 37.8793C199.134 40.6384 200 43.7917 200 47.3391C200 50.8864 199.134 54.0616 197.401 56.8645C195.668 59.6673 193.246 61.8571 190.136 63.4337C187.025 65.0103 183.515 65.7986 179.605 65.7986ZM179.605 55.8791C181.826 55.8791 183.648 55.1346 185.07 53.6455C186.492 52.1127 187.203 50.0105 187.203 47.3391C187.203 44.7114 186.492 42.653 185.07 41.164C183.648 39.6749 181.826 38.9304 179.605 38.9304C177.383 38.9304 175.561 39.6749 174.139 41.164C172.717 42.653 172.006 44.7114 172.006 47.3391C172.006 50.0105 172.717 52.1127 174.139 53.6455C175.561 55.1346 177.383 55.8791 179.605 55.8791Z" fill="#4E77F7"/>
<path d="M134.265 30.916H126.396V40.2443H134.265V30.916Z" fill="#4E77F7"/>
<path fill-rule="evenodd" clip-rule="evenodd" d="M39.6557 47.4482C39.6557 37.0295 48.2498 28.5835 58.8513 28.5835C69.4527 28.5835 78.0469 37.0295 78.0469 47.4482C78.0469 57.8669 69.4527 66.3129 58.8513 66.3129C57.9858 66.3129 57.1336 66.2566 56.2984 66.1475C55.8814 66.0931 55.4624 66.2539 55.2038 66.5855L41.7071 83.896C41.0361 84.7567 39.6557 84.2822 39.6557 83.1908V47.4482ZM58.855 56.7313C53.6384 56.7313 49.4095 52.5753 49.4095 47.4486C49.4095 42.322 53.6384 38.166 58.855 38.166C64.0716 38.166 68.3004 42.322 68.3004 47.4486C68.3004 52.5753 64.0716 56.7313 58.855 56.7313Z" fill="#4E77F7"/>
<path d="M63.0386 19.6571C63.1637 18.1905 64.4621 17.0844 65.9112 17.3469C69.2177 17.9459 72.3896 19.1468 75.2606 20.8955C78.1081 22.6299 80.5963 24.8646 82.6047 27.4802C83.5155 28.6663 83.0895 30.3497 81.7969 31.1194C80.5335 31.8716 78.9173 31.464 78.0025 30.3241C76.4471 28.3861 74.556 26.7235 72.4097 25.4162C70.2604 24.1071 67.9003 23.1817 65.4385 22.6756C64.0023 22.3803 62.9141 21.1175 63.0386 19.6571Z" fill="#4E77F7"/>
<path d="M63.9707 8.74537C64.0941 7.29723 65.3745 6.20889 66.8125 6.42637C71.8776 7.19235 76.7433 8.9545 81.1145 11.617C85.4623 14.2652 89.2161 17.7403 92.1608 21.8287C93.0238 23.0269 92.6057 24.6857 91.3294 25.4457C90.082 26.1884 88.4824 25.7911 87.6285 24.6277C85.1223 21.2134 81.9551 18.3072 78.2995 16.0806C74.6407 13.8521 70.5792 12.357 66.3488 11.6713C64.9193 11.4397 63.8477 10.1874 63.9707 8.74537Z" fill="#4E77F7"/>
</svg>
