<svg width="140" height="61" viewBox="0 0 140 61" fill="none" xmlns="http://www.w3.org/2000/svg">
    <path d="M11.1975 46.1341C9.08243 46.1341 6.99845 45.9038 4.94557 45.4432C2.89269 44.9519 1.24417 44.3224 0 43.5547L2.65941 37.5669C3.81027 38.2732 5.17885 38.8412 6.76517 39.2711C8.35148 39.6703 9.92225 39.8699 11.4775 39.8699C12.9082 39.8699 13.9191 39.7317 14.5101 39.4554C15.1322 39.1483 15.4432 38.7184 15.4432 38.1657C15.4432 37.613 15.07 37.2291 14.3235 37.0142C13.6081 36.7685 12.4572 36.5382 10.8709 36.3233C8.84915 36.0776 7.12287 35.7552 5.69207 35.356C4.29238 34.9568 3.07932 34.2199 2.05288 33.1451C1.02644 32.0704 0.51322 30.5657 0.51322 28.6312C0.51322 27.0345 0.995335 25.622 1.95957 24.3937C2.9238 23.1347 4.32349 22.1521 6.15863 21.4458C8.02489 20.7089 10.2488 20.3404 12.8305 20.3404C14.6656 20.3404 16.4852 20.5246 18.2893 20.8931C20.0933 21.2616 21.6019 21.7836 22.8149 22.4592L20.1555 28.4009C17.916 27.1726 15.4899 26.5585 12.8771 26.5585C11.4775 26.5585 10.451 26.7274 9.79783 27.0652C9.14464 27.3722 8.81805 27.7868 8.81805 28.3088C8.81805 28.8922 9.17574 29.3068 9.89114 29.5524C10.6065 29.7674 11.7885 29.9977 13.437 30.2433C15.521 30.5504 17.2473 30.9035 18.6159 31.3027C19.9845 31.7019 21.1664 32.4389 22.1618 33.5136C23.1882 34.5576 23.7014 36.0316 23.7014 37.9354C23.7014 39.5014 23.2193 40.9139 22.2551 42.1729C21.2908 43.4012 19.86 44.3685 17.9627 45.0747C16.0964 45.781 13.8414 46.1341 11.1975 46.1341Z" fill="#4E77F7"/>
    <path d="M72.6526 46.1341C69.9466 46.1341 67.5049 45.5814 65.3276 44.4759C63.1503 43.3705 61.4396 41.8351 60.1954 39.8699C58.9823 37.9047 58.3758 35.6784 58.3758 33.1912C58.3758 30.7346 58.9823 28.5237 60.1954 26.5585C61.4396 24.5933 63.1348 23.0733 65.2809 21.9985C67.4582 20.8931 69.9155 20.3404 72.6526 20.3404C75.3898 20.3404 77.8471 20.8931 80.0243 21.9985C82.2016 23.0733 83.8968 24.5933 85.1099 26.5585C86.323 28.493 86.9295 30.7039 86.9295 33.1912C86.9295 35.6784 86.323 37.9047 85.1099 39.8699C83.8968 41.8351 82.2016 43.3705 80.0243 44.4759C77.8471 45.5814 75.3898 46.1341 72.6526 46.1341ZM72.6526 39.179C74.2078 39.179 75.4831 38.657 76.4785 37.613C77.4738 36.5382 77.9715 35.0643 77.9715 33.1912C77.9715 31.3488 77.4738 29.9056 76.4785 28.8615C75.4831 27.8175 74.2078 27.2955 72.6526 27.2955C71.0974 27.2955 69.8222 27.8175 68.8268 28.8615C67.8315 29.9056 67.3338 31.3488 67.3338 33.1912C67.3338 35.0643 67.8315 36.5382 68.8268 37.613C69.8222 38.657 71.0974 39.179 72.6526 39.179Z" fill="#4E77F7"/>
    <path d="M110.362 44.7062C109.615 45.1668 108.697 45.52 107.609 45.7656C106.551 46.0113 105.416 46.1341 104.203 46.1341C100.906 46.1341 98.3709 45.3357 96.5979 43.739C94.8561 42.1422 93.9852 39.7624 93.9852 36.5996C93.9852 33.4059 93.9852 30.748 93.9852 28.2167C93.9852 26.0299 93.9852 23.9377 93.9852 21.6761C93.9852 19.6993 93.9852 17.5932 93.9852 15.1816H102.85V21.6761H108.589V28.2167H102.85V36.5075C102.85 37.4287 103.083 38.135 103.55 38.6263C104.016 39.1176 104.654 39.3632 105.463 39.3632C106.489 39.3632 107.391 39.1022 108.169 38.5802L110.362 44.7062Z" fill="#4E77F7"/>
    <path d="M125.723 46.1341C123.017 46.1341 120.575 45.5814 118.398 44.4759C116.221 43.3705 114.51 41.8351 113.266 39.8699C112.053 37.9047 111.446 35.6784 111.446 33.1912C111.446 30.7346 112.053 28.5237 113.266 26.5585C114.51 24.5933 116.205 23.0733 118.351 21.9985C120.529 20.8931 122.986 20.3404 125.723 20.3404C128.46 20.3404 130.918 20.8931 133.095 21.9985C135.272 23.0733 136.967 24.5933 138.18 26.5585C139.393 28.493 140 30.7039 140 33.1912C140 35.6784 139.393 37.9047 138.18 39.8699C136.967 41.8351 135.272 43.3705 133.095 44.4759C130.918 45.5814 128.46 46.1341 125.723 46.1341ZM125.723 39.179C127.278 39.179 128.554 38.657 129.549 37.613C130.544 36.5382 131.042 35.0643 131.042 33.1912C131.042 31.3488 130.544 29.9056 129.549 28.8615C128.554 27.8175 127.278 27.2955 125.723 27.2955C124.168 27.2955 122.893 27.8175 121.897 28.8615C120.902 29.9056 120.404 31.3488 120.404 33.1912C120.404 35.0643 120.902 36.5382 121.897 37.613C122.893 38.657 124.168 39.179 125.723 39.179Z" fill="#4E77F7"/>
    <path d="M93.9852 21.6761H88.4769V28.2167H93.9852V21.6761Z" fill="#4E77F7"/>
    <path fill-rule="evenodd" clip-rule="evenodd" d="M27.759 33.268C27.759 25.9629 33.7749 20.041 41.1959 20.041C48.6169 20.041 54.6328 25.9629 54.6328 33.268C54.6328 40.573 48.6169 46.495 41.1959 46.495C40.5905 46.495 39.9944 46.4555 39.4102 46.3792C39.1176 46.3409 38.8235 46.4539 38.6422 46.6868L29.1977 58.8198C28.7275 59.4239 27.759 59.0914 27.759 58.3259V33.268ZM41.1983 39.7769C37.5467 39.7769 34.5865 36.8629 34.5865 33.2684C34.5865 29.6738 37.5467 26.7599 41.1983 26.7599C44.8499 26.7599 47.8102 29.6738 47.8102 33.2684C47.8102 36.8629 44.8499 39.7769 41.1983 39.7769Z" fill="#4E77F7"/>
    <path d="M44.1272 13.7812C44.2147 12.753 45.1245 11.9779 46.1402 12.1623C48.4539 12.5825 50.6735 13.4243 52.6825 14.65C54.6767 15.8666 56.419 17.4343 57.8253 19.2693C58.462 20.1002 58.1643 21.2779 57.2604 21.817C56.3751 22.345 55.2414 22.0588 54.6001 21.2588C53.5117 19.9008 52.1885 18.7358 50.6869 17.8197C49.1833 16.9024 47.5324 16.2538 45.8103 15.8988C44.8033 15.6912 44.04 14.8053 44.1272 13.7812Z" fill="#4E77F7"/>
    <path d="M44.7793 6.13129C44.8657 5.11613 45.7629 4.35342 46.7708 4.50618C50.3156 5.04343 53.7207 6.27883 56.7799 8.14523C59.8243 10.0026 62.4526 12.44 64.5142 15.3077C65.1175 16.1469 64.8253 17.3075 63.9328 17.8398C63.0586 18.3611 61.9367 18.0821 61.3382 17.2656C59.5842 14.8726 57.3676 12.8356 54.8094 11.2749C52.2493 9.71295 49.4073 8.66487 46.4472 8.18388C45.4449 8.02101 44.6932 7.14254 44.7793 6.13129Z" fill="#4E77F7"/>
</svg>
