<svg width="25" height="25" viewBox="0 0 25 25" xmlns="http://www.w3.org/2000/svg">
<path d="M12.2148 1.5C10.0393 1.5 7.91252 2.14514 6.10358 3.35383C4.29464 4.56253 2.88474 6.2805 2.05217 8.29048C1.21961 10.3005 1.00177 12.5122 1.42621 14.646C1.85065 16.7798 2.8983 18.7398 4.43667 20.2782C5.97505 21.8166 7.93506 22.8642 10.0689 23.2886C12.2026 23.7131 14.4144 23.4952 16.4244 22.6627C18.4344 21.8301 20.1523 20.4202 21.361 18.6113C22.5697 16.8023 23.2148 14.6756 23.2148 12.5C23.2114 9.58368 22.0514 6.78778 19.9892 4.72563C17.9271 2.66347 15.1312 1.50344 12.2148 1.5ZM15.9218 16.207C15.7343 16.3945 15.48 16.4998 15.2148 16.4998C14.9497 16.4998 14.6954 16.3945 14.5078 16.207L11.5078 13.207C11.3203 13.0195 11.2149 12.7652 11.2148 12.5V6.5C11.2148 6.23478 11.3202 5.98043 11.5077 5.79289C11.6953 5.60536 11.9496 5.5 12.2148 5.5C12.4801 5.5 12.7344 5.60536 12.922 5.79289C13.1095 5.98043 13.2148 6.23478 13.2148 6.5V12.086L15.9218 14.793C16.1093 14.9805 16.2146 15.2348 16.2146 15.5C16.2146 15.7652 16.1093 16.0195 15.9218 16.207Z"/>
</svg>
