<svg width="24" height="25" viewBox="0 0 24 25" fill="none" xmlns="http://www.w3.org/2000/svg">
<path d="M8.5 1.5H3.5C2.11929 1.5 1 2.61929 1 4V6C1 7.38072 2.11929 8.5 3.5 8.5H8.5C9.88071 8.5 11 7.38072 11 6V4C11 2.61929 9.88071 1.5 8.5 1.5Z" />
<path d="M20.5 16.5H15.5C14.1193 16.5 13 17.6193 13 19V21C13 22.3807 14.1193 23.5 15.5 23.5H20.5C21.8807 23.5 23 22.3807 23 21V19C23 17.6193 21.8807 16.5 20.5 16.5Z" />
<path d="M8.5 9.5H3.5C2.11929 9.5 1 10.6193 1 12V21C1 22.3807 2.11929 23.5 3.5 23.5H8.5C9.88071 23.5 11 22.3807 11 21V12C11 10.6193 9.88071 9.5 8.5 9.5Z" />
<path d="M20.5 1.5H15.5C14.1193 1.5 13 2.61929 13 4V13C13 14.3807 14.1193 15.5 15.5 15.5H20.5C21.8807 15.5 23 14.3807 23 13V4C23 2.61929 21.8807 1.5 20.5 1.5Z" />
</svg>
