<svg width="24" height="25" viewBox="0 0 24 25" fill="none" xmlns="http://www.w3.org/2000/svg">
<g clip-path="url(#clip0_2763_20992)">
<path d="M16.2338 7.09198C15.8418 6.51589 15.1895 6.17188 14.4891 6.17188H12.7031V4.01562C12.7031 2.0772 11.1259 0.5 9.1875 0.5C8.79886 0.5 8.48437 0.814484 8.48437 1.20312V3.14356C8.48437 4.26486 7.83754 5.35611 6.81928 5.85941C6.47508 6.04147 6.08602 6.1302 5.67188 6.1527V13.2031H6.13331C6.38437 13.3914 6.65156 13.5567 6.92611 13.7097L7.93228 11.194C8.45348 9.87495 9.76701 8.98438 11.1987 8.98438H13.6452C14.1539 8.98438 14.6669 9.03176 15.2135 9.12992C15.5858 9.20202 15.9515 9.29858 16.3083 9.41764L16.4501 9.06125C16.4508 9.06055 16.4508 9.05989 16.4515 9.05919C16.709 8.40486 16.6273 7.66944 16.2338 7.09198Z" fill="#AEC1FE"/>
<path d="M4.26562 6.17188H0.703125C0.314484 6.17188 0 6.48636 0 6.875V13.9062C0 14.2949 0.314484 14.6094 0.703125 14.6094H4.26562V6.17188Z" fill="#AEC1FE"/>
<path d="M18.3281 11.7969H17.8667C17.0194 11.1611 16.0244 10.7195 14.965 10.5142C14.5022 10.4312 14.0702 10.3906 13.6452 10.3906H11.1987C10.339 10.3906 9.55079 10.9255 9.23837 11.7165L7.54852 15.9408C7.29104 16.5951 7.37274 17.3305 7.76621 17.908C8.15827 18.4841 8.81059 18.8281 9.51099 18.8281H11.2969V20.9844C11.2969 22.9228 12.8741 24.5 14.8125 24.5C15.2012 24.5 15.5156 24.1855 15.5156 23.7969V21.8564C15.5156 20.7351 16.1625 19.6432 17.1801 19.1406C17.5243 18.9585 17.9138 18.8698 18.3281 18.8473V11.7969Z" fill="#AEC1FE"/>
<path d="M23.2969 10.3906H19.7344V18.8281H23.2969C23.6855 18.8281 24 18.5136 24 18.125V11.0938C24 10.7051 23.6855 10.3906 23.2969 10.3906Z" fill="#AEC1FE"/>
</g>
<defs>
<clipPath id="clip0_2763_20992">
<rect width="24" height="24" fill="white" transform="translate(0 0.5)"/>
</clipPath>
</defs>
</svg>
