<svg width="25" height="25" viewBox="0 0 25 25" fill="none" xmlns="http://www.w3.org/2000/svg">
    <g clip-path="url(#clip0_7392_67817)">
        <path d="M12.2165 9.972C14.8279 9.972 16.9525 7.84748 16.9525 5.236C16.9525 2.62453 14.8279 0.5 12.2165 0.5C9.60499 0.5 7.48047 2.62453 7.48047 5.236C7.48047 7.84748 9.60499 9.972 12.2165 9.972Z" />
        <path d="M18.5708 12.2671C18.5688 12.2664 18.5649 12.265 18.5629 12.2645C17.9463 12.1138 16.0579 11.8497 16.0579 11.8497C15.8448 11.7841 15.617 11.897 15.5403 12.1073L12.6979 19.906C12.534 20.3559 11.8977 20.3559 11.7337 19.906L8.89139 12.1073C8.82949 11.9374 8.66917 11.8309 8.49737 11.8309C8.45664 11.8309 6.51507 12.1032 5.86868 12.2639C4.10238 12.7031 2.98828 14.44 2.98828 16.2501V22.7391C2.98828 23.7116 3.77664 24.4999 4.74909 24.4999H19.681C20.6534 24.4999 21.4418 23.7116 21.4418 22.7391V16.2285C21.4417 14.4262 20.284 12.8268 18.5708 12.2671Z" />
        <path d="M13.2877 11.701C13.1743 11.5774 13.0085 11.5153 12.8407 11.5153H11.5894C11.4216 11.5153 11.2557 11.5775 11.1424 11.701C10.9668 11.8924 10.9412 12.1688 11.0659 12.3848L11.7348 13.3932L11.4217 16.0349L12.0384 17.6753C12.0985 17.8403 12.3318 17.8403 12.3919 17.6753L13.0085 16.0349L12.6954 13.3932L13.3643 12.3848C13.4889 12.1688 13.4633 11.8924 13.2877 11.701Z" />
    </g>
    <defs>
        <clipPath id="clip0_7392_67817">
            <rect width="24" height="24" fill="white" transform="translate(0.214844 0.5)"/>
        </clipPath>
    </defs>
</svg>
