<svg width="24" height="24" viewBox="0 0 24 24" fill="none" xmlns="http://www.w3.org/2000/svg">
<g clip-path="url(#clip0_2763_20919)">
<path d="M20.4801 3.51519C15.7929 -1.17203 8.20642 -1.17273 3.51855 3.51519C-0.250663 7.28435 -0.962914 12.8888 1.26546 17.3521L0.0300535 22.7862C-0.130523 23.4925 0.502495 24.1258 1.20907 23.9652L6.64321 22.7298C14.5444 26.6747 23.9931 20.9635 23.9931 11.996C23.9931 8.79245 22.7455 5.78057 20.4801 3.51519ZM14.5012 14.9827H6.99546C6.45139 14.9827 6.01033 14.5416 6.01033 13.9975C6.01033 13.4534 6.45139 13.0124 6.99546 13.0124H14.5012C15.0453 13.0124 15.4864 13.4534 15.4864 13.9975C15.4864 14.5416 15.0453 14.9827 14.5012 14.9827ZM17.0032 10.9796H6.99546C6.45139 10.9796 6.01033 10.5385 6.01033 9.99446C6.01033 9.45038 6.45139 9.00932 6.99546 9.00932H17.0032C17.5473 9.00932 17.9883 9.45038 17.9883 9.99446C17.9883 10.5385 17.5472 10.9796 17.0032 10.9796Z" />
</g>
<defs>
<clipPath id="clip0_2763_20919">
<rect width="24" height="24" fill="white"/>
</clipPath>
</defs>
</svg>
