<svg width="22" height="23" viewBox="0 0 22 23" fill="none" xmlns="http://www.w3.org/2000/svg">
<path d="M21.4069 10.0689C21.4064 10.0684 21.4058 10.0679 21.4053 10.0674L12.4311 1.09351C12.0486 0.710815 11.54 0.5 10.999 0.5C10.458 0.5 9.94947 0.710648 9.56678 1.09334L0.597221 10.0627C0.5942 10.0658 0.591179 10.0689 0.588157 10.072C-0.197365 10.862 -0.196022 12.1439 0.592018 12.9319C0.952049 13.2921 1.42756 13.5007 1.93597 13.5226C1.95661 13.5246 1.97742 13.5256 1.99841 13.5256H2.35609V20.1298C2.35609 21.4367 3.4194 22.5 4.72659 22.5H8.2376C8.59344 22.5 8.88213 22.2115 8.88213 21.8555V16.6777C8.88213 16.0814 9.36721 15.5963 9.96357 15.5963H12.0345C12.6308 15.5963 13.1159 16.0814 13.1159 16.6777V21.8555C13.1159 22.2115 13.4044 22.5 13.7604 22.5H17.2714C18.5786 22.5 19.6419 21.4367 19.6419 20.1298V13.5256H19.9736C20.5144 13.5256 21.023 13.3149 21.4058 12.9322C22.1947 12.1429 22.1951 10.8588 21.4069 10.0689V10.0689Z"/>
</svg>
