<svg width="24" height="24" viewBox="0 0 24 24" fill="none" xmlns="http://www.w3.org/2000/svg">
<g clip-path="url(#clip0_2763_20925)">
<path d="M15 13C14.447 13 14 13.448 14 14V18C14 18.551 13.552 19 13 19H10V4C10 3.146 9.456 2.383 8.638 2.099L8.342 2H13C13.552 2 14 2.449 14 3V6C14 6.552 14.447 7 15 7C15.553 7 16 6.552 16 6V3C16 1.346 14.654 0 13 0H2.25C2.212 0 2.18 0.017 2.143 0.022C2.095 0.018 2.049 0 2 0C0.897 0 0 0.897 0 2V20C0 20.854 0.544 21.617 1.362 21.901L7.38 23.907C7.584 23.97 7.787 24 8 24C9.103 24 10 23.103 10 22V21H13C14.654 21 16 19.654 16 18V14C16 13.448 15.553 13 15 13Z" />
<path d="M23.708 9.29124L19.708 5.29124C19.422 5.00524 18.992 4.91924 18.618 5.07424C18.245 5.22924 18.001 5.59424 18.001 5.99824V8.99824H14.001C13.449 8.99824 13.001 9.44624 13.001 9.99824C13.001 10.5502 13.449 10.9982 14.001 10.9982H18.001V13.9982C18.001 14.4022 18.245 14.7672 18.618 14.9222C18.992 15.0772 19.422 14.9912 19.708 14.7052L23.708 10.7052C24.099 10.3142 24.099 9.68224 23.708 9.29124Z" />
</g>
<defs>
<clipPath id="clip0_2763_20925">
<rect width="24" height="24" fill="white"/>
</clipPath>
</defs>
</svg>
