<svg width="17" height="23" viewBox="0 0 17 23" fill="none" xmlns="http://www.w3.org/2000/svg">
<path d="M8.79648 0.237793C4.48407 0.237793 0.975586 3.74628 0.975586 8.05868C0.975586 13.4789 8.80417 22.7378 8.80417 22.7378C8.80417 22.7378 16.6174 13.2124 16.6174 8.05868C16.6174 3.74628 13.109 0.237793 8.79648 0.237793ZM11.1562 10.3486C10.5055 10.9992 9.65108 11.3245 8.79648 11.3245C7.94202 11.3245 7.08728 10.9992 6.43689 10.3486C5.1357 9.04759 5.1357 6.93053 6.43689 5.62933C7.06696 4.99899 7.90508 4.65182 8.79648 4.65182C9.68788 4.65182 10.5259 4.99913 11.1562 5.62933C12.4574 6.93053 12.4574 9.04759 11.1562 10.3486Z" />
</svg>
