<svg width="16" height="24" viewBox="0 0 16 24" fill="none" xmlns="http://www.w3.org/2000/svg">
<path d="M13.6318 3.22881H10.9623V2.97458C10.9623 1.32203 9.61482 0 7.9877 0C6.36058 0 5.01313 1.34746 5.01313 2.97458V3.22881H2.34363C1.14872 3.22881 0.182617 4.19492 0.182617 5.38983V21.839C0.182617 23.0339 1.14872 24 2.34363 24H13.6572C14.8521 24 15.8182 23.0339 15.8182 21.839V5.38983C15.7928 4.19492 14.8267 3.22881 13.6318 3.22881ZM7.9877 1.27119C8.92838 1.27119 9.69109 2.0339 9.69109 2.97458V4.37288H6.28431V2.97458C6.25889 2.0339 7.04702 1.27119 7.9877 1.27119ZM12.3352 20.8983H3.64024V19.6271H12.3352V20.8983ZM12.208 17.9492H3.76736C3.61482 17.9492 3.51313 17.8475 3.51313 17.6949V16.9322C3.51313 16.2458 3.89448 15.6102 4.50465 15.2797L6.15719 14.3898C6.23347 14.339 6.28431 14.2627 6.28431 14.161V13.6271C6.00465 13.2458 5.80126 12.8136 5.67414 12.3559C5.47075 12.178 5.36906 11.9237 5.36906 11.6441V10.9068C5.36906 10.7034 5.44533 10.5 5.54702 10.3475V9.88983C5.49618 9.40678 5.67414 8.8983 5.97923 8.51695C6.41143 8.0339 7.07245 7.77966 7.9877 7.77966C8.90296 7.77966 9.56397 8.0339 9.99618 8.51695C10.3267 8.8983 10.4792 9.38136 10.4284 9.88983V10.3475C10.5555 10.5 10.6063 10.7034 10.6063 10.9068V11.6441C10.6063 11.9746 10.4284 12.3051 10.1233 12.4831C9.99618 12.839 9.81821 13.1949 9.5894 13.5254L9.51313 13.6271V14.161C9.51313 14.2627 9.56397 14.339 9.64024 14.3898L11.3945 15.2797C12.0301 15.6102 12.4369 16.2458 12.4369 16.9831V17.6949C12.4623 17.8475 12.3352 17.9492 12.208 17.9492Z" />
</svg>
