<svg width="21" height="24" viewBox="0 0 21 24" fill="none" xmlns="http://www.w3.org/2000/svg">
<path d="M10.8174 11.5609C12.4038 11.5609 13.7775 10.9912 14.8999 9.86733C16.0223 8.74362 16.5913 7.36868 16.5913 5.78025C16.5913 4.19237 16.0223 2.81725 14.8997 1.69317C13.7771 0.569639 12.4036 0 10.8174 0C9.23079 0 7.85745 0.569639 6.73504 1.69335C5.61263 2.81707 5.04347 4.19218 5.04347 5.78025C5.04347 7.36868 5.61263 8.7438 6.73523 9.86751C7.85782 10.991 9.23134 11.5609 10.8174 11.5609Z" />
<path d="M20.9203 18.4548C20.8879 17.9872 20.8224 17.477 20.7261 16.9383C20.6288 16.3956 20.5035 15.8826 20.3535 15.4136C20.1986 14.9289 19.9879 14.4503 19.7275 13.9916C19.4571 13.5156 19.1396 13.101 18.7834 12.7599C18.4108 12.403 17.9547 12.1161 17.4272 11.9068C16.9016 11.6986 16.3191 11.5931 15.696 11.5931C15.4513 11.5931 15.2146 11.6937 14.7575 11.9916C14.4763 12.1752 14.1472 12.3876 13.78 12.6226C13.466 12.8229 13.0406 13.0106 12.5151 13.1805C12.0025 13.3466 11.4819 13.4308 10.9682 13.4308C10.4545 13.4308 9.93413 13.3466 9.42093 13.1805C8.89603 13.0107 8.47062 12.8231 8.15696 12.6227C7.79319 12.39 7.46399 12.1776 7.17849 11.9914C6.72199 11.6935 6.48515 11.593 6.24044 11.593C5.61714 11.593 5.03481 11.6986 4.50936 11.907C3.98227 12.1159 3.52595 12.4028 3.15303 12.7601C2.79694 13.1014 2.47926 13.5157 2.20931 13.9916C1.94905 14.4503 1.73836 14.9288 1.58327 15.4138C1.43348 15.8827 1.3082 16.3956 1.2109 16.9383C1.11452 17.4763 1.04904 17.9866 1.01667 18.4554C0.984845 18.9146 0.96875 19.3912 0.96875 19.8726C0.96875 21.1254 1.36654 22.1396 2.15097 22.8876C2.9257 23.6257 3.95081 24.0001 5.1974 24.0001H16.7401C17.9867 24.0001 19.0114 23.6259 19.7864 22.8876C20.571 22.1402 20.9688 21.1258 20.9688 19.8724C20.9686 19.3888 20.9523 18.9118 20.9203 18.4548Z" />
</svg>
