<svg width="24" height="25" viewBox="0 0 24 25" fill="none" xmlns="http://www.w3.org/2000/svg">
<g clip-path="url(#clip0_6008_28478)">
<path d="M12 4.93179C7.79683 4.93179 4.37735 8.35132 4.37735 12.5545C4.37735 16.7576 7.79688 20.1771 12 20.1771C16.2032 20.1771 19.6227 16.7576 19.6227 12.5545C19.6227 8.35128 16.2032 4.93179 12 4.93179ZM13.8982 15.6511C13.5769 15.9142 13.1688 16.0875 12.6743 16.1717V17.6196C12.6743 18.0081 12.3593 18.323 11.9709 18.323C11.5824 18.323 11.2675 18.0081 11.2675 17.6196V16.1945C10.8104 16.1402 10.4041 16.0258 10.0487 15.8516C9.53238 15.5984 9.27443 15.3062 9.27443 14.975C9.27443 14.7997 9.33837 14.6171 9.46666 14.4272C9.59468 14.2372 9.74266 14.1423 9.91019 14.1423C10.0184 14.1423 10.1539 14.1911 10.3167 14.2888C10.4793 14.3865 10.6936 14.4863 10.9598 14.5883C11.2259 14.6904 11.5412 14.7412 11.906 14.7412C12.6255 14.7412 12.9853 14.5376 12.9853 14.1302C12.9853 13.9028 12.8659 13.7229 12.6274 13.5901C12.3886 13.4575 12.1014 13.3486 11.7654 13.2632C11.4294 13.178 11.0909 13.0762 10.7501 12.9577C10.4091 12.8393 10.1194 12.6402 9.88085 12.3608C9.64207 12.0814 9.52291 11.7237 9.52291 11.2877C9.52291 10.6833 9.73226 10.1631 10.1511 9.72711C10.4215 9.44553 10.7941 9.2554 11.2676 9.15556V7.68711C11.2676 7.29861 11.5826 6.9837 11.9711 6.9837C12.3596 6.9837 12.6745 7.29865 12.6745 7.68711V9.10011C13.065 9.13948 13.4248 9.22226 13.7523 9.35042C14.2245 9.53557 14.4608 9.7595 14.4608 10.0225C14.4608 10.1882 14.3951 10.3804 14.2636 10.5995C14.1321 10.8186 13.9689 10.9282 13.7741 10.9282C13.6961 10.9282 13.4842 10.8675 13.1386 10.7456C12.7928 10.6239 12.4689 10.5629 12.1671 10.5629C11.8359 10.5629 11.5827 10.6294 11.4074 10.762C11.2321 10.8946 11.1445 11.0414 11.1445 11.2025C11.1445 11.3637 11.2322 11.4964 11.4074 11.6004C11.5827 11.7048 11.7994 11.7853 12.0575 11.8422C12.3154 11.899 12.5926 11.9771 12.8884 12.0766C13.1843 12.1761 13.4589 12.2921 13.7119 12.4247C13.9648 12.5575 14.1773 12.7637 14.3492 13.0431C14.5209 13.3225 14.6069 13.6613 14.6069 14.0591C14.6068 14.7337 14.3705 15.2644 13.8982 15.6511Z" fill=""/>
<path d="M20.4853 4.01469C18.2188 1.74819 15.2053 0.5 12 0.5C8.79478 0.5 5.78123 1.74819 3.51473 4.01469C1.24823 6.28119 0 9.29469 0 12.5C0 15.7053 1.24819 18.7188 3.51469 20.9853C5.78119 23.2518 8.79469 24.5 12 24.5C15.2053 24.5 18.2188 23.2518 20.4853 20.9853C22.7518 18.7188 24 15.7053 24 12.5C24 9.29469 22.7518 6.28119 20.4853 4.01469ZM12 21.584C7.02113 21.584 2.97052 17.5333 2.97052 12.5545C2.97052 7.57555 7.02113 3.52494 12 3.52494C16.979 3.52494 21.0296 7.57555 21.0296 12.5545C21.0296 17.5333 16.979 21.584 12 21.584Z" fill=""/>
</g>
<defs>
<clipPath id="clip0_6008_28478">
<rect width="24" height="24" fill="" transform="translate(0 0.5)"/>
</clipPath>
</defs>
</svg>
