<svg width="24" height="25" viewBox="0 0 24 25" fill="none" xmlns="http://www.w3.org/2000/svg">
<g clip-path="url(#clip0_2763_20984)">
<path d="M23.4656 10.4656L20.6578 9.77656C20.5031 9.28437 20.3062 8.80625 20.0672 8.34219L21.5016 5.95156C21.6703 5.67031 21.6281 5.31875 21.4031 5.09375L19.4062 3.09688C19.1812 2.87188 18.8297 2.82969 18.5484 2.99844L16.1578 4.43281C15.6938 4.19375 15.2156 3.99688 14.7234 3.84219L14.0484 1.03437C13.9641 0.725 13.6828 0.5 13.3594 0.5H10.5469C10.2234 0.5 9.94219 0.725 9.85781 1.03437L9.18281 3.84219C8.69062 3.99688 8.2125 4.19375 7.74844 4.43281L5.35781 2.99844C5.07656 2.82969 4.725 2.87188 4.5 3.09688L2.50313 5.09375C2.27813 5.31875 2.23594 5.67031 2.40469 5.95156L3.83906 8.34219C3.6 8.80625 3.40313 9.28437 3.24844 9.77656L0.534375 10.4656C0.225 10.5359 0 10.8172 0 11.1406V13.9531C0 14.2766 0.225 14.5578 0.534375 14.6281L3.24844 15.3172C3.40313 15.8094 3.6 16.2875 3.83906 16.7516L2.40469 19.1422C2.23594 19.4234 2.27813 19.775 2.50313 20L4.5 21.9969C4.725 22.2219 5.07656 22.2641 5.35781 22.0953L7.74844 20.6609C8.2125 20.9 8.69062 21.0969 9.18281 21.2516L9.85781 23.9656C9.94219 24.275 10.2234 24.5 10.5469 24.5H13.3594C13.6828 24.5 13.9641 24.275 14.0484 23.9656L14.7234 21.2516C15.2156 21.0969 15.6938 20.9 16.1578 20.6609L18.5484 22.0953C18.8297 22.2641 19.1812 22.2219 19.4062 21.9969L21.4031 20C21.6281 19.775 21.6703 19.4234 21.5016 19.1422L20.0672 16.7516C20.3062 16.2875 20.5031 15.8094 20.6578 15.3172L23.4656 14.6281C23.775 14.5578 24 14.2766 24 13.9531V11.1406C24 10.8172 23.775 10.5359 23.4656 10.4656ZM11.9531 16.0625C10.0125 16.0625 8.4375 14.4875 8.4375 12.5469C8.4375 10.6062 10.0125 9.03125 11.9531 9.03125C13.8938 9.03125 15.4688 10.6062 15.4688 12.5469C15.4688 14.4875 13.8938 16.0625 11.9531 16.0625Z" />
</g>
<defs>
<clipPath id="clip0_2763_20984">
<rect width="24" height="24" fill="white" transform="translate(0 0.5)"/>
</clipPath>
</defs>
</svg>
