<svg width="24" height="19" viewBox="0 0 24 19" fill="none" xmlns="http://www.w3.org/2000/svg">
<g clip-path="url(#clip0_2763_20965)">
<path d="M4.94607 1.74999L3.39453 5.10521C3.27484 5.36339 3.00057 5.53064 2.69726 5.53041H1C0.447738 5.53046 5.52223e-05 5.94519 2.34368e-09 6.4568V7.3832C-2.58576e-05 7.73411 0.213953 8.05492 0.552734 8.21189L1.55273 8.67508C1.82661 8.8018 1.99974 9.06095 2 9.34455V16.6471C2 17.6576 2.9093 18.4999 4 18.4999C5.0907 18.4999 6 17.6576 6 16.6471V16.1839C6 15.9281 6.22385 15.7207 6.5 15.7207H17.5C17.7761 15.7207 18 15.9281 18 16.1839V16.6471C18 17.6576 18.9093 18.4999 20 18.4999C21.0907 18.4999 22 17.6576 22 16.6471V9.34455C22.0002 9.06095 22.1734 8.8018 22.4473 8.67508L23.4473 8.21189C23.786 8.05492 24 7.73411 24 7.3832V6.4568C23.9999 5.94519 23.5522 5.53046 23 5.53041H21.3027C20.9994 5.53064 20.7252 5.36339 20.6055 5.10521L19.0539 1.74999C18.9371 1.49726 18.7427 1.28186 18.4949 1.13049C18.2472 0.979123 17.9569 0.898437 17.6601 0.898438H6.33984C6.04306 0.898437 5.7528 0.979123 5.50504 1.13049C5.25729 1.28186 5.06293 1.49726 4.94607 1.74999ZM7.15429 2.75123H16.8398C17.1431 2.75101 17.4174 2.91826 17.5371 3.17643L19.2851 6.958C19.3777 7.15927 19.2186 7.38281 18.9824 7.3832H5.01758C4.7814 7.38281 4.62225 7.15927 4.71484 6.958L6.46289 3.17643C6.58174 2.92006 6.85312 2.75317 7.15429 2.75123ZM4.5 10.1624H7.5C7.777 10.1624 8 10.369 8 10.6256V11.552C8 11.8086 7.777 12.0152 7.5 12.0152H4.5C4.223 12.0152 4 11.8086 4 11.552V10.6256C4 10.369 4.223 10.1624 4.5 10.1624ZM16.5 10.1624H19.5C19.777 10.1624 20 10.369 20 10.6256V11.552C20 11.8086 19.777 12.0152 19.5 12.0152H16.5C16.223 12.0152 16 11.8086 16 11.552V10.6256C16 10.369 16.223 10.1624 16.5 10.1624Z" />
</g>
<defs>
<clipPath id="clip0_2763_20965">
<rect width="24" height="18" fill="white" transform="translate(0 0.5)"/>
</clipPath>
</defs>
</svg>
