<svg width="24" height="25" viewBox="0 0 24 25" fill="none" xmlns="http://www.w3.org/2000/svg">
<g clip-path="url(#clip0_2763_20948)">
<path d="M11.8285 12.0609C13.4167 12.0609 14.7921 11.4912 15.9158 10.3673C17.0395 9.24362 17.6091 7.86868 17.6091 6.28025C17.6091 4.69237 17.0395 3.31725 15.9156 2.19317C14.7917 1.06964 13.4166 0.5 11.8285 0.5C10.2401 0.5 8.86511 1.06964 7.74139 2.19335C6.61768 3.31707 6.04785 4.69218 6.04785 6.28025C6.04785 7.86868 6.61768 9.2438 7.74158 10.3675C8.86548 11.491 10.2406 12.0609 11.8285 12.0609Z" />
<path d="M21.9435 18.9546C21.9111 18.487 21.8456 17.9768 21.7491 17.4382C21.6517 16.8954 21.5262 16.3824 21.3761 15.9134C21.221 15.4288 21.0101 14.9501 20.7493 14.4914C20.4787 14.0154 20.1608 13.6008 19.8041 13.2597C19.4312 12.9028 18.9745 12.6159 18.4464 12.4066C17.9202 12.1984 17.337 12.093 16.7131 12.093C16.4681 12.093 16.2312 12.1935 15.7736 12.4914C15.492 12.675 15.1626 12.8874 14.7949 13.1224C14.4805 13.3227 14.0546 13.5104 13.5286 13.6803C13.0153 13.8464 12.4942 13.9306 11.9799 13.9306C11.4655 13.9306 10.9446 13.8464 10.4308 13.6803C9.90527 13.5106 9.47937 13.3229 9.16534 13.1226C8.80115 12.8898 8.47156 12.6774 8.18573 12.4912C7.7287 12.1933 7.49158 12.0928 7.24658 12.0928C6.62256 12.0928 6.03955 12.1984 5.51349 12.4068C4.98578 12.6157 4.52893 12.9026 4.15558 13.2599C3.79907 13.6012 3.48102 14.0156 3.21075 14.4914C2.9502 14.9501 2.73926 15.4286 2.58398 15.9136C2.43402 16.3826 2.30859 16.8954 2.21118 17.4382C2.11469 17.9761 2.04913 18.4864 2.01672 18.9552C1.98486 19.4144 1.96875 19.891 1.96875 20.3724C1.96875 21.6252 2.367 22.6394 3.15234 23.3874C3.92798 24.1255 4.95428 24.5 6.20233 24.5H17.7585C19.0065 24.5 20.0325 24.1257 20.8083 23.3874C21.5938 22.64 21.9921 21.6256 21.9921 20.3722C21.9919 19.8886 21.9756 19.4117 21.9435 18.9546Z" />
</g>
<defs>
<clipPath id="clip0_2763_20948">
<rect width="24" height="24" fill="white" transform="translate(0 0.5)"/>
</clipPath>
</defs>
</svg>
