<svg width="24" height="25" viewBox="0 0 24 25" fill="none" xmlns="http://www.w3.org/2000/svg">
<g clip-path="url(#clip0_8372_68493)">
<path d="M17.6313 3.72881H14.9618V3.47458C14.9618 1.82203 13.6143 0.5 11.9872 0.5C10.3601 0.5 9.01264 1.84746 9.01264 3.47458V3.72881H6.34315C5.14823 3.72881 4.18213 4.69492 4.18213 5.88983V22.339C4.18213 23.5339 5.14823 24.5 6.34315 24.5H17.6567C18.8516 24.5 19.8177 23.5339 19.8177 22.339V5.88983C19.7923 4.69492 18.8262 3.72881 17.6313 3.72881ZM11.9872 1.77119C12.9279 1.77119 13.6906 2.5339 13.6906 3.47458V4.87288H10.2838V3.47458C10.2584 2.5339 11.0465 1.77119 11.9872 1.77119ZM16.3347 21.3983H7.63976V20.1271H16.3347V21.3983ZM16.2076 18.4492H7.76687C7.61433 18.4492 7.51264 18.3475 7.51264 18.1949V17.4322C7.51264 16.7458 7.89399 16.1102 8.50416 15.7797L10.1567 14.8898C10.233 14.839 10.2838 14.7627 10.2838 14.661V14.1271C10.0042 13.7458 9.80077 13.3136 9.67365 12.8559C9.47026 12.678 9.36857 12.4237 9.36857 12.1441V11.4068C9.36857 11.2034 9.44484 11 9.54654 10.8475V10.3898C9.49569 9.90678 9.67365 9.3983 9.97874 9.01695C10.4109 8.5339 11.072 8.27966 11.9872 8.27966C12.9025 8.27966 13.5635 8.5339 13.9957 9.01695C14.3262 9.3983 14.4787 9.88136 14.4279 10.3898V10.8475C14.555 11 14.6059 11.2034 14.6059 11.4068V12.1441C14.6059 12.4746 14.4279 12.8051 14.1228 12.9831C13.9957 13.339 13.8177 13.6949 13.5889 14.0254L13.5126 14.1271V14.661C13.5126 14.7627 13.5635 14.839 13.6398 14.8898L15.394 15.7797C16.0296 16.1102 16.4364 16.7458 16.4364 17.4831V18.1949C16.4618 18.3475 16.3347 18.4492 16.2076 18.4492Z"/>
</g>
<defs>
<clipPath id="clip0_8372_68493">
<rect width="24" height="24" fill="white" transform="translate(0 0.5)"/>
</clipPath>
</defs>
</svg>
