<svg width="13" height="13" viewBox="0 0 13 13" fill="none" xmlns="http://www.w3.org/2000/svg">
<path d="M12.7299 9.37399L8.13762 0.93222C7.39979 -0.309915 5.60119 -0.311565 4.86238 0.93222L0.270331 9.37399C-0.483923 10.6432 0.429251 12.2505 1.90757 12.2505H11.0923C12.5693 12.2505 13.4841 10.6445 12.7299 9.37399ZM6.5 10.7271C6.08009 10.7271 5.73828 10.3853 5.73828 9.96537C5.73828 9.54546 6.08009 9.20365 6.5 9.20365C6.91991 9.20365 7.26172 9.54546 7.26172 9.96537C7.26172 10.3853 6.91991 10.7271 6.5 10.7271ZM7.26172 7.68021C7.26172 8.10012 6.91991 8.44193 6.5 8.44193C6.08009 8.44193 5.73828 8.10012 5.73828 7.68021V3.87162C5.73828 3.45171 6.08009 3.1099 6.5 3.1099C6.91991 3.1099 7.26172 3.45171 7.26172 3.87162V7.68021Z" fill="#FFC83A"/>
</svg>
