<svg width="300" height="257" viewBox="0 0 300 257" fill="none" xmlns="http://www.w3.org/2000/svg">
<path d="M300 229.44H0V229.59H300V229.44Z" fill="#EBEBEB"/>
<path d="M269.94 239.094H256.932V239.244H269.94V239.094Z" fill="#EBEBEB"/>
<path d="M206.802 235.986H186.336V236.136H206.802V235.986Z" fill="#EBEBEB"/>
<path d="M264.672 233.526H237.954V233.676H264.672V233.526Z" fill="#EBEBEB"/>
<path d="M103.812 236.55H97.1279V236.7H103.812V236.55Z" fill="#EBEBEB"/>
<path d="M91.782 236.55H68.748V236.7H91.782V236.55Z" fill="#EBEBEB"/>
<path d="M56.4061 234.018H39.7861V234.168H56.4061V234.018Z" fill="#EBEBEB"/>
<path d="M193.424 140.208L195.41 138.354L194.624 136.788C195.224 136.086 195.763 135.336 196.238 134.544L197.978 134.802L199.1 132.318L197.768 131.184C198.055 130.306 198.266 129.404 198.398 128.49L200.108 128.064L200.192 125.34L198.524 124.8C198.451 123.877 198.302 122.962 198.08 122.064L199.49 121.014L198.53 118.464L196.784 118.602C196.363 117.78 195.875 116.993 195.326 116.25L196.232 114.75L194.366 112.758L192.806 113.556C192.103 112.958 191.353 112.418 190.562 111.942L190.814 110.202L188.336 109.068L187.196 110.406C186.316 110.132 185.415 109.931 184.502 109.806L184.076 108.102L181.352 108L180.806 109.68C179.887 109.75 178.976 109.899 178.082 110.124L177.038 108.714L174.482 109.668L174.626 111.42C173.801 111.837 173.014 112.325 172.274 112.878L170.762 111.972L168.77 113.826L169.544 115.356C168.94 116.056 168.398 116.807 167.924 117.6L166.19 117.342L165.062 119.826L166.4 120.966C166.123 121.843 165.922 122.742 165.8 123.654L164.084 124.08L164 126.804L165.674 127.344C165.742 128.267 165.889 129.182 166.112 130.08L164.696 131.124L165.656 133.674L167.408 133.542C167.829 134.364 168.317 135.151 168.866 135.894L167.96 137.394L169.826 139.386L171.386 138.588C172.087 139.188 172.838 139.728 173.63 140.202L173.372 141.936L175.856 143.07L176.996 141.738C177.877 142.009 178.777 142.21 179.69 142.338L180.116 144.042L182.84 144.144L183.386 142.464C184.305 142.394 185.216 142.246 186.11 142.02L187.154 143.43L189.71 142.476L189.572 140.724C190.395 140.306 191.179 139.819 191.918 139.266L193.424 140.208ZM179.252 128.73C178.728 128.169 178.382 127.464 178.259 126.706C178.135 125.948 178.239 125.171 178.557 124.472C178.876 123.773 179.394 123.184 180.047 122.78C180.7 122.376 181.458 122.175 182.226 122.202C182.993 122.229 183.736 122.483 184.359 122.931C184.982 123.38 185.458 124.004 185.727 124.723C185.995 125.442 186.045 126.225 185.868 126.973C185.692 127.72 185.298 128.399 184.736 128.922C184.363 129.274 183.924 129.548 183.444 129.729C182.965 129.909 182.454 129.993 181.942 129.976C181.43 129.958 180.926 129.838 180.46 129.625C179.994 129.411 179.576 129.107 179.228 128.73H179.252Z" fill="#EBEBEB"/>
<path d="M192 175.404L185.796 171.114C185.188 168.88 184.352 166.715 183.3 164.652L184.89 158.412L175.89 148.776L169.554 149.934C167.567 148.743 165.462 147.76 163.272 147L159.42 140.514L146.22 140.064L141.936 146.268C139.705 146.876 137.542 147.71 135.48 148.758L129.24 147.168L119.604 156.168L120.762 162.492C119.573 164.484 118.591 166.593 117.834 168.786L111.348 172.638L110.898 185.838L117.108 190.122C117.706 192.368 118.541 194.544 119.598 196.614L117.99 202.8L126.99 212.436L133.284 211.284C135.287 212.476 137.406 213.461 139.608 214.224L143.454 220.698L156.654 221.154L160.932 214.95C163.184 214.342 165.367 213.506 167.448 212.454L173.652 214.038L183.294 205.038L182.136 198.714C183.33 196.722 184.311 194.61 185.064 192.414L191.55 188.562L192 175.404ZM150.93 195.438C148 195.338 145.165 194.371 142.784 192.66C140.403 190.949 138.583 188.57 137.554 185.824C136.525 183.079 136.333 180.09 137.003 177.235C137.672 174.38 139.173 171.788 141.316 169.787C143.458 167.785 146.146 166.464 149.04 165.99C151.933 165.516 154.902 165.91 157.572 167.123C160.241 168.337 162.491 170.314 164.036 172.806C165.582 175.298 166.354 178.192 166.254 181.122C166.117 185.052 164.425 188.767 161.551 191.451C158.677 194.135 154.855 195.569 150.924 195.438H150.93Z" fill="#EBEBEB"/>
<path d="M85.3269 174.543H85.2849L74.8929 174.189C74.6824 174.185 74.4763 174.128 74.2937 174.023C74.1112 173.918 73.9582 173.769 73.8489 173.589L71.0469 168.879C69.5367 168.326 68.0755 167.648 66.6789 166.851L62.1969 167.625C61.9881 167.663 61.773 167.648 61.5716 167.581C61.3702 167.513 61.189 167.396 61.0449 167.241L53.9469 159.645C53.7979 159.487 53.6921 159.294 53.6395 159.084C53.587 158.874 53.5895 158.653 53.6469 158.445L54.7809 153.999C54.0783 152.558 53.5041 151.058 53.0649 149.517L48.5469 146.397C48.3717 146.276 48.2297 146.114 48.1343 145.924C48.0388 145.734 47.9929 145.523 48.0009 145.311L48.3549 134.919C48.3619 134.709 48.4203 134.504 48.5249 134.322C48.6295 134.14 48.7771 133.986 48.9549 133.875L53.6769 131.073C54.2214 129.566 54.8981 128.11 55.6989 126.723L54.8709 122.205C54.8322 121.995 54.8471 121.779 54.9142 121.576C54.9813 121.374 55.0985 121.192 55.2549 121.047L62.8509 113.955C63.008 113.805 63.2008 113.698 63.4109 113.645C63.621 113.591 63.8414 113.593 64.0509 113.649L68.5149 114.789C69.952 114.086 71.4476 113.509 72.9849 113.067L76.1049 108.549C76.2209 108.369 76.3827 108.224 76.5736 108.128C76.7646 108.032 76.9777 107.989 77.1909 108.003L87.5769 108.363C87.7881 108.367 87.9948 108.424 88.1782 108.529C88.3616 108.634 88.5158 108.783 88.6269 108.963L91.4289 113.679C92.9284 114.229 94.3777 114.908 95.7609 115.707L100.297 114.873C100.506 114.834 100.721 114.849 100.922 114.916C101.124 114.983 101.305 115.1 101.449 115.257L108.547 122.853C108.695 123.011 108.8 123.204 108.853 123.414C108.905 123.624 108.903 123.844 108.847 124.053L107.707 128.511C108.41 129.948 108.988 131.444 109.435 132.981L113.947 136.101C114.122 136.221 114.264 136.383 114.36 136.573C114.455 136.763 114.501 136.974 114.493 137.187L114.139 147.573C114.132 147.783 114.073 147.989 113.969 148.172C113.864 148.355 113.717 148.51 113.539 148.623L108.817 151.425C108.269 152.928 107.592 154.381 106.795 155.769L107.623 160.293C107.662 160.501 107.647 160.717 107.58 160.918C107.512 161.12 107.395 161.301 107.239 161.445L99.5949 168.543C99.4375 168.692 99.2444 168.797 99.0342 168.85C98.824 168.903 98.6038 168.9 98.3949 168.843L93.9549 167.709C92.5081 168.408 91.0048 168.984 89.4609 169.431L86.3709 173.943C86.2596 174.121 86.1061 174.269 85.924 174.373C85.7419 174.478 85.5368 174.536 85.3269 174.543ZM75.6729 171.681L84.6729 171.987L87.6729 167.673C87.8391 167.421 88.094 167.241 88.3869 167.169C90.0753 166.707 91.7134 166.078 93.2769 165.291C93.5494 165.159 93.8593 165.127 94.1529 165.201L98.3529 166.275L104.953 160.125L104.197 155.787C104.139 155.483 104.194 155.169 104.353 154.905C105.244 153.419 105.978 151.844 106.543 150.207C106.638 149.91 106.839 149.658 107.107 149.499L111.625 146.823L111.931 137.823L107.611 134.823C107.383 134.667 107.213 134.442 107.125 134.181C107.125 134.151 107.125 134.115 107.125 134.079C106.663 132.42 106.035 130.812 105.253 129.279C105.114 129.004 105.08 128.688 105.157 128.391L106.237 124.143L100.087 117.543L95.7729 118.335C95.4716 118.389 95.1608 118.334 94.8969 118.179C93.4083 117.286 91.8321 116.548 90.1929 115.977C90.0988 115.946 90.0083 115.906 89.9229 115.857C89.75 115.749 89.6059 115.6 89.5029 115.425L86.7969 110.895L77.7969 110.583L74.7969 114.909C74.618 115.162 74.354 115.343 74.0529 115.419C72.3819 115.875 70.7616 116.5 69.2169 117.285C68.9446 117.424 68.6307 117.458 68.3349 117.381L64.0869 116.301L57.4869 122.451L58.2789 126.753C58.3258 127.024 58.286 127.303 58.1649 127.551L58.1049 127.653C57.2125 129.144 56.4785 130.725 55.9149 132.369C55.8156 132.65 55.6201 132.888 55.3629 133.041L50.8449 135.723L50.5389 144.723L54.8649 147.723C55.1115 147.891 55.2902 148.142 55.3689 148.431C55.8187 150.115 56.4441 151.748 57.2349 153.303C57.2777 153.391 57.3119 153.483 57.3369 153.579C57.3821 153.776 57.3821 153.981 57.3369 154.179L56.2569 158.379L62.4069 164.979L66.6909 164.193C66.9902 164.138 67.2992 164.193 67.5609 164.349C69.0609 165.24 70.6469 165.978 72.2949 166.551C72.5922 166.639 72.8438 166.839 72.9969 167.109L75.6729 171.681ZM81.2349 160.299C81.0129 160.299 80.7909 160.299 80.5689 160.299C75.5811 160.211 70.83 158.156 67.3494 154.583C63.8689 151.009 61.9407 146.205 61.9846 141.217C62.0285 136.229 64.0409 131.46 67.5838 127.948C71.1267 124.436 75.9134 122.465 80.9019 122.465C85.8904 122.465 90.677 124.436 94.2199 127.948C97.7628 131.46 99.7752 136.229 99.8192 141.217C99.8631 146.205 97.9349 151.009 94.4544 154.583C90.9738 158.156 86.2227 160.211 81.2349 160.299ZM81.2349 124.845C76.8762 124.92 72.7237 126.714 69.6813 129.836C66.6389 132.958 64.9529 137.155 64.9905 141.515C65.0281 145.874 66.7861 150.042 69.8819 153.111C72.9777 156.18 77.1605 157.902 81.5199 157.902C85.8792 157.902 90.0621 156.18 93.1579 153.111C96.2537 150.042 98.0117 145.874 98.0493 141.515C98.0869 137.155 96.4009 132.958 93.3585 129.836C90.3161 126.714 86.1636 124.92 81.8049 124.845H81.2349Z" fill="#EBEBEB"/>
<path d="M170.46 101.948L166.152 100.796L165 96.4881L166.686 94.8081L168.462 98.4861L172.146 100.268L170.46 101.948Z" fill="#E0E0E0"/>
<path d="M170.725 99.0682C170.911 98.8818 171.059 98.6606 171.16 98.4171C171.261 98.1736 171.312 97.9127 171.312 97.6492C171.312 97.3856 171.261 97.1247 171.16 96.8812C171.059 96.6377 170.911 96.4165 170.725 96.2302C170.538 96.0438 170.317 95.896 170.074 95.7951C169.83 95.6943 169.569 95.6424 169.306 95.6424C169.042 95.6424 168.781 95.6943 168.538 95.7951C168.294 95.896 168.073 96.0438 167.887 96.2302L170.029 93.0142L172.897 94.4662L173.527 97.4662L170.725 99.0682Z" fill="#E0E0E0"/>
<path d="M166.345 95.156L169.501 92L173.797 93.146L174.955 97.448L171.799 100.604L167.497 99.446L166.345 95.156ZM172.075 97.736C172.356 97.4548 172.547 97.0967 172.624 96.7068C172.702 96.317 172.662 95.9129 172.51 95.5458C172.357 95.1786 172.1 94.8648 171.769 94.644C171.439 94.4233 171.05 94.3054 170.653 94.3054C170.255 94.3054 169.867 94.4233 169.536 94.644C169.206 94.8648 168.948 95.1786 168.796 95.5458C168.644 95.9129 168.604 96.317 168.681 96.7068C168.759 97.0967 168.95 97.4548 169.231 97.736C169.611 98.1089 170.123 98.3168 170.655 98.3145C171.188 98.3123 171.698 98.1001 172.075 97.724V97.736Z" fill="#F0F0F0"/>
<path d="M54.1316 178.026L56.4416 177.402L57.0596 175.092L56.1596 174.192L55.2056 176.166L53.2256 177.12L54.1316 178.026Z" fill="#E0E0E0"/>
<path d="M53.9999 176.478C53.8193 176.272 53.7239 176.005 53.733 175.731C53.7421 175.457 53.855 175.197 54.0487 175.003C54.2425 174.809 54.5027 174.696 54.7767 174.687C55.0506 174.678 55.3177 174.773 55.5239 174.954L54.3779 173.232L52.7999 174L52.4639 175.62L53.9999 176.478Z" fill="#E0E0E0"/>
<path d="M56.3403 174.372L54.6483 172.68L52.3383 173.28L51.7383 175.59L53.4003 177.3L55.7103 176.7L56.3403 174.372ZM53.2683 175.758C53.157 175.661 53.067 175.542 53.0037 175.408C52.9404 175.274 52.9052 175.129 52.9003 174.981C52.8954 174.834 52.9209 174.686 52.9752 174.549C53.0295 174.411 53.1115 174.286 53.216 174.182C53.3206 174.077 53.4455 173.995 53.583 173.941C53.7205 173.887 53.8677 173.861 54.0155 173.866C54.1633 173.871 54.3084 173.906 54.4421 173.97C54.5757 174.033 54.6949 174.123 54.7923 174.234C54.9728 174.44 55.0682 174.707 55.0591 174.981C55.0501 175.255 54.9372 175.516 54.7434 175.709C54.5496 175.903 54.2894 176.016 54.0155 176.025C53.7416 176.034 53.4745 175.939 53.2683 175.758Z" fill="#F0F0F0"/>
<path d="M150 256.536C214.249 256.536 266.334 253.495 266.334 249.744C266.334 245.993 214.249 242.952 150 242.952C85.7505 242.952 33.666 245.993 33.666 249.744C33.666 253.495 85.7505 256.536 150 256.536Z" fill="#F5F5F5"/>
<path d="M133.47 182.904C134.304 169.464 132.774 145.026 158.04 148.266C185.118 151.728 177.372 183.396 177.372 183.396L133.47 182.904Z" fill="#2A2B2E"/>
<path d="M150.906 174.828C156.997 174.828 161.934 169.891 161.934 163.8C161.934 157.709 156.997 152.772 150.906 152.772C144.815 152.772 139.878 157.709 139.878 163.8C139.878 169.891 144.815 174.828 150.906 174.828Z" fill="white"/>
<path d="M152.358 152.79C147.132 151.902 141.558 155.748 141 159.648L161.706 161.556C160.974 157.11 156.498 153.498 152.358 152.79Z" fill="#2A2B2E"/>
<path d="M159.348 163.524C159.198 166.41 157.626 168.672 155.838 168.576C154.05 168.48 152.718 166.074 152.838 163.176C152.958 160.278 154.56 158.028 156.348 158.124C158.136 158.22 159.492 160.644 159.348 163.524Z" fill="#2A2B2E"/>
<path d="M150.905 175.428C148.606 175.428 146.357 174.746 144.445 173.468C142.533 172.191 141.043 170.374 140.162 168.25C139.282 166.125 139.052 163.787 139.501 161.531C139.949 159.276 141.057 157.204 142.683 155.578C144.309 153.951 146.381 152.844 148.637 152.395C150.892 151.947 153.23 152.177 155.355 153.057C157.48 153.937 159.296 155.428 160.574 157.34C161.851 159.252 162.533 161.5 162.533 163.8C162.53 166.883 161.304 169.839 159.124 172.019C156.944 174.199 153.988 175.425 150.905 175.428ZM150.905 153.378C148.843 153.378 146.826 153.99 145.111 155.136C143.396 156.282 142.06 157.911 141.271 159.817C140.481 161.722 140.275 163.819 140.678 165.842C141.081 167.865 142.075 169.724 143.534 171.182C144.993 172.64 146.851 173.633 148.875 174.034C150.898 174.436 152.995 174.229 154.9 173.438C156.805 172.648 158.434 171.311 159.579 169.595C160.724 167.879 161.335 165.863 161.333 163.8C161.33 161.036 160.23 158.386 158.275 156.432C156.32 154.478 153.669 153.379 150.905 153.378Z" fill="#4E77F7"/>
<path opacity="0.3" d="M174.294 182.568H174.222C174.183 182.559 174.147 182.543 174.115 182.52C174.083 182.498 174.055 182.468 174.035 182.435C174.014 182.401 174 182.364 173.994 182.325C173.988 182.286 173.99 182.246 174 182.208C174 182.13 175.932 173.994 173.946 165.768C173.927 165.688 173.94 165.604 173.983 165.535C174.026 165.465 174.094 165.415 174.174 165.396C174.254 165.377 174.337 165.39 174.407 165.433C174.477 165.475 174.527 165.544 174.546 165.624C176.568 174.024 174.618 182.268 174.6 182.346C174.582 182.412 174.542 182.471 174.486 182.511C174.431 182.551 174.363 182.571 174.294 182.568Z" fill="white"/>
<path opacity="0.3" d="M172.619 161.256C172.562 161.255 172.506 161.239 172.457 161.208C172.408 161.177 172.369 161.134 172.343 161.082C171.598 159.434 170.642 157.889 169.499 156.486C169.45 156.424 169.426 156.346 169.434 156.267C169.442 156.189 169.481 156.116 169.541 156.066C169.572 156.04 169.607 156.021 169.645 156.009C169.684 155.998 169.724 155.994 169.763 155.998C169.803 156.001 169.841 156.013 169.876 156.032C169.912 156.051 169.942 156.077 169.967 156.108C171.138 157.551 172.12 159.138 172.889 160.83C172.907 160.865 172.916 160.904 172.918 160.943C172.92 160.982 172.914 161.021 172.901 161.058C172.888 161.095 172.867 161.129 172.84 161.158C172.813 161.187 172.781 161.21 172.745 161.226C172.706 161.244 172.663 161.254 172.619 161.256Z" fill="white"/>
<path d="M77.2378 245.952H77.0158C76.2202 245.929 75.4659 245.592 74.9191 245.014C74.3722 244.435 74.0775 243.663 74.0998 242.868C74.1221 242.072 74.4595 241.318 75.0379 240.771C75.6162 240.224 76.3882 239.929 77.1838 239.952H77.2378C78.9718 239.952 83.1418 237.846 91.8658 224.094C92.0974 223.728 92.4052 223.418 92.7681 223.182C93.1311 222.947 93.5406 222.793 93.9685 222.731C94.3965 222.669 94.8329 222.7 95.2477 222.823C95.6625 222.945 96.0459 223.155 96.3718 223.44C103.223 229.329 110.695 234.456 118.656 238.728C119.024 238.895 119.355 239.136 119.628 239.434C119.901 239.733 120.111 240.084 120.245 240.466C120.379 240.848 120.434 241.253 120.407 241.657C120.38 242.061 120.272 242.455 120.089 242.816C119.906 243.177 119.652 243.497 119.342 243.757C119.032 244.017 118.672 244.212 118.285 244.329C117.898 244.447 117.491 244.485 117.088 244.441C116.686 244.397 116.297 244.272 115.944 244.074C108.545 240.142 101.551 235.492 95.0638 230.19C87.7498 241.2 82.3258 245.952 77.2378 245.952Z" fill="#2A2B2E"/>
<path d="M95.8019 222.9H95.5439C95.0724 222.832 94.6473 222.579 94.3616 222.198C94.0759 221.817 93.9531 221.338 94.0199 220.866C94.4459 217.866 93.9179 206.688 90.1319 197.988C89.964 197.603 89.9356 197.172 90.0518 196.769C90.1679 196.366 90.4212 196.016 90.7679 195.78C98.9879 190.182 116.496 189.51 117.24 189.486C117.476 189.478 117.712 189.517 117.933 189.6C118.155 189.683 118.358 189.809 118.53 189.971C118.703 190.132 118.842 190.326 118.94 190.542C119.038 190.757 119.092 190.989 119.1 191.226C119.108 191.462 119.069 191.698 118.986 191.919C118.903 192.141 118.777 192.344 118.615 192.516C118.454 192.689 118.26 192.828 118.044 192.926C117.829 193.024 117.596 193.078 117.36 193.086C117.198 193.086 101.892 193.686 94.0319 198.006C97.3799 206.67 98.1419 217.464 97.5839 221.37C97.5193 221.796 97.3039 222.185 96.9768 222.466C96.6498 222.746 96.2329 222.9 95.8019 222.9Z" fill="#2A2B2E"/>
<path d="M98.8255 220.572C97.6255 217.746 92.2255 218.064 89.0635 220.488C87.3715 221.778 85.0795 225.672 84.8635 227.088C84.7914 227.424 84.8022 227.773 84.8949 228.105C84.9875 228.436 85.1593 228.74 85.3954 228.99C85.6315 229.24 85.9249 229.429 86.2503 229.541C86.5757 229.653 86.9234 229.684 87.2635 229.632C89.3335 229.452 92.1715 226.446 92.1715 226.446C90.2815 228.3 92.7235 229.608 96.3715 226.926C98.3635 225.432 100.163 223.734 98.8255 220.572Z" fill="#4E77F7"/>
<path d="M202.026 183.696C201.998 183.702 201.97 183.702 201.942 183.696C201.904 183.685 201.868 183.667 201.837 183.643C201.806 183.618 201.78 183.588 201.761 183.553C201.742 183.518 201.73 183.48 201.726 183.441C201.722 183.401 201.726 183.361 201.738 183.324C202.536 180.54 203.406 178.842 204.552 177.924C204.373 177.278 204.406 176.592 204.648 175.968C204.928 175.239 205.421 174.611 206.064 174.168C205.889 173.979 205.765 173.749 205.703 173.499C205.641 173.25 205.644 172.988 205.71 172.74C205.927 171.988 206.377 171.324 206.994 170.844C206.772 170.595 206.65 170.272 206.652 169.938C206.652 168.138 209.958 165.426 213.708 164.91C213.788 164.899 213.868 164.919 213.933 164.968C213.997 165.016 214.039 165.088 214.05 165.168C214.061 165.247 214.04 165.328 213.992 165.392C213.944 165.456 213.872 165.499 213.792 165.51C210.228 165.996 207.24 168.576 207.252 169.938C207.251 170.141 207.328 170.336 207.468 170.484C208.275 169.936 209.183 169.555 210.139 169.363C211.095 169.17 212.08 169.17 213.036 169.362C214.878 169.716 215.628 170.106 215.544 170.664C215.376 171.714 211.458 171.936 208.83 171.624C208.359 171.581 207.901 171.449 207.48 171.234C206.914 171.636 206.494 172.211 206.28 172.872C206.229 173.047 206.229 173.233 206.281 173.407C206.333 173.582 206.435 173.738 206.574 173.856C207.69 173.256 209.256 173.04 211.326 173.496C214.044 174.096 214.146 174.426 214.212 174.624C214.233 174.694 214.235 174.768 214.217 174.839C214.199 174.91 214.162 174.974 214.11 175.026C213.54 175.626 209.37 175.344 207.276 174.828C207.023 174.77 206.779 174.679 206.55 174.558C205.93 174.934 205.453 175.506 205.194 176.184C205.021 176.622 204.973 177.1 205.056 177.564C205.163 177.5 205.273 177.442 205.386 177.39C206.628 176.79 208.128 176.898 209.982 177.69C211.182 178.212 211.782 178.68 211.842 179.154C211.845 179.275 211.814 179.395 211.754 179.501C211.694 179.607 211.606 179.694 211.5 179.754C210.582 180.354 207.378 180.27 205.71 179.382C205.327 179.173 205.007 178.864 204.786 178.488C203.808 179.388 203.016 180.99 202.296 183.504C202.274 183.558 202.237 183.605 202.189 183.639C202.141 183.673 202.085 183.693 202.026 183.696ZM205.278 178.098C205.445 178.408 205.7 178.663 206.01 178.83C207.366 179.55 210.03 179.712 211.026 179.31C211.23 179.226 211.26 179.16 211.26 179.16C211.26 179.16 211.23 178.824 209.76 178.194C208.08 177.474 206.76 177.372 205.662 177.882C205.53 177.945 205.401 178.018 205.278 178.098ZM207.282 174.156L207.432 174.198C209.386 174.648 211.397 174.8 213.396 174.648C212.687 174.385 211.956 174.184 211.212 174.048C209.92 173.698 208.553 173.735 207.282 174.156ZM208.038 170.784C208.315 170.883 208.603 170.947 208.896 170.976C211.896 171.33 214.53 170.916 214.896 170.538C214.794 170.448 214.392 170.19 212.904 169.908C211.23 169.574 209.491 169.887 208.038 170.784Z" fill="#2A2B2E"/>
<path d="M123.918 244.95C124.314 244.824 124.182 244.44 123.738 244.44H115.614C100.146 242.802 89.3401 244.998 96.1501 245.514C102.96 246.03 95.6701 245.922 90.6961 247.806C85.7221 249.69 127.686 250.164 131.496 247.806C135 245.634 118.434 246.708 123.918 244.95Z" fill="#2A2B2E"/>
<path d="M182.082 247.344L111.402 244.998L108.468 176.466L191.934 178.332L182.082 247.344Z" fill="#4E77F7"/>
<path d="M133.47 246.03C133.394 246.03 133.321 246.002 133.265 245.951C133.21 245.9 133.176 245.829 133.17 245.754L127.505 176.922C127.5 176.843 127.526 176.765 127.578 176.704C127.629 176.644 127.702 176.606 127.782 176.598C127.86 176.594 127.938 176.621 127.998 176.672C128.058 176.723 128.096 176.796 128.105 176.874L133.8 245.706C133.803 245.745 133.798 245.785 133.786 245.823C133.774 245.86 133.755 245.895 133.729 245.925C133.703 245.956 133.672 245.98 133.637 245.998C133.601 246.016 133.563 246.027 133.523 246.03H133.47Z" fill="#2A2B2E"/>
<path d="M182.082 247.344L201.078 244.452L207.06 180.726L191.934 178.332L182.082 247.344Z" fill="#4E77F7"/>
<path opacity="0.2" d="M182.082 247.344L201.078 244.452L207.06 180.726L191.934 178.332L182.082 247.344Z" fill="black"/>
<path d="M117.438 231.792L115.698 191.07C115.655 190.064 115.819 189.06 116.18 188.12C116.54 187.179 117.09 186.323 117.795 185.604C118.499 184.885 119.344 184.318 120.276 183.938C121.209 183.558 122.209 183.374 123.216 183.396L176.052 184.596C177.092 184.619 178.116 184.863 179.055 185.311C179.995 185.759 180.828 186.401 181.501 187.195C182.174 187.989 182.671 188.916 182.96 189.916C183.248 190.916 183.321 191.966 183.174 192.996L177.318 234C177.065 235.796 176.157 237.435 174.77 238.603C173.383 239.771 171.613 240.386 169.8 240.33L124.566 238.83C122.709 238.773 120.943 238.015 119.621 236.71C118.299 235.405 117.519 233.648 117.438 231.792Z" fill="#2A2B2E"/>
<path d="M75.4497 248.802L71.6937 247.008L68.3457 230.706L70.1637 228.708L75.4497 248.802Z" fill="#4E77F7"/>
<path d="M75.4501 248.802L80.4361 245.886L76.1641 232.458L70.1641 228.708L75.4501 248.802Z" fill="#4E77F7"/>
<path opacity="0.2" d="M75.4501 248.802L80.4361 245.886L76.1641 232.458L70.1641 228.708L75.4501 248.802Z" fill="black"/>
<path d="M157.199 251.766H156.785C155.99 251.744 155.235 251.408 154.688 250.83C154.14 250.252 153.845 249.48 153.866 248.685C153.888 247.889 154.224 247.135 154.802 246.587C155.38 246.04 156.152 245.744 156.947 245.766C161.567 245.916 171.347 243.078 176.939 237.654C177.277 237.323 177.688 237.076 178.139 236.934C187.613 234.09 191.135 239.832 191.279 240.078L186.119 243.132C186.137 243.17 186.16 243.206 186.185 243.24C186.131 243.162 184.787 241.44 180.515 242.496C173.501 248.892 162.737 251.766 157.199 251.766Z" fill="#2A2B2E"/>
<path d="M156.834 255.75L145.908 255.066L145.05 234.918L159.732 235.464L156.834 255.75Z" fill="#4E77F7"/>
<path d="M156.834 255.75L159.39 253.206L160.974 240.648L159.732 235.464L156.834 255.75Z" fill="#4E77F7"/>
<path opacity="0.2" d="M156.834 255.75L159.39 253.206L160.974 240.648L159.732 235.464L156.834 255.75Z" fill="black"/>
<path d="M220.145 248.124C219.753 248.124 219.372 247.995 219.059 247.758C212.819 243.018 204.389 234.6 201.155 226.482C201.107 226.365 201.073 226.242 201.053 226.116C199.475 216.732 197.969 196.986 197.903 196.152C197.886 195.916 197.915 195.678 197.989 195.453C198.063 195.228 198.181 195.019 198.335 194.84C198.647 194.477 199.091 194.253 199.568 194.217C200.046 194.181 200.518 194.336 200.881 194.649C201.244 194.961 201.468 195.405 201.503 195.882C201.503 196.08 203.045 216.018 204.581 225.324C207.809 233.22 216.581 241.326 221.249 244.89C221.55 245.118 221.771 245.435 221.882 245.795C221.993 246.156 221.988 246.542 221.867 246.9C221.746 247.257 221.516 247.568 221.21 247.787C220.903 248.007 220.535 248.125 220.157 248.124H220.145Z" fill="#2A2B2E"/>
<path d="M228.468 249.03C227.076 249.03 225.497 248.4 223.775 247.158C223.389 246.878 223.129 246.455 223.054 245.984C222.978 245.512 223.093 245.03 223.374 244.644C223.654 244.257 224.076 243.997 224.547 243.922C225.019 243.847 225.501 243.962 225.888 244.242C227.376 245.316 228.186 245.442 228.468 245.442C228.945 245.442 229.403 245.631 229.74 245.969C230.078 246.306 230.268 246.764 230.268 247.242C230.268 247.719 230.078 248.177 229.74 248.514C229.403 248.852 228.945 249.042 228.468 249.042V249.03Z" fill="#2A2B2E"/>
<path d="M224.28 247.104C226.206 241.386 234.102 242.514 236.826 243.366C239.152 244.041 241.384 245.009 243.468 246.246C244.938 247.206 244.962 248.82 243 249.738C240.6 250.866 234.504 249.864 234.504 249.864C237.648 251.238 234.504 253.464 228.978 251.28C227.184 250.572 223.602 249.204 224.28 247.104Z" fill="#4E77F7"/>
<path d="M205.116 198.6C204.402 203.46 200.376 207.042 197.1 206.562C193.824 206.082 193.692 201.762 194.406 196.878C195.12 191.994 196.416 188.478 199.692 188.958C202.968 189.438 205.83 193.758 205.116 198.6Z" fill="#2A2B2E"/>
<path d="M125.928 179.22C126.199 179.22 126.42 179 126.42 178.728C126.42 178.456 126.199 178.236 125.928 178.236C125.656 178.236 125.436 178.456 125.436 178.728C125.436 179 125.656 179.22 125.928 179.22Z" fill="#2A2B2E"/>
<path d="M130.925 182.268C130.925 182.365 130.897 182.46 130.842 182.541C130.788 182.622 130.712 182.685 130.622 182.722C130.532 182.76 130.433 182.769 130.337 182.75C130.242 182.731 130.154 182.685 130.086 182.616C130.017 182.547 129.97 182.459 129.951 182.364C129.932 182.268 129.942 182.169 129.979 182.08C130.016 181.99 130.079 181.913 130.16 181.859C130.241 181.805 130.336 181.776 130.433 181.776C130.564 181.776 130.689 181.828 130.781 181.92C130.874 182.012 130.925 182.137 130.925 182.268Z" fill="#2A2B2E"/>
<path d="M131.478 240.408C131.478 240.505 131.449 240.6 131.395 240.681C131.341 240.762 131.264 240.825 131.174 240.863C131.085 240.9 130.986 240.91 130.89 240.891C130.795 240.872 130.707 240.825 130.638 240.756C130.569 240.687 130.523 240.599 130.504 240.504C130.485 240.409 130.494 240.31 130.532 240.22C130.569 240.13 130.632 240.053 130.713 239.999C130.794 239.945 130.889 239.916 130.986 239.916C131.117 239.916 131.242 239.968 131.334 240.06C131.426 240.152 131.478 240.278 131.478 240.408Z" fill="#2A2B2E"/>
<path d="M135.984 243.954C135.984 244.051 135.955 244.146 135.901 244.227C135.847 244.308 135.77 244.371 135.68 244.408C135.59 244.446 135.491 244.455 135.396 244.436C135.301 244.417 135.213 244.371 135.144 244.302C135.075 244.233 135.028 244.145 135.009 244.05C134.99 243.954 135 243.856 135.037 243.766C135.075 243.676 135.138 243.599 135.219 243.545C135.3 243.491 135.395 243.462 135.492 243.462C135.622 243.462 135.748 243.514 135.84 243.606C135.932 243.698 135.984 243.823 135.984 243.954Z" fill="#2A2B2E"/>
<path d="M49.5058 249.852C48.642 249.812 47.7984 249.578 47.0371 249.168C46.2759 248.757 45.6165 248.181 45.1078 247.482C45.0829 247.45 45.0647 247.413 45.0545 247.374C45.0443 247.334 45.0422 247.293 45.0484 247.253C45.0545 247.213 45.0688 247.174 45.0904 247.139C45.1119 247.105 45.1403 247.075 45.1737 247.052C45.2071 247.029 45.2449 247.012 45.2848 247.004C45.3247 246.996 45.3658 246.996 45.4057 247.004C45.4455 247.013 45.4833 247.029 45.5167 247.052C45.5501 247.076 45.5784 247.105 45.5998 247.14C46.7218 248.76 49.1998 249.618 50.2798 249.108C50.388 249.062 50.4844 248.992 50.5618 248.904C50.0161 248.664 49.538 248.293 49.1696 247.824C48.8012 247.355 48.554 246.803 48.4498 246.216C48.3118 245.454 48.2038 244.416 48.8278 244.284C49.6918 244.092 50.8198 246.174 51.2278 247.752C51.3017 248.013 51.3281 248.286 51.3058 248.556C51.6519 248.659 52.0159 248.688 52.3738 248.64C52.5351 248.628 52.692 248.582 52.8346 248.505C52.9772 248.429 53.1022 248.324 53.2018 248.196C52.8069 247.898 52.4794 247.52 52.2406 247.087C52.0017 246.654 51.857 246.175 51.8158 245.682C51.5878 244.038 51.7618 243.756 51.9418 243.612C52.0001 243.567 52.0697 243.54 52.1429 243.532C52.216 243.525 52.2897 243.538 52.3558 243.57C52.9978 243.84 53.7718 246.168 53.9218 247.488C53.9398 247.625 53.9398 247.765 53.9218 247.902C54.1805 248.001 54.4547 248.054 54.7318 248.058C55.2406 248.078 55.7438 247.946 56.1778 247.68C56.0938 247.626 56.0158 247.566 55.9378 247.506C55.3378 246.972 55.0618 246.12 55.1698 244.908C55.2538 243.966 55.4638 243.45 55.8418 243.288C55.9638 243.239 56.0973 243.227 56.2262 243.252C56.3551 243.278 56.4738 243.34 56.5678 243.432C56.9728 243.879 57.2755 244.409 57.4548 244.986C57.634 245.562 57.6856 246.17 57.6058 246.768C57.5537 247.017 57.4494 247.252 57.2998 247.458C58.4038 247.65 59.9518 247.338 61.2898 247.008C61.3292 246.999 61.3701 246.997 61.4101 247.003C61.4501 247.01 61.4885 247.024 61.523 247.045C61.5576 247.066 61.5876 247.094 61.6114 247.127C61.6352 247.159 61.6524 247.197 61.6618 247.236C61.6713 247.275 61.6729 247.316 61.6665 247.356C61.6602 247.396 61.646 247.435 61.6249 247.469C61.6037 247.504 61.5759 247.534 61.5431 247.558C61.5104 247.581 61.4732 247.599 61.4338 247.608C59.8078 248.01 58.0558 248.34 56.8198 247.98C56.2165 248.439 55.4777 248.684 54.7198 248.676C54.3835 248.672 54.0505 248.609 53.7358 248.49C53.5962 248.706 53.409 248.887 53.1884 249.019C52.9679 249.151 52.72 249.231 52.4638 249.252C52.0128 249.31 51.5546 249.271 51.1198 249.138C50.9798 249.374 50.7702 249.56 50.5198 249.672C50.198 249.802 49.8527 249.863 49.5058 249.852ZM48.9898 244.884C48.9068 245.292 48.9233 245.714 49.0378 246.114C49.1225 246.594 49.3215 247.046 49.6182 247.433C49.9148 247.819 50.3002 248.128 50.7418 248.334C50.7334 248.192 50.7093 248.051 50.6698 247.914C50.2018 246.198 49.3018 245.016 48.9898 244.884ZM52.3318 244.362C52.3357 244.776 52.3698 245.189 52.4338 245.598C52.5 246.33 52.8231 247.014 53.3458 247.53C53.1982 246.422 52.8548 245.35 52.3318 244.362ZM56.1058 243.84C56.1058 243.84 55.8778 243.954 55.7938 244.956C55.7098 245.958 55.8838 246.648 56.3518 247.05C56.4626 247.14 56.5834 247.216 56.7118 247.278C56.8696 247.109 56.9812 246.903 57.0358 246.678C57.1427 245.734 56.8875 244.784 56.3218 244.02C56.1958 243.864 56.1238 243.84 56.1058 243.84Z" fill="#2A2B2E"/>
<path d="M137.322 254.388L138.948 251.568L137.322 248.748H135.582L136.566 251.568L135.582 254.388H137.322Z" fill="#2A2B2E"/>
<path d="M135.696 253.038C135.496 253.051 135.295 253.023 135.106 252.955C134.916 252.887 134.743 252.781 134.597 252.643C134.45 252.506 134.333 252.34 134.253 252.155C134.174 251.971 134.132 251.772 134.132 251.571C134.132 251.37 134.174 251.171 134.253 250.987C134.333 250.803 134.45 250.637 134.597 250.499C134.743 250.362 134.916 250.256 135.106 250.188C135.295 250.12 135.496 250.091 135.696 250.104L132.936 249.552L132.198 251.784L133.434 253.668L135.696 253.038Z" fill="#2A2B2E"/>
<path d="M135.936 248.748H132.678L131.052 251.568L132.678 254.388H135.936L137.562 251.568L135.936 248.748ZM134.31 253.038C134.019 253.039 133.734 252.954 133.491 252.793C133.249 252.632 133.06 252.403 132.947 252.135C132.835 251.866 132.805 251.571 132.861 251.285C132.917 250.999 133.057 250.737 133.262 250.531C133.468 250.325 133.729 250.184 134.015 250.127C134.3 250.07 134.596 250.098 134.865 250.209C135.134 250.32 135.364 250.509 135.526 250.751C135.687 250.993 135.774 251.277 135.774 251.568C135.774 251.957 135.62 252.33 135.345 252.605C135.071 252.881 134.699 253.036 134.31 253.038Z" fill="#4E77F7"/>
<path d="M250.734 248.556L249.528 246.462L250.734 244.368H252.024L251.298 246.462L252.024 248.556H250.734Z" fill="#4E77F7"/>
<path d="M251.939 247.554C252.089 247.565 252.24 247.545 252.382 247.496C252.523 247.446 252.653 247.368 252.763 247.266C252.873 247.163 252.961 247.039 253.021 246.902C253.081 246.764 253.112 246.615 253.112 246.465C253.112 246.315 253.081 246.166 253.021 246.029C252.961 245.891 252.873 245.767 252.763 245.665C252.653 245.563 252.523 245.484 252.382 245.435C252.24 245.385 252.089 245.365 251.939 245.376L253.991 244.968L254.537 246.624L253.625 248.022L251.939 247.554Z" fill="#4E77F7"/>
<path d="M251.765 244.368H254.165L255.365 246.462L254.165 248.556H251.765L250.565 246.462L251.765 244.368ZM252.965 247.554C253.182 247.555 253.393 247.492 253.574 247.373C253.754 247.254 253.895 247.084 253.979 246.884C254.062 246.685 254.085 246.465 254.043 246.253C254.002 246.041 253.898 245.845 253.746 245.692C253.593 245.539 253.399 245.434 253.187 245.392C252.975 245.349 252.755 245.37 252.555 245.453C252.355 245.535 252.184 245.675 252.064 245.855C251.944 246.035 251.879 246.246 251.879 246.462C251.879 246.606 251.906 246.748 251.961 246.881C252.016 247.014 252.096 247.135 252.198 247.236C252.299 247.338 252.42 247.418 252.553 247.473C252.685 247.527 252.828 247.555 252.971 247.554H252.965Z" fill="#2A2B2E"/>
<path d="M205.8 251.34H208.512C208.851 251.338 209.176 251.202 209.416 250.962C209.655 250.721 209.79 250.395 209.79 250.056C209.79 249.716 209.655 249.391 209.416 249.15C209.176 248.91 208.851 248.774 208.512 248.772H205.8C205.459 248.772 205.133 248.907 204.892 249.148C204.651 249.389 204.516 249.715 204.516 250.056C204.516 250.397 204.651 250.723 204.892 250.964C205.133 251.205 205.459 251.34 205.8 251.34Z" fill="#2A2B2E"/>
<path d="M201.438 248.916C201.69 248.458 202.07 248.084 202.532 247.84C202.993 247.596 203.516 247.492 204.036 247.541C204.556 247.591 205.051 247.791 205.458 248.118C205.865 248.445 206.168 248.884 206.329 249.381C206.49 249.878 206.502 250.412 206.363 250.915C206.224 251.419 205.942 251.871 205.549 252.216C205.157 252.56 204.672 252.783 204.155 252.855C203.637 252.928 203.11 252.847 202.638 252.624C201.989 252.289 201.499 251.712 201.274 251.017C201.049 250.323 201.108 249.567 201.438 248.916Z" fill="#4E77F7"/>
<path d="M202.17 252.623L202.913 252.974L205.497 247.492L204.754 247.142L202.17 252.623Z" fill="#2A2B2E"/>
<path d="M123 223.87L123.939 223.192C138.26 212.854 158.05 214.863 170 227.87V227.87" stroke="white" stroke-linecap="round" stroke-linejoin="round"/>
</svg>
