<svg width="300" height="300" viewBox="0 0 300 300" fill="none" xmlns="http://www.w3.org/2000/svg">
<path d="M300 229.44H0V229.59H300V229.44Z" fill="#EBEBEB"/>
<path d="M269.94 239.094H256.932V239.244H269.94V239.094Z" fill="#EBEBEB"/>
<path d="M206.802 235.986H186.336V236.136H206.802V235.986Z" fill="#EBEBEB"/>
<path d="M264.672 233.526H237.954V233.676H264.672V233.526Z" fill="#EBEBEB"/>
<path d="M103.812 236.55H97.128V236.7H103.812V236.55Z" fill="#EBEBEB"/>
<path d="M91.782 236.55H68.748V236.7H91.782V236.55Z" fill="#EBEBEB"/>
<path d="M56.406 234.018H39.786V234.168H56.406V234.018Z" fill="#EBEBEB"/>
<path d="M129.642 120.528L129.912 112.644L125.076 111.06C124.868 108.388 124.435 105.739 123.78 103.14L127.884 100.14L125.1 92.7361L120.024 93.1441C118.821 90.7586 117.415 88.4803 115.824 86.3341L118.452 81.9481L113.052 76.1821L108.516 78.5041C106.476 76.7605 104.297 75.1872 102 73.8001L102.732 68.7601L95.532 65.4961L92.232 69.3601C89.6862 68.5457 87.0772 67.9436 84.432 67.5601L83.232 62.6221L75.324 62.3521L73.764 67.1941C71.0948 67.4039 68.4477 67.8354 65.85 68.4841L62.802 64.404L55.398 67.1701L55.806 72.2461C53.4218 73.4678 51.1438 74.8868 48.996 76.4881L44.58 73.8001L38.79 79.2001L41.112 83.7601C39.368 85.7896 37.8022 87.9656 36.432 90.2641L31.398 89.508L28.11 96.708L31.998 100.002C31.1778 102.546 30.5757 105.156 30.198 107.802L25.2 109.056L24.93 116.94L29.79 118.524C29.991 121.194 30.4226 123.842 31.08 126.438L26.976 129.438L29.766 136.848L34.842 136.44C36.0424 138.827 37.4477 141.106 39.042 143.25L36.408 147.636L41.808 153.402L46.344 151.08C48.3784 152.823 50.5538 154.395 52.848 155.778L52.092 160.812L59.292 164.082L62.61 160.218C65.1557 161.04 67.7644 161.652 70.41 162.048L71.61 166.986L79.518 167.256L81.078 162.414C83.7489 162.202 86.3978 161.77 88.998 161.124L91.998 165.204L99.402 162.438L99.018 157.362C101.398 156.133 103.675 154.714 105.828 153.12L110.19 155.748L115.98 150.348L113.658 145.788C115.403 143.759 116.968 141.583 118.338 139.284L123.372 140.04L126.66 132.84L122.772 129.54C123.606 126.998 124.218 124.388 124.602 121.74L129.642 120.528ZM76.368 146.07C70.1808 145.861 64.1945 143.822 59.1665 140.21C54.1384 136.598 50.2945 131.576 48.121 125.78C45.9474 119.983 45.5419 113.672 46.9556 107.645C48.3694 101.618 51.539 96.1452 56.0634 91.9197C60.5878 87.6942 66.2638 84.9054 72.3734 83.9062C78.483 82.907 84.7517 83.7423 90.3866 86.3063C96.0214 88.8703 100.769 93.048 104.029 98.3107C107.29 103.574 108.916 109.685 108.702 115.872C108.417 124.164 104.851 132.003 98.7876 137.666C92.7241 143.329 84.6598 146.352 76.368 146.07Z" fill="#EBEBEB"/>
<path d="M264.6 94.452L266.586 92.598L265.8 91.032C266.4 90.3303 266.939 89.5797 267.414 88.788L269.154 89.046L270.276 86.562L268.944 85.428C269.231 84.5498 269.442 83.6484 269.574 82.734L271.284 82.308L271.368 79.584L269.7 79.044C269.627 78.1215 269.478 77.2064 269.256 76.308L270.666 75.258L269.706 72.708L267.96 72.846C267.539 72.0236 267.051 71.237 266.502 70.494L267.408 68.994L265.542 67.002L263.982 67.8C263.279 67.2018 262.529 66.662 261.738 66.186L261.99 64.446L259.512 63.312L258.372 64.65C257.492 64.376 256.591 64.1753 255.678 64.05L255.252 62.346L252.528 62.244L251.982 63.924C251.063 63.9943 250.152 64.1428 249.258 64.368L248.214 62.958L245.658 63.912L245.802 65.664C244.977 66.081 244.19 66.5688 243.45 67.122L241.938 66.216L239.946 68.07L240.72 69.6C240.116 70.2997 239.574 71.0505 239.1 71.844L237.366 71.586L236.238 74.07L237.576 75.21C237.299 76.087 237.098 76.9864 236.976 77.898L235.26 78.324L235.176 81.048L236.85 81.588C236.918 82.5108 237.065 83.4261 237.288 84.324L235.872 85.368L236.832 87.918L238.584 87.786C239.005 88.6084 239.493 89.3951 240.042 90.138L239.136 91.638L241.002 93.63L242.562 92.832C243.263 93.4322 244.014 93.9721 244.806 94.446L244.548 96.18L247.032 97.314L248.172 95.982C249.053 96.2532 249.953 96.4538 250.866 96.582L251.292 98.286L254.016 98.388L254.562 96.708C255.481 96.6382 256.392 96.4896 257.286 96.264L258.33 97.674L260.886 96.72L260.748 94.968C261.571 94.5505 262.355 94.0627 263.094 93.51L264.6 94.452ZM250.428 82.974C249.904 82.4126 249.558 81.7084 249.435 80.9504C249.311 80.1925 249.415 79.4149 249.733 78.7161C250.052 78.0172 250.57 77.4285 251.223 77.0244C251.876 76.6203 252.634 76.4189 253.402 76.4458C254.169 76.4727 254.912 76.7265 255.535 77.1753C256.158 77.6242 256.634 78.2477 256.903 78.9671C257.171 79.6865 257.221 80.4694 257.044 81.2169C256.868 81.9643 256.474 82.6426 255.912 83.166C255.539 83.5177 255.1 83.7918 254.62 83.9727C254.141 84.1535 253.63 84.2374 253.118 84.2196C252.606 84.2017 252.102 84.0824 251.636 83.8686C251.17 83.6548 250.752 83.3508 250.404 82.974H250.428Z" fill="#EBEBEB"/>
<path d="M192 175.404L185.796 171.114C185.188 168.88 184.351 166.715 183.3 164.652L184.89 158.412L175.89 148.776L169.554 149.934C167.566 148.743 165.461 147.76 163.272 147L159.42 140.514L146.22 140.064L141.936 146.268C139.705 146.876 137.541 147.71 135.48 148.758L129.24 147.168L119.604 156.168L120.762 162.492C119.572 164.484 118.591 166.593 117.834 168.786L111.348 172.638L110.898 185.838L117.108 190.122C117.706 192.368 118.541 194.544 119.598 196.614L117.99 202.8L126.99 212.436L133.284 211.284C135.287 212.476 137.406 213.461 139.608 214.224L143.454 220.698L156.654 221.154L160.932 214.95C163.183 214.342 165.367 213.506 167.448 212.454L173.652 214.038L183.294 205.038L182.136 198.714C183.329 196.722 184.311 194.611 185.064 192.414L191.55 188.562L192 175.404ZM150.93 195.438C148 195.338 145.165 194.371 142.784 192.66C140.403 190.949 138.583 188.57 137.554 185.824C136.525 183.079 136.333 180.09 137.002 177.235C137.672 174.381 139.173 171.789 141.315 169.787C143.458 167.785 146.146 166.464 149.039 165.99C151.933 165.516 154.902 165.91 157.571 167.124C160.241 168.337 162.49 170.314 164.036 172.806C165.581 175.298 166.353 178.192 166.254 181.122C166.116 185.052 164.425 188.767 161.55 191.451C158.676 194.135 154.854 195.569 150.924 195.438H150.93Z" fill="#EBEBEB"/>
<path d="M206.13 138H206.088L195.696 137.646C195.486 137.642 195.279 137.585 195.097 137.48C194.914 137.375 194.761 137.226 194.652 137.046L191.85 132.336C190.34 131.784 188.879 131.105 187.482 130.308L183 131.082C182.791 131.12 182.576 131.105 182.375 131.038C182.173 130.971 181.992 130.854 181.848 130.698L174.75 123.102C174.601 122.945 174.495 122.752 174.443 122.541C174.39 122.331 174.393 122.111 174.45 121.902L175.584 117.456C174.881 116.015 174.307 114.516 173.868 112.974L169.35 109.854C169.175 109.734 169.033 109.571 168.937 109.381C168.842 109.191 168.796 108.98 168.804 108.768L169.158 98.3761C169.165 98.1663 169.223 97.9614 169.328 97.7794C169.433 97.5974 169.58 97.4438 169.758 97.3321L174.48 94.5301C175.025 93.0233 175.701 91.5677 176.502 90.1801L175.674 85.6621C175.635 85.4523 175.65 85.2362 175.717 85.0338C175.784 84.8313 175.902 84.6491 176.058 84.5041L183.654 77.4121C183.811 77.2626 184.004 77.1559 184.214 77.1023C184.424 77.0487 184.645 77.05 184.854 77.1061L189.318 78.2461C190.755 77.5431 192.251 76.967 193.788 76.5241L196.908 72.0061C197.024 71.8266 197.186 71.6814 197.377 71.5854C197.568 71.4894 197.781 71.4461 197.994 71.4601L208.38 71.8201C208.591 71.8245 208.798 71.8818 208.981 71.9866C209.165 72.0914 209.319 72.2404 209.43 72.4201L212.232 77.1361C213.731 77.6866 215.181 78.3651 216.564 79.1641L221.1 78.3301C221.309 78.2913 221.524 78.3062 221.726 78.3733C221.927 78.4405 222.108 78.5577 222.252 78.7141L229.35 86.3101C229.498 86.468 229.603 86.6612 229.656 86.8711C229.708 87.0811 229.706 87.3011 229.65 87.5101L228.51 91.9681C229.213 93.4059 229.791 94.9014 230.238 96.4381L234.75 99.5581C234.925 99.6784 235.067 99.841 235.163 100.031C235.258 100.221 235.304 100.432 235.296 100.644L234.942 111.03C234.935 111.241 234.877 111.446 234.772 111.629C234.667 111.812 234.52 111.967 234.342 112.08L229.62 114.882C229.072 116.385 228.395 117.839 227.598 119.226L228.426 123.75C228.465 123.959 228.45 124.174 228.383 124.376C228.316 124.577 228.198 124.758 228.042 124.902L220.398 132C220.241 132.149 220.048 132.255 219.837 132.307C219.627 132.36 219.407 132.357 219.198 132.3L214.758 131.166C213.311 131.866 211.808 132.442 210.264 132.888L207.174 137.4C207.063 137.578 206.909 137.726 206.727 137.831C206.545 137.935 206.34 137.994 206.13 138ZM196.476 135.138L205.476 135.444L208.476 131.13C208.642 130.878 208.897 130.698 209.19 130.626C210.878 130.164 212.517 129.535 214.08 128.748C214.353 128.617 214.662 128.585 214.956 128.658L219.156 129.732L225.756 123.582L225 119.244C224.942 118.941 224.997 118.627 225.156 118.362C226.047 116.876 226.781 115.302 227.346 113.664C227.441 113.367 227.642 113.115 227.91 112.956L232.428 110.28L232.734 101.28L228.414 98.2801C228.186 98.1247 228.016 97.8993 227.928 97.6381C227.928 97.6081 227.928 97.5721 227.928 97.5361C227.466 95.8776 226.839 94.2696 226.056 92.7361C225.917 92.4616 225.883 92.1459 225.96 91.8481L227.04 87.6001L220.89 81.0001L216.576 81.7921C216.275 81.8467 215.964 81.7913 215.7 81.6361C214.211 80.7431 212.635 80.0053 210.996 79.4341C210.902 79.4039 210.811 79.3637 210.726 79.3141C210.553 79.2062 210.409 79.0579 210.306 78.8821L207.6 74.3521L198.6 74.0401L195.6 78.3661C195.421 78.6197 195.157 78.8007 194.856 78.8761C193.185 79.3327 191.565 79.9579 190.02 80.7421C189.748 80.881 189.434 80.9152 189.138 80.8381L184.89 79.7581L178.29 85.9081L179.082 90.2101C179.129 90.4814 179.089 90.7607 178.968 91.0081L178.908 91.1101C178.016 92.6015 177.282 94.1821 176.718 95.8261C176.619 96.108 176.423 96.3459 176.166 96.4981L171.648 99.1801L171.342 108.18L175.668 111.18C175.915 111.349 176.093 111.6 176.172 111.888C176.622 113.573 177.247 115.206 178.038 116.76C178.081 116.849 178.115 116.941 178.14 117.036C178.185 117.234 178.185 117.439 178.14 117.636L177.06 121.836L183.21 128.436L187.494 127.65C187.793 127.595 188.102 127.651 188.364 127.806C189.864 128.697 191.45 129.435 193.098 130.008C193.395 130.096 193.647 130.296 193.8 130.566L196.476 135.138ZM202.038 123.756C201.816 123.756 201.594 123.756 201.372 123.756C196.384 123.668 191.633 121.614 188.153 118.04C184.672 114.467 182.744 109.663 182.788 104.674C182.832 99.6862 184.844 94.9171 188.387 91.4052C191.93 87.8934 196.716 85.923 201.705 85.923C206.694 85.923 211.48 87.8934 215.023 91.4052C218.566 94.9171 220.578 99.6862 220.622 104.674C220.666 109.663 218.738 114.467 215.257 118.04C211.777 121.614 207.026 123.668 202.038 123.756ZM202.038 88.3021C197.679 88.3772 193.527 90.1711 190.484 93.2933C187.442 96.4154 185.756 100.613 185.794 104.972C185.831 109.331 187.589 113.499 190.685 116.568C193.781 119.638 197.964 121.36 202.323 121.36C206.682 121.36 210.865 119.638 213.961 116.568C217.057 113.499 218.815 109.331 218.852 104.972C218.89 100.613 217.204 96.4154 214.162 93.2933C211.119 90.1711 206.967 88.3772 202.608 88.3021H202.038Z" fill="#EBEBEB"/>
<path d="M230.064 63.192L225.756 62.04L224.604 57.732L226.29 56.052L228.066 59.73L231.75 61.512L230.064 63.192Z" fill="#E0E0E0"/>
<path d="M230.328 60.3121C230.514 60.1257 230.662 59.9045 230.763 59.661C230.864 59.4175 230.916 59.1566 230.916 58.8931C230.916 58.6295 230.864 58.3686 230.763 58.1251C230.662 57.8816 230.514 57.6604 230.328 57.4741C230.142 57.2877 229.92 57.1399 229.677 57.039C229.433 56.9382 229.173 56.8863 228.909 56.8863C228.645 56.8863 228.385 56.9382 228.141 57.039C227.898 57.1399 227.676 57.2877 227.49 57.4741L229.632 54.2581L232.5 55.7101L233.13 58.7101L230.328 60.3121Z" fill="#E0E0E0"/>
<path d="M225.948 56.4L229.104 53.244L233.4 54.39L234.558 58.692L231.402 61.848L227.1 60.69L225.948 56.4ZM231.678 58.98C231.959 58.6988 232.15 58.3407 232.228 57.9508C232.305 57.561 232.265 57.157 232.113 56.7898C231.961 56.4226 231.703 56.1088 231.372 55.8881C231.042 55.6673 230.653 55.5494 230.256 55.5494C229.859 55.5494 229.47 55.6673 229.14 55.8881C228.809 56.1088 228.551 56.4226 228.399 56.7898C228.247 57.157 228.207 57.561 228.284 57.9508C228.362 58.3407 228.553 58.6988 228.834 58.98C229.214 59.3529 229.726 59.5608 230.258 59.5585C230.791 59.5563 231.301 59.3441 231.678 58.968V58.98Z" fill="#F0F0F0"/>
<path d="M54.132 178.026L56.442 177.402L57.06 175.092L56.16 174.192L55.206 176.166L53.226 177.12L54.132 178.026Z" fill="#E0E0E0"/>
<path d="M54 176.478C53.8195 176.272 53.7241 176.005 53.7332 175.731C53.7422 175.457 53.8551 175.197 54.0489 175.003C54.2427 174.809 54.5029 174.696 54.7768 174.687C55.0507 174.678 55.3178 174.774 55.524 174.954L54.378 173.232L52.8 174L52.464 175.62L54 176.478Z" fill="#E0E0E0"/>
<path d="M56.34 174.372L54.648 172.68L52.338 173.28L51.738 175.59L53.4 177.3L55.71 176.7L56.34 174.372ZM53.268 175.758C53.1568 175.661 53.0667 175.541 53.0034 175.408C52.9401 175.274 52.9049 175.129 52.9 174.981C52.8951 174.833 52.9206 174.686 52.9749 174.549C53.0293 174.411 53.1112 174.286 53.2158 174.182C53.3203 174.077 53.4452 173.995 53.5827 173.941C53.7202 173.887 53.8674 173.861 54.0152 173.866C54.163 173.871 54.3082 173.906 54.4418 173.969C54.5754 174.033 54.6946 174.123 54.792 174.234C54.9725 174.44 55.0679 174.707 55.0589 174.981C55.0498 175.255 54.9369 175.515 54.7431 175.709C54.5493 175.903 54.2891 176.016 54.0152 176.025C53.7413 176.034 53.4742 175.939 53.268 175.758Z" fill="#F0F0F0"/>
<path d="M45.816 51.396L47.736 53.316C47.9761 53.552 48.2993 53.6842 48.636 53.6842C48.9727 53.6842 49.2959 53.552 49.536 53.316C49.7706 53.0752 49.9018 52.7522 49.9018 52.416C49.9018 52.0798 49.7706 51.7569 49.536 51.516L47.622 49.602C47.3811 49.3675 47.0582 49.2362 46.722 49.2362C46.3858 49.2362 46.0629 49.3675 45.822 49.602C45.587 49.8411 45.4548 50.1626 45.4537 50.4978C45.4526 50.833 45.5826 51.1554 45.816 51.396Z" fill="#F0F0F0"/>
<path d="M44.466 46.626C44.967 46.4867 45.4978 46.4967 45.9932 46.6549C46.4886 46.813 46.927 47.1124 47.2547 47.5162C47.5823 47.92 47.7849 48.4107 47.8376 48.9281C47.8902 49.4454 47.7907 49.9669 47.5511 50.4284C47.3116 50.89 46.9424 51.2716 46.489 51.5263C46.0357 51.781 45.5178 51.8977 44.999 51.8622C44.4802 51.8267 43.983 51.6405 43.5686 51.3263C43.1541 51.0122 42.8404 50.5839 42.666 50.094C42.5553 49.7482 42.514 49.3838 42.5446 49.022C42.5753 48.6601 42.6772 48.3079 42.8445 47.9855C43.0118 47.6632 43.2412 47.3772 43.5195 47.1438C43.7977 46.9105 44.1194 46.7345 44.466 46.626Z" fill="#E0E0E0"/>
<path d="M42.3779 49.7728L42.6558 50.5464L48.359 48.4976L48.0811 47.724L42.3779 49.7728Z" fill="#F0F0F0"/>
<path d="M150 256.536C214.249 256.536 266.334 253.495 266.334 249.744C266.334 245.993 214.249 242.952 150 242.952C85.7505 242.952 33.666 245.993 33.666 249.744C33.666 253.495 85.7505 256.536 150 256.536Z" fill="#F5F5F5"/>
<path d="M52.032 72.39C51.432 69.744 51.696 67.524 52.836 65.712C53.976 63.9 55.836 62.712 58.482 62.112C61.128 61.512 63.414 61.752 65.202 62.868C66.99 63.984 68.202 65.868 68.802 68.448C69.2256 70.0405 69.2606 71.7113 68.904 73.32C68.5552 74.6561 67.8181 75.8588 66.786 76.776C65.5601 77.8082 64.0887 78.5066 62.514 78.804C60.9704 79.2139 59.3541 79.2693 57.786 78.966C56.423 78.6348 55.1901 77.9035 54.246 76.866C53.118 75.6009 52.353 74.0543 52.032 72.39ZM57.036 71.274C57.408 72.906 57.978 74.01 58.746 74.586C59.1424 74.8504 59.5883 75.0318 60.0566 75.1195C60.525 75.2071 61.0062 75.1991 61.4714 75.096C61.9366 74.9928 62.3761 74.7967 62.7636 74.5194C63.151 74.242 63.4784 73.8892 63.726 73.482C64.158 72.648 64.164 71.322 63.756 69.516C63.408 67.992 62.846 66.948 62.07 66.384C61.6793 66.1036 61.2307 65.9144 60.7572 65.8303C60.2837 65.7462 59.7974 65.7693 59.334 65.898C58.8702 65.9849 58.4322 66.1758 58.0529 66.4564C57.6735 66.737 57.3628 67.1 57.144 67.518C56.7 68.4 56.658 69.6 57.036 71.274Z" fill="#263238"/>
<path d="M71.154 70.4101C70.9409 69.5924 70.9029 68.739 71.0424 67.9056C71.182 67.0722 71.4961 66.2777 71.964 65.5741C72.4886 64.8266 73.1556 64.19 73.9268 63.701C74.698 63.2119 75.5582 62.8799 76.458 62.7241C78.806 62.1921 80.734 62.4701 82.242 63.5581C83.5111 64.5419 84.3739 65.9582 84.666 67.5372C84.9581 69.1161 84.6591 70.7474 83.826 72.1201C82.89 73.5481 81.366 74.5001 79.254 74.9761C77.6269 75.431 75.8909 75.2906 74.358 74.5801C73.5383 74.1795 72.8225 73.5946 72.2666 72.8711C71.7108 72.1476 71.3299 71.3053 71.154 70.4101ZM75.66 69.3721C75.7814 70.2105 76.1908 70.9806 76.818 71.5501C77.0666 71.7383 77.3532 71.8701 77.6579 71.9363C77.9626 72.0026 78.278 72.0017 78.5824 71.9337C78.8867 71.8658 79.1725 71.7324 79.4201 71.5429C79.6677 71.3533 79.871 71.1121 80.016 70.8361C80.3301 70.0302 80.3598 69.1412 80.1 68.3161C79.9738 67.4973 79.569 66.7471 78.954 66.1921C78.7153 65.9986 78.4353 65.8628 78.1356 65.7951C77.8359 65.7275 77.5246 65.7299 77.226 65.8021C76.9147 65.8666 76.6221 66.0012 76.3706 66.1956C76.119 66.39 75.915 66.6391 75.774 66.9241C75.4509 67.7017 75.4105 68.5679 75.66 69.3721Z" fill="#263238"/>
<path d="M89.148 77.1421L85.47 60.9421L89.67 59.9821L90.066 61.7161C90.3623 61.0245 90.7926 60.3985 91.332 59.8741C91.9239 59.3716 92.6309 59.0233 93.39 58.8601C94.0914 58.6692 94.8297 58.6583 95.5365 58.8282C96.2433 58.9981 96.8959 59.3433 97.434 59.8321C98.6199 60.9406 99.4243 62.3962 99.732 63.9901C100.176 65.9401 100.044 67.5361 99.348 68.7901C99.017 69.3896 98.5595 69.91 98.0073 70.3151C97.455 70.7202 96.8213 71.0003 96.15 71.1361C95.5032 71.2894 94.8329 71.3159 94.176 71.2141C93.546 71.1037 92.9455 70.8647 92.412 70.5121L93.684 76.1101L89.148 77.1421ZM91.314 65.8261C91.4242 66.5754 91.7988 67.2607 92.37 67.7581C92.5991 67.9335 92.8649 68.0548 93.1475 68.113C93.4301 68.1711 93.7222 68.1647 94.002 68.0941C94.2618 68.042 94.5058 67.9296 94.7142 67.766C94.9226 67.6024 95.0897 67.3921 95.202 67.1521C95.4571 66.4011 95.4571 65.587 95.202 64.8361C95.0923 64.0829 94.7307 63.3892 94.176 62.8681C93.9703 62.6972 93.728 62.5758 93.4679 62.5134C93.2078 62.451 92.9369 62.4492 92.676 62.5081C92.4003 62.5676 92.1417 62.6886 91.9193 62.8621C91.697 63.0356 91.5167 63.2571 91.392 63.5101C91.0983 64.2497 91.0707 65.0684 91.314 65.8261Z" fill="#263238"/>
<path d="M101.658 66.1801L106.026 64.7461C106.258 65.1684 106.62 65.5049 107.058 65.7061C107.529 65.8426 108.028 65.8535 108.505 65.7377C108.982 65.6219 109.42 65.3835 109.776 65.0461C109.876 64.9402 109.948 64.8117 109.987 64.6716C110.025 64.5315 110.029 64.3841 109.998 64.2421C109.962 64.0797 109.878 63.9317 109.757 63.8173C109.636 63.7029 109.484 63.6273 109.32 63.6001C108.642 63.5257 107.958 63.5257 107.28 63.6001C106.142 63.6969 104.998 63.6969 103.86 63.6001C103.194 63.5034 102.569 63.2182 102.06 62.7781C101.517 62.3078 101.141 61.6734 100.991 60.9708C100.84 60.2681 100.923 59.5356 101.226 58.8841C101.576 58.1869 102.12 57.6056 102.792 57.2101C103.749 56.6664 104.789 56.2833 105.87 56.0761C106.902 55.796 107.969 55.6667 109.038 55.6921C109.709 55.7353 110.36 55.9412 110.934 56.2921C111.546 56.7047 112.065 57.24 112.458 57.8641L108.258 59.2501C108.101 58.9375 107.84 58.6893 107.52 58.5481C107.082 58.3915 106.608 58.3706 106.158 58.4881C105.761 58.5435 105.392 58.7267 105.108 59.0101C105.018 59.1067 104.953 59.2239 104.918 59.3515C104.884 59.4791 104.881 59.6132 104.91 59.7421C104.942 59.884 105.017 60.0127 105.124 60.1112C105.231 60.2098 105.366 60.2735 105.51 60.2941C106.181 60.3719 106.859 60.3578 107.526 60.2521C108.683 60.0844 109.857 60.0683 111.018 60.2041C111.748 60.3073 112.433 60.6222 112.986 61.1101C113.486 61.5638 113.834 62.1611 113.982 62.8201C114.136 63.5268 114.079 64.263 113.82 64.9381C113.503 65.7373 112.95 66.4215 112.236 66.9001C111.184 67.5881 110.005 68.0592 108.768 68.2861C106.628 68.7741 105.028 68.8161 103.968 68.4121C102.935 67.9997 102.106 67.1981 101.658 66.1801Z" fill="#263238"/>
<path d="M116.31 51.342H121.236V55.122L120.33 62.724H117.282L116.31 55.134V51.342ZM116.55 63.87H121.146V67.938H116.55V63.87Z" fill="#263238"/>
<path d="M77.208 102.948H77.1C74.4 101.898 72.786 100.878 71.946 99.648C71.2885 99.7726 70.6082 99.6799 70.008 99.384C69.3049 99.0399 68.7216 98.4921 68.334 97.812C68.1303 97.9683 67.8904 98.0707 67.6365 98.1095C67.3827 98.1483 67.1231 98.1223 66.882 98.034C66.1426 97.7573 65.5116 97.2504 65.082 96.588C64.8133 96.7882 64.4793 96.8802 64.146 96.846C62.346 96.702 59.946 93.15 59.772 89.37C59.7702 89.2902 59.7991 89.2128 59.8527 89.1536C59.9062 89.0945 59.9804 89.0581 60.06 89.052C60.0994 89.0504 60.1387 89.0566 60.1758 89.0702C60.2128 89.0838 60.2467 89.1046 60.2757 89.1313C60.3047 89.1581 60.3281 89.1903 60.3446 89.2261C60.3612 89.2619 60.3705 89.3006 60.372 89.34C60.54 92.94 62.838 96.138 64.2 96.246C64.2991 96.2571 64.3994 96.2486 64.4952 96.2208C64.591 96.193 64.6803 96.1465 64.758 96.084C64.2887 95.2286 63.9941 94.2884 63.8911 93.3182C63.7881 92.3479 63.8788 91.3669 64.158 90.432C64.674 88.632 65.13 87.924 65.682 88.032C66.714 88.29 66.576 92.232 66.03 94.806C65.9473 95.2702 65.7762 95.7143 65.526 96.114C65.8797 96.7071 66.4137 97.1717 67.05 97.44C67.2196 97.5046 67.4042 97.5191 67.5818 97.4819C67.7594 97.4447 67.9226 97.3572 68.052 97.23C67.584 96.072 67.452 94.488 68.124 92.472C68.964 89.814 69.324 89.742 69.51 89.694C69.58 89.6793 69.6526 89.6838 69.7202 89.707C69.7878 89.7303 69.8479 89.7714 69.894 89.826C70.452 90.456 69.786 94.584 69.09 96.624C69.0085 96.8695 68.8955 97.1035 68.754 97.32C69.0759 97.969 69.6004 98.4955 70.248 98.82C70.6728 99.0266 71.1451 99.1157 71.616 99.078C71.562 98.964 71.514 98.85 71.466 98.73C70.992 97.44 71.226 95.958 72.18 94.182C72.81 93.012 73.326 92.46 73.806 92.46C73.9334 92.4617 74.0577 92.4999 74.164 92.5701C74.2704 92.6403 74.3544 92.7395 74.406 92.856C74.928 93.822 74.55 97.008 73.518 98.592C73.2764 98.9551 72.9403 99.2455 72.546 99.432C73.35 100.488 74.88 101.418 77.346 102.366C77.383 102.379 77.4169 102.4 77.4458 102.427C77.4747 102.453 77.4979 102.485 77.5141 102.521C77.5303 102.557 77.5392 102.596 77.5402 102.635C77.5412 102.674 77.5344 102.713 77.52 102.75C77.4967 102.813 77.4536 102.866 77.3973 102.901C77.3409 102.937 77.2745 102.954 77.208 102.948ZM73.8 93.066C73.8 93.066 73.458 93.066 72.702 94.476C71.832 96.084 71.61 97.41 72.024 98.526C72.0742 98.6642 72.1343 98.7985 72.204 98.928C72.529 98.7937 72.8053 98.5635 72.996 98.268C73.836 96.984 74.238 94.344 73.926 93.312C73.884 93.102 73.8 93.066 73.8 93.066ZM69.492 90.54C69.1672 91.2231 68.8983 91.9314 68.688 92.658C68.2278 93.9172 68.1485 95.284 68.46 96.588L68.514 96.432C69.1441 94.5302 69.4799 92.5433 69.51 90.54H69.492ZM65.544 88.65C65.442 88.74 65.148 89.118 64.734 90.582C64.2444 92.225 64.3988 93.9928 65.166 95.526C65.2891 95.2578 65.3798 94.9758 65.436 94.686C66.078 91.74 65.898 89.076 65.562 88.65H65.544Z" fill="#263238"/>
<path d="M100.02 134.4C99.0608 134.409 98.1164 134.163 97.284 133.686C97.2155 133.645 97.1658 133.578 97.1456 133.501C97.1254 133.424 97.1363 133.341 97.176 133.272C97.1958 133.238 97.2221 133.209 97.2535 133.185C97.2848 133.162 97.3205 133.145 97.3585 133.135C97.3965 133.126 97.4361 133.124 97.4748 133.13C97.5135 133.136 97.5506 133.149 97.584 133.17C99.726 134.424 102.492 133.548 103.062 132.63C103.103 132.572 103.132 132.507 103.148 132.438C103.163 132.369 103.165 132.298 103.152 132.228C102.057 132.291 100.972 131.982 100.074 131.352C98.544 130.398 98.424 130.11 98.436 129.882C98.4389 129.816 98.4594 129.753 98.4953 129.698C98.5312 129.643 98.5812 129.599 98.64 129.57C99.24 129.27 101.946 130.512 103.074 131.256C103.209 131.346 103.334 131.45 103.446 131.568C103.889 131.467 104.289 131.228 104.586 130.884C104.753 130.687 104.874 130.456 104.94 130.206H104.82C103.86 130.302 102.9 129.888 101.874 128.94C101.166 128.292 100.896 127.842 100.986 127.488C101.013 127.388 101.068 127.299 101.145 127.23C101.222 127.161 101.316 127.115 101.418 127.098C102.246 126.888 104.298 127.764 105.132 128.682C105.318 128.882 105.45 129.125 105.516 129.39C106.302 129.024 107.13 128.19 108.108 126.828C108.131 126.795 108.16 126.768 108.193 126.747C108.227 126.725 108.264 126.711 108.303 126.704C108.342 126.698 108.382 126.699 108.421 126.708C108.459 126.716 108.496 126.733 108.528 126.756C108.592 126.803 108.636 126.873 108.649 126.951C108.663 127.03 108.645 127.11 108.6 127.176C107.466 128.76 106.518 129.66 105.57 130.026C105.521 130.469 105.339 130.888 105.048 131.226C104.702 131.628 104.248 131.921 103.74 132.072C103.769 132.215 103.768 132.363 103.74 132.506C103.711 132.649 103.654 132.785 103.572 132.906C103.068 133.764 101.616 134.4 100.02 134.4ZM99.486 130.236C99.69 130.386 99.978 130.584 100.392 130.836C101.037 131.271 101.778 131.543 102.552 131.628C101.586 131.049 100.558 130.582 99.486 130.236ZM101.58 127.686C101.752 128.01 101.992 128.295 102.282 128.52C103.17 129.342 103.98 129.72 104.76 129.624H104.952C104.909 129.438 104.818 129.266 104.688 129.126C103.848 128.178 102 127.59 101.58 127.686Z" fill="#263238"/>
<path d="M107.964 133.578L98.616 135.276L90.126 88.944L72.09 92.22L42.69 144.42L45.846 161.646L83.556 154.8L86.136 168.888L104.172 165.6L101.592 151.512L110.94 149.814L107.964 133.578ZM60.654 142.2L76.254 114.858L80.604 138.582L60.654 142.2Z" fill="#407BFF"/>
<path d="M183.258 85.8C182.974 82.8874 182.329 80.0214 181.338 77.268C180.318 74.6304 178.902 72.164 177.138 69.954C175.05 67.3827 172.456 65.2671 169.518 63.738C166.318 61.982 162.074 60.76 156.786 60.072C145.806 58.64 137.25 60.588 131.118 65.916C124.986 71.244 120.946 81.444 118.998 96.516C118.22 102.149 118.019 107.846 118.398 113.52C118.798 118.72 119.754 122.906 121.266 126.078C123.19 130.356 126.225 134.039 130.056 136.746C133.844 139.406 139.044 141.164 145.656 142.02C157.408 143.552 166.122 141.294 171.798 135.246C177.474 129.198 181.234 118.978 183.078 104.586C183.898 98.3543 183.958 92.0462 183.258 85.8Z" fill="#407BFF"/>
<path d="M151.062 135.858C149.616 135.81 148.062 135.678 146.496 135.474C141 134.76 136.752 133.368 133.86 131.34C130.976 129.304 128.696 126.526 127.26 123.3L127.23 123.234C126.078 120.834 125.322 117.384 124.992 113.034C124.642 107.809 124.827 102.562 125.544 97.374C127.686 80.742 132.108 73.8 135.438 70.908C139.326 67.536 144.576 66.012 151.476 66.252C152.892 66.3 154.392 66.426 155.934 66.624C160.362 67.224 163.872 68.184 166.356 69.54C168.502 70.6454 170.403 72.1741 171.942 74.034C173.289 75.7138 174.371 77.5894 175.152 79.596C175.949 81.8335 176.465 84.1613 176.688 86.526C177.328 92.2559 177.269 98.0422 176.514 103.758C174.852 116.682 171.636 125.766 166.962 130.758C163.494 134.454 158.292 136.158 151.056 135.882L151.062 135.858Z" fill="#263238"/>
<path d="M162.804 85.974L162.882 83.7L161.484 83.244C161.424 82.4749 161.3 81.7122 161.112 80.964L162.312 80.088L161.508 77.952L160.044 78.072C159.7 77.3855 159.298 76.7292 158.844 76.11L159.6 74.844L158.04 73.182L156.732 73.854C156.147 73.3508 155.521 72.8973 154.86 72.498L155.07 71.046L152.994 70.104L152.046 71.22C151.312 70.9821 150.559 70.8055 149.796 70.692L149.442 69.27L147.162 69.192L146.712 70.584C145.943 70.6456 145.181 70.77 144.432 70.956L143.55 69.756L141.414 70.554L141.534 72.018C140.848 72.3626 140.191 72.764 139.572 73.218L138.312 72.456L136.644 74.01L137.316 75.324C136.811 75.9089 136.36 76.5373 135.966 77.202L134.514 76.98L133.566 79.056L134.688 80.004C134.444 80.7386 134.268 81.4937 134.16 82.26L132.732 82.62L132.654 84.888L134.052 85.344C134.111 86.1152 134.235 86.88 134.424 87.63L133.224 88.5L134.028 90.636L135.492 90.516C135.833 91.2044 136.234 91.861 136.692 92.478L135.93 93.744L137.49 95.406L138.798 94.74C139.383 95.2413 140.01 95.6928 140.67 96.09L140.454 97.542L142.53 98.484L143.484 97.374C144.22 97.6106 144.975 97.7852 145.74 97.896L146.094 99.324L148.368 99.402L148.818 98.004C149.589 97.9454 150.354 97.821 151.104 97.632L151.974 98.832L154.11 98.034L153.996 96.576C154.68 96.2271 155.336 95.8259 155.958 95.376L157.218 96.132L158.886 94.578L158.22 93.264C158.723 92.6811 159.172 92.0547 159.564 91.392L161.016 91.608L161.964 89.532L160.848 88.584C161.087 87.8505 161.261 87.0977 161.37 86.334L162.804 85.974ZM147.444 93.336C145.667 93.2711 143.949 92.6811 142.507 91.6407C141.065 90.6002 139.963 89.1558 139.341 87.4898C138.719 85.8238 138.605 84.0109 139.012 82.2799C139.419 80.5489 140.331 78.9774 141.63 77.7638C142.93 76.5501 144.56 75.7488 146.315 75.4608C148.07 75.1728 149.871 75.4112 151.49 76.1458C153.11 76.8803 154.475 78.0782 155.415 79.5882C156.354 81.0982 156.825 82.8526 156.768 84.63C156.73 85.8147 156.459 86.9803 155.969 88.0597C155.479 89.1392 154.781 90.1113 153.915 90.9202C153.048 91.7292 152.031 92.359 150.92 92.7736C149.81 93.1882 148.629 93.3793 147.444 93.336Z" fill="#407BFF"/>
<path opacity="0.3" d="M172.272 127.722L172.44 126.186L171.516 125.814C171.515 125.291 171.47 124.77 171.384 124.254L172.218 123.72L171.792 122.238H170.796C170.599 121.756 170.36 121.292 170.082 120.852L170.646 120.036L169.686 118.836L168.768 119.22C168.396 118.852 167.995 118.515 167.568 118.212L167.79 117.24L166.44 116.496L165.732 117.21C165.25 117.012 164.752 116.853 164.244 116.736L164.076 115.758L162.546 115.584L162.168 116.508C161.647 116.51 161.127 116.559 160.614 116.652L160.08 115.8L158.598 116.238V117.234C158.116 117.433 157.652 117.674 157.212 117.954L156.396 117.354L155.196 118.314L155.58 119.232C155.214 119.604 154.879 120.006 154.578 120.432L153.606 120.216L152.868 121.566L153.576 122.268C153.375 122.751 153.216 123.251 153.102 123.762L152.118 123.924L151.956 125.454L152.874 125.838C152.874 126.357 152.921 126.875 153.012 127.386L152.166 127.92L152.598 129.402H153.6C153.8 129.882 154.041 130.343 154.32 130.782L153.72 131.598L154.68 132.798L155.61 132.408C155.979 132.777 156.381 133.113 156.81 133.41L156.6 134.4L157.95 135.138L158.652 134.436C159.135 134.63 159.632 134.784 160.14 134.898L160.314 135.882L161.844 136.05L162.216 135.132C162.747 135.131 163.276 135.087 163.8 135L164.334 135.846L165.81 135.414V134.418C166.292 134.215 166.758 133.975 167.202 133.698L168.006 134.298L169.206 133.332L168.816 132.414C169.186 132.042 169.525 131.641 169.83 131.214L170.796 131.43L171.54 130.08L170.832 129.384C171.025 128.901 171.179 128.403 171.294 127.896L172.272 127.722ZM164.55 127.122C164.296 127.587 163.91 127.965 163.441 128.21C162.972 128.456 162.44 128.556 161.914 128.499C161.388 128.442 160.89 128.23 160.484 127.891C160.078 127.551 159.782 127.098 159.633 126.59C159.485 126.082 159.49 125.541 159.649 125.036C159.808 124.531 160.113 124.084 160.525 123.753C160.938 123.421 161.44 123.219 161.967 123.173C162.494 123.127 163.024 123.238 163.488 123.492C164.109 123.834 164.569 124.408 164.768 125.088C164.967 125.768 164.888 126.499 164.55 127.122Z" fill="#407BFF"/>
<path d="M180.774 101.79L178.974 100.554C178.797 99.9114 178.556 99.2882 178.254 98.6939L178.71 96.8939L176.118 94.1159L174.318 94.4519C173.747 94.112 173.144 93.8286 172.518 93.6059L171.408 91.7339L167.61 91.6079L166.374 93.4079C165.731 93.5823 165.107 93.8237 164.514 94.1279L162.714 93.6659L159.936 96.2639L160.272 98.0639C159.927 98.6323 159.644 99.2357 159.426 99.8639L157.56 100.974L157.428 104.772L159.228 106.008C159.402 106.655 159.644 107.283 159.948 107.88L159.492 109.68L162.084 112.458L163.884 112.128C164.455 112.467 165.058 112.751 165.684 112.974L166.788 114.84L170.592 114.972L171.822 113.172C172.471 112.996 173.1 112.755 173.7 112.452L175.5 112.908L178.278 110.316L177.948 108.516C178.289 107.945 178.572 107.342 178.794 106.716L180.66 105.606L180.774 101.79ZM168.936 107.562C168.092 107.533 167.275 107.254 166.589 106.761C165.903 106.268 165.378 105.582 165.082 104.791C164.786 103.999 164.731 103.138 164.924 102.315C165.117 101.493 165.55 100.746 166.168 100.17C166.785 99.5929 167.56 99.2125 168.394 99.0763C169.228 98.9401 170.083 99.0542 170.852 99.4043C171.621 99.7544 172.269 100.325 172.714 101.043C173.159 101.761 173.381 102.595 173.352 103.44C173.311 104.572 172.824 105.641 171.996 106.414C171.168 107.186 170.068 107.599 168.936 107.562Z" fill="white"/>
<path d="M193.8 71.472L194.112 70.722C194.324 70.6025 194.525 70.4639 194.712 70.308H195.408L196.224 69.108L195.96 68.466C196.061 68.2522 196.141 68.0292 196.2 67.8L196.8 67.248L196.548 65.838L195.792 65.526C195.673 65.3132 195.535 65.1123 195.378 64.926V64.23L194.208 63.414L193.56 63.684C193.323 63.6006 193.078 63.5442 192.828 63.516L192.276 62.916L190.872 63.168L190.554 63.924C190.331 64.0394 190.12 64.1761 189.924 64.332H189.234L188.418 65.532L188.682 66.174C188.601 66.4117 188.545 66.657 188.514 66.906L187.914 67.464L188.166 68.868L188.922 69.18C189.036 69.3938 189.173 69.595 189.33 69.78V70.47L190.53 71.286L191.172 71.022C191.412 71.1 191.659 71.1543 191.91 71.184L192.462 71.784L193.8 71.472ZM190.8 67.584C190.743 67.271 190.781 66.9481 190.907 66.6563C191.034 66.3645 191.245 66.1169 191.512 65.9448C191.78 65.7727 192.093 65.6839 192.411 65.6895C192.729 65.6952 193.038 65.7951 193.299 65.9765C193.561 66.158 193.762 66.413 193.879 66.7091C193.995 67.0052 194.021 67.3292 193.953 67.64C193.885 67.9509 193.727 68.2346 193.498 68.4553C193.269 68.6761 192.979 68.8239 192.666 68.88C192.247 68.9535 191.816 68.8586 191.466 68.6159C191.117 68.3732 190.877 68.0024 190.8 67.584Z" fill="#407BFF"/>
<path d="M177.366 67.494L176.904 67.104C177.894 65.876 179.118 64.8564 180.504 64.104L180.786 64.632C179.468 65.3498 178.305 66.3227 177.366 67.494Z" fill="#407BFF"/>
<path d="M182.154 64.0799L181.92 63.5279C184.136 62.5651 186.558 62.1771 188.964 62.3999L188.904 62.9999C186.599 62.7827 184.276 63.1543 182.154 64.0799Z" fill="#407BFF"/>
<path d="M181.02 68.232L180.528 67.896C181.973 65.944 184.077 64.5819 186.45 64.062L186.564 64.662C184.347 65.1462 182.378 66.4138 181.02 68.232Z" fill="#407BFF"/>
<path d="M141.204 126C141.122 125.998 141.045 125.963 140.988 125.904L139.734 124.608C139.095 124.55 138.462 124.434 137.844 124.26L135.882 125.124C135.839 125.148 135.79 125.16 135.741 125.16C135.692 125.16 135.643 125.148 135.6 125.124L132.312 122.946C132.27 122.918 132.235 122.88 132.212 122.834C132.189 122.789 132.178 122.739 132.18 122.688V120.552C131.779 120.05 131.425 119.512 131.124 118.944L129.438 118.296C129.391 118.278 129.349 118.248 129.316 118.209C129.284 118.17 129.262 118.124 129.252 118.074L128.472 114.21C128.462 114.161 128.464 114.109 128.479 114.061C128.493 114.013 128.52 113.969 128.556 113.934L129.852 112.68C129.914 112.041 130.03 111.409 130.2 110.79L129.336 108.828C129.312 108.785 129.3 108.736 129.3 108.687C129.3 108.638 129.312 108.589 129.336 108.546L131.514 105.258C131.541 105.215 131.579 105.18 131.625 105.156C131.67 105.133 131.721 105.123 131.772 105.126L133.908 105.156C134.408 104.753 134.947 104.399 135.516 104.1L136.17 102.414C136.187 102.367 136.216 102.326 136.254 102.293C136.292 102.26 136.337 102.238 136.386 102.228L140.25 101.448C140.299 101.437 140.351 101.439 140.399 101.454C140.447 101.468 140.491 101.495 140.526 101.532L141.78 102.828C142.421 102.886 143.056 103.003 143.676 103.176L145.632 102.312C145.676 102.288 145.726 102.276 145.776 102.276C145.826 102.276 145.876 102.288 145.92 102.312L149.202 104.49C149.244 104.519 149.278 104.558 149.302 104.602C149.326 104.647 149.339 104.697 149.34 104.748L149.304 106.884C149.707 107.386 150.063 107.924 150.366 108.492L152.046 109.146C152.093 109.163 152.134 109.192 152.167 109.23C152.199 109.268 152.222 109.313 152.232 109.362L153.018 113.226C153.027 113.275 153.024 113.326 153.01 113.374C152.995 113.422 152.969 113.466 152.934 113.502L151.632 114.762C151.572 115.399 151.456 116.03 151.284 116.646L152.148 118.608C152.172 118.652 152.184 118.702 152.184 118.752C152.184 118.802 152.172 118.852 152.148 118.896L150 122.154C149.972 122.195 149.934 122.228 149.89 122.251C149.846 122.274 149.798 122.286 149.748 122.286L147.606 122.256C147.104 122.654 146.568 123.007 146.004 123.312L145.35 124.998C145.332 125.045 145.302 125.088 145.263 125.12C145.225 125.153 145.178 125.175 145.128 125.184L141.264 126H141.204ZM137.826 123.6C137.854 123.594 137.882 123.594 137.91 123.6C138.558 123.789 139.223 123.911 139.896 123.966C139.968 123.974 140.035 124.006 140.088 124.056L141.288 125.316L144.828 124.602L145.464 122.958C145.494 122.892 145.544 122.837 145.608 122.802C146.207 122.492 146.772 122.12 147.294 121.692C147.349 121.645 147.42 121.622 147.492 121.626L149.574 121.656L151.566 118.656L150.726 116.748C150.702 116.682 150.702 116.61 150.726 116.544C150.912 115.895 151.034 115.23 151.092 114.558C151.098 114.485 151.13 114.417 151.182 114.366L152.442 113.166L151.728 109.626L150.09 108.99C150.02 108.964 149.962 108.913 149.928 108.846C149.617 108.247 149.245 107.683 148.818 107.16C148.775 107.105 148.752 107.038 148.752 106.968V104.88L145.752 102.888L143.85 103.728C143.782 103.752 143.708 103.752 143.64 103.728C142.99 103.54 142.322 103.418 141.648 103.362C141.576 103.353 141.509 103.322 141.456 103.272L140.256 102.012L136.716 102.732L136.086 104.4C136.061 104.469 136.012 104.526 135.948 104.562C135.346 104.871 134.779 105.243 134.256 105.672C134.23 105.695 134.2 105.713 134.167 105.725C134.134 105.736 134.099 105.741 134.064 105.738L131.982 105.708L129.984 108.708L130.824 110.616C130.843 110.656 130.853 110.7 130.853 110.745C130.853 110.79 130.843 110.834 130.824 110.874C130.646 111.507 130.53 112.156 130.476 112.812C130.47 112.885 130.438 112.953 130.386 113.004L129.126 114.204L129.846 117.744L131.478 118.38C131.551 118.41 131.61 118.466 131.646 118.536C131.955 119.13 132.325 119.691 132.75 120.21C132.795 120.264 132.818 120.332 132.816 120.402V122.49L135.816 124.482L137.724 123.642C137.755 123.622 137.79 123.608 137.826 123.6ZM140.772 121.656C139.328 121.655 137.911 121.262 136.672 120.52C135.433 119.778 134.419 118.714 133.736 117.441C133.053 116.168 132.729 114.734 132.796 113.292C132.863 111.849 133.32 110.452 134.118 109.248C134.881 108.093 135.931 107.156 137.165 106.529C138.399 105.901 139.774 105.605 141.157 105.668C142.54 105.732 143.883 106.153 145.054 106.891C146.225 107.629 147.185 108.658 147.839 109.878C148.493 111.098 148.819 112.467 148.786 113.851C148.753 115.234 148.361 116.586 147.649 117.773C146.936 118.96 145.928 119.942 144.723 120.622C143.518 121.303 142.156 121.659 140.772 121.656ZM134.622 109.578C133.814 110.796 133.386 112.227 133.392 113.689C133.397 115.151 133.836 116.578 134.652 117.791C135.469 119.003 136.627 119.947 137.979 120.501C139.332 121.056 140.818 121.197 142.251 120.907C143.684 120.616 144.998 119.908 146.029 118.87C147.059 117.833 147.758 116.514 148.038 115.079C148.319 113.644 148.167 112.159 147.603 110.81C147.039 109.461 146.088 108.31 144.87 107.502C144.062 106.961 143.155 106.586 142.201 106.398C141.248 106.209 140.266 106.212 139.313 106.405C138.361 106.598 137.456 106.977 136.65 107.522C135.845 108.067 135.156 108.765 134.622 109.578Z" fill="white"/>
<path d="M255.498 138.99L246.078 137.718L252.306 91.032L234.138 88.584L190.068 129.156L187.752 146.514L225.726 151.638L223.83 165.84L241.998 168.288L243.894 154.092L253.314 155.364L255.498 138.99ZM207.846 132.558L231.102 111.36L227.91 135.264L207.846 132.558Z" fill="#407BFF"/>
<path d="M236.478 167.844H236.4C236.322 167.829 236.253 167.785 236.208 167.719C236.163 167.654 236.146 167.574 236.16 167.496L250.2 90.732C250.216 90.6549 250.261 90.587 250.326 90.5423C250.391 90.4976 250.47 90.4796 250.548 90.492C250.626 90.5066 250.695 90.5514 250.74 90.6165C250.785 90.6817 250.802 90.7621 250.788 90.84L236.778 167.598C236.764 167.667 236.727 167.73 236.672 167.775C236.617 167.819 236.549 167.844 236.478 167.844Z" fill="#263238"/>
<path d="M248.898 92.0219C248.893 92.1524 248.837 92.2757 248.741 92.3645C248.646 92.4534 248.519 92.5007 248.388 92.4959C248.258 92.4912 248.134 92.4347 248.045 92.3391C247.956 92.2435 247.909 92.1164 247.914 91.9859C247.919 91.8554 247.975 91.7322 248.071 91.6433C248.166 91.5544 248.294 91.5072 248.424 91.5119C248.555 91.5167 248.678 91.5731 248.767 91.6688C248.856 91.7644 248.903 91.8914 248.898 92.0219Z" fill="#263238"/>
<path d="M246.9 102.402C246.896 102.499 246.864 102.593 246.807 102.672C246.75 102.751 246.671 102.811 246.58 102.845C246.489 102.879 246.389 102.885 246.295 102.862C246.2 102.84 246.114 102.79 246.048 102.719C245.982 102.647 245.938 102.558 245.923 102.462C245.907 102.366 245.92 102.267 245.961 102.179C246.001 102.091 246.067 102.016 246.15 101.965C246.233 101.914 246.329 101.888 246.426 101.892C246.491 101.894 246.554 101.909 246.613 101.936C246.672 101.963 246.725 102.001 246.769 102.049C246.813 102.096 246.847 102.152 246.87 102.212C246.892 102.273 246.902 102.337 246.9 102.402Z" fill="#263238"/>
<path d="M244.902 112.8C244.9 112.865 244.885 112.928 244.858 112.987C244.831 113.046 244.793 113.099 244.745 113.143C244.698 113.187 244.642 113.221 244.582 113.244C244.521 113.266 244.457 113.276 244.392 113.274C244.328 113.272 244.264 113.258 244.205 113.232C244.147 113.206 244.094 113.168 244.05 113.121C244.006 113.074 243.971 113.019 243.949 112.959C243.926 112.898 243.916 112.834 243.918 112.77C243.92 112.705 243.934 112.641 243.961 112.581C243.987 112.522 244.025 112.468 244.073 112.423C244.12 112.379 244.176 112.344 244.237 112.321C244.298 112.298 244.363 112.288 244.428 112.29C244.558 112.296 244.68 112.353 244.769 112.448C244.858 112.544 244.905 112.67 244.902 112.8Z" fill="#263238"/>
<path d="M240.966 123.6C240.953 123.72 240.895 123.832 240.805 123.912C240.715 123.993 240.598 124.038 240.477 124.038C240.356 124.038 240.239 123.993 240.149 123.912C240.059 123.832 240.001 123.72 239.988 123.6C239.98 123.531 239.987 123.462 240.008 123.396C240.03 123.33 240.064 123.269 240.11 123.218C240.157 123.166 240.213 123.125 240.276 123.097C240.339 123.068 240.408 123.054 240.477 123.054C240.546 123.054 240.615 123.068 240.678 123.097C240.741 123.125 240.797 123.166 240.844 123.218C240.89 123.269 240.924 123.33 240.946 123.396C240.967 123.462 240.974 123.531 240.966 123.6Z" fill="#263238"/>
<path d="M240.9 133.542C240.898 133.607 240.884 133.671 240.857 133.73C240.831 133.789 240.793 133.842 240.745 133.887C240.697 133.931 240.642 133.965 240.581 133.987C240.52 134.009 240.455 134.019 240.39 134.016C240.293 134.012 240.199 133.98 240.12 133.923C240.041 133.866 239.981 133.787 239.947 133.696C239.913 133.605 239.907 133.505 239.93 133.411C239.952 133.316 240.002 133.23 240.073 133.164C240.145 133.098 240.234 133.054 240.33 133.039C240.426 133.023 240.524 133.036 240.613 133.077C240.701 133.117 240.776 133.183 240.827 133.266C240.878 133.349 240.903 133.445 240.9 133.542Z" fill="#263238"/>
<path d="M238.902 143.922C238.9 144.019 238.868 144.114 238.812 144.194C238.756 144.273 238.677 144.334 238.586 144.369C238.495 144.404 238.395 144.411 238.3 144.389C238.205 144.367 238.119 144.318 238.052 144.247C237.985 144.176 237.941 144.086 237.925 143.99C237.909 143.894 237.922 143.795 237.962 143.706C238.002 143.617 238.068 143.543 238.151 143.491C238.234 143.44 238.331 143.414 238.428 143.418C238.557 143.423 238.68 143.478 238.769 143.573C238.857 143.667 238.905 143.792 238.902 143.922Z" fill="#263238"/>
<path d="M236.904 154.302C236.899 154.433 236.843 154.557 236.748 154.647C236.652 154.737 236.525 154.785 236.394 154.782C236.329 154.78 236.266 154.765 236.207 154.738C236.148 154.711 236.095 154.673 236.051 154.625C236.007 154.578 235.973 154.522 235.95 154.462C235.928 154.401 235.918 154.337 235.92 154.272C235.922 154.207 235.937 154.144 235.963 154.085C235.99 154.026 236.028 153.973 236.075 153.928C236.122 153.884 236.177 153.85 236.238 153.827C236.298 153.804 236.362 153.793 236.427 153.795C236.492 153.797 236.555 153.812 236.614 153.838C236.673 153.865 236.726 153.903 236.77 153.95C236.815 153.997 236.849 154.052 236.872 154.112C236.895 154.173 236.906 154.237 236.904 154.302Z" fill="#263238"/>
<path d="M234.9 164.688C234.896 164.785 234.864 164.879 234.807 164.958C234.75 165.037 234.671 165.097 234.58 165.131C234.489 165.165 234.389 165.171 234.295 165.148C234.2 165.126 234.114 165.076 234.048 165.005C233.982 164.933 233.938 164.844 233.923 164.748C233.907 164.652 233.92 164.553 233.961 164.465C234.001 164.377 234.067 164.302 234.15 164.251C234.233 164.2 234.329 164.174 234.426 164.178C234.491 164.179 234.555 164.194 234.614 164.221C234.673 164.247 234.726 164.285 234.771 164.333C234.815 164.38 234.849 164.436 234.871 164.497C234.893 164.558 234.903 164.623 234.9 164.688Z" fill="#263238"/>
<path d="M240.474 123.87C240.406 123.87 240.341 123.847 240.288 123.804C240.236 123.762 240.2 123.702 240.186 123.636C240.177 123.597 240.176 123.557 240.183 123.518C240.189 123.479 240.204 123.442 240.225 123.408C240.246 123.375 240.274 123.346 240.306 123.323C240.339 123.301 240.375 123.285 240.414 123.276L241.902 122.958C241.941 122.949 241.981 122.948 242.021 122.955C242.06 122.962 242.098 122.977 242.131 122.999C242.165 123.021 242.194 123.049 242.216 123.082C242.239 123.115 242.254 123.153 242.262 123.192C242.27 123.231 242.27 123.27 242.263 123.309C242.255 123.348 242.24 123.385 242.218 123.417C242.197 123.45 242.169 123.479 242.136 123.501C242.103 123.523 242.067 123.538 242.028 123.546L240.54 123.864L240.474 123.87Z" fill="#263238"/>
<path d="M245.448 118.344C244.74 120.18 244.139 122.055 243.648 123.96C243.198 126.078 243.174 130.818 243.174 130.818" fill="#263238"/>
<path d="M243.174 131.118C243.094 131.115 243.019 131.081 242.963 131.025C242.907 130.968 242.875 130.892 242.874 130.812C242.874 130.62 242.91 126.012 243.36 123.9C243.848 121.978 244.449 120.087 245.16 118.236C245.172 118.196 245.192 118.16 245.219 118.128C245.246 118.097 245.279 118.072 245.316 118.053C245.353 118.035 245.393 118.025 245.434 118.023C245.476 118.022 245.517 118.029 245.555 118.043C245.594 118.058 245.629 118.081 245.658 118.11C245.687 118.139 245.71 118.174 245.726 118.212C245.741 118.251 245.748 118.292 245.747 118.333C245.746 118.374 245.736 118.415 245.718 118.452C245.011 120.274 244.41 122.135 243.918 124.026C243.48 126.09 243.45 130.77 243.444 130.818C243.444 130.893 243.417 130.965 243.367 131.02C243.317 131.076 243.248 131.11 243.174 131.118Z" fill="#263238"/>
<path d="M133.47 182.904C134.304 169.464 132.774 145.026 158.04 148.266C185.118 151.728 177.372 183.396 177.372 183.396L133.47 182.904Z" fill="#263238"/>
<path d="M150.906 174.828C156.997 174.828 161.934 169.891 161.934 163.8C161.934 157.709 156.997 152.772 150.906 152.772C144.815 152.772 139.878 157.709 139.878 163.8C139.878 169.891 144.815 174.828 150.906 174.828Z" fill="white"/>
<path d="M152.358 152.79C147.132 151.902 141.558 155.748 141 159.648L161.706 161.556C160.974 157.11 156.498 153.498 152.358 152.79Z" fill="#263238"/>
<path d="M159.348 163.524C159.198 166.41 157.626 168.672 155.838 168.576C154.05 168.48 152.718 166.074 152.838 163.176C152.958 160.278 154.56 158.028 156.348 158.124C158.136 158.22 159.492 160.644 159.348 163.524Z" fill="#263238"/>
<path d="M150.906 175.428C148.606 175.428 146.358 174.746 144.446 173.468C142.534 172.191 141.043 170.375 140.163 168.25C139.283 166.125 139.053 163.787 139.501 161.531C139.95 159.276 141.058 157.204 142.684 155.578C144.31 153.952 146.382 152.844 148.638 152.395C150.893 151.947 153.231 152.177 155.356 153.057C157.481 153.937 159.297 155.428 160.574 157.34C161.852 159.252 162.534 161.5 162.534 163.8C162.531 166.883 161.305 169.839 159.125 172.019C156.945 174.199 153.989 175.425 150.906 175.428ZM150.906 153.378C148.843 153.378 146.827 153.99 145.112 155.136C143.397 156.282 142.06 157.911 141.271 159.817C140.482 161.723 140.276 163.82 140.679 165.843C141.082 167.866 142.075 169.724 143.534 171.182C144.993 172.64 146.852 173.633 148.875 174.034C150.899 174.436 152.995 174.229 154.901 173.438C156.806 172.648 158.434 171.311 159.579 169.595C160.725 167.879 161.335 165.863 161.334 163.8C161.331 161.036 160.231 158.386 158.276 156.432C156.321 154.478 153.67 153.38 150.906 153.378Z" fill="#407BFF"/>
<path opacity="0.3" d="M174.294 182.568H174.222C174.183 182.56 174.147 182.543 174.115 182.521C174.083 182.498 174.055 182.469 174.035 182.435C174.014 182.401 174 182.364 173.994 182.325C173.988 182.286 173.99 182.246 174 182.208C174 182.13 175.932 173.994 173.946 165.768C173.927 165.688 173.94 165.605 173.983 165.535C174.026 165.465 174.094 165.415 174.174 165.396C174.254 165.377 174.337 165.39 174.407 165.433C174.477 165.476 174.527 165.544 174.546 165.624C176.568 174.024 174.618 182.268 174.6 182.346C174.582 182.412 174.542 182.471 174.486 182.511C174.431 182.552 174.363 182.572 174.294 182.568Z" fill="white"/>
<path opacity="0.3" d="M172.62 161.256C172.562 161.255 172.506 161.239 172.457 161.208C172.409 161.177 172.369 161.134 172.344 161.082C171.598 159.434 170.642 157.889 169.5 156.486C169.45 156.425 169.427 156.346 169.435 156.267C169.443 156.189 169.481 156.116 169.542 156.066C169.573 156.04 169.608 156.021 169.646 156.01C169.684 155.998 169.724 155.994 169.764 155.998C169.803 156.002 169.842 156.013 169.877 156.032C169.912 156.051 169.943 156.077 169.968 156.108C171.139 157.552 172.12 159.138 172.89 160.83C172.907 160.865 172.917 160.904 172.919 160.943C172.921 160.982 172.915 161.021 172.902 161.058C172.888 161.095 172.867 161.129 172.841 161.158C172.814 161.187 172.782 161.21 172.746 161.226C172.706 161.244 172.664 161.255 172.62 161.256Z" fill="white"/>
<path d="M77.238 245.952H77.016C76.2204 245.93 75.4661 245.592 74.9193 245.014C74.3724 244.436 74.0777 243.664 74.1 242.868C74.1223 242.072 74.4597 241.318 75.0381 240.771C75.6164 240.224 76.3884 239.93 77.184 239.952H77.238C78.972 239.952 83.142 237.846 91.866 224.094C92.0976 223.729 92.4054 223.418 92.7683 223.183C93.1313 222.948 93.5408 222.794 93.9687 222.732C94.3967 222.669 94.833 222.701 95.2479 222.823C95.6627 222.945 96.0461 223.156 96.372 223.44C103.223 229.33 110.695 234.456 118.656 238.728C119.024 238.896 119.355 239.136 119.628 239.435C119.901 239.733 120.111 240.084 120.245 240.466C120.379 240.848 120.434 241.253 120.407 241.657C120.381 242.061 120.273 242.455 120.089 242.816C119.906 243.177 119.652 243.497 119.342 243.757C119.032 244.017 118.672 244.212 118.285 244.33C117.898 244.447 117.491 244.485 117.088 244.441C116.686 244.397 116.297 244.272 115.944 244.074C108.545 240.142 101.551 235.492 95.064 230.19C87.75 241.2 82.326 245.952 77.238 245.952Z" fill="#263238"/>
<path d="M95.802 222.9H95.544C95.0725 222.832 94.6474 222.579 94.3617 222.198C94.076 221.817 93.9532 221.338 94.02 220.866C94.446 217.866 93.918 206.688 90.132 197.988C89.9641 197.604 89.9357 197.172 90.0519 196.769C90.168 196.366 90.4213 196.016 90.768 195.78C98.988 190.182 116.496 189.51 117.24 189.486C117.476 189.478 117.712 189.517 117.933 189.6C118.155 189.683 118.358 189.809 118.53 189.971C118.703 190.132 118.842 190.326 118.94 190.542C119.038 190.757 119.092 190.99 119.1 191.226C119.108 191.462 119.069 191.698 118.986 191.919C118.903 192.141 118.777 192.344 118.615 192.516C118.454 192.689 118.26 192.828 118.044 192.926C117.829 193.024 117.596 193.078 117.36 193.086C117.198 193.086 101.892 193.686 94.032 198.006C97.38 206.67 98.142 217.464 97.584 221.37C97.5194 221.796 97.304 222.185 96.9769 222.466C96.6499 222.746 96.233 222.901 95.802 222.9Z" fill="#263238"/>
<path d="M98.826 220.572C97.626 217.746 92.226 218.064 89.064 220.488C87.372 221.778 85.08 225.672 84.864 227.088C84.792 227.424 84.8027 227.773 84.8954 228.105C84.9881 228.436 85.1598 228.74 85.3959 228.99C85.6321 229.241 85.9254 229.43 86.2508 229.542C86.5762 229.653 86.9239 229.684 87.264 229.632C89.334 229.452 92.172 226.446 92.172 226.446C90.282 228.3 92.724 229.608 96.372 226.926C98.364 225.432 100.164 223.734 98.826 220.572Z" fill="#407BFF"/>
<path d="M202.026 183.696C201.998 183.702 201.97 183.702 201.942 183.696C201.904 183.686 201.868 183.668 201.837 183.643C201.806 183.619 201.78 183.588 201.761 183.554C201.742 183.519 201.73 183.481 201.726 183.441C201.722 183.402 201.726 183.362 201.738 183.324C202.536 180.54 203.406 178.842 204.552 177.924C204.372 177.279 204.406 176.593 204.648 175.968C204.928 175.239 205.421 174.611 206.064 174.168C205.889 173.979 205.765 173.749 205.703 173.5C205.641 173.25 205.644 172.989 205.71 172.74C205.927 171.988 206.377 171.325 206.994 170.844C206.771 170.595 206.649 170.272 206.652 169.938C206.652 168.138 209.958 165.426 213.708 164.91C213.788 164.899 213.868 164.92 213.932 164.968C213.997 165.017 214.039 165.088 214.05 165.168C214.061 165.248 214.04 165.328 213.992 165.392C213.943 165.457 213.872 165.499 213.792 165.51C210.228 165.996 207.24 168.576 207.252 169.938C207.251 170.141 207.328 170.337 207.468 170.484C208.275 169.937 209.183 169.556 210.139 169.363C211.095 169.17 212.08 169.17 213.036 169.362C214.878 169.716 215.628 170.106 215.544 170.664C215.376 171.714 211.458 171.936 208.83 171.624C208.359 171.581 207.901 171.449 207.48 171.234C206.914 171.637 206.493 172.211 206.28 172.872C206.229 173.047 206.229 173.233 206.281 173.408C206.333 173.582 206.435 173.738 206.574 173.856C207.69 173.256 209.256 173.04 211.326 173.496C214.044 174.096 214.146 174.426 214.212 174.624C214.233 174.694 214.235 174.768 214.217 174.839C214.199 174.91 214.162 174.975 214.11 175.026C213.54 175.626 209.37 175.344 207.276 174.828C207.023 174.77 206.779 174.68 206.55 174.558C205.93 174.935 205.453 175.507 205.194 176.184C205.021 176.622 204.973 177.1 205.056 177.564C205.163 177.5 205.273 177.442 205.386 177.39C206.628 176.79 208.128 176.898 209.982 177.69C211.182 178.212 211.782 178.68 211.842 179.154C211.845 179.276 211.814 179.396 211.754 179.501C211.694 179.607 211.606 179.694 211.5 179.754C210.582 180.354 207.378 180.27 205.71 179.382C205.326 179.174 205.007 178.865 204.786 178.488C203.808 179.388 203.016 180.99 202.296 183.504C202.274 183.559 202.237 183.606 202.189 183.64C202.141 183.674 202.085 183.693 202.026 183.696ZM205.278 178.098C205.445 178.408 205.7 178.663 206.01 178.83C207.366 179.55 210.03 179.712 211.026 179.31C211.23 179.226 211.26 179.16 211.26 179.16C211.26 179.16 211.23 178.824 209.76 178.194C208.08 177.474 206.76 177.372 205.662 177.882C205.53 177.946 205.401 178.018 205.278 178.098ZM207.282 174.156L207.432 174.198C209.386 174.648 211.397 174.8 213.396 174.648C212.687 174.385 211.956 174.184 211.212 174.048C209.92 173.698 208.553 173.736 207.282 174.156ZM208.038 170.784C208.315 170.883 208.603 170.948 208.896 170.976C211.896 171.33 214.53 170.916 214.896 170.538C214.794 170.448 214.392 170.19 212.904 169.908C211.23 169.574 209.491 169.887 208.038 170.784Z" fill="#263238"/>
<path d="M123.918 244.95C124.314 244.824 124.182 244.44 123.738 244.44H115.614C100.146 242.802 89.34 244.998 96.15 245.514C102.96 246.03 95.67 245.922 90.696 247.806C85.722 249.69 127.686 250.164 131.496 247.806C135 245.634 118.434 246.708 123.918 244.95Z" fill="#263238"/>
<path d="M182.082 247.344L111.402 244.998L108.468 176.466L191.934 178.332L182.082 247.344Z" fill="#407BFF"/>
<path d="M133.47 246.03C133.394 246.03 133.322 246.002 133.266 245.951C133.21 245.9 133.176 245.829 133.17 245.754L127.506 176.922C127.501 176.843 127.527 176.765 127.578 176.704C127.63 176.644 127.703 176.606 127.782 176.598C127.861 176.594 127.938 176.621 127.998 176.672C128.059 176.723 128.097 176.796 128.106 176.874L133.8 245.706C133.803 245.745 133.799 245.785 133.787 245.823C133.775 245.86 133.755 245.895 133.729 245.925C133.704 245.956 133.672 245.98 133.637 245.998C133.602 246.016 133.563 246.027 133.524 246.03H133.47Z" fill="#263238"/>
<path d="M182.082 247.344L201.078 244.452L207.06 180.726L191.934 178.332L182.082 247.344Z" fill="#407BFF"/>
<path opacity="0.2" d="M182.082 247.344L201.078 244.452L207.06 180.726L191.934 178.332L182.082 247.344Z" fill="black"/>
<path d="M117.438 231.792L115.698 191.07C115.655 190.064 115.819 189.06 116.18 188.12C116.54 187.18 117.09 186.323 117.794 185.604C118.499 184.885 119.344 184.318 120.276 183.938C121.209 183.558 122.209 183.374 123.216 183.396L176.052 184.596C177.092 184.619 178.116 184.863 179.055 185.311C179.995 185.759 180.828 186.401 181.501 187.195C182.174 187.989 182.671 188.916 182.96 189.916C183.248 190.916 183.321 191.966 183.174 192.996L177.318 234C177.065 235.796 176.157 237.435 174.77 238.603C173.383 239.771 171.613 240.386 169.8 240.33L124.566 238.83C122.709 238.773 120.942 238.015 119.62 236.71C118.298 235.405 117.519 233.648 117.438 231.792Z" fill="#263238"/>
<path d="M123.15 195.894L131.322 196.152L131.256 198.258L126.138 198.096L126.09 199.668L130.836 199.818L130.77 201.834L126.024 201.678L125.964 203.628L131.226 203.796L131.154 206.028L122.832 205.764L123.15 195.894Z" fill="white"/>
<path d="M132.84 206.082L133.152 196.212L138.24 196.374C138.97 196.37 139.696 196.475 140.394 196.686C140.889 196.852 141.313 197.182 141.594 197.622C141.803 197.942 141.943 198.302 142.006 198.679C142.07 199.056 142.055 199.442 141.962 199.813C141.87 200.184 141.702 200.532 141.47 200.835C141.237 201.139 140.944 201.391 140.61 201.576C140.269 201.752 139.902 201.873 139.524 201.936C139.803 202.026 140.068 202.155 140.31 202.32C140.485 202.483 140.642 202.664 140.778 202.86C140.933 203.047 141.069 203.248 141.186 203.46L142.572 206.37L139.128 206.256L137.592 203.19C137.47 202.897 137.291 202.632 137.064 202.41C136.849 202.254 136.592 202.167 136.326 202.158H136.056L135.93 206.16L132.84 206.082ZM136.092 200.31L137.376 200.352C137.649 200.335 137.919 200.297 138.186 200.238C138.387 200.207 138.569 200.103 138.696 199.944C138.826 199.784 138.9 199.586 138.906 199.38C138.917 199.243 138.898 199.105 138.849 198.976C138.8 198.847 138.723 198.731 138.624 198.636C138.289 198.42 137.894 198.317 137.496 198.342L136.152 198.3L136.092 200.31Z" fill="white"/>
<path d="M143.568 206.4L143.88 196.53L148.962 196.692C149.692 196.688 150.418 196.793 151.116 197.004C151.612 197.168 152.036 197.499 152.316 197.94C152.621 198.421 152.763 198.986 152.724 199.554C152.726 200.033 152.598 200.503 152.354 200.915C152.11 201.327 151.759 201.665 151.338 201.894C150.996 202.069 150.63 202.19 150.252 202.254C150.529 202.343 150.792 202.473 151.032 202.638C151.211 202.796 151.371 202.975 151.506 203.172C151.659 203.36 151.796 203.56 151.914 203.772L153.3 206.676L149.856 206.568L148.32 203.502C148.197 203.21 148.018 202.945 147.792 202.722C147.578 202.56 147.317 202.472 147.048 202.47H146.784L146.652 206.478L143.568 206.4ZM146.814 200.628L148.104 200.664C148.377 200.654 148.648 200.618 148.914 200.556C149.114 200.526 149.294 200.421 149.418 200.262C149.552 200.105 149.627 199.905 149.628 199.698C149.641 199.561 149.623 199.423 149.575 199.294C149.527 199.166 149.451 199.049 149.352 198.954C149.017 198.732 148.618 198.629 148.218 198.66L146.88 198.618L146.814 200.628Z" fill="white"/>
<path d="M153.792 201.816C153.746 201.127 153.852 200.437 154.105 199.794C154.357 199.152 154.748 198.573 155.251 198.1C155.754 197.626 156.355 197.27 157.011 197.057C157.668 196.844 158.363 196.778 159.048 196.866C159.739 196.843 160.428 196.959 161.073 197.208C161.718 197.456 162.307 197.832 162.804 198.312C163.248 198.823 163.583 199.419 163.789 200.064C163.996 200.708 164.069 201.388 164.004 202.062C164.009 203.042 163.778 204.009 163.332 204.882C162.927 205.596 162.323 206.176 161.592 206.55C160.731 206.962 159.778 207.144 158.826 207.078C157.877 207.086 156.938 206.881 156.078 206.478C155.346 206.081 154.749 205.475 154.362 204.738C153.908 203.834 153.711 202.824 153.792 201.816ZM156.84 201.924C156.75 202.68 156.922 203.445 157.326 204.09C157.515 204.301 157.745 204.472 158.002 204.593C158.258 204.713 158.537 204.781 158.82 204.791C159.103 204.802 159.386 204.755 159.651 204.654C159.916 204.554 160.158 204.4 160.362 204.204C160.807 203.53 161.018 202.729 160.962 201.924C161.043 201.201 160.866 200.472 160.464 199.866C160.282 199.656 160.057 199.488 159.805 199.373C159.552 199.258 159.278 199.199 159 199.2C158.72 199.18 158.439 199.223 158.178 199.327C157.917 199.431 157.683 199.593 157.494 199.8C157.04 200.412 156.809 201.162 156.84 201.924Z" fill="white"/>
<path d="M165.546 207.126L165.858 197.25L170.94 197.412C171.669 197.411 172.395 197.516 173.094 197.724C173.588 197.892 174.011 198.222 174.294 198.66C174.597 199.141 174.74 199.706 174.702 200.274C174.705 200.754 174.577 201.225 174.333 201.639C174.089 202.052 173.738 202.391 173.316 202.62C172.973 202.79 172.607 202.909 172.23 202.974C172.508 203.065 172.77 203.197 173.01 203.364C173.189 203.522 173.349 203.701 173.484 203.898C173.639 204.085 173.775 204.286 173.892 204.498L175.278 207.408L171.834 207.3L170.298 204.228C170.176 203.937 169.996 203.674 169.77 203.454C169.555 203.293 169.295 203.203 169.026 203.196H168.762L168.63 207.204L165.546 207.126ZM168.792 201.348L170.082 201.39C170.355 201.38 170.626 201.343 170.892 201.282C171.091 201.25 171.27 201.145 171.396 200.988C171.538 200.821 171.612 200.607 171.606 200.388C171.619 200.252 171.601 200.115 171.553 199.987C171.505 199.859 171.429 199.744 171.33 199.65C170.995 199.428 170.596 199.325 170.196 199.356L168.858 199.314L168.792 201.348Z" fill="white"/>
<path d="M170.4 223.896C170.287 223.898 170.176 223.876 170.072 223.832C169.969 223.787 169.876 223.721 169.8 223.638L164.664 218.016L159.12 223.08C158.966 223.221 158.763 223.295 158.555 223.286C158.347 223.277 158.151 223.185 158.01 223.032L152.874 217.41L147.33 222.474C147.176 222.615 146.973 222.689 146.765 222.68C146.557 222.671 146.361 222.579 146.22 222.426L141.078 216.804L135.54 221.868C135.459 221.941 135.364 221.997 135.261 222.032C135.158 222.067 135.049 222.081 134.94 222.072C134.732 222.06 134.536 221.967 134.394 221.814L129.258 216.198L123.72 221.256C123.565 221.397 123.361 221.471 123.152 221.462C122.943 221.453 122.746 221.362 122.604 221.208C122.534 221.132 122.48 221.043 122.444 220.945C122.409 220.848 122.394 220.745 122.399 220.642C122.404 220.538 122.429 220.437 122.474 220.344C122.518 220.25 122.581 220.167 122.658 220.098L128.778 214.5C128.933 214.359 129.137 214.285 129.346 214.294C129.555 214.303 129.752 214.394 129.894 214.548L135.03 220.17L140.568 215.106C140.725 214.968 140.929 214.895 141.138 214.902C141.347 214.913 141.543 215.006 141.684 215.16L146.82 220.782L152.364 215.718C152.44 215.648 152.529 215.593 152.626 215.557C152.723 215.521 152.826 215.505 152.929 215.51C153.032 215.514 153.134 215.539 153.227 215.583C153.321 215.627 153.405 215.689 153.474 215.766L158.61 221.388L164.154 216.324C164.308 216.183 164.511 216.109 164.719 216.118C164.927 216.127 165.123 216.218 165.264 216.372L171 222.6C171.102 222.715 171.169 222.856 171.193 223.008C171.216 223.16 171.194 223.316 171.131 223.456C171.067 223.596 170.964 223.714 170.834 223.797C170.705 223.879 170.554 223.922 170.4 223.92V223.896Z" fill="white"/>
<path d="M75.45 248.802L71.694 247.008L68.346 230.706L70.164 228.708L75.45 248.802Z" fill="#407BFF"/>
<path d="M75.45 248.802L80.436 245.886L76.164 232.458L70.164 228.708L75.45 248.802Z" fill="#407BFF"/>
<path opacity="0.2" d="M75.45 248.802L80.436 245.886L76.164 232.458L70.164 228.708L75.45 248.802Z" fill="black"/>
<path d="M157.2 251.766H156.786C155.99 251.744 155.236 251.408 154.688 250.83C154.141 250.252 153.846 249.481 153.867 248.685C153.888 247.889 154.225 247.135 154.803 246.587C155.381 246.04 156.152 245.744 156.948 245.766C161.568 245.916 171.348 243.078 176.94 237.654C177.278 237.323 177.689 237.076 178.14 236.934C187.614 234.09 191.136 239.832 191.28 240.078L186.12 243.132C186.138 243.17 186.16 243.206 186.186 243.24C186.132 243.162 184.788 241.44 180.516 242.496C173.502 248.892 162.738 251.766 157.2 251.766Z" fill="#263238"/>
<path d="M156.834 255.75L145.908 255.066L145.05 234.918L159.732 235.464L156.834 255.75Z" fill="#407BFF"/>
<path d="M156.834 255.75L159.39 253.206L160.974 240.648L159.732 235.464L156.834 255.75Z" fill="#407BFF"/>
<path opacity="0.2" d="M156.834 255.75L159.39 253.206L160.974 240.648L159.732 235.464L156.834 255.75Z" fill="black"/>
<path d="M220.146 248.124C219.754 248.124 219.372 247.995 219.06 247.758C212.82 243.018 204.39 234.6 201.156 226.482C201.107 226.365 201.073 226.242 201.054 226.116C199.476 216.732 197.97 196.986 197.904 196.152C197.886 195.916 197.915 195.678 197.989 195.453C198.063 195.228 198.181 195.019 198.336 194.84C198.648 194.477 199.092 194.253 199.569 194.217C200.046 194.181 200.518 194.336 200.881 194.649C201.244 194.961 201.468 195.405 201.504 195.882C201.504 196.08 203.046 216.018 204.582 225.324C207.81 233.22 216.582 241.326 221.25 244.89C221.551 245.118 221.772 245.435 221.883 245.795C221.993 246.156 221.988 246.542 221.867 246.9C221.747 247.257 221.517 247.568 221.21 247.787C220.903 248.007 220.535 248.125 220.158 248.124H220.146Z" fill="#263238"/>
<path d="M228.468 249.03C227.076 249.03 225.498 248.4 223.776 247.158C223.389 246.878 223.13 246.456 223.054 245.984C222.979 245.513 223.094 245.031 223.374 244.644C223.654 244.257 224.076 243.998 224.548 243.922C225.019 243.847 225.501 243.962 225.888 244.242C227.376 245.316 228.186 245.442 228.468 245.442C228.945 245.442 229.403 245.632 229.741 245.969C230.078 246.307 230.268 246.765 230.268 247.242C230.268 247.719 230.078 248.177 229.741 248.515C229.403 248.852 228.945 249.042 228.468 249.042V249.03Z" fill="#263238"/>
<path d="M224.28 247.104C226.206 241.386 234.102 242.514 236.826 243.366C239.153 244.041 241.385 245.009 243.468 246.246C244.938 247.206 244.962 248.82 243 249.738C240.6 250.866 234.504 249.864 234.504 249.864C237.648 251.238 234.504 253.464 228.978 251.28C227.184 250.572 223.602 249.204 224.28 247.104Z" fill="#407BFF"/>
<path d="M205.116 198.6C204.402 203.46 200.376 207.042 197.1 206.562C193.824 206.082 193.692 201.762 194.406 196.878C195.12 191.994 196.416 188.478 199.692 188.958C202.968 189.438 205.83 193.758 205.116 198.6Z" fill="#263238"/>
<path d="M125.928 179.22C126.2 179.22 126.42 179 126.42 178.728C126.42 178.456 126.2 178.236 125.928 178.236C125.656 178.236 125.436 178.456 125.436 178.728C125.436 179 125.656 179.22 125.928 179.22Z" fill="#263238"/>
<path d="M130.926 182.268C130.926 182.365 130.897 182.46 130.843 182.541C130.789 182.622 130.712 182.685 130.622 182.723C130.532 182.76 130.433 182.77 130.338 182.751C130.243 182.732 130.155 182.685 130.086 182.616C130.017 182.547 129.97 182.459 129.951 182.364C129.932 182.269 129.942 182.17 129.979 182.08C130.017 181.99 130.08 181.913 130.161 181.859C130.242 181.805 130.337 181.776 130.434 181.776C130.564 181.776 130.69 181.828 130.782 181.92C130.874 182.012 130.926 182.138 130.926 182.268Z" fill="#263238"/>
<path d="M131.478 240.408C131.478 240.505 131.449 240.6 131.395 240.681C131.341 240.762 131.264 240.825 131.174 240.863C131.084 240.9 130.985 240.91 130.89 240.891C130.795 240.872 130.707 240.825 130.638 240.756C130.569 240.687 130.522 240.599 130.503 240.504C130.484 240.409 130.494 240.31 130.531 240.22C130.569 240.13 130.632 240.053 130.713 239.999C130.794 239.945 130.889 239.916 130.986 239.916C131.116 239.916 131.242 239.968 131.334 240.06C131.426 240.152 131.478 240.278 131.478 240.408Z" fill="#263238"/>
<path d="M135.984 243.954C135.984 244.051 135.955 244.146 135.901 244.227C135.847 244.308 135.77 244.371 135.68 244.409C135.59 244.446 135.491 244.456 135.396 244.437C135.301 244.418 135.213 244.371 135.144 244.302C135.075 244.233 135.028 244.145 135.009 244.05C134.99 243.955 135 243.856 135.037 243.766C135.075 243.676 135.138 243.599 135.219 243.545C135.3 243.491 135.395 243.462 135.492 243.462C135.622 243.462 135.748 243.514 135.84 243.606C135.932 243.698 135.984 243.824 135.984 243.954Z" fill="#263238"/>
<path d="M49.506 249.852C48.6422 249.812 47.7985 249.578 47.0373 249.168C46.2761 248.757 45.6167 248.181 45.108 247.482C45.0831 247.45 45.0649 247.413 45.0547 247.374C45.0445 247.334 45.0424 247.293 45.0486 247.253C45.0547 247.213 45.069 247.174 45.0906 247.139C45.1121 247.105 45.1404 247.075 45.1739 247.052C45.2073 247.029 45.2451 247.012 45.285 247.004C45.3249 246.996 45.366 246.996 45.4059 247.004C45.4457 247.013 45.4835 247.029 45.5169 247.052C45.5503 247.076 45.5785 247.105 45.6 247.14C46.722 248.76 49.2 249.618 50.28 249.108C50.3882 249.062 50.4846 248.992 50.562 248.904C50.0163 248.664 49.5381 248.293 49.1698 247.824C48.8014 247.355 48.5542 246.803 48.45 246.216C48.312 245.454 48.204 244.416 48.828 244.284C49.692 244.092 50.82 246.174 51.228 247.752C51.3019 248.013 51.3283 248.286 51.306 248.556C51.6521 248.659 52.0161 248.688 52.374 248.64C52.5353 248.628 52.6922 248.582 52.8348 248.505C52.9774 248.429 53.1024 248.324 53.202 248.196C52.8071 247.898 52.4796 247.52 52.2407 247.087C52.0019 246.654 51.8572 246.175 51.816 245.682C51.588 244.038 51.762 243.756 51.942 243.612C52.0003 243.567 52.0699 243.54 52.143 243.532C52.2162 243.525 52.2899 243.538 52.356 243.57C52.998 243.84 53.772 246.168 53.922 247.488C53.94 247.625 53.94 247.765 53.922 247.902C54.1807 248.001 54.4549 248.054 54.732 248.058C55.2408 248.078 55.744 247.946 56.178 247.68C56.094 247.626 56.016 247.566 55.938 247.506C55.338 246.972 55.062 246.12 55.17 244.908C55.254 243.966 55.464 243.45 55.842 243.288C55.964 243.239 56.0975 243.227 56.2264 243.252C56.3553 243.278 56.474 243.34 56.568 243.432C56.973 243.879 57.2757 244.409 57.455 244.986C57.6342 245.562 57.6858 246.17 57.606 246.768C57.5539 247.017 57.4496 247.252 57.3 247.458C58.404 247.65 59.952 247.338 61.29 247.008C61.3294 246.999 61.3703 246.997 61.4103 247.003C61.4503 247.01 61.4887 247.024 61.5232 247.045C61.5578 247.066 61.5878 247.094 61.6116 247.127C61.6354 247.159 61.6525 247.197 61.662 247.236C61.6715 247.275 61.6731 247.316 61.6667 247.356C61.6604 247.396 61.6462 247.435 61.625 247.469C61.6039 247.504 61.5761 247.534 61.5433 247.558C61.5105 247.581 61.4734 247.599 61.434 247.608C59.808 248.01 58.056 248.34 56.82 247.98C56.2167 248.439 55.4779 248.684 54.72 248.676C54.3837 248.672 54.0507 248.609 53.736 248.49C53.5964 248.706 53.4091 248.887 53.1886 249.019C52.9681 249.151 52.7202 249.231 52.464 249.252C52.013 249.31 51.5548 249.271 51.12 249.138C50.98 249.374 50.7704 249.56 50.52 249.672C50.1982 249.802 49.8528 249.863 49.506 249.852ZM48.99 244.884C48.907 245.292 48.9235 245.714 49.038 246.114C49.1226 246.594 49.3217 247.046 49.6183 247.433C49.915 247.819 50.3004 248.128 50.742 248.334C50.7336 248.192 50.7095 248.051 50.67 247.914C50.202 246.198 49.302 245.016 48.99 244.884ZM52.332 244.362C52.3359 244.776 52.37 245.189 52.434 245.598C52.5002 246.33 52.8233 247.014 53.346 247.53C53.1984 246.422 52.855 245.35 52.332 244.362ZM56.106 243.84C56.106 243.84 55.878 243.954 55.794 244.956C55.71 245.958 55.884 246.648 56.352 247.05C56.4627 247.14 56.5836 247.216 56.712 247.278C56.8698 247.109 56.9814 246.903 57.036 246.678C57.1429 245.734 56.8877 244.784 56.322 244.02C56.196 243.864 56.124 243.84 56.106 243.84Z" fill="#263238"/>
<path d="M137.322 254.388L138.948 251.568L137.322 248.748H135.582L136.566 251.568L135.582 254.388H137.322Z" fill="#263238"/>
<path d="M135.696 253.038C135.495 253.051 135.294 253.022 135.105 252.954C134.916 252.887 134.743 252.781 134.596 252.643C134.45 252.506 134.333 252.34 134.253 252.155C134.173 251.971 134.132 251.772 134.132 251.571C134.132 251.37 134.173 251.171 134.253 250.987C134.333 250.802 134.45 250.636 134.596 250.499C134.743 250.361 134.916 250.255 135.105 250.188C135.294 250.12 135.495 250.091 135.696 250.104L132.936 249.552L132.198 251.784L133.434 253.668L135.696 253.038Z" fill="#263238"/>
<path d="M135.936 248.748H132.678L131.052 251.568L132.678 254.388H135.936L137.562 251.568L135.936 248.748ZM134.31 253.038C134.019 253.039 133.734 252.954 133.492 252.793C133.249 252.632 133.06 252.403 132.948 252.135C132.835 251.866 132.805 251.571 132.862 251.285C132.918 250.999 133.057 250.737 133.262 250.531C133.468 250.325 133.73 250.184 134.015 250.127C134.3 250.07 134.596 250.098 134.865 250.209C135.134 250.32 135.364 250.509 135.526 250.751C135.688 250.993 135.774 251.277 135.774 251.568C135.774 251.957 135.62 252.33 135.346 252.605C135.071 252.881 134.699 253.036 134.31 253.038Z" fill="#407BFF"/>
<path d="M250.734 248.556L249.528 246.462L250.734 244.368H252.024L251.298 246.462L252.024 248.556H250.734Z" fill="#407BFF"/>
<path d="M251.94 247.554C252.09 247.565 252.24 247.545 252.382 247.496C252.524 247.446 252.654 247.367 252.764 247.265C252.874 247.163 252.962 247.039 253.022 246.902C253.082 246.764 253.113 246.615 253.113 246.465C253.113 246.315 253.082 246.166 253.022 246.029C252.962 245.891 252.874 245.767 252.764 245.665C252.654 245.563 252.524 245.484 252.382 245.434C252.24 245.385 252.09 245.365 251.94 245.376L253.992 244.968L254.538 246.624L253.626 248.022L251.94 247.554Z" fill="#407BFF"/>
<path d="M251.766 244.368H254.166L255.366 246.462L254.166 248.556H251.766L250.566 246.462L251.766 244.368ZM252.966 247.554C253.182 247.555 253.394 247.492 253.574 247.373C253.755 247.254 253.896 247.084 253.979 246.884C254.063 246.685 254.085 246.465 254.044 246.253C254.002 246.04 253.899 245.845 253.746 245.692C253.594 245.539 253.399 245.434 253.187 245.391C252.975 245.349 252.755 245.37 252.556 245.453C252.356 245.535 252.185 245.675 252.064 245.855C251.944 246.034 251.88 246.246 251.88 246.462C251.879 246.606 251.907 246.748 251.962 246.881C252.016 247.014 252.097 247.134 252.198 247.236C252.3 247.338 252.42 247.418 252.553 247.473C252.686 247.527 252.828 247.555 252.972 247.554H252.966Z" fill="#263238"/>
<path d="M205.8 251.34H208.512C208.851 251.338 209.177 251.202 209.416 250.962C209.656 250.721 209.79 250.395 209.79 250.056C209.79 249.716 209.656 249.391 209.416 249.15C209.177 248.91 208.851 248.774 208.512 248.772H205.8C205.459 248.772 205.133 248.907 204.892 249.148C204.651 249.389 204.516 249.715 204.516 250.056C204.516 250.397 204.651 250.723 204.892 250.964C205.133 251.205 205.459 251.34 205.8 251.34Z" fill="#263238"/>
<path d="M201.438 248.916C201.69 248.458 202.07 248.084 202.532 247.84C202.993 247.596 203.516 247.492 204.036 247.541C204.556 247.591 205.051 247.791 205.458 248.118C205.865 248.445 206.168 248.884 206.329 249.381C206.49 249.878 206.502 250.412 206.363 250.915C206.224 251.419 205.942 251.871 205.549 252.216C205.157 252.56 204.672 252.783 204.155 252.855C203.637 252.928 203.11 252.847 202.638 252.624C201.989 252.289 201.499 251.712 201.274 251.017C201.049 250.323 201.108 249.567 201.438 248.916Z" fill="#407BFF"/>
<path d="M202.17 252.623L202.913 252.974L205.497 247.492L204.754 247.142L202.17 252.623Z" fill="#263238"/>
</svg>
