<svg width="312" height="305" viewBox="0 0 312 305" fill="none" xmlns="http://www.w3.org/2000/svg">
<path d="M11.2789 284.436L7.03088 292.626V297H4.51088V292.626L0.244875 284.436H3.08888L5.78888 290.178L8.47088 284.436H11.2789ZM17.1602 297.162C16.2002 297.162 15.3362 296.952 14.5682 296.532C13.8002 296.1 13.1942 295.494 12.7502 294.714C12.3182 293.934 12.1022 293.034 12.1022 292.014C12.1022 290.994 12.3242 290.094 12.7682 289.314C13.2242 288.534 13.8422 287.934 14.6222 287.514C15.4022 287.082 16.2722 286.866 17.2322 286.866C18.1922 286.866 19.0622 287.082 19.8422 287.514C20.6222 287.934 21.2342 288.534 21.6782 289.314C22.1342 290.094 22.3622 290.994 22.3622 292.014C22.3622 293.034 22.1282 293.934 21.6602 294.714C21.2042 295.494 20.5802 296.1 19.7882 296.532C19.0082 296.952 18.1322 297.162 17.1602 297.162ZM17.1602 294.966C17.6162 294.966 18.0422 294.858 18.4382 294.642C18.8462 294.414 19.1702 294.078 19.4102 293.634C19.6502 293.19 19.7702 292.65 19.7702 292.014C19.7702 291.066 19.5182 290.34 19.0142 289.836C18.5222 289.32 17.9162 289.062 17.1962 289.062C16.4762 289.062 15.8702 289.32 15.3782 289.836C14.8982 290.34 14.6582 291.066 14.6582 292.014C14.6582 292.962 14.8922 293.694 15.3602 294.21C15.8402 294.714 16.4402 294.966 17.1602 294.966ZM33.6248 287.028V297H31.0868V295.74C30.7628 296.172 30.3368 296.514 29.8088 296.766C29.2928 297.006 28.7288 297.126 28.1168 297.126C27.3368 297.126 26.6468 296.964 26.0468 296.64C25.4468 296.304 24.9728 295.818 24.6248 295.182C24.2888 294.534 24.1208 293.766 24.1208 292.878V287.028H26.6408V292.518C26.6408 293.31 26.8388 293.922 27.2348 294.354C27.6308 294.774 28.1708 294.984 28.8548 294.984C29.5508 294.984 30.0968 294.774 30.4928 294.354C30.8888 293.922 31.0868 293.31 31.0868 292.518V287.028H33.6248ZM38.6311 288.576C38.9551 288.048 39.3751 287.634 39.8911 287.334C40.4191 287.034 41.0191 286.884 41.6911 286.884V289.53H41.0251C40.2331 289.53 39.6331 289.716 39.2251 290.088C38.8291 290.46 38.6311 291.108 38.6311 292.032V297H36.1111V287.028H38.6311V288.576ZM48.9555 285.84C48.5115 285.84 48.1395 285.702 47.8395 285.426C47.5515 285.138 47.4075 284.784 47.4075 284.364C47.4075 283.944 47.5515 283.596 47.8395 283.32C48.1395 283.032 48.5115 282.888 48.9555 282.888C49.3995 282.888 49.7655 283.032 50.0535 283.32C50.3535 283.596 50.5035 283.944 50.5035 284.364C50.5035 284.784 50.3535 285.138 50.0535 285.426C49.7655 285.702 49.3995 285.84 48.9555 285.84ZM50.1975 287.028V297H47.6775V287.028H50.1975ZM58.2133 286.884C59.4013 286.884 60.3613 287.262 61.0933 288.018C61.8253 288.762 62.1913 289.806 62.1913 291.15V297H59.6713V291.492C59.6713 290.7 59.4733 290.094 59.0773 289.674C58.6813 289.242 58.1413 289.026 57.4573 289.026C56.7613 289.026 56.2093 289.242 55.8013 289.674C55.4053 290.094 55.2073 290.7 55.2073 291.492V297H52.6873V287.028H55.2073V288.27C55.5433 287.838 55.9693 287.502 56.4853 287.262C57.0133 287.01 57.5893 286.884 58.2133 286.884ZM68.7457 294.678L71.2657 287.028H73.9477L70.2577 297H67.1977L63.5257 287.028H66.2257L68.7457 294.678ZM76.6411 285.84C76.1971 285.84 75.8251 285.702 75.5251 285.426C75.2371 285.138 75.0931 284.784 75.0931 284.364C75.0931 283.944 75.2371 283.596 75.5251 283.32C75.8251 283.032 76.1971 282.888 76.6411 282.888C77.0851 282.888 77.4511 283.032 77.7391 283.32C78.0391 283.596 78.1891 283.944 78.1891 284.364C78.1891 284.784 78.0391 285.138 77.7391 285.426C77.4511 285.702 77.0851 285.84 76.6411 285.84ZM77.8831 287.028V297H75.3631V287.028H77.8831ZM83.3069 289.098V293.922C83.3069 294.258 83.3849 294.504 83.5409 294.66C83.7089 294.804 83.9849 294.876 84.3689 294.876H85.5389V297H83.9549C81.8309 297 80.7689 295.968 80.7689 293.904V289.098H79.5809V287.028H80.7689V284.562H83.3069V287.028H85.5389V289.098H83.3069ZM86.7034 291.978C86.7034 290.97 86.9014 290.076 87.2974 289.296C87.7054 288.516 88.2514 287.916 88.9354 287.496C89.6314 287.076 90.4054 286.866 91.2574 286.866C92.0014 286.866 92.6494 287.016 93.2014 287.316C93.7654 287.616 94.2154 287.994 94.5514 288.45V287.028H97.0894V297H94.5514V295.542C94.2274 296.01 93.7774 296.4 93.2014 296.712C92.6374 297.012 91.9834 297.162 91.2394 297.162C90.3994 297.162 89.6314 296.946 88.9354 296.514C88.2514 296.082 87.7054 295.476 87.2974 294.696C86.9014 293.904 86.7034 292.998 86.7034 291.978ZM94.5514 292.014C94.5514 291.402 94.4314 290.88 94.1914 290.448C93.9514 290.004 93.6274 289.668 93.2194 289.44C92.8114 289.2 92.3734 289.08 91.9054 289.08C91.4374 289.08 91.0054 289.194 90.6094 289.422C90.2134 289.65 89.8894 289.986 89.6374 290.43C89.3974 290.862 89.2774 291.378 89.2774 291.978C89.2774 292.578 89.3974 293.106 89.6374 293.562C89.8894 294.006 90.2134 294.348 90.6094 294.588C91.0174 294.828 91.4494 294.948 91.9054 294.948C92.3734 294.948 92.8114 294.834 93.2194 294.606C93.6274 294.366 93.9514 294.03 94.1914 293.598C94.4314 293.154 94.5514 292.626 94.5514 292.014ZM102.485 289.098V293.922C102.485 294.258 102.563 294.504 102.719 294.66C102.887 294.804 103.163 294.876 103.547 294.876H104.717V297H103.133C101.009 297 99.9466 295.968 99.9466 293.904V289.098H98.7586V287.028H99.9466V284.562H102.485V287.028H104.717V289.098H102.485ZM107.807 285.84C107.363 285.84 106.991 285.702 106.691 285.426C106.403 285.138 106.259 284.784 106.259 284.364C106.259 283.944 106.403 283.596 106.691 283.32C106.991 283.032 107.363 282.888 107.807 282.888C108.251 282.888 108.617 283.032 108.905 283.32C109.205 283.596 109.355 283.944 109.355 284.364C109.355 284.784 109.205 285.138 108.905 285.426C108.617 285.702 108.251 285.84 107.807 285.84ZM109.049 287.028V297H106.529V287.028H109.049ZM115.967 297.162C115.007 297.162 114.143 296.952 113.375 296.532C112.607 296.1 112.001 295.494 111.557 294.714C111.125 293.934 110.909 293.034 110.909 292.014C110.909 290.994 111.131 290.094 111.575 289.314C112.031 288.534 112.649 287.934 113.429 287.514C114.209 287.082 115.079 286.866 116.039 286.866C116.999 286.866 117.869 287.082 118.649 287.514C119.429 287.934 120.041 288.534 120.485 289.314C120.941 290.094 121.169 290.994 121.169 292.014C121.169 293.034 120.935 293.934 120.467 294.714C120.011 295.494 119.387 296.1 118.595 296.532C117.815 296.952 116.939 297.162 115.967 297.162ZM115.967 294.966C116.423 294.966 116.849 294.858 117.245 294.642C117.653 294.414 117.977 294.078 118.217 293.634C118.457 293.19 118.577 292.65 118.577 292.014C118.577 291.066 118.325 290.34 117.821 289.836C117.329 289.32 116.723 289.062 116.003 289.062C115.283 289.062 114.677 289.32 114.185 289.836C113.705 290.34 113.465 291.066 113.465 292.014C113.465 292.962 113.699 293.694 114.167 294.21C114.647 294.714 115.247 294.966 115.967 294.966ZM128.543 286.884C129.731 286.884 130.691 287.262 131.423 288.018C132.155 288.762 132.521 289.806 132.521 291.15V297H130.001V291.492C130.001 290.7 129.803 290.094 129.407 289.674C129.011 289.242 128.471 289.026 127.787 289.026C127.091 289.026 126.539 289.242 126.131 289.674C125.735 290.094 125.537 290.7 125.537 291.492V297H123.017V287.028H125.537V288.27C125.873 287.838 126.299 287.502 126.815 287.262C127.343 287.01 127.919 286.884 128.543 286.884ZM144.823 286.884C145.579 286.884 146.251 287.052 146.839 287.388C147.427 287.712 147.883 288.198 148.207 288.846C148.543 289.482 148.711 290.25 148.711 291.15V297H146.191V291.492C146.191 290.7 145.993 290.094 145.597 289.674C145.201 289.242 144.661 289.026 143.977 289.026C143.281 289.026 142.729 289.242 142.321 289.674C141.925 290.094 141.727 290.7 141.727 291.492V297H139.207V283.68H141.727V288.27C142.051 287.838 142.483 287.502 143.023 287.262C143.563 287.01 144.163 286.884 144.823 286.884ZM150.459 291.978C150.459 290.97 150.657 290.076 151.053 289.296C151.461 288.516 152.007 287.916 152.691 287.496C153.387 287.076 154.161 286.866 155.013 286.866C155.757 286.866 156.405 287.016 156.957 287.316C157.521 287.616 157.971 287.994 158.307 288.45V287.028H160.845V297H158.307V295.542C157.983 296.01 157.533 296.4 156.957 296.712C156.393 297.012 155.739 297.162 154.995 297.162C154.155 297.162 153.387 296.946 152.691 296.514C152.007 296.082 151.461 295.476 151.053 294.696C150.657 293.904 150.459 292.998 150.459 291.978ZM158.307 292.014C158.307 291.402 158.187 290.88 157.947 290.448C157.707 290.004 157.383 289.668 156.975 289.44C156.567 289.2 156.129 289.08 155.661 289.08C155.193 289.08 154.761 289.194 154.365 289.422C153.969 289.65 153.645 289.986 153.393 290.43C153.153 290.862 153.033 291.378 153.033 291.978C153.033 292.578 153.153 293.106 153.393 293.562C153.645 294.006 153.969 294.348 154.365 294.588C154.773 294.828 155.205 294.948 155.661 294.948C156.129 294.948 156.567 294.834 156.975 294.606C157.383 294.366 157.707 294.03 157.947 293.598C158.187 293.154 158.307 292.626 158.307 292.014ZM167.122 297.162C166.306 297.162 165.574 297.018 164.926 296.73C164.278 296.43 163.762 296.028 163.378 295.524C163.006 295.02 162.802 294.462 162.766 293.85H165.304C165.352 294.234 165.538 294.552 165.862 294.804C166.198 295.056 166.612 295.182 167.104 295.182C167.584 295.182 167.956 295.086 168.22 294.894C168.496 294.702 168.634 294.456 168.634 294.156C168.634 293.832 168.466 293.592 168.13 293.436C167.806 293.268 167.284 293.088 166.564 292.896C165.82 292.716 165.208 292.53 164.728 292.338C164.26 292.146 163.852 291.852 163.504 291.456C163.168 291.06 163 290.526 163 289.854C163 289.302 163.156 288.798 163.468 288.342C163.792 287.886 164.248 287.526 164.836 287.262C165.436 286.998 166.138 286.866 166.942 286.866C168.13 286.866 169.078 287.166 169.786 287.766C170.494 288.354 170.884 289.152 170.956 290.16H168.544C168.508 289.764 168.34 289.452 168.04 289.224C167.752 288.984 167.362 288.864 166.87 288.864C166.414 288.864 166.06 288.948 165.808 289.116C165.568 289.284 165.448 289.518 165.448 289.818C165.448 290.154 165.616 290.412 165.952 290.592C166.288 290.76 166.81 290.934 167.518 291.114C168.238 291.294 168.832 291.48 169.3 291.672C169.768 291.864 170.17 292.164 170.506 292.572C170.854 292.968 171.034 293.496 171.046 294.156C171.046 294.732 170.884 295.248 170.56 295.704C170.248 296.16 169.792 296.52 169.192 296.784C168.604 297.036 167.914 297.162 167.122 297.162ZM179.924 288.486C180.248 288.006 180.692 287.616 181.256 287.316C181.832 287.016 182.486 286.866 183.218 286.866C184.07 286.866 184.838 287.076 185.522 287.496C186.218 287.916 186.764 288.516 187.16 289.296C187.568 290.064 187.772 290.958 187.772 291.978C187.772 292.998 187.568 293.904 187.16 294.696C186.764 295.476 186.218 296.082 185.522 296.514C184.838 296.946 184.07 297.162 183.218 297.162C182.474 297.162 181.82 297.018 181.256 296.73C180.704 296.43 180.26 296.046 179.924 295.578V297H177.404V283.68H179.924V288.486ZM185.198 291.978C185.198 291.378 185.072 290.862 184.82 290.43C184.58 289.986 184.256 289.65 183.848 289.422C183.452 289.194 183.02 289.08 182.552 289.08C182.096 289.08 181.664 289.2 181.256 289.44C180.86 289.668 180.536 290.004 180.284 290.448C180.044 290.892 179.924 291.414 179.924 292.014C179.924 292.614 180.044 293.136 180.284 293.58C180.536 294.024 180.86 294.366 181.256 294.606C181.664 294.834 182.096 294.948 182.552 294.948C183.02 294.948 183.452 294.828 183.848 294.588C184.256 294.348 184.58 294.006 184.82 293.562C185.072 293.118 185.198 292.59 185.198 291.978ZM198.873 291.798C198.873 292.158 198.849 292.482 198.801 292.77H191.511C191.571 293.49 191.823 294.054 192.267 294.462C192.711 294.87 193.257 295.074 193.905 295.074C194.841 295.074 195.507 294.672 195.903 293.868H198.621C198.333 294.828 197.781 295.62 196.965 296.244C196.149 296.856 195.147 297.162 193.959 297.162C192.999 297.162 192.135 296.952 191.367 296.532C190.611 296.1 190.017 295.494 189.585 294.714C189.165 293.934 188.955 293.034 188.955 292.014C188.955 290.982 189.165 290.076 189.585 289.296C190.005 288.516 190.593 287.916 191.349 287.496C192.105 287.076 192.975 286.866 193.959 286.866C194.907 286.866 195.753 287.07 196.497 287.478C197.253 287.886 197.835 288.468 198.243 289.224C198.663 289.968 198.873 290.826 198.873 291.798ZM196.263 291.078C196.251 290.43 196.017 289.914 195.561 289.53C195.105 289.134 194.547 288.936 193.887 288.936C193.263 288.936 192.735 289.128 192.303 289.512C191.883 289.884 191.625 290.406 191.529 291.078H196.263ZM209.983 291.798C209.983 292.158 209.959 292.482 209.911 292.77H202.621C202.681 293.49 202.933 294.054 203.377 294.462C203.821 294.87 204.367 295.074 205.015 295.074C205.951 295.074 206.617 294.672 207.013 293.868H209.731C209.443 294.828 208.891 295.62 208.075 296.244C207.259 296.856 206.257 297.162 205.069 297.162C204.109 297.162 203.245 296.952 202.477 296.532C201.721 296.1 201.127 295.494 200.695 294.714C200.275 293.934 200.065 293.034 200.065 292.014C200.065 290.982 200.275 290.076 200.695 289.296C201.115 288.516 201.703 287.916 202.459 287.496C203.215 287.076 204.085 286.866 205.069 286.866C206.017 286.866 206.863 287.07 207.607 287.478C208.363 287.886 208.945 288.468 209.353 289.224C209.773 289.968 209.983 290.826 209.983 291.798ZM207.373 291.078C207.361 290.43 207.127 289.914 206.671 289.53C206.215 289.134 205.657 288.936 204.997 288.936C204.373 288.936 203.845 289.128 203.413 289.512C202.993 289.884 202.735 290.406 202.639 291.078H207.373ZM217.348 286.884C218.536 286.884 219.496 287.262 220.228 288.018C220.96 288.762 221.326 289.806 221.326 291.15V297H218.806V291.492C218.806 290.7 218.608 290.094 218.212 289.674C217.816 289.242 217.276 289.026 216.592 289.026C215.896 289.026 215.344 289.242 214.936 289.674C214.54 290.094 214.342 290.7 214.342 291.492V297H211.822V287.028H214.342V288.27C214.678 287.838 215.104 287.502 215.62 287.262C216.148 287.01 216.724 286.884 217.348 286.884ZM227.364 292.014C227.364 290.982 227.574 290.082 227.994 289.314C228.414 288.534 228.996 287.934 229.74 287.514C230.484 287.082 231.336 286.866 232.296 286.866C233.532 286.866 234.552 287.178 235.356 287.802C236.172 288.414 236.718 289.278 236.994 290.394H234.276C234.132 289.962 233.886 289.626 233.538 289.386C233.202 289.134 232.782 289.008 232.278 289.008C231.558 289.008 230.988 289.272 230.568 289.8C230.148 290.316 229.938 291.054 229.938 292.014C229.938 292.962 230.148 293.7 230.568 294.228C230.988 294.744 231.558 295.002 232.278 295.002C233.298 295.002 233.964 294.546 234.276 293.634H236.994C236.718 294.714 236.172 295.572 235.356 296.208C234.54 296.844 233.52 297.162 232.296 297.162C231.336 297.162 230.484 296.952 229.74 296.532C228.996 296.1 228.414 295.5 227.994 294.732C227.574 293.952 227.364 293.046 227.364 292.014ZM238.192 291.978C238.192 290.97 238.39 290.076 238.786 289.296C239.194 288.516 239.74 287.916 240.424 287.496C241.12 287.076 241.894 286.866 242.746 286.866C243.49 286.866 244.138 287.016 244.69 287.316C245.254 287.616 245.704 287.994 246.04 288.45V287.028H248.578V297H246.04V295.542C245.716 296.01 245.266 296.4 244.69 296.712C244.126 297.012 243.472 297.162 242.728 297.162C241.888 297.162 241.12 296.946 240.424 296.514C239.74 296.082 239.194 295.476 238.786 294.696C238.39 293.904 238.192 292.998 238.192 291.978ZM246.04 292.014C246.04 291.402 245.92 290.88 245.68 290.448C245.44 290.004 245.116 289.668 244.708 289.44C244.3 289.2 243.862 289.08 243.394 289.08C242.926 289.08 242.494 289.194 242.098 289.422C241.702 289.65 241.378 289.986 241.126 290.43C240.886 290.862 240.766 291.378 240.766 291.978C240.766 292.578 240.886 293.106 241.126 293.562C241.378 294.006 241.702 294.348 242.098 294.588C242.506 294.828 242.938 294.948 243.394 294.948C243.862 294.948 244.3 294.834 244.708 294.606C245.116 294.366 245.44 294.03 245.68 293.598C245.92 293.154 246.04 292.626 246.04 292.014ZM256.565 286.884C257.753 286.884 258.713 287.262 259.445 288.018C260.177 288.762 260.543 289.806 260.543 291.15V297H258.023V291.492C258.023 290.7 257.825 290.094 257.429 289.674C257.033 289.242 256.493 289.026 255.809 289.026C255.113 289.026 254.561 289.242 254.153 289.674C253.757 290.094 253.559 290.7 253.559 291.492V297H251.039V287.028H253.559V288.27C253.895 287.838 254.321 287.502 254.837 287.262C255.365 287.01 255.941 286.884 256.565 286.884ZM262.291 292.014C262.291 290.982 262.501 290.082 262.921 289.314C263.341 288.534 263.923 287.934 264.667 287.514C265.411 287.082 266.263 286.866 267.223 286.866C268.459 286.866 269.479 287.178 270.283 287.802C271.099 288.414 271.645 289.278 271.921 290.394H269.203C269.059 289.962 268.813 289.626 268.465 289.386C268.129 289.134 267.709 289.008 267.205 289.008C266.485 289.008 265.915 289.272 265.495 289.8C265.075 290.316 264.865 291.054 264.865 292.014C264.865 292.962 265.075 293.7 265.495 294.228C265.915 294.744 266.485 295.002 267.205 295.002C268.225 295.002 268.891 294.546 269.203 293.634H271.921C271.645 294.714 271.099 295.572 270.283 296.208C269.467 296.844 268.447 297.162 267.223 297.162C266.263 297.162 265.411 296.952 264.667 296.532C263.923 296.1 263.341 295.5 262.921 294.732C262.501 293.952 262.291 293.046 262.291 292.014ZM283.037 291.798C283.037 292.158 283.013 292.482 282.965 292.77H275.675C275.735 293.49 275.987 294.054 276.431 294.462C276.875 294.87 277.421 295.074 278.069 295.074C279.005 295.074 279.671 294.672 280.067 293.868H282.785C282.497 294.828 281.945 295.62 281.129 296.244C280.313 296.856 279.311 297.162 278.123 297.162C277.163 297.162 276.299 296.952 275.531 296.532C274.775 296.1 274.181 295.494 273.749 294.714C273.329 293.934 273.119 293.034 273.119 292.014C273.119 290.982 273.329 290.076 273.749 289.296C274.169 288.516 274.757 287.916 275.513 287.496C276.269 287.076 277.139 286.866 278.123 286.866C279.071 286.866 279.917 287.07 280.661 287.478C281.417 287.886 281.999 288.468 282.407 289.224C282.827 289.968 283.037 290.826 283.037 291.798ZM280.427 291.078C280.415 290.43 280.181 289.914 279.725 289.53C279.269 289.134 278.711 288.936 278.051 288.936C277.427 288.936 276.899 289.128 276.467 289.512C276.047 289.884 275.789 290.406 275.693 291.078H280.427ZM287.397 283.68V297H284.877V283.68H287.397ZM299.157 291.798C299.157 292.158 299.133 292.482 299.085 292.77H291.795C291.855 293.49 292.107 294.054 292.551 294.462C292.995 294.87 293.541 295.074 294.189 295.074C295.125 295.074 295.791 294.672 296.187 293.868H298.905C298.617 294.828 298.065 295.62 297.249 296.244C296.433 296.856 295.431 297.162 294.243 297.162C293.283 297.162 292.419 296.952 291.651 296.532C290.895 296.1 290.301 295.494 289.869 294.714C289.449 293.934 289.239 293.034 289.239 292.014C289.239 290.982 289.449 290.076 289.869 289.296C290.289 288.516 290.877 287.916 291.633 287.496C292.389 287.076 293.259 286.866 294.243 286.866C295.191 286.866 296.037 287.07 296.781 287.478C297.537 287.886 298.119 288.468 298.527 289.224C298.947 289.968 299.157 290.826 299.157 291.798ZM296.547 291.078C296.535 290.43 296.301 289.914 295.845 289.53C295.389 289.134 294.831 288.936 294.171 288.936C293.547 288.936 293.019 289.128 292.587 289.512C292.167 289.884 291.909 290.406 291.813 291.078H296.547ZM300.348 291.978C300.348 290.97 300.546 290.076 300.942 289.296C301.35 288.516 301.902 287.916 302.598 287.496C303.294 287.076 304.068 286.866 304.92 286.866C305.568 286.866 306.186 287.01 306.774 287.298C307.362 287.574 307.83 287.946 308.178 288.414V283.68H310.734V297H308.178V295.524C307.866 296.016 307.428 296.412 306.864 296.712C306.3 297.012 305.646 297.162 304.902 297.162C304.062 297.162 303.294 296.946 302.598 296.514C301.902 296.082 301.35 295.476 300.942 294.696C300.546 293.904 300.348 292.998 300.348 291.978ZM308.196 292.014C308.196 291.402 308.076 290.88 307.836 290.448C307.596 290.004 307.272 289.668 306.864 289.44C306.456 289.2 306.018 289.08 305.55 289.08C305.082 289.08 304.65 289.194 304.254 289.422C303.858 289.65 303.534 289.986 303.282 290.43C303.042 290.862 302.922 291.378 302.922 291.978C302.922 292.578 303.042 293.106 303.282 293.562C303.534 294.006 303.858 294.348 304.254 294.588C304.662 294.828 305.094 294.948 305.55 294.948C306.018 294.948 306.456 294.834 306.864 294.606C307.272 294.366 307.596 294.03 307.836 293.598C308.076 293.154 308.196 292.626 308.196 292.014Z" fill="#2A2B2E"/>
<path d="M306 229.44H6V229.59H306V229.44Z" fill="#EBEBEB"/>
<path d="M275.94 239.094H262.932V239.244H275.94V239.094Z" fill="#EBEBEB"/>
<path d="M212.802 235.986H192.336V236.136H212.802V235.986Z" fill="#EBEBEB"/>
<path d="M270.672 233.526H243.954V233.676H270.672V233.526Z" fill="#EBEBEB"/>
<path d="M109.812 236.55H103.128V236.7H109.812V236.55Z" fill="#EBEBEB"/>
<path d="M97.782 236.55H74.748V236.7H97.782V236.55Z" fill="#EBEBEB"/>
<path d="M62.4061 234.018H45.7861V234.168H62.4061V234.018Z" fill="#EBEBEB"/>
<path d="M135.642 120.528L135.912 112.644L131.076 111.06C130.868 108.388 130.434 105.739 129.78 103.14L133.884 100.14L131.1 92.7361L126.024 93.1441C124.82 90.7586 123.415 88.4803 121.824 86.3341L124.452 81.9481L119.052 76.1821L114.516 78.5041C112.476 76.7605 110.297 75.1872 108 73.8001L108.732 68.7601L101.532 65.4961L98.2317 69.3601C95.6858 68.5457 93.0769 67.9436 90.4317 67.5601L89.2317 62.6221L81.3237 62.3521L79.7637 67.1941C77.0945 67.4039 74.4474 67.8354 71.8497 68.4841L68.8017 64.4041L61.3977 67.1701L61.8057 72.2461C59.4215 73.4679 57.1435 74.8868 54.9957 76.4881L50.5797 73.8001L44.7897 79.2001L47.1117 83.7601C45.3677 85.7896 43.8019 87.9656 42.4317 90.2641L37.3977 89.5081L34.1097 96.7081L37.9977 100.002C37.1775 102.546 36.5754 105.156 36.1977 107.802L31.1997 109.056L30.9297 116.94L35.7897 118.524C35.9907 121.194 36.4223 123.842 37.0797 126.438L32.9757 129.438L35.7657 136.848L40.8417 136.44C42.0421 138.827 43.4474 141.106 45.0417 143.25L42.4077 147.636L47.8077 153.402L52.3437 151.08C54.378 152.823 56.5535 154.395 58.8477 155.778L58.0917 160.812L65.2917 164.082L68.6097 160.218C71.1554 161.04 73.7641 161.652 76.4097 162.048L77.6097 166.986L85.5177 167.256L87.0777 162.414C89.7486 162.202 92.3975 161.77 94.9977 161.124L97.9977 165.204L105.402 162.438L105.018 157.362C107.397 156.133 109.675 154.714 111.828 153.12L116.19 155.748L121.98 150.348L119.658 145.788C121.402 143.759 122.968 141.583 124.338 139.284L129.372 140.04L132.66 132.84L128.772 129.54C129.606 126.998 130.218 124.388 130.602 121.74L135.642 120.528ZM82.3677 146.07C76.1804 145.861 70.1942 143.822 65.1662 140.21C60.1381 136.598 56.2942 131.576 54.1207 125.78C51.9471 119.983 51.5416 113.672 52.9553 107.645C54.3691 101.618 57.5387 96.1452 62.0631 91.9197C66.5875 87.6942 72.2635 84.9054 78.3731 83.9062C84.4827 82.907 90.7514 83.7423 96.3862 86.3063C102.021 88.8704 106.769 93.048 110.029 98.3107C113.289 103.574 114.915 109.685 114.702 115.872C114.417 124.164 110.851 132.003 104.787 137.666C98.7238 143.329 90.6595 146.352 82.3677 146.07Z" fill="#EBEBEB"/>
<path d="M270.6 94.4521L272.586 92.5981L271.8 91.0321C272.399 90.3304 272.939 89.5798 273.414 88.7881L275.154 89.0461L276.276 86.5621L274.944 85.4281C275.231 84.5499 275.441 83.6486 275.574 82.7341L277.284 82.3081L277.368 79.5841L275.7 79.0441C275.627 78.1216 275.478 77.2065 275.256 76.3081L276.666 75.2581L275.706 72.7081L273.96 72.8461C273.539 72.0237 273.051 71.2371 272.502 70.4941L273.408 68.9941L271.542 67.0021L269.982 67.8001C269.279 67.2019 268.528 66.6621 267.738 66.1861L267.99 64.4461L265.512 63.3121L264.372 64.6501C263.492 64.3761 262.591 64.1755 261.678 64.0501L261.252 62.3461L258.528 62.2441L257.982 63.9241C257.063 63.9944 256.151 64.1429 255.258 64.3681L254.214 62.9581L251.658 63.9121L251.802 65.6641C250.977 66.0811 250.19 66.5689 249.45 67.1221L247.938 66.2161L245.946 68.0701L246.72 69.6001C246.116 70.2998 245.574 71.0506 245.1 71.8441L243.366 71.5861L242.238 74.0701L243.576 75.2101C243.298 76.0871 243.098 76.9865 242.976 77.8981L241.26 78.3241L241.176 81.0481L242.85 81.5881C242.918 82.5109 243.065 83.4262 243.288 84.3241L241.872 85.3681L242.832 87.9181L244.584 87.7861C245.005 88.6086 245.492 89.3952 246.042 90.1381L245.136 91.6381L247.002 93.6301L248.562 92.8321C249.263 93.4323 250.014 93.9722 250.806 94.4461L250.548 96.1801L253.032 97.3141L254.172 95.9821C255.052 96.2533 255.953 96.4539 256.866 96.5821L257.292 98.2861L260.016 98.3881L260.562 96.7081C261.481 96.6383 262.392 96.4898 263.286 96.2641L264.33 97.6741L266.886 96.7201L266.748 94.9681C267.57 94.5506 268.355 94.0628 269.094 93.5101L270.6 94.4521ZM256.428 82.9741C255.904 82.4127 255.558 81.7085 255.435 80.9506C255.311 80.1926 255.415 79.4151 255.733 78.7162C256.052 78.0174 256.57 77.4286 257.223 77.0245C257.876 76.6204 258.634 76.419 259.402 76.4459C260.169 76.4728 260.911 76.7267 261.535 77.1755C262.158 77.6243 262.634 78.2478 262.902 78.9672C263.171 79.6866 263.22 80.4696 263.044 81.217C262.868 81.9644 262.474 82.6427 261.912 83.1661C261.539 83.5178 261.1 83.7919 260.62 83.9728C260.141 84.1536 259.63 84.2376 259.118 84.2197C258.605 84.2018 258.102 84.0826 257.636 83.8688C257.17 83.655 256.751 83.3509 256.404 82.9741H256.428Z" fill="#EBEBEB"/>
<path d="M198 175.404L191.796 171.114C191.188 168.88 190.352 166.715 189.3 164.652L190.89 158.412L181.89 148.776L175.554 149.934C173.567 148.743 171.462 147.76 169.272 147L165.42 140.514L152.22 140.064L147.936 146.268C145.705 146.876 143.542 147.71 141.48 148.758L135.24 147.168L125.604 156.168L126.762 162.492C125.573 164.484 124.591 166.593 123.834 168.786L117.348 172.638L116.898 185.838L123.108 190.122C123.706 192.368 124.541 194.544 125.598 196.614L123.99 202.8L132.99 212.436L139.284 211.284C141.287 212.476 143.406 213.461 145.608 214.224L149.454 220.698L162.654 221.154L166.932 214.95C169.184 214.342 171.367 213.506 173.448 212.454L179.652 214.038L189.294 205.038L188.136 198.714C189.33 196.722 190.311 194.61 191.064 192.414L197.55 188.562L198 175.404ZM156.93 195.438C154 195.338 151.165 194.371 148.784 192.66C146.403 190.949 144.583 188.57 143.554 185.824C142.525 183.079 142.333 180.09 143.003 177.235C143.672 174.38 145.173 171.788 147.316 169.787C149.458 167.785 152.146 166.464 155.04 165.99C157.933 165.516 160.902 165.91 163.572 167.123C166.241 168.337 168.491 170.314 170.036 172.806C171.582 175.298 172.354 178.192 172.254 181.122C172.117 185.052 170.425 188.767 167.551 191.451C164.677 194.135 160.855 195.569 156.924 195.438H156.93Z" fill="#EBEBEB"/>
<path d="M212.13 138H212.088L201.696 137.646C201.485 137.642 201.279 137.585 201.096 137.48C200.914 137.375 200.761 137.226 200.652 137.046L197.85 132.336C196.339 131.784 194.878 131.105 193.482 130.308L189 131.082C188.791 131.12 188.576 131.105 188.374 131.038C188.173 130.971 187.992 130.854 187.848 130.698L180.75 123.102C180.601 122.945 180.495 122.752 180.442 122.541C180.39 122.331 180.392 122.111 180.45 121.902L181.584 117.456C180.881 116.015 180.307 114.516 179.868 112.974L175.35 109.854C175.174 109.734 175.032 109.571 174.937 109.381C174.842 109.191 174.796 108.98 174.804 108.768L175.158 98.3761C175.165 98.1663 175.223 97.9614 175.328 97.7794C175.432 97.5974 175.58 97.4438 175.758 97.3321L180.48 94.5301C181.024 93.0233 181.701 91.5677 182.502 90.1801L181.674 85.6621C181.635 85.4523 181.65 85.2362 181.717 85.0338C181.784 84.8313 181.901 84.6491 182.058 84.5041L189.654 77.4121C189.811 77.2626 190.004 77.1559 190.214 77.1023C190.424 77.0487 190.644 77.05 190.854 77.1061L195.318 78.2461C196.755 77.5431 198.25 76.967 199.788 76.5241L202.908 72.0061C203.024 71.8266 203.185 71.6814 203.376 71.5854C203.567 71.4894 203.78 71.4461 203.994 71.4601L214.38 71.8201C214.591 71.8245 214.798 71.8818 214.981 71.9866C215.164 72.0914 215.319 72.2404 215.43 72.4201L218.232 77.1361C219.731 77.6866 221.18 78.3651 222.564 79.1641L227.1 78.3301C227.308 78.2913 227.524 78.3062 227.725 78.3733C227.927 78.4405 228.108 78.5577 228.252 78.7141L235.35 86.3101C235.498 86.4681 235.603 86.6612 235.655 86.8712C235.708 87.0811 235.706 87.3011 235.65 87.5101L234.51 91.9681C235.213 93.4059 235.791 94.9014 236.238 96.4381L240.75 99.5581C240.925 99.6784 241.067 99.841 241.162 100.031C241.258 100.221 241.304 100.432 241.296 100.644L240.942 111.03C240.935 111.241 240.876 111.446 240.772 111.629C240.667 111.812 240.519 111.967 240.342 112.08L235.62 114.882C235.071 116.385 234.395 117.839 233.598 119.226L234.426 123.75C234.464 123.959 234.45 124.174 234.382 124.376C234.315 124.577 234.198 124.758 234.042 124.902L226.398 132C226.24 132.149 226.047 132.255 225.837 132.307C225.627 132.36 225.407 132.357 225.198 132.3L220.758 131.166C219.311 131.866 217.808 132.442 216.264 132.888L213.174 137.4C213.062 137.578 212.909 137.726 212.727 137.831C212.545 137.935 212.34 137.994 212.13 138ZM202.476 135.138L211.476 135.444L214.476 131.13C214.642 130.878 214.897 130.698 215.19 130.626C216.878 130.164 218.516 129.535 220.08 128.748C220.352 128.617 220.662 128.585 220.956 128.658L225.156 129.732L231.756 123.582L231 119.244C230.941 118.941 230.997 118.627 231.156 118.362C232.047 116.876 232.781 115.302 233.346 113.664C233.441 113.367 233.642 113.115 233.91 112.956L238.428 110.28L238.734 101.28L234.414 98.2801C234.186 98.1247 234.015 97.8993 233.928 97.6381C233.928 97.6081 233.928 97.5721 233.928 97.5361C233.465 95.8776 232.838 94.2696 232.056 92.7361C231.917 92.4616 231.883 92.1459 231.96 91.8481L233.04 87.6001L226.89 81.0001L222.576 81.7921C222.274 81.8467 221.964 81.7913 221.7 81.6361C220.211 80.7431 218.635 80.0053 216.996 79.4341C216.902 79.4039 216.811 79.3637 216.726 79.3141C216.553 79.2062 216.409 79.0579 216.306 78.8821L213.6 74.3521L204.6 74.0401L201.6 78.3661C201.421 78.6197 201.157 78.8007 200.856 78.8761C199.185 79.3327 197.564 79.9579 196.02 80.7421C195.747 80.881 195.433 80.9152 195.138 80.8381L190.89 79.7581L184.29 85.9081L185.082 90.2101C185.129 90.4814 185.089 90.7607 184.968 91.0081L184.908 91.1101C184.015 92.6015 183.281 94.1821 182.718 95.8261C182.618 96.108 182.423 96.3459 182.166 96.4981L177.648 99.1801L177.342 108.18L181.668 111.18C181.914 111.349 182.093 111.6 182.172 111.888C182.621 113.573 183.247 115.206 184.038 116.76C184.08 116.849 184.115 116.941 184.14 117.036C184.185 117.234 184.185 117.439 184.14 117.636L183.06 121.836L189.21 128.436L193.494 127.65C193.793 127.595 194.102 127.651 194.364 127.806C195.864 128.697 197.45 129.435 199.098 130.008C199.395 130.096 199.647 130.296 199.8 130.566L202.476 135.138ZM208.038 123.756C207.816 123.756 207.594 123.756 207.372 123.756C202.384 123.668 197.633 121.614 194.152 118.04C190.672 114.467 188.743 109.663 188.787 104.674C188.831 99.6862 190.844 94.9171 194.387 91.4052C197.929 87.8934 202.716 85.923 207.705 85.923C212.693 85.923 217.48 87.8934 221.023 91.4052C224.566 94.9171 226.578 99.6862 226.622 104.674C226.666 109.663 224.738 114.467 221.257 118.04C217.777 121.614 213.025 123.668 208.038 123.756ZM208.038 88.3021C203.679 88.3772 199.526 90.1711 196.484 93.2933C193.442 96.4154 191.756 100.613 191.793 104.972C191.831 109.331 193.589 113.499 196.685 116.568C199.78 119.638 203.963 121.36 208.323 121.36C212.682 121.36 216.865 119.638 219.961 116.568C223.056 113.499 224.814 109.331 224.852 104.972C224.89 100.613 223.204 96.4154 220.161 93.2933C217.119 90.1711 212.966 88.3772 208.608 88.3021H208.038Z" fill="#EBEBEB"/>
<path d="M236.064 63.1918L231.756 62.0398L230.604 57.7318L232.29 56.0518L234.066 59.7298L237.75 61.5118L236.064 63.1918Z" fill="#E0E0E0"/>
<path d="M236.328 60.3118C236.515 60.1255 236.662 59.9042 236.763 59.6608C236.864 59.4173 236.916 59.1563 236.916 58.8928C236.916 58.6293 236.864 58.3683 236.763 58.1249C236.662 57.8814 236.515 57.6602 236.328 57.4738C236.142 57.2875 235.921 57.1396 235.677 57.0388C235.434 56.938 235.173 56.886 234.909 56.886C234.646 56.886 234.385 56.938 234.141 57.0388C233.898 57.1396 233.677 57.2875 233.49 57.4738L235.632 54.2578L238.5 55.7098L239.13 58.7098L236.328 60.3118Z" fill="#E0E0E0"/>
<path d="M231.948 56.4001L235.104 53.2441L239.4 54.3901L240.558 58.6921L237.402 61.8481L233.1 60.6901L231.948 56.4001ZM237.678 58.9801C237.959 58.699 238.15 58.3408 238.228 57.951C238.305 57.5611 238.265 57.1571 238.113 56.7899C237.961 56.4228 237.703 56.109 237.373 55.8882C237.042 55.6674 236.654 55.5496 236.256 55.5496C235.859 55.5496 235.47 55.6674 235.14 55.8882C234.809 56.109 234.552 56.4228 234.399 56.7899C234.247 57.1571 234.207 57.5611 234.285 57.951C234.362 58.3408 234.553 58.699 234.834 58.9801C235.214 59.353 235.726 59.5609 236.259 59.5587C236.791 59.5564 237.301 59.3442 237.678 58.9681V58.9801Z" fill="#F0F0F0"/>
<path d="M60.1316 178.026L62.4416 177.402L63.0596 175.092L62.1596 174.192L61.2056 176.166L59.2256 177.12L60.1316 178.026Z" fill="#E0E0E0"/>
<path d="M59.9999 176.478C59.8193 176.272 59.7239 176.005 59.733 175.731C59.7421 175.457 59.855 175.197 60.0487 175.003C60.2425 174.809 60.5027 174.696 60.7767 174.687C61.0506 174.678 61.3177 174.773 61.5239 174.954L60.3779 173.232L58.7999 174L58.4639 175.62L59.9999 176.478Z" fill="#E0E0E0"/>
<path d="M62.3403 174.372L60.6483 172.68L58.3383 173.28L57.7383 175.59L59.4003 177.3L61.7103 176.7L62.3403 174.372ZM59.2683 175.758C59.157 175.66 59.067 175.541 59.0037 175.407C58.9404 175.274 58.9052 175.129 58.9003 174.981C58.8954 174.833 58.9209 174.686 58.9752 174.548C59.0295 174.411 59.1115 174.286 59.216 174.181C59.3206 174.077 59.4455 173.995 59.583 173.941C59.7205 173.886 59.8677 173.861 60.0155 173.866C60.1633 173.871 60.3084 173.906 60.4421 173.969C60.5757 174.032 60.6949 174.122 60.7923 174.234C60.9728 174.44 61.0682 174.707 61.0591 174.981C61.0501 175.255 60.9372 175.515 60.7434 175.709C60.5496 175.903 60.2894 176.015 60.0155 176.025C59.7416 176.034 59.4745 175.938 59.2683 175.758Z" fill="#F0F0F0"/>
<path d="M51.8164 51.3962L53.7364 53.3162C53.9765 53.5521 54.2997 53.6844 54.6364 53.6844C54.9731 53.6844 55.2963 53.5521 55.5364 53.3162C55.771 53.0753 55.9022 52.7524 55.9022 52.4162C55.9022 52.0799 55.771 51.757 55.5364 51.5162L53.6224 49.6021C53.3815 49.3676 53.0586 49.2363 52.7224 49.2363C52.3862 49.2363 52.0633 49.3676 51.8224 49.6021C51.5874 49.8412 51.4552 50.1627 51.4541 50.4979C51.453 50.8331 51.583 51.1555 51.8164 51.3962Z" fill="#F0F0F0"/>
<path d="M50.4663 46.6259C50.9673 46.4866 51.4981 46.4966 51.9935 46.6548C52.4889 46.8129 52.9274 47.1122 53.255 47.5161C53.5827 47.9199 53.7852 48.4106 53.8379 48.9279C53.8906 49.4453 53.791 49.9668 53.5514 50.4283C53.3119 50.8899 52.9427 51.2714 52.4894 51.5261C52.036 51.7808 51.5181 51.8976 50.9993 51.8621C50.4805 51.8266 49.9833 51.6403 49.5689 51.3262C49.1544 51.0121 48.8408 50.5838 48.6663 50.0939C48.5556 49.7481 48.5143 49.3837 48.545 49.0218C48.5756 48.66 48.6775 48.3078 48.8448 47.9854C49.0121 47.6631 49.2415 47.377 49.5198 47.1437C49.7981 46.9104 50.1198 46.7344 50.4663 46.6259Z" fill="#E0E0E0"/>
<path d="M48.3783 49.7728L48.6562 50.5464L54.3594 48.4976L54.0815 47.724L48.3783 49.7728Z" fill="#F0F0F0"/>
<path d="M156 256.536C220.249 256.536 272.334 253.495 272.334 249.744C272.334 245.993 220.249 242.952 156 242.952C91.7505 242.952 39.666 245.993 39.666 249.744C39.666 253.495 91.7505 256.536 156 256.536Z" fill="#F5F5F5"/>
<path d="M82.312 136.048C81.712 133.402 81.976 131.182 83.116 129.37C84.256 127.558 86.116 126.37 88.762 125.77C91.408 125.17 93.694 125.41 95.482 126.526C97.27 127.642 98.482 129.526 99.082 132.106C99.5056 133.698 99.5406 135.369 99.184 136.978C98.8352 138.314 98.0981 139.517 97.066 140.434C95.8401 141.466 94.3687 142.165 92.794 142.462C91.2504 142.872 89.634 142.927 88.066 142.624C86.703 142.293 85.4701 141.561 84.526 140.524C83.398 139.259 82.633 137.712 82.312 136.048ZM87.316 134.932C87.688 136.564 88.258 137.668 89.026 138.244C89.4224 138.508 89.8682 138.69 90.3366 138.777C90.805 138.865 91.2862 138.857 91.7514 138.754C92.2166 138.651 92.6561 138.455 93.0436 138.177C93.431 137.9 93.7584 137.547 94.006 137.14C94.438 136.306 94.444 134.98 94.036 133.174C93.688 131.65 93.126 130.606 92.35 130.042C91.9593 129.762 91.5107 129.572 91.0372 129.488C90.5637 129.404 90.0774 129.427 89.614 129.556C89.1502 129.643 88.7122 129.834 88.3329 130.114C87.9535 130.395 87.6428 130.758 87.424 131.176C86.98 132.058 86.938 133.258 87.316 134.932Z" fill="#2A2B2E"/>
<path d="M101.434 134.068C101.221 133.251 101.183 132.397 101.323 131.564C101.462 130.73 101.776 129.936 102.244 129.232C102.769 128.485 103.436 127.848 104.207 127.359C104.978 126.87 105.838 126.538 106.738 126.382C109.086 125.85 111.014 126.128 112.522 127.216C113.791 128.2 114.654 129.616 114.946 131.195C115.238 132.774 114.939 134.405 114.106 135.778C113.17 137.206 111.646 138.158 109.534 138.634C107.907 139.089 106.171 138.949 104.638 138.238C103.819 137.838 103.103 137.253 102.547 136.529C101.991 135.806 101.61 134.963 101.434 134.068ZM105.94 133.03C106.062 133.869 106.471 134.639 107.098 135.208C107.347 135.396 107.633 135.528 107.938 135.594C108.243 135.661 108.558 135.66 108.863 135.592C109.167 135.524 109.453 135.391 109.7 135.201C109.948 135.011 110.151 134.77 110.296 134.494C110.61 133.688 110.64 132.799 110.38 131.974C110.254 131.155 109.849 130.405 109.234 129.85C108.996 129.657 108.716 129.521 108.416 129.453C108.116 129.386 107.805 129.388 107.506 129.46C107.195 129.525 106.902 129.659 106.651 129.854C106.399 130.048 106.195 130.297 106.054 130.582C105.731 131.36 105.691 132.226 105.94 133.03Z" fill="#2A2B2E"/>
<path d="M119.428 140.8L115.75 124.6L119.95 123.64L120.346 125.374C120.642 124.682 121.073 124.056 121.612 123.532C122.204 123.029 122.911 122.681 123.67 122.518C124.371 122.327 125.11 122.316 125.816 122.486C126.523 122.656 127.176 123.001 127.714 123.49C128.9 124.598 129.704 126.054 130.012 127.648C130.456 129.598 130.324 131.194 129.628 132.448C129.297 133.047 128.839 133.568 128.287 133.973C127.735 134.378 127.101 134.658 126.43 134.794C125.783 134.947 125.113 134.974 124.456 134.872C123.826 134.762 123.226 134.523 122.692 134.17L123.964 139.768L119.428 140.8ZM121.594 129.484C121.704 130.233 122.079 130.919 122.65 131.416C122.879 131.591 123.145 131.713 123.428 131.771C123.71 131.829 124.002 131.823 124.282 131.752C124.542 131.7 124.786 131.587 124.994 131.424C125.203 131.26 125.37 131.05 125.482 130.81C125.737 130.059 125.737 129.245 125.482 128.494C125.372 127.741 125.011 127.047 124.456 126.526C124.25 126.355 124.008 126.234 123.748 126.171C123.488 126.109 123.217 126.107 122.956 126.166C122.68 126.225 122.422 126.346 122.199 126.52C121.977 126.693 121.797 126.915 121.672 127.168C121.378 127.908 121.351 128.726 121.594 129.484Z" fill="#2A2B2E"/>
<path d="M131.938 129.838L136.306 128.404C136.538 128.826 136.9 129.163 137.338 129.364C137.809 129.5 138.308 129.511 138.784 129.395C139.261 129.28 139.699 129.041 140.056 128.704C140.155 128.598 140.228 128.469 140.266 128.329C140.305 128.189 140.309 128.042 140.278 127.9C140.242 127.737 140.158 127.589 140.037 127.475C139.916 127.361 139.764 127.285 139.6 127.258C138.922 127.183 138.238 127.183 137.56 127.258C136.422 127.355 135.278 127.355 134.14 127.258C133.474 127.161 132.849 126.876 132.34 126.436C131.796 125.966 131.421 125.331 131.271 124.628C131.12 123.926 131.203 123.193 131.506 122.542C131.856 121.845 132.399 121.263 133.072 120.868C134.029 120.324 135.069 119.941 136.15 119.734C137.182 119.454 138.249 119.324 139.318 119.35C139.989 119.393 140.64 119.599 141.214 119.95C141.825 120.362 142.344 120.898 142.738 121.522L138.538 122.908C138.381 122.595 138.12 122.347 137.8 122.206C137.362 122.049 136.887 122.028 136.438 122.146C136.04 122.201 135.672 122.384 135.388 122.668C135.297 122.764 135.232 122.882 135.198 123.009C135.163 123.137 135.16 123.271 135.19 123.4C135.222 123.542 135.297 123.67 135.404 123.769C135.511 123.867 135.646 123.931 135.79 123.952C136.46 124.03 137.139 124.016 137.806 123.91C138.963 123.742 140.137 123.726 141.298 123.862C142.028 123.965 142.712 124.28 143.266 124.768C143.766 125.222 144.114 125.819 144.262 126.478C144.415 127.185 144.359 127.921 144.1 128.596C143.782 129.395 143.23 130.079 142.516 130.558C141.463 131.246 140.284 131.717 139.048 131.944C136.908 132.432 135.308 132.474 134.248 132.07C133.215 131.657 132.385 130.856 131.938 129.838Z" fill="#2A2B2E"/>
<path d="M146.59 115H151.516V118.78L150.61 126.382H147.562L146.59 118.792V115ZM146.83 127.528H151.426V131.596H146.83V127.528Z" fill="#2A2B2E"/>
<path d="M139.47 182.904C140.304 169.464 138.774 145.026 164.04 148.266C191.118 151.728 183.372 183.396 183.372 183.396L139.47 182.904Z" fill="#2A2B2E"/>
<path d="M156.906 174.828C162.997 174.828 167.934 169.891 167.934 163.8C167.934 157.709 162.997 152.772 156.906 152.772C150.815 152.772 145.878 157.709 145.878 163.8C145.878 169.891 150.815 174.828 156.906 174.828Z" fill="white"/>
<path d="M158.358 152.79C153.132 151.902 147.558 155.748 147 159.648L167.706 161.556C166.974 157.11 162.498 153.498 158.358 152.79Z" fill="#2A2B2E"/>
<path d="M165.348 163.524C165.198 166.41 163.626 168.672 161.838 168.576C160.05 168.48 158.718 166.074 158.838 163.176C158.958 160.278 160.56 158.028 162.348 158.124C164.136 158.22 165.492 160.644 165.348 163.524Z" fill="#2A2B2E"/>
<path d="M156.905 175.428C154.606 175.428 152.357 174.746 150.445 173.468C148.533 172.191 147.043 170.374 146.162 168.25C145.282 166.125 145.052 163.787 145.501 161.531C145.949 159.276 147.057 157.204 148.683 155.578C150.309 153.951 152.381 152.844 154.637 152.395C156.892 151.947 159.23 152.177 161.355 153.057C163.48 153.937 165.296 155.428 166.574 157.34C167.851 159.252 168.533 161.5 168.533 163.8C168.53 166.883 167.304 169.839 165.124 172.019C162.944 174.199 159.988 175.425 156.905 175.428ZM156.905 153.378C154.843 153.378 152.826 153.99 151.111 155.136C149.396 156.282 148.06 157.911 147.271 159.817C146.481 161.722 146.275 163.819 146.678 165.842C147.081 167.865 148.075 169.724 149.534 171.182C150.993 172.64 152.851 173.633 154.875 174.034C156.898 174.436 158.995 174.229 160.9 173.438C162.805 172.648 164.434 171.311 165.579 169.595C166.724 167.879 167.335 165.863 167.333 163.8C167.33 161.036 166.23 158.386 164.275 156.432C162.32 154.478 159.669 153.379 156.905 153.378Z" fill="#4E77F7"/>
<path opacity="0.3" d="M180.294 182.568H180.222C180.183 182.559 180.147 182.543 180.115 182.52C180.083 182.498 180.055 182.468 180.035 182.435C180.014 182.401 180 182.364 179.994 182.325C179.988 182.286 179.99 182.246 180 182.208C180 182.13 181.932 173.994 179.946 165.768C179.927 165.688 179.94 165.604 179.983 165.535C180.026 165.465 180.094 165.415 180.174 165.396C180.254 165.377 180.337 165.39 180.407 165.433C180.477 165.475 180.527 165.544 180.546 165.624C182.568 174.024 180.618 182.268 180.6 182.346C180.582 182.412 180.542 182.471 180.486 182.511C180.431 182.551 180.363 182.571 180.294 182.568Z" fill="white"/>
<path opacity="0.3" d="M178.619 161.256C178.562 161.255 178.506 161.239 178.457 161.208C178.408 161.177 178.369 161.134 178.343 161.082C177.598 159.434 176.642 157.889 175.499 156.486C175.45 156.424 175.426 156.346 175.434 156.267C175.442 156.189 175.481 156.116 175.541 156.066C175.572 156.04 175.607 156.021 175.645 156.009C175.684 155.998 175.724 155.994 175.763 155.998C175.803 156.001 175.841 156.013 175.876 156.032C175.912 156.051 175.942 156.077 175.967 156.108C177.138 157.551 178.12 159.138 178.889 160.83C178.907 160.865 178.916 160.904 178.918 160.943C178.92 160.982 178.914 161.021 178.901 161.058C178.888 161.095 178.867 161.129 178.84 161.158C178.813 161.187 178.781 161.21 178.745 161.226C178.706 161.244 178.663 161.254 178.619 161.256Z" fill="white"/>
<path d="M83.2378 245.952H83.0158C82.2202 245.929 81.4659 245.592 80.9191 245.014C80.3722 244.435 80.0775 243.663 80.0998 242.868C80.1221 242.072 80.4595 241.318 81.0379 240.771C81.6162 240.224 82.3882 239.929 83.1838 239.952H83.2378C84.9718 239.952 89.1418 237.846 97.8658 224.094C98.0974 223.728 98.4052 223.418 98.7681 223.182C99.1311 222.947 99.5406 222.793 99.9685 222.731C100.397 222.669 100.833 222.7 101.248 222.823C101.662 222.945 102.046 223.155 102.372 223.44C109.223 229.329 116.695 234.456 124.656 238.728C125.024 238.895 125.355 239.136 125.628 239.434C125.901 239.733 126.111 240.084 126.245 240.466C126.379 240.848 126.434 241.253 126.407 241.657C126.38 242.061 126.272 242.455 126.089 242.816C125.906 243.177 125.652 243.497 125.342 243.757C125.032 244.017 124.672 244.212 124.285 244.329C123.898 244.447 123.491 244.485 123.088 244.441C122.686 244.397 122.297 244.272 121.944 244.074C114.545 240.142 107.551 235.492 101.064 230.19C93.7498 241.2 88.3258 245.952 83.2378 245.952Z" fill="#2A2B2E"/>
<path d="M101.802 222.9H101.544C101.072 222.832 100.647 222.579 100.362 222.198C100.076 221.817 99.9531 221.338 100.02 220.866C100.446 217.866 99.9179 206.688 96.1319 197.988C95.964 197.603 95.9356 197.172 96.0518 196.769C96.1679 196.366 96.4212 196.016 96.7679 195.78C104.988 190.182 122.496 189.51 123.24 189.486C123.476 189.478 123.712 189.517 123.933 189.6C124.155 189.683 124.358 189.809 124.53 189.971C124.703 190.132 124.842 190.326 124.94 190.542C125.038 190.757 125.092 190.989 125.1 191.226C125.108 191.462 125.069 191.698 124.986 191.919C124.903 192.141 124.777 192.344 124.615 192.516C124.454 192.689 124.26 192.828 124.044 192.926C123.829 193.024 123.596 193.078 123.36 193.086C123.198 193.086 107.892 193.686 100.032 198.006C103.38 206.67 104.142 217.464 103.584 221.37C103.519 221.796 103.304 222.185 102.977 222.466C102.65 222.746 102.233 222.9 101.802 222.9Z" fill="#2A2B2E"/>
<path d="M104.825 220.572C103.625 217.746 98.2255 218.064 95.0635 220.488C93.3715 221.778 91.0795 225.672 90.8635 227.088C90.7914 227.424 90.8022 227.773 90.8949 228.105C90.9875 228.436 91.1593 228.74 91.3954 228.99C91.6315 229.24 91.9249 229.429 92.2503 229.541C92.5757 229.653 92.9234 229.684 93.2635 229.632C95.3335 229.452 98.1715 226.446 98.1715 226.446C96.2815 228.3 98.7235 229.608 102.371 226.926C104.363 225.432 106.163 223.734 104.825 220.572Z" fill="#4E77F7"/>
<path d="M208.026 183.696C207.998 183.702 207.97 183.702 207.942 183.696C207.904 183.685 207.868 183.667 207.837 183.643C207.806 183.618 207.78 183.588 207.761 183.553C207.742 183.518 207.73 183.48 207.726 183.441C207.722 183.401 207.726 183.361 207.738 183.324C208.536 180.54 209.406 178.842 210.552 177.924C210.373 177.278 210.406 176.592 210.648 175.968C210.928 175.239 211.421 174.611 212.064 174.168C211.889 173.979 211.765 173.749 211.703 173.499C211.641 173.25 211.644 172.988 211.71 172.74C211.927 171.988 212.377 171.324 212.994 170.844C212.772 170.595 212.65 170.272 212.652 169.938C212.652 168.138 215.958 165.426 219.708 164.91C219.788 164.899 219.868 164.919 219.933 164.968C219.997 165.016 220.039 165.088 220.05 165.168C220.061 165.247 220.04 165.328 219.992 165.392C219.944 165.456 219.872 165.499 219.792 165.51C216.228 165.996 213.24 168.576 213.252 169.938C213.251 170.141 213.328 170.336 213.468 170.484C214.275 169.936 215.183 169.555 216.139 169.363C217.095 169.17 218.08 169.17 219.036 169.362C220.878 169.716 221.628 170.106 221.544 170.664C221.376 171.714 217.458 171.936 214.83 171.624C214.359 171.581 213.901 171.449 213.48 171.234C212.914 171.636 212.494 172.211 212.28 172.872C212.229 173.047 212.229 173.233 212.281 173.407C212.333 173.582 212.435 173.738 212.574 173.856C213.69 173.256 215.256 173.04 217.326 173.496C220.044 174.096 220.146 174.426 220.212 174.624C220.233 174.694 220.235 174.768 220.217 174.839C220.199 174.91 220.162 174.974 220.11 175.026C219.54 175.626 215.37 175.344 213.276 174.828C213.023 174.77 212.779 174.679 212.55 174.558C211.93 174.934 211.453 175.506 211.194 176.184C211.021 176.622 210.973 177.1 211.056 177.564C211.163 177.5 211.273 177.442 211.386 177.39C212.628 176.79 214.128 176.898 215.982 177.69C217.182 178.212 217.782 178.68 217.842 179.154C217.845 179.275 217.814 179.395 217.754 179.501C217.694 179.607 217.606 179.694 217.5 179.754C216.582 180.354 213.378 180.27 211.71 179.382C211.327 179.173 211.007 178.864 210.786 178.488C209.808 179.388 209.016 180.99 208.296 183.504C208.274 183.558 208.237 183.605 208.189 183.639C208.141 183.673 208.085 183.693 208.026 183.696ZM211.278 178.098C211.445 178.408 211.7 178.663 212.01 178.83C213.366 179.55 216.03 179.712 217.026 179.31C217.23 179.226 217.26 179.16 217.26 179.16C217.26 179.16 217.23 178.824 215.76 178.194C214.08 177.474 212.76 177.372 211.662 177.882C211.53 177.945 211.401 178.018 211.278 178.098ZM213.282 174.156L213.432 174.198C215.386 174.648 217.397 174.8 219.396 174.648C218.687 174.385 217.956 174.184 217.212 174.048C215.92 173.698 214.553 173.735 213.282 174.156ZM214.038 170.784C214.315 170.883 214.603 170.947 214.896 170.976C217.896 171.33 220.53 170.916 220.896 170.538C220.794 170.448 220.392 170.19 218.904 169.908C217.23 169.574 215.491 169.887 214.038 170.784Z" fill="#2A2B2E"/>
<path d="M129.918 244.95C130.314 244.824 130.182 244.44 129.738 244.44H121.614C106.146 242.802 95.3401 244.998 102.15 245.514C108.96 246.03 101.67 245.922 96.6961 247.806C91.7221 249.69 133.686 250.164 137.496 247.806C141 245.634 124.434 246.708 129.918 244.95Z" fill="#2A2B2E"/>
<path d="M188.082 247.344L117.402 244.998L114.468 176.466L197.934 178.332L188.082 247.344Z" fill="#4E77F7"/>
<path d="M139.47 246.03C139.394 246.03 139.321 246.002 139.265 245.951C139.21 245.9 139.176 245.829 139.17 245.754L133.505 176.922C133.5 176.843 133.526 176.765 133.578 176.704C133.629 176.644 133.702 176.606 133.782 176.598C133.86 176.594 133.938 176.621 133.998 176.672C134.058 176.723 134.096 176.796 134.105 176.874L139.8 245.706C139.803 245.745 139.798 245.785 139.786 245.823C139.774 245.86 139.755 245.895 139.729 245.925C139.703 245.956 139.672 245.98 139.637 245.998C139.601 246.016 139.563 246.027 139.523 246.03H139.47Z" fill="#2A2B2E"/>
<path d="M188.082 247.344L207.078 244.452L213.06 180.726L197.934 178.332L188.082 247.344Z" fill="#4E77F7"/>
<path opacity="0.2" d="M188.082 247.344L207.078 244.452L213.06 180.726L197.934 178.332L188.082 247.344Z" fill="black"/>
<path d="M123.438 231.792L121.698 191.07C121.655 190.064 121.819 189.06 122.18 188.12C122.54 187.179 123.09 186.323 123.795 185.604C124.499 184.885 125.344 184.318 126.276 183.938C127.209 183.558 128.209 183.374 129.216 183.396L182.052 184.596C183.092 184.619 184.116 184.863 185.055 185.311C185.995 185.759 186.828 186.401 187.501 187.195C188.174 187.989 188.671 188.916 188.96 189.916C189.248 190.916 189.321 191.966 189.174 192.996L183.318 234C183.065 235.796 182.157 237.435 180.77 238.603C179.383 239.771 177.613 240.386 175.8 240.33L130.566 238.83C128.709 238.773 126.943 238.015 125.621 236.71C124.299 235.405 123.519 233.648 123.438 231.792Z" fill="#2A2B2E"/>
<path d="M176.4 223.896C176.287 223.898 176.175 223.876 176.072 223.832C175.968 223.787 175.876 223.721 175.8 223.638L170.664 218.016L165.12 223.08C164.966 223.221 164.763 223.295 164.555 223.286C164.347 223.277 164.151 223.185 164.01 223.032L158.874 217.41L153.33 222.474C153.176 222.615 152.973 222.689 152.765 222.68C152.557 222.671 152.361 222.579 152.22 222.426L147.078 216.804L141.54 221.868C141.459 221.941 141.364 221.997 141.261 222.032C141.158 222.067 141.048 222.081 140.94 222.072C140.731 222.06 140.536 221.967 140.394 221.814L135.258 216.198L129.72 221.256C129.565 221.397 129.361 221.471 129.152 221.462C128.943 221.453 128.746 221.362 128.604 221.208C128.534 221.132 128.479 221.043 128.444 220.945C128.409 220.848 128.393 220.745 128.398 220.642C128.403 220.538 128.429 220.437 128.473 220.344C128.518 220.25 128.581 220.167 128.658 220.098L134.778 214.5C134.932 214.359 135.136 214.285 135.346 214.294C135.555 214.303 135.752 214.394 135.894 214.548L141.03 220.17L146.568 215.106C146.725 214.968 146.929 214.895 147.138 214.902C147.346 214.913 147.543 215.006 147.684 215.16L152.82 220.782L158.364 215.718C158.439 215.648 158.528 215.593 158.625 215.557C158.722 215.521 158.825 215.505 158.929 215.51C159.032 215.514 159.133 215.539 159.227 215.583C159.321 215.627 159.404 215.689 159.474 215.766L164.61 221.388L170.154 216.324C170.307 216.183 170.511 216.109 170.719 216.118C170.927 216.127 171.123 216.218 171.264 216.372L177 222.6C177.102 222.715 177.169 222.856 177.192 223.008C177.216 223.16 177.194 223.316 177.13 223.456C177.067 223.596 176.964 223.714 176.834 223.797C176.704 223.879 176.553 223.922 176.4 223.92V223.896Z" fill="white"/>
<path d="M81.4497 248.802L77.6937 247.008L74.3457 230.706L76.1637 228.708L81.4497 248.802Z" fill="#4E77F7"/>
<path d="M81.4501 248.802L86.4361 245.886L82.1641 232.458L76.1641 228.708L81.4501 248.802Z" fill="#4E77F7"/>
<path opacity="0.2" d="M81.4501 248.802L86.4361 245.886L82.1641 232.458L76.1641 228.708L81.4501 248.802Z" fill="black"/>
<path d="M163.199 251.766H162.785C161.99 251.744 161.235 251.408 160.688 250.83C160.14 250.252 159.845 249.48 159.866 248.685C159.888 247.889 160.224 247.135 160.802 246.587C161.38 246.04 162.152 245.744 162.947 245.766C167.567 245.916 177.347 243.078 182.939 237.654C183.277 237.323 183.688 237.076 184.139 236.934C193.613 234.09 197.135 239.832 197.279 240.078L192.119 243.132C192.137 243.17 192.16 243.206 192.185 243.24C192.131 243.162 190.787 241.44 186.515 242.496C179.501 248.892 168.737 251.766 163.199 251.766Z" fill="#2A2B2E"/>
<path d="M162.834 255.75L151.908 255.066L151.05 234.918L165.732 235.464L162.834 255.75Z" fill="#4E77F7"/>
<path d="M162.834 255.75L165.39 253.206L166.974 240.648L165.732 235.464L162.834 255.75Z" fill="#4E77F7"/>
<path opacity="0.2" d="M162.834 255.75L165.39 253.206L166.974 240.648L165.732 235.464L162.834 255.75Z" fill="black"/>
<path d="M226.145 248.124C225.753 248.124 225.372 247.995 225.059 247.758C218.819 243.018 210.389 234.6 207.155 226.482C207.107 226.365 207.073 226.242 207.053 226.116C205.475 216.732 203.969 196.986 203.903 196.152C203.886 195.916 203.915 195.678 203.989 195.453C204.063 195.228 204.181 195.019 204.335 194.84C204.647 194.477 205.091 194.253 205.568 194.217C206.046 194.181 206.518 194.336 206.881 194.649C207.244 194.961 207.468 195.405 207.503 195.882C207.503 196.08 209.045 216.018 210.581 225.324C213.809 233.22 222.581 241.326 227.249 244.89C227.55 245.118 227.771 245.435 227.882 245.795C227.993 246.156 227.988 246.542 227.867 246.9C227.746 247.257 227.516 247.568 227.21 247.787C226.903 248.007 226.535 248.125 226.157 248.124H226.145Z" fill="#2A2B2E"/>
<path d="M234.468 249.03C233.076 249.03 231.497 248.4 229.775 247.158C229.389 246.878 229.129 246.455 229.054 245.984C228.978 245.512 229.093 245.03 229.374 244.644C229.654 244.257 230.076 243.997 230.547 243.922C231.019 243.847 231.501 243.962 231.888 244.242C233.376 245.316 234.186 245.442 234.468 245.442C234.945 245.442 235.403 245.631 235.74 245.969C236.078 246.306 236.268 246.764 236.268 247.242C236.268 247.719 236.078 248.177 235.74 248.514C235.403 248.852 234.945 249.042 234.468 249.042V249.03Z" fill="#2A2B2E"/>
<path d="M230.28 247.104C232.206 241.386 240.102 242.514 242.826 243.366C245.152 244.041 247.384 245.009 249.468 246.246C250.938 247.206 250.962 248.82 249 249.738C246.6 250.866 240.504 249.864 240.504 249.864C243.648 251.238 240.504 253.464 234.978 251.28C233.184 250.572 229.602 249.204 230.28 247.104Z" fill="#4E77F7"/>
<path d="M211.116 198.6C210.402 203.46 206.376 207.042 203.1 206.562C199.824 206.082 199.692 201.762 200.406 196.878C201.12 191.994 202.416 188.478 205.692 188.958C208.968 189.438 211.83 193.758 211.116 198.6Z" fill="#2A2B2E"/>
<path d="M131.928 179.22C132.199 179.22 132.42 179 132.42 178.728C132.42 178.456 132.199 178.236 131.928 178.236C131.656 178.236 131.436 178.456 131.436 178.728C131.436 179 131.656 179.22 131.928 179.22Z" fill="#2A2B2E"/>
<path d="M136.925 182.268C136.925 182.365 136.897 182.46 136.842 182.541C136.788 182.622 136.712 182.685 136.622 182.722C136.532 182.76 136.433 182.769 136.337 182.75C136.242 182.731 136.154 182.685 136.086 182.616C136.017 182.547 135.97 182.459 135.951 182.364C135.932 182.268 135.942 182.169 135.979 182.08C136.016 181.99 136.079 181.913 136.16 181.859C136.241 181.805 136.336 181.776 136.433 181.776C136.564 181.776 136.689 181.828 136.781 181.92C136.874 182.012 136.925 182.137 136.925 182.268Z" fill="#2A2B2E"/>
<path d="M137.478 240.408C137.478 240.505 137.449 240.6 137.395 240.681C137.341 240.762 137.264 240.825 137.174 240.863C137.085 240.9 136.986 240.91 136.89 240.891C136.795 240.872 136.707 240.825 136.638 240.756C136.569 240.687 136.523 240.599 136.504 240.504C136.485 240.409 136.494 240.31 136.532 240.22C136.569 240.13 136.632 240.053 136.713 239.999C136.794 239.945 136.889 239.916 136.986 239.916C137.117 239.916 137.242 239.968 137.334 240.06C137.426 240.152 137.478 240.278 137.478 240.408Z" fill="#2A2B2E"/>
<path d="M141.984 243.954C141.984 244.051 141.955 244.146 141.901 244.227C141.847 244.308 141.77 244.371 141.68 244.408C141.59 244.446 141.491 244.455 141.396 244.436C141.301 244.417 141.213 244.371 141.144 244.302C141.075 244.233 141.028 244.145 141.009 244.05C140.99 243.954 141 243.856 141.037 243.766C141.075 243.676 141.138 243.599 141.219 243.545C141.3 243.491 141.395 243.462 141.492 243.462C141.622 243.462 141.748 243.514 141.84 243.606C141.932 243.698 141.984 243.823 141.984 243.954Z" fill="#2A2B2E"/>
<path d="M55.5058 249.852C54.642 249.812 53.7984 249.578 53.0371 249.168C52.2759 248.757 51.6165 248.181 51.1078 247.482C51.0829 247.45 51.0647 247.413 51.0545 247.374C51.0443 247.334 51.0422 247.293 51.0484 247.253C51.0545 247.213 51.0688 247.174 51.0904 247.139C51.1119 247.105 51.1403 247.075 51.1737 247.052C51.2071 247.029 51.2449 247.012 51.2848 247.004C51.3247 246.996 51.3658 246.996 51.4057 247.004C51.4455 247.013 51.4833 247.029 51.5167 247.052C51.5501 247.076 51.5784 247.105 51.5998 247.14C52.7218 248.76 55.1998 249.618 56.2798 249.108C56.388 249.062 56.4844 248.992 56.5618 248.904C56.0161 248.664 55.538 248.293 55.1696 247.824C54.8012 247.355 54.554 246.803 54.4498 246.216C54.3118 245.454 54.2038 244.416 54.8278 244.284C55.6918 244.092 56.8198 246.174 57.2278 247.752C57.3017 248.013 57.3281 248.286 57.3058 248.556C57.6519 248.659 58.0159 248.688 58.3738 248.64C58.5351 248.628 58.692 248.582 58.8346 248.505C58.9772 248.429 59.1022 248.324 59.2018 248.196C58.8069 247.898 58.4794 247.52 58.2406 247.087C58.0017 246.654 57.857 246.175 57.8158 245.682C57.5878 244.038 57.7618 243.756 57.9418 243.612C58.0001 243.567 58.0697 243.54 58.1429 243.532C58.216 243.525 58.2897 243.538 58.3558 243.57C58.9978 243.84 59.7718 246.168 59.9218 247.488C59.9398 247.625 59.9398 247.765 59.9218 247.902C60.1805 248.001 60.4547 248.054 60.7318 248.058C61.2406 248.078 61.7438 247.946 62.1778 247.68C62.0938 247.626 62.0158 247.566 61.9378 247.506C61.3378 246.972 61.0618 246.12 61.1698 244.908C61.2538 243.966 61.4638 243.45 61.8418 243.288C61.9638 243.239 62.0973 243.227 62.2262 243.252C62.3551 243.278 62.4738 243.34 62.5678 243.432C62.9728 243.879 63.2755 244.409 63.4548 244.986C63.634 245.562 63.6856 246.17 63.6058 246.768C63.5537 247.017 63.4494 247.252 63.2998 247.458C64.4038 247.65 65.9518 247.338 67.2898 247.008C67.3292 246.999 67.3701 246.997 67.4101 247.003C67.4501 247.01 67.4885 247.024 67.523 247.045C67.5576 247.066 67.5876 247.094 67.6114 247.127C67.6352 247.159 67.6524 247.197 67.6618 247.236C67.6713 247.275 67.6729 247.316 67.6665 247.356C67.6602 247.396 67.646 247.435 67.6249 247.469C67.6037 247.504 67.5759 247.534 67.5431 247.558C67.5104 247.581 67.4732 247.599 67.4338 247.608C65.8078 248.01 64.0558 248.34 62.8198 247.98C62.2165 248.439 61.4777 248.684 60.7198 248.676C60.3835 248.672 60.0505 248.609 59.7358 248.49C59.5962 248.706 59.409 248.887 59.1884 249.019C58.9679 249.151 58.72 249.231 58.4638 249.252C58.0128 249.31 57.5546 249.271 57.1198 249.138C56.9798 249.374 56.7702 249.56 56.5198 249.672C56.198 249.802 55.8527 249.863 55.5058 249.852ZM54.9898 244.884C54.9068 245.292 54.9233 245.714 55.0378 246.114C55.1225 246.594 55.3215 247.046 55.6182 247.433C55.9148 247.819 56.3002 248.128 56.7418 248.334C56.7334 248.192 56.7093 248.051 56.6698 247.914C56.2018 246.198 55.3018 245.016 54.9898 244.884ZM58.3318 244.362C58.3357 244.776 58.3698 245.189 58.4338 245.598C58.5 246.33 58.8231 247.014 59.3458 247.53C59.1982 246.422 58.8548 245.35 58.3318 244.362ZM62.1058 243.84C62.1058 243.84 61.8778 243.954 61.7938 244.956C61.7098 245.958 61.8838 246.648 62.3518 247.05C62.4626 247.14 62.5834 247.216 62.7118 247.278C62.8696 247.109 62.9812 246.903 63.0358 246.678C63.1427 245.734 62.8875 244.784 62.3218 244.02C62.1958 243.864 62.1238 243.84 62.1058 243.84Z" fill="#2A2B2E"/>
<path d="M143.322 254.388L144.948 251.568L143.322 248.748H141.582L142.566 251.568L141.582 254.388H143.322Z" fill="#2A2B2E"/>
<path d="M141.696 253.038C141.496 253.051 141.295 253.023 141.106 252.955C140.916 252.887 140.743 252.781 140.597 252.643C140.45 252.506 140.333 252.34 140.253 252.155C140.174 251.971 140.132 251.772 140.132 251.571C140.132 251.37 140.174 251.171 140.253 250.987C140.333 250.803 140.45 250.637 140.597 250.499C140.743 250.362 140.916 250.256 141.106 250.188C141.295 250.12 141.496 250.091 141.696 250.104L138.936 249.552L138.198 251.784L139.434 253.668L141.696 253.038Z" fill="#2A2B2E"/>
<path d="M141.936 248.748H138.678L137.052 251.568L138.678 254.388H141.936L143.562 251.568L141.936 248.748ZM140.31 253.038C140.019 253.039 139.734 252.954 139.491 252.793C139.249 252.632 139.06 252.403 138.947 252.135C138.835 251.866 138.805 251.571 138.861 251.285C138.917 250.999 139.057 250.737 139.262 250.531C139.468 250.325 139.729 250.184 140.015 250.127C140.3 250.07 140.596 250.098 140.865 250.209C141.134 250.32 141.364 250.509 141.526 250.751C141.687 250.993 141.774 251.277 141.774 251.568C141.774 251.957 141.62 252.33 141.345 252.605C141.071 252.881 140.699 253.036 140.31 253.038Z" fill="#4E77F7"/>
<path d="M256.734 248.556L255.528 246.462L256.734 244.368H258.024L257.298 246.462L258.024 248.556H256.734Z" fill="#4E77F7"/>
<path d="M257.939 247.554C258.089 247.565 258.24 247.545 258.382 247.496C258.523 247.446 258.653 247.368 258.763 247.266C258.873 247.163 258.961 247.039 259.021 246.902C259.081 246.764 259.112 246.615 259.112 246.465C259.112 246.315 259.081 246.166 259.021 246.029C258.961 245.891 258.873 245.767 258.763 245.665C258.653 245.563 258.523 245.484 258.382 245.435C258.24 245.385 258.089 245.365 257.939 245.376L259.991 244.968L260.537 246.624L259.625 248.022L257.939 247.554Z" fill="#4E77F7"/>
<path d="M257.765 244.368H260.165L261.365 246.462L260.165 248.556H257.765L256.565 246.462L257.765 244.368ZM258.965 247.554C259.182 247.555 259.393 247.492 259.574 247.373C259.754 247.254 259.895 247.084 259.979 246.884C260.062 246.685 260.085 246.465 260.043 246.253C260.002 246.041 259.898 245.845 259.746 245.692C259.593 245.539 259.399 245.434 259.187 245.392C258.975 245.349 258.755 245.37 258.555 245.453C258.355 245.535 258.184 245.675 258.064 245.855C257.944 246.035 257.879 246.246 257.879 246.462C257.879 246.606 257.906 246.748 257.961 246.881C258.016 247.014 258.096 247.135 258.198 247.236C258.299 247.338 258.42 247.418 258.553 247.473C258.685 247.527 258.828 247.555 258.971 247.554H258.965Z" fill="#2A2B2E"/>
<path d="M211.8 251.34H214.512C214.851 251.338 215.176 251.202 215.416 250.962C215.655 250.721 215.79 250.395 215.79 250.056C215.79 249.716 215.655 249.391 215.416 249.15C215.176 248.91 214.851 248.774 214.512 248.772H211.8C211.459 248.772 211.133 248.907 210.892 249.148C210.651 249.389 210.516 249.715 210.516 250.056C210.516 250.397 210.651 250.723 210.892 250.964C211.133 251.205 211.459 251.34 211.8 251.34Z" fill="#2A2B2E"/>
<path d="M207.438 248.916C207.69 248.458 208.07 248.084 208.532 247.84C208.993 247.596 209.516 247.492 210.036 247.541C210.556 247.591 211.051 247.791 211.458 248.118C211.865 248.445 212.168 248.884 212.329 249.381C212.49 249.878 212.502 250.412 212.363 250.915C212.224 251.419 211.942 251.871 211.549 252.216C211.157 252.56 210.672 252.783 210.155 252.855C209.637 252.928 209.11 252.847 208.638 252.624C207.989 252.289 207.499 251.712 207.274 251.017C207.049 250.323 207.108 249.567 207.438 248.916Z" fill="#4E77F7"/>
<path d="M208.17 252.623L208.913 252.974L211.497 247.492L210.754 247.142L208.17 252.623Z" fill="#2A2B2E"/>
</svg>
