<svg width="20" height="17" viewBox="0 0 20 17" fill="none" xmlns="http://www.w3.org/2000/svg">
<path d="M0 1.5C0 0.947715 0.447715 0.5 1 0.5H19C19.5523 0.5 20 0.947715 20 1.5C20 2.05228 19.5523 2.5 19 2.5H1C0.447716 2.5 0 2.05228 0 1.5Z" />
<path d="M0 8.5C0 7.94772 0.447715 7.5 1 7.5H19C19.5523 7.5 20 7.94772 20 8.5C20 9.05228 19.5523 9.5 19 9.5H1C0.447716 9.5 0 9.05228 0 8.5Z" />
<path d="M0 15.5C0 14.9477 0.447715 14.5 1 14.5H19C19.5523 14.5 20 14.9477 20 15.5C20 16.0523 19.5523 16.5 19 16.5H1C0.447716 16.5 0 16.0523 0 15.5Z"/>
</svg>
