<svg width="25" height="25" viewBox="0 0 25 25" xmlns="http://www.w3.org/2000/svg">
    <path d="M23 8V6.81C23 6.06474 22.7039 5.35001 22.177 4.82303C21.65 4.29605 20.9353 4 20.19 4H18V2.5C18 2.36739 17.9473 2.24021 17.8536 2.14645C17.7598 2.05268 17.6326 2 17.5 2C17.3674 2 17.2402 2.05268 17.1464 2.14645C17.0527 2.24021 17 2.36739 17 2.5V4H8V2.5C8 2.36739 7.94732 2.24021 7.85355 2.14645C7.75979 2.05268 7.63261 2 7.5 2C7.36739 2 7.24021 2.05268 7.14645 2.14645C7.05268 2.24021 7 2.36739 7 2.5V4H4.81C4.06474 4 3.35001 4.29605 2.82303 4.82303C2.29605 5.35001 2 6.06474 2 6.81V8H23Z" />
    <path d="M2 9V20.19C2 20.9353 2.29605 21.65 2.82303 22.177C3.35001 22.704 4.06474 23 4.81 23H20.19C20.9353 23 21.65 22.704 22.177 22.177C22.7039 21.65 23 20.9353 23 20.19V9H2Z" />
</svg>
