<svg width="18" height="17" viewBox="0 0 18 17" fill="none" xmlns="http://www.w3.org/2000/svg">
<path d="M15.8352 3.89375H13.2329V3.64125C13.2329 2.51319 12.2635 1.59766 11.0691 1.59766H6.93044C5.73554 1.59766 4.76663 2.51319 4.76663 3.64125V3.89375H2.16381C0.968905 3.89375 0 4.80883 0 5.93735V13.3552C0 14.4832 0.968905 15.3987 2.16381 15.3987H15.8362C17.0311 15.3987 18 14.4832 18 13.3552V5.93735C17.999 4.80837 17.0301 3.89375 15.8352 3.89375ZM8.99904 13.2789C6.74483 13.2789 4.91185 11.5477 4.91185 9.41873C4.91185 7.29021 6.74483 5.5586 8.99904 5.5586C11.2532 5.5586 13.0862 7.28975 13.0862 9.41873C13.0862 11.5477 11.2528 13.2789 8.99904 13.2789ZM11.1628 9.41873C11.1628 10.5445 10.1915 11.4623 8.99904 11.4623C7.80654 11.4623 6.83523 10.5445 6.83523 9.41873C6.83523 8.29248 7.80654 7.37513 8.99904 7.37513C10.1915 7.37513 11.1628 8.29248 11.1628 9.41873Z" />
</svg>
