<svg width="30" height="29" viewBox="0 0 30 29" fill="none" xmlns="http://www.w3.org/2000/svg">
    <path d="M26.392 6.64538H22.0548V6.21465C22.0548 4.2903 20.4392 2.72852 18.4485 2.72852H11.5507C9.55922 2.72852 7.94438 4.2903 7.94438 6.21465V6.64538H3.60635C1.61484 6.64538 0 8.2064 0 10.1315V22.7854C0 24.7098 1.61484 26.2716 3.60635 26.2716H26.3937C28.3852 26.2716 30 24.7098 30 22.7854V10.1315C29.9984 8.20562 28.3836 6.64538 26.392 6.64538ZM14.9984 22.6553C11.2414 22.6553 8.18641 19.7021 8.18641 16.0703C8.18641 12.4393 11.2414 9.48542 14.9984 9.48542C18.7554 9.48542 21.8104 12.4386 21.8104 16.0703C21.8104 19.7021 18.7546 22.6553 14.9984 22.6553ZM18.6047 16.0703C18.6047 17.9908 16.9859 19.5565 14.9984 19.5565C13.0109 19.5565 11.3921 17.9908 11.3921 16.0703C11.3921 14.1491 13.0109 12.5842 14.9984 12.5842C16.9859 12.5842 18.6047 14.1491 18.6047 16.0703Z" />
</svg>
