<svg width="74" height="74" viewBox="0 0 74 74" fill="none" xmlns="http://www.w3.org/2000/svg">
<rect width="74" height="74" rx="37" fill="#4E77F7"/>
<path d="M28.6096 26.6923L26.6318 31.1592C26.4792 31.5029 26.1296 31.7255 25.743 31.7252H23.5794C22.8754 31.7253 22.3048 32.2774 22.3047 32.9586V34.1919C22.3047 34.6591 22.5774 35.0862 23.0093 35.2951L24.284 35.9118C24.6331 36.0805 24.8538 36.4255 24.8541 36.8031V46.5252C24.8541 47.8703 26.0132 48.9918 27.4036 48.9918C28.7939 48.9918 29.953 47.8703 29.953 46.5252V45.9085C29.953 45.5679 30.2384 45.2918 30.5904 45.2918H44.6123C44.9644 45.2918 45.2497 45.5679 45.2497 45.9085V46.5252C45.2497 47.8703 46.4088 48.9918 47.7992 48.9918C49.1895 48.9918 50.3486 47.8703 50.3486 46.5252V36.8031C50.3489 36.4255 50.5696 36.0805 50.9187 35.9118L52.1935 35.2951C52.6253 35.0862 52.8981 34.6591 52.898 34.1919V32.9586C52.898 32.2774 52.3273 31.7253 51.6233 31.7252H49.4598C49.0731 31.7255 48.7235 31.5029 48.571 31.1592L46.5932 26.6923C46.4442 26.3558 46.1965 26.0691 45.8806 25.8675C45.5648 25.666 45.1948 25.5586 44.8165 25.5586H30.3862C30.0079 25.5586 29.6379 25.666 29.3221 25.8675C29.0063 26.0691 28.7585 26.3558 28.6096 26.6923V26.6923ZM31.4244 28.0252H43.7708C44.1575 28.025 44.5071 28.2476 44.6596 28.5913L46.8879 33.6258C47.006 33.8938 46.8031 34.1914 46.502 34.1919H28.7007C28.3997 34.1914 28.1968 33.8938 28.3148 33.6258L30.5431 28.5913C30.6946 28.25 31.0405 28.0278 31.4244 28.0252V28.0252ZM28.0409 37.8919H31.8651C32.2182 37.8919 32.5025 38.1669 32.5025 38.5085V39.7419C32.5025 40.0835 32.2182 40.3585 31.8651 40.3585H28.0409C27.6878 40.3585 27.4036 40.0835 27.4036 39.7419V38.5085C27.4036 38.1669 27.6878 37.8919 28.0409 37.8919ZM43.3376 37.8919H47.1618C47.5149 37.8919 47.7992 38.1669 47.7992 38.5085V39.7419C47.7992 40.0835 47.5149 40.3585 47.1618 40.3585H43.3376C42.9845 40.3585 42.7003 40.0835 42.7003 39.7419V38.5085C42.7003 38.1669 42.9845 37.8919 43.3376 37.8919Z" fill="white"/>
</svg>
