<svg width="100" height="100" viewBox="0 0 100 100" fill="none" xmlns="http://www.w3.org/2000/svg">
<rect width="100" height="100" rx="50" fill="#4E77F7"/>
<path d="M36.686 33.7417L33.6476 40.604C33.4132 41.1321 32.8761 41.4742 32.2821 41.4737H28.9583C27.8768 41.4738 27.0001 42.322 27 43.3684V45.2632C26.9999 45.9809 27.419 46.637 28.0824 46.9581L30.0408 47.9054C30.5771 48.1646 30.9162 48.6946 30.9167 49.2747V64.2105C30.9167 66.2771 32.6974 68 34.8333 68C36.9693 68 38.75 66.2771 38.75 64.2105V63.2632C38.75 62.7399 39.1884 62.3158 39.7292 62.3158H61.2708C61.8116 62.3158 62.25 62.7399 62.25 63.2632V64.2105C62.25 66.2771 64.0307 68 66.1667 68C68.3026 68 70.0833 66.2771 70.0833 64.2105V49.2747C70.0838 48.6946 70.4229 48.1646 70.9592 47.9054L72.9176 46.9581C73.581 46.637 74.0001 45.9809 74 45.2632V43.3684C73.9999 42.322 73.1232 41.4738 72.0417 41.4737H68.7179C68.1239 41.4742 67.5868 41.1321 67.3524 40.604L64.3139 33.7417C64.0851 33.2248 63.7045 32.7842 63.2193 32.4746C62.7341 32.165 62.1657 32 61.5845 32H39.4155C38.8343 32 38.2659 32.165 37.7807 32.4746C37.2955 32.7842 36.9149 33.2248 36.686 33.7417ZM41.0105 35.7895H59.978C60.572 35.789 61.1091 36.1311 61.3435 36.6591L64.7668 44.3935C64.9481 44.8052 64.6364 45.2624 64.1739 45.2632H36.8261C36.3636 45.2624 36.0519 44.8052 36.2332 44.3935L39.6565 36.6591C39.8893 36.1348 40.4207 35.7935 41.0105 35.7895ZM35.8125 50.9474H41.6875C42.23 50.9474 42.6667 51.3699 42.6667 51.8947V53.7895C42.6667 54.3143 42.23 54.7368 41.6875 54.7368H35.8125C35.27 54.7368 34.8333 54.3143 34.8333 53.7895V51.8947C34.8333 51.3699 35.27 50.9474 35.8125 50.9474ZM59.3125 50.9474H65.1875C65.73 50.9474 66.1667 51.3699 66.1667 51.8947V53.7895C66.1667 54.3143 65.73 54.7368 65.1875 54.7368H59.3125C58.77 54.7368 58.3333 54.3143 58.3333 53.7895V51.8947C58.3333 51.3699 58.77 50.9474 59.3125 50.9474Z" fill="white"/>
</svg>
