<svg width="45" height="45" viewBox="0 0 45 45" fill="none" xmlns="http://www.w3.org/2000/svg">
<rect width="45" height="45" rx="22.5" fill="#4E77F7"/>
<g clip-path="url(#clip0_1483_22221)">
<path d="M15.7085 14.6453L14.2147 18.0458C14.0994 18.3075 13.8354 18.477 13.5433 18.4768H11.9091C11.3774 18.4768 10.9463 18.8972 10.9463 19.4157V20.3546C10.9463 20.7103 11.1523 21.0354 11.4785 21.1945L12.4413 21.664C12.705 21.7924 12.8717 22.055 12.872 22.3425V29.7438C12.872 30.7678 13.7475 31.6216 14.7976 31.6216C15.8478 31.6216 16.7233 30.7678 16.7233 29.7438V29.2743C16.7233 29.015 16.9389 28.8048 17.2047 28.8048H27.7959C28.0618 28.8048 28.2774 29.015 28.2774 29.2743V29.7438C28.2774 30.7678 29.1529 31.6216 30.203 31.6216C31.2532 31.6216 32.1287 30.7678 32.1287 29.7438V22.3425C32.129 22.055 32.2957 21.7924 32.5594 21.664L33.5222 21.1945C33.8484 21.0354 34.0544 20.7103 34.0544 20.3546V19.4157C34.0543 18.8972 33.6233 18.4768 33.0915 18.4768H31.4574C31.1653 18.477 30.9012 18.3075 30.786 18.0458L29.2921 14.6453C29.1796 14.3891 28.9925 14.1708 28.7539 14.0174C28.5154 13.864 28.2359 13.7822 27.9501 13.7822H17.0505C16.7648 13.7822 16.4853 13.864 16.2468 14.0174C16.0082 14.1708 15.8211 14.3891 15.7085 14.6453ZM17.8347 15.6601H27.1603C27.4524 15.6598 27.7164 15.8293 27.8317 16.091L29.5148 19.9237C29.6039 20.1277 29.4507 20.3542 29.2233 20.3546H15.7774C15.55 20.3542 15.3968 20.1277 15.4859 19.9237L17.169 16.091C17.2834 15.8312 17.5447 15.662 17.8347 15.6601ZM15.2791 23.1714H18.1676C18.4343 23.1714 18.649 23.3807 18.649 23.6408V24.5797C18.649 24.8398 18.4343 25.0492 18.1676 25.0492H15.2791C15.0124 25.0492 14.7976 24.8398 14.7976 24.5797V23.6408C14.7976 23.3807 15.0124 23.1714 15.2791 23.1714ZM26.8331 23.1714H29.7216C29.9883 23.1714 30.203 23.3807 30.203 23.6408V24.5797C30.203 24.8398 29.9883 25.0492 29.7216 25.0492H26.8331C26.5664 25.0492 26.3517 24.8398 26.3517 24.5797V23.6408C26.3517 23.3807 26.5664 23.1714 26.8331 23.1714Z" fill="white"/>
</g>
<defs>
<clipPath id="clip0_1483_22221">
<rect width="23.1081" height="18.2432" fill="white" transform="translate(10.9463 13.3784)"/>
</clipPath>
</defs>
</svg>
