<svg width="20" height="20" viewBox="0 0 20 20" fill="none" xmlns="http://www.w3.org/2000/svg">
    <g clip-path="url(#clip0_2851_51950)">
        <path d="M5.2 15.6336C5.04 15.6336 4.88 15.5728 4.75834 15.4503C3.30167 13.9945 2.5 12.0595 2.5 10.0003C2.5 7.94115 3.30167 6.00615 4.75834 4.55031C5.0025 4.30615 5.39834 4.30615 5.6425 4.55031C5.88667 4.79448 5.88667 5.19031 5.6425 5.43448C4.42167 6.65365 3.75 8.27531 3.75 10.0003C3.75 11.7253 4.42167 13.347 5.6425 14.5661C5.88667 14.8095 5.88667 15.2062 5.6425 15.4503C5.52 15.5728 5.36 15.6336 5.2 15.6336Z" />
        <path d="M3.43333 17.4014C3.27333 17.4014 3.11333 17.3405 2.99167 17.218C1.0625 15.2889 0 12.7264 0 10.0014C0 7.27635 1.0625 4.71385 2.99167 2.78469C3.23583 2.54052 3.63167 2.54052 3.87583 2.78469C4.12 3.02885 4.12 3.42469 3.87583 3.66885C2.1825 5.36135 1.25 7.61052 1.25 10.0014C1.25 12.3922 2.1825 14.6414 3.875 16.3347C4.11917 16.5789 4.11917 16.9747 3.875 17.2189C3.75333 17.3405 3.59333 17.4014 3.43333 17.4014Z" />
        <path d="M16.5662 17.3991C16.4062 17.3991 16.2462 17.3383 16.1245 17.2158C15.8804 16.9716 15.8804 16.5758 16.1245 16.3316C17.8179 14.6383 18.7495 12.3899 18.7495 9.99828C18.7495 7.60661 17.817 5.35828 16.1245 3.66495C15.8804 3.42078 15.8804 3.02495 16.1245 2.78078C16.3687 2.53661 16.7645 2.53661 17.0087 2.78078C18.937 4.71161 19.9995 7.27412 19.9995 9.99911C19.9995 12.7241 18.937 15.2866 17.0079 17.2158C16.8862 17.3383 16.7262 17.3991 16.5662 17.3991Z" />
        <path d="M14.7995 15.6336C14.6395 15.6336 14.4795 15.5728 14.3578 15.4503C14.1136 15.2062 14.1136 14.8103 14.3578 14.5661C15.5778 13.347 16.2495 11.7253 16.2495 10.0003C16.2495 8.27531 15.5778 6.65365 14.357 5.43448C14.1128 5.19115 14.1128 4.79448 14.357 4.55031C14.6011 4.30615 14.997 4.30615 15.2411 4.55031C16.6978 6.00615 17.4995 7.94115 17.4995 10.0003C17.4995 12.0595 16.6978 13.9945 15.2411 15.4503C15.1195 15.5728 14.9595 15.6336 14.7995 15.6336Z" />
        <path d="M8.18643 16.6656C8.09726 16.6656 8.00643 16.6465 7.92143 16.6065C7.65143 16.4798 7.5081 16.1798 7.57976 15.8898L8.78476 11.0406H6.45893C6.2256 11.0406 6.01143 10.9106 5.90393 10.7031C5.79643 10.4956 5.81393 10.2456 5.94893 10.0548L10.5181 3.59645C10.6848 3.36145 10.9889 3.27062 11.2548 3.37479C11.5223 3.47895 11.6848 3.75145 11.6481 4.03562L11.1273 8.12395H13.5423C13.7781 8.12395 13.9939 8.25645 14.0998 8.46645C14.2064 8.67645 14.1856 8.92895 14.0464 9.11895L8.6906 16.4106C8.56976 16.5756 8.38059 16.6656 8.18643 16.6656Z" />
    </g>
    <defs>
        <clipPath id="clip0_2851_51950">
            <rect width="20" height="20" fill="white"/>
        </clipPath>
    </defs>
</svg>
