<svg width="16" height="16" viewBox="0 0 16 16" fill="none" xmlns="http://www.w3.org/2000/svg">
    <g clip-path="url(#clip0_360_789)">
        <path d="M4.16 12.5054C4.032 12.5054 3.904 12.4567 3.80667 12.3587C2.64133 11.194 2 9.64602 2 7.99869C2 6.35136 2.64133 4.80335 3.80667 3.63869C4.002 3.44335 4.31867 3.44335 4.514 3.63869C4.70934 3.83402 4.70934 4.15069 4.514 4.34602C3.53733 5.32135 3 6.61869 3 7.99869C3 9.37869 3.53733 10.676 4.514 11.6514C4.70934 11.846 4.70934 12.1634 4.514 12.3587C4.416 12.4567 4.288 12.5054 4.16 12.5054Z" />
        <path d="M2.74667 13.9219C2.61867 13.9219 2.49067 13.8732 2.39333 13.7752C0.85 12.2319 0 10.1819 0 8.00186C0 5.82186 0.85 3.77186 2.39333 2.22853C2.58867 2.0332 2.90533 2.0332 3.10067 2.22853C3.296 2.42386 3.296 2.74053 3.10067 2.93586C1.746 4.28986 1 6.0892 1 8.00186C1 9.91453 1.746 11.7139 3.1 13.0685C3.29533 13.2639 3.29533 13.5805 3.1 13.7759C3.00267 13.8732 2.87467 13.9219 2.74667 13.9219Z" />
        <path d="M13.2537 13.9193C13.1257 13.9193 12.9977 13.8706 12.9004 13.7726C12.7051 13.5773 12.7051 13.2606 12.9004 13.0653C14.2551 11.7106 15.0004 9.91196 15.0004 7.99862C15.0004 6.08529 14.2544 4.28662 12.9004 2.93196C12.7051 2.73663 12.7051 2.41996 12.9004 2.22462C13.0957 2.02929 13.4124 2.02929 13.6077 2.22462C15.1504 3.76929 16.0004 5.81929 16.0004 7.99929C16.0004 10.1793 15.1504 12.2293 13.6071 13.7726C13.5097 13.8706 13.3817 13.9193 13.2537 13.9193Z" />
        <path d="M11.8403 12.5054C11.7123 12.5054 11.5843 12.4567 11.487 12.3587C11.2917 12.1634 11.2917 11.8467 11.487 11.6514C12.463 10.676 13.0003 9.37869 13.0003 7.99869C13.0003 6.61869 12.463 5.32135 11.4863 4.34602C11.291 4.15135 11.291 3.83402 11.4863 3.63869C11.6817 3.44335 11.9983 3.44335 12.1937 3.63869C13.359 4.80335 14.0003 6.35136 14.0003 7.99869C14.0003 9.64602 13.359 11.194 12.1937 12.3587C12.0963 12.4567 11.9683 12.5054 11.8403 12.5054Z" />
        <path d="M6.54797 13.3348C6.47664 13.3348 6.40397 13.3195 6.33597 13.2875C6.11997 13.1862 6.0053 12.9462 6.06264 12.7142L7.02664 8.83484H5.16597C4.97931 8.83484 4.80797 8.73084 4.72197 8.56484C4.63597 8.39884 4.64997 8.19884 4.75797 8.04617L8.4133 2.87951C8.54664 2.69151 8.78997 2.61884 9.00264 2.70217C9.21664 2.78551 9.34664 3.00351 9.3173 3.23084L8.90064 6.50151H10.8326C11.0213 6.50151 11.194 6.60751 11.2786 6.77551C11.364 6.94351 11.3473 7.14551 11.236 7.29751L6.9513 13.1308C6.85464 13.2628 6.7033 13.3348 6.54797 13.3348Z" />
    </g>
    <defs>
        <clipPath id="clip0_360_789">
            <rect width="16" height="16" fill="white"/>
        </clipPath>
    </defs>
</svg>
