<svg width="14" height="11" viewBox="0 0 14 11" fill="none" xmlns="http://www.w3.org/2000/svg">
<path d="M11.6185 0.829652L11.6185 0.829671L4.78736 7.80614L2.38155 5.34915C2.38154 5.34915 2.38154 5.34914 2.38153 5.34913C1.9511 4.90952 1.2489 4.90966 0.818527 5.3491L0.81851 5.34912C0.39382 5.78279 0.393846 6.48164 0.818492 6.91531L0.818495 6.91532L4.0058 10.1704C4.00581 10.1704 4.00583 10.1704 4.00585 10.1704C4.4363 10.6101 5.13881 10.6096 5.56889 10.1704L13.1815 2.39589C13.1815 2.39589 13.1815 2.39588 13.1815 2.39587C13.6062 1.96217 13.6061 1.26333 13.1815 0.829688C12.7511 0.390084 12.0489 0.390136 11.6185 0.829652Z" />
</svg>
