<svg width="24" height="24" viewBox="0 0 24 24" xmlns="http://www.w3.org/2000/svg">
    <path d="M5.42302 17.2469C5.05571 17.6142 5.05571 18.2097 5.42302 18.577C5.79033 18.9443 6.38586 18.9443 6.75317 18.577L11.9263 13.4039L17.2468 18.7245C17.6141 19.0918 18.2097 19.0918 18.577 18.7245C18.9443 18.3572 18.9443 17.7617 18.577 17.3944L13.2564 12.0738L18.7245 6.60564C19.0918 6.23833 19.0918 5.6428 18.7245 5.27548C18.3572 4.90817 17.7617 4.90817 17.3944 5.27548L11.9263 10.7436L6.60563 5.42298C6.23832 5.05567 5.64279 5.05567 5.27548 5.42298C4.90817 5.79029 4.90817 6.38582 5.27548 6.75313L10.5961 12.0738L5.42302 17.2469Z" />
</svg>
