<svg width="14" height="14" viewBox="0 0 14 14" fill="none" xmlns="http://www.w3.org/2000/svg">
<path d="M0.423018 12.2469C0.0557078 12.6142 0.0557072 13.2097 0.423018 13.577C0.790329 13.9443 1.38586 13.9443 1.75317 13.577L6.92625 8.40392L12.2468 13.7245C12.6141 14.0918 13.2097 14.0918 13.577 13.7245C13.9443 13.3572 13.9443 12.7617 13.577 12.3944L8.2564 7.07377L13.7245 1.60564C14.0918 1.23833 14.0918 0.642796 13.7245 0.275484C13.3572 -0.0918278 12.7617 -0.091828 12.3944 0.275484L6.92625 5.74361L1.60563 0.422979C1.23832 0.0556674 0.642794 0.0556671 0.275483 0.422979C-0.0918279 0.790291 -0.0918275 1.38582 0.275483 1.75313L5.5961 7.07377L0.423018 12.2469Z" fill="#CBD4EE"/>
</svg>
