<svg width="20" height="20" viewBox="0 0 20 20" xmlns="http://www.w3.org/2000/svg">
<path fill-rule="evenodd" clip-rule="evenodd"
      d="M6.3648 0.0616515C5.95844 0.156539 5.62997 0.324227 5.31452 0.597763C5.07581 0.804832 4.76641 1.20538 4.76641 1.30744C4.76641 1.31898 6.78274 1.33403 9.2471 1.34086C14.1052 1.35428 13.7913 1.34007 14.5313 1.58018C14.9052 1.70149 15.4619 2.02407 15.7929 2.31111C16.2746 2.72887 16.5829 3.19823 16.8183 3.87227C16.8916 4.08213 16.8997 4.67709 16.9117 10.7175L16.9249 17.333H17.3979C18.0152 17.333 18.3134 17.2817 18.732 17.1037C19.3321 16.8485 19.8237 16.2865 19.9493 15.7123C20.0169 15.4032 20.0169 1.92723 19.9493 1.61806C19.8237 1.04386 19.3321 0.481873 18.732 0.226631C18.5432 0.146329 18.2722 0.0619016 18.1299 0.0390236C17.9663 0.0127285 15.8 -0.00160673 12.2437 0.000143501C7.55967 0.00243547 6.57416 0.0127285 6.3648 0.0616515ZM1.74462 2.73029C0.932428 2.91969 0.295377 3.48006 0.0811209 4.19348C-0.0270403 4.55353 -0.0270403 18.1109 0.0811209 18.4709C0.298164 19.1936 0.936512 19.749 1.76528 19.9362C2.01116 19.9917 2.77934 20 7.69748 20C12.6156 20 13.3838 19.9917 13.6297 19.9362C14.4584 19.749 15.0968 19.1936 15.3138 18.4709C15.422 18.1109 15.422 4.55353 15.3138 4.19348C15.0968 3.47085 14.4584 2.91544 13.6297 2.72821C13.2169 2.63499 2.14503 2.6369 1.74462 2.73029Z" />
</svg>
