<svg width="24" height="24" viewBox="0 0 24 24" fill="none" xmlns="http://www.w3.org/2000/svg">
    <path fill-rule="evenodd" clip-rule="evenodd" d="M8.3648 2.06165C7.95844 2.15654 7.62997 2.32423 7.31452 2.59776C7.07581 2.80483 6.76641 3.20538 6.76641 3.30744C6.76641 3.31898 8.78274 3.33403 11.2471 3.34086C16.1052 3.35428 15.7913 3.34007 16.5313 3.58018C16.9052 3.70149 17.4619 4.02407 17.7929 4.31111C18.2746 4.72887 18.5829 5.19823 18.8183 5.87227C18.8916 6.08213 18.8997 6.67709 18.9117 12.7175L18.9249 19.333H19.3979C20.0152 19.333 20.3134 19.2817 20.732 19.1037C21.3321 18.8485 21.8237 18.2865 21.9493 17.7123C22.0169 17.4032 22.0169 3.92723 21.9493 3.61806C21.8237 3.04386 21.3321 2.48187 20.732 2.22663C20.5432 2.14633 20.2722 2.0619 20.1299 2.03902C19.9663 2.01273 17.8 1.99839 14.2437 2.00014C9.55967 2.00244 8.57416 2.01273 8.3648 2.06165ZM3.74462 4.73029C2.93243 4.91969 2.29538 5.48006 2.08112 6.19348C1.97296 6.55353 1.97296 20.1109 2.08112 20.4709C2.29816 21.1936 2.93651 21.749 3.76528 21.9362C4.01116 21.9917 4.77934 22 9.69748 22C14.6156 22 15.3838 21.9917 15.6297 21.9362C16.4584 21.749 17.0968 21.1936 17.3138 20.4709C17.422 20.1109 17.422 6.55353 17.3138 6.19348C17.0968 5.47085 16.4584 4.91544 15.6297 4.72821C15.2169 4.63499 4.14503 4.6369 3.74462 4.73029Z" />
</svg>
