<svg width="15" height="14" viewBox="0 0 15 14" fill="none" xmlns="http://www.w3.org/2000/svg">
<path d="M0.637862 12.2469C0.270552 12.6142 0.270551 13.2097 0.637862 13.577C1.00517 13.9443 1.6007 13.9443 1.96801 13.577L7.1411 8.40392L12.4617 13.7245C12.829 14.0918 13.4245 14.0918 13.7918 13.7245C14.1591 13.3572 14.1591 12.7617 13.7918 12.3944L8.47125 7.07377L13.9394 1.60564C14.3067 1.23833 14.3067 0.642796 13.9394 0.275484C13.5721 -0.0918278 12.9765 -0.091828 12.6092 0.275484L7.1411 5.74361L1.82048 0.422979C1.45317 0.0556674 0.857638 0.0556671 0.490327 0.422979C0.123016 0.790291 0.123016 1.38582 0.490327 1.75313L5.81095 7.07377L0.637862 12.2469Z"/>
</svg>
