<svg viewBox="0 0 50 50" fill="none" xmlns="http://www.w3.org/2000/svg">
<rect width="50" height="50" rx="25" fill="#EDF0FB"/>
<g clip-path="url(#clip0_8964_47150)">
<path d="M24.8476 24.6078C26.2657 24.6078 27.4936 24.0992 28.4969 23.0958C29.5002 22.0924 30.0088 20.8648 30.0088 19.4466C30.0088 18.0288 29.5002 16.801 28.4968 15.7974C27.4933 14.7943 26.2655 14.2856 24.8476 14.2856C23.4293 14.2856 22.2017 14.7943 21.1984 15.7976C20.1951 16.8009 19.6863 18.0287 19.6863 19.4466C19.6863 20.8648 20.1951 22.0926 21.1985 23.0959C22.202 24.0991 23.4298 24.6078 24.8476 24.6078Z" fill="#CBD4EE"/>
<path d="M33.8782 30.7631C33.8493 30.3456 33.7908 29.8901 33.7046 29.4091C33.6176 28.9246 33.5056 28.4665 33.3716 28.0478C33.2331 27.615 33.0448 27.1877 32.812 26.7781C32.5703 26.3531 32.2865 25.9829 31.968 25.6784C31.635 25.3597 31.2273 25.1036 30.7558 24.9167C30.2859 24.7308 29.7652 24.6366 29.2082 24.6366C28.9895 24.6366 28.7779 24.7264 28.3694 24.9924C28.1179 25.1564 27.8238 25.346 27.4955 25.5558C27.2148 25.7346 26.8345 25.9022 26.3648 26.0539C25.9066 26.2022 25.4413 26.2774 24.9821 26.2774C24.5228 26.2774 24.0577 26.2022 23.599 26.0539C23.1298 25.9024 22.7495 25.7348 22.4691 25.5559C22.1439 25.3481 21.8497 25.1585 21.5945 24.9922C21.1864 24.7262 20.9747 24.6365 20.7559 24.6365C20.1988 24.6365 19.6782 24.7308 19.2085 24.9169C18.7374 25.1034 18.3295 25.3596 17.9961 25.6785C17.6778 25.9833 17.3938 26.3532 17.1525 26.7781C16.9199 27.1877 16.7315 27.6149 16.5929 28.0479C16.459 28.4666 16.347 28.9246 16.26 29.4091C16.1739 29.8895 16.1153 30.3451 16.0864 30.7636C16.058 31.1736 16.0436 31.5992 16.0436 32.029C16.0436 33.1476 16.3992 34.0531 17.1004 34.721C17.7929 35.38 18.7092 35.7143 19.8236 35.7143H30.1416C31.2559 35.7143 32.1719 35.3802 32.8646 34.721C33.566 34.0536 33.9215 33.1479 33.9215 32.0288C33.9214 31.5971 33.9068 31.1712 33.8782 30.7631Z" fill="#CBD4EE"/>
</g>
<defs>
<clipPath id="clip0_8964_47150">
<rect width="21.4286" height="21.4286" fill="white" transform="translate(14.2858 14.2856)"/>
</clipPath>
</defs>
</svg>
