<svg viewBox="0 0 35 35" fill="none" xmlns="http://www.w3.org/2000/svg">
    <circle cx="17.5" cy="17.5" r="17.5" fill="#4E77F7"/>
    <path d="M17.787 24.2134C16.7029 24.2134 15.7304 24.0221 14.8696 23.6395C14.0087 23.241 13.3232 22.7069 12.813 22.0373C12.3188 21.3678 12.0478 20.6265 12 19.8134H15.3717C15.4355 20.3236 15.6826 20.746 16.113 21.0808C16.5594 21.4156 17.1094 21.583 17.763 21.583C18.4007 21.583 18.8949 21.4554 19.2457 21.2004C19.6123 20.9453 19.7957 20.6185 19.7957 20.2199C19.7957 19.7895 19.5725 19.4707 19.1261 19.2634C18.6957 19.0402 18.0022 18.8011 17.0457 18.546C16.0572 18.3069 15.2442 18.0598 14.6065 17.8047C13.9848 17.5496 13.4428 17.1591 12.9804 16.633C12.5341 16.1069 12.3109 15.3975 12.3109 14.5047C12.3109 13.7714 12.5181 13.1018 12.9326 12.496C13.363 11.8902 13.9688 11.412 14.75 11.0612C15.5471 10.7105 16.4797 10.5352 17.5478 10.5352C19.1261 10.5352 20.3855 10.9337 21.3261 11.7308C22.2667 12.512 22.7848 13.5721 22.8804 14.9112H19.6761C19.6283 14.3852 19.4051 13.9707 19.0065 13.6678C18.6239 13.3489 18.1058 13.1895 17.4522 13.1895C16.8464 13.1895 16.3761 13.3011 16.0413 13.5243C15.7225 13.7475 15.563 14.0583 15.563 14.4569C15.563 14.9033 15.7862 15.246 16.2326 15.4852C16.679 15.7083 17.3725 15.9395 18.313 16.1786C19.2696 16.4178 20.0587 16.6649 20.6804 16.9199C21.3022 17.175 21.8362 17.5736 22.2826 18.1156C22.7449 18.6417 22.9841 19.3431 23 20.2199C23 20.9852 22.7848 21.6707 22.3543 22.2765C21.9399 22.8823 21.3341 23.3605 20.537 23.7112C19.7558 24.046 18.8391 24.2134 17.787 24.2134Z" fill="#F3F94E"/>
</svg>
