<svg width="300" height="356" viewBox="0 0 300 356" fill="none" xmlns="http://www.w3.org/2000/svg">
<path d="M37.016 329.248V346H33.656V329.248H37.016ZM47.7037 332.512C49.2877 332.512 50.5677 333.016 51.5437 334.024C52.5197 335.016 53.0077 336.408 53.0077 338.2V346H49.6477V338.656C49.6477 337.6 49.3837 336.792 48.8557 336.232C48.3277 335.656 47.6077 335.368 46.6957 335.368C45.7677 335.368 45.0317 335.656 44.4877 336.232C43.9597 336.792 43.6957 337.6 43.6957 338.656V346H40.3357V332.704H43.6957V334.36C44.1437 333.784 44.7117 333.336 45.3997 333.016C46.1037 332.68 46.8717 332.512 47.7037 332.512ZM61.7469 342.904L65.1069 332.704H68.6829L63.7629 346H59.6829L54.7869 332.704H58.3869L61.7469 342.904ZM72.2741 331.12C71.6821 331.12 71.1861 330.936 70.7861 330.568C70.4021 330.184 70.2101 329.712 70.2101 329.152C70.2101 328.592 70.4021 328.128 70.7861 327.76C71.1861 327.376 71.6821 327.184 72.2741 327.184C72.8661 327.184 73.3541 327.376 73.7381 327.76C74.1381 328.128 74.3381 328.592 74.3381 329.152C74.3381 329.712 74.1381 330.184 73.7381 330.568C73.3541 330.936 72.8661 331.12 72.2741 331.12ZM73.9301 332.704V346H70.5701V332.704H73.9301ZM81.1618 335.464V341.896C81.1618 342.344 81.2658 342.672 81.4738 342.88C81.6978 343.072 82.0658 343.168 82.5778 343.168H84.1378V346H82.0258C79.1938 346 77.7778 344.624 77.7778 341.872V335.464H76.1938V332.704H77.7778V329.416H81.1618V332.704H84.1378V335.464H81.1618ZM85.6904 339.304C85.6904 337.96 85.9544 336.768 86.4824 335.728C87.0264 334.688 87.7544 333.888 88.6664 333.328C89.5944 332.768 90.6264 332.488 91.7624 332.488C92.7544 332.488 93.6184 332.688 94.3544 333.088C95.1064 333.488 95.7064 333.992 96.1544 334.6V332.704H99.5384V346H96.1544V344.056C95.7224 344.68 95.1224 345.2 94.3544 345.616C93.6024 346.016 92.7304 346.216 91.7384 346.216C90.6184 346.216 89.5944 345.928 88.6664 345.352C87.7544 344.776 87.0264 343.968 86.4824 342.928C85.9544 341.872 85.6904 340.664 85.6904 339.304ZM96.1544 339.352C96.1544 338.536 95.9944 337.84 95.6744 337.264C95.3544 336.672 94.9224 336.224 94.3784 335.92C93.8344 335.6 93.2504 335.44 92.6264 335.44C92.0024 335.44 91.4264 335.592 90.8984 335.896C90.3704 336.2 89.9384 336.648 89.6024 337.24C89.2824 337.816 89.1224 338.504 89.1224 339.304C89.1224 340.104 89.2824 340.808 89.6024 341.416C89.9384 342.008 90.3704 342.464 90.8984 342.784C91.4424 343.104 92.0184 343.264 92.6264 343.264C93.2504 343.264 93.8344 343.112 94.3784 342.808C94.9224 342.488 95.3544 342.04 95.6744 341.464C95.9944 340.872 96.1544 340.168 96.1544 339.352ZM106.732 335.464V341.896C106.732 342.344 106.836 342.672 107.044 342.88C107.268 343.072 107.636 343.168 108.148 343.168H109.708V346H107.596C104.764 346 103.348 344.624 103.348 341.872V335.464H101.764V332.704H103.348V329.416H106.732V332.704H109.708V335.464H106.732ZM113.829 331.12C113.237 331.12 112.741 330.936 112.341 330.568C111.957 330.184 111.765 329.712 111.765 329.152C111.765 328.592 111.957 328.128 112.341 327.76C112.741 327.376 113.237 327.184 113.829 327.184C114.421 327.184 114.909 327.376 115.293 327.76C115.693 328.128 115.893 328.592 115.893 329.152C115.893 329.712 115.693 330.184 115.293 330.568C114.909 330.936 114.421 331.12 113.829 331.12ZM115.485 332.704V346H112.125V332.704H115.485ZM124.708 346.216C123.428 346.216 122.276 345.936 121.252 345.376C120.228 344.8 119.42 343.992 118.828 342.952C118.252 341.912 117.964 340.712 117.964 339.352C117.964 337.992 118.26 336.792 118.852 335.752C119.46 334.712 120.284 333.912 121.324 333.352C122.364 332.776 123.524 332.488 124.804 332.488C126.084 332.488 127.244 332.776 128.284 333.352C129.324 333.912 130.14 334.712 130.732 335.752C131.34 336.792 131.644 337.992 131.644 339.352C131.644 340.712 131.332 341.912 130.708 342.952C130.1 343.992 129.268 344.8 128.212 345.376C127.172 345.936 126.004 346.216 124.708 346.216ZM124.708 343.288C125.316 343.288 125.884 343.144 126.412 342.856C126.956 342.552 127.388 342.104 127.708 341.512C128.028 340.92 128.188 340.2 128.188 339.352C128.188 338.088 127.852 337.12 127.18 336.448C126.524 335.76 125.716 335.416 124.756 335.416C123.796 335.416 122.988 335.76 122.332 336.448C121.692 337.12 121.372 338.088 121.372 339.352C121.372 340.616 121.684 341.592 122.308 342.28C122.948 342.952 123.748 343.288 124.708 343.288ZM141.477 332.512C143.061 332.512 144.341 333.016 145.317 334.024C146.293 335.016 146.781 336.408 146.781 338.2V346H143.421V338.656C143.421 337.6 143.157 336.792 142.629 336.232C142.101 335.656 141.381 335.368 140.469 335.368C139.541 335.368 138.805 335.656 138.261 336.232C137.733 336.792 137.469 337.6 137.469 338.656V346H134.109V332.704H137.469V334.36C137.917 333.784 138.485 333.336 139.173 333.016C139.877 332.68 140.645 332.512 141.477 332.512ZM159.055 329.248V346H155.695V329.248H159.055ZM167.463 346.216C166.375 346.216 165.399 346.024 164.535 345.64C163.671 345.24 162.983 344.704 162.471 344.032C161.975 343.36 161.703 342.616 161.655 341.8H165.039C165.103 342.312 165.351 342.736 165.783 343.072C166.231 343.408 166.783 343.576 167.439 343.576C168.079 343.576 168.575 343.448 168.927 343.192C169.295 342.936 169.479 342.608 169.479 342.208C169.479 341.776 169.255 341.456 168.807 341.248C168.375 341.024 167.679 340.784 166.719 340.528C165.727 340.288 164.911 340.04 164.271 339.784C163.647 339.528 163.103 339.136 162.639 338.608C162.191 338.08 161.967 337.368 161.967 336.472C161.967 335.736 162.175 335.064 162.591 334.456C163.023 333.848 163.631 333.368 164.415 333.016C165.215 332.664 166.151 332.488 167.223 332.488C168.807 332.488 170.071 332.888 171.015 333.688C171.959 334.472 172.479 335.536 172.575 336.88H169.359C169.311 336.352 169.087 335.936 168.687 335.632C168.303 335.312 167.783 335.152 167.127 335.152C166.519 335.152 166.047 335.264 165.711 335.488C165.391 335.712 165.231 336.024 165.231 336.424C165.231 336.872 165.455 337.216 165.903 337.456C166.351 337.68 167.047 337.912 167.991 338.152C168.951 338.392 169.743 338.64 170.367 338.896C170.991 339.152 171.527 339.552 171.975 340.096C172.439 340.624 172.679 341.328 172.695 342.208C172.695 342.976 172.479 343.664 172.047 344.272C171.631 344.88 171.023 345.36 170.223 345.712C169.439 346.048 168.519 346.216 167.463 346.216ZM184.532 331.96V336.16H190.172V338.824H184.532V343.264H190.892V346H181.172V329.224H190.892V331.96H184.532ZM201.289 346L198.553 341.872L196.129 346H192.529L196.873 339.328L192.481 332.704H196.273L198.985 336.808L201.433 332.704H205.033L200.665 339.328L205.081 346H201.289ZM210.266 334.624C210.698 334.016 211.29 333.512 212.042 333.112C212.81 332.696 213.682 332.488 214.658 332.488C215.794 332.488 216.818 332.768 217.73 333.328C218.658 333.888 219.386 334.688 219.914 335.728C220.458 336.752 220.73 337.944 220.73 339.304C220.73 340.664 220.458 341.872 219.914 342.928C219.386 343.968 218.658 344.776 217.73 345.352C216.818 345.928 215.794 346.216 214.658 346.216C213.682 346.216 212.818 346.016 212.066 345.616C211.33 345.216 210.73 344.712 210.266 344.104V352.336H206.906V332.704H210.266V334.624ZM217.298 339.304C217.298 338.504 217.13 337.816 216.794 337.24C216.474 336.648 216.042 336.2 215.498 335.896C214.97 335.592 214.394 335.44 213.77 335.44C213.162 335.44 212.586 335.6 212.042 335.92C211.514 336.224 211.082 336.672 210.746 337.264C210.426 337.856 210.266 338.552 210.266 339.352C210.266 340.152 210.426 340.848 210.746 341.44C211.082 342.032 211.514 342.488 212.042 342.808C212.586 343.112 213.162 343.264 213.77 343.264C214.394 343.264 214.97 343.104 215.498 342.784C216.042 342.464 216.474 342.008 216.794 341.416C217.13 340.824 217.298 340.12 217.298 339.304ZM224.876 331.12C224.284 331.12 223.788 330.936 223.388 330.568C223.004 330.184 222.812 329.712 222.812 329.152C222.812 328.592 223.004 328.128 223.388 327.76C223.788 327.376 224.284 327.184 224.876 327.184C225.468 327.184 225.956 327.376 226.34 327.76C226.74 328.128 226.94 328.592 226.94 329.152C226.94 329.712 226.74 330.184 226.34 330.568C225.956 330.936 225.468 331.12 224.876 331.12ZM226.532 332.704V346H223.172V332.704H226.532ZM233.211 334.768C233.643 334.064 234.203 333.512 234.891 333.112C235.595 332.712 236.395 332.512 237.291 332.512V336.04H236.403C235.347 336.04 234.547 336.288 234.003 336.784C233.475 337.28 233.211 338.144 233.211 339.376V346H229.851V332.704H233.211V334.768ZM251.914 339.064C251.914 339.544 251.882 339.976 251.818 340.36H242.098C242.178 341.32 242.514 342.072 243.106 342.616C243.698 343.16 244.426 343.432 245.29 343.432C246.538 343.432 247.426 342.896 247.954 341.824H251.578C251.194 343.104 250.458 344.16 249.37 344.992C248.282 345.808 246.946 346.216 245.362 346.216C244.082 346.216 242.93 345.936 241.906 345.376C240.898 344.8 240.106 343.992 239.53 342.952C238.97 341.912 238.69 340.712 238.69 339.352C238.69 337.976 238.97 336.768 239.53 335.728C240.09 334.688 240.874 333.888 241.882 333.328C242.89 332.768 244.05 332.488 245.362 332.488C246.626 332.488 247.754 332.76 248.746 333.304C249.754 333.848 250.53 334.624 251.074 335.632C251.634 336.624 251.914 337.768 251.914 339.064ZM248.434 338.104C248.418 337.24 248.106 336.552 247.498 336.04C246.89 335.512 246.146 335.248 245.266 335.248C244.434 335.248 243.73 335.504 243.154 336.016C242.594 336.512 242.25 337.208 242.122 338.104H248.434ZM253.503 339.304C253.503 337.96 253.767 336.768 254.295 335.728C254.839 334.688 255.575 333.888 256.503 333.328C257.431 332.768 258.463 332.488 259.599 332.488C260.463 332.488 261.287 332.68 262.071 333.064C262.855 333.432 263.479 333.928 263.943 334.552V328.24H267.351V346H263.943V344.032C263.527 344.688 262.943 345.216 262.191 345.616C261.439 346.016 260.567 346.216 259.575 346.216C258.455 346.216 257.431 345.928 256.503 345.352C255.575 344.776 254.839 343.968 254.295 342.928C253.767 341.872 253.503 340.664 253.503 339.304ZM263.967 339.352C263.967 338.536 263.807 337.84 263.487 337.264C263.167 336.672 262.735 336.224 262.191 335.92C261.647 335.6 261.063 335.44 260.439 335.44C259.815 335.44 259.239 335.592 258.711 335.896C258.183 336.2 257.751 336.648 257.415 337.24C257.095 337.816 256.935 338.504 256.935 339.304C256.935 340.104 257.095 340.808 257.415 341.416C257.751 342.008 258.183 342.464 258.711 342.784C259.255 343.104 259.831 343.264 260.439 343.264C261.063 343.264 261.647 343.112 262.191 342.808C262.735 342.488 263.167 342.04 263.487 341.464C263.807 340.872 263.967 340.168 263.967 339.352Z" fill="#2A2B2E"/>
<path d="M138.366 269.748H81.366C80.898 267.912 80.442 266.106 79.986 264.348C79.462 262.308 78.954 260.308 78.462 258.348C78.354 257.916 78.24 257.478 78.132 257.052C77.754 255.564 77.388 254.112 77.028 252.708C76.812 251.844 76.59 251.004 76.386 250.164C76.182 249.324 75.948 248.472 75.738 247.656L75.6 247.02C75.54 246.78 75.48 246.552 75.426 246.318C75.372 246.084 75.282 245.76 75.21 245.478C75.126 245.184 75.054 244.878 74.982 244.608C74.838 244.056 74.7 243.516 74.574 242.988C74.37 242.208 74.178 241.446 73.974 240.702C73.896 240.372 73.812 240.048 73.728 239.73C73.59 239.214 73.464 238.704 73.338 238.206C73.254 237.876 73.176 237.552 73.092 237.234C72.756 235.926 72.444 234.698 72.156 233.55C72.078 233.244 72.006 232.95 71.922 232.662C71.802 232.162 71.682 231.682 71.562 231.222C71.484 230.934 71.412 230.622 71.346 230.382C71.094 229.398 70.86 228.504 70.668 227.712C70.608 227.502 70.56 227.304 70.512 227.112C70.38 226.596 70.254 226.134 70.158 225.72C70.11 225.552 70.074 225.396 70.032 225.252L69.918 224.796C69.918 224.694 69.864 224.592 69.846 224.508C69.828 224.424 69.774 224.232 69.744 224.118C69.714 224.004 69.744 223.992 69.702 223.944C69.612 223.602 69.57 223.428 69.57 223.428H125.04C125.04 223.428 126.84 229.728 129.792 239.88C130.392 241.95 131.028 244.182 131.718 246.546C133.656 253.296 135.924 261.198 138.366 269.748Z" fill="#37474F"/>
<path d="M90.708 269.748H89.286C87.182 261.02 85.138 252.274 83.154 243.51C82.682 241.378 82.21 239.246 81.738 237.114L81.612 236.514C81.6085 236.493 81.6129 236.472 81.6244 236.454C81.6358 236.437 81.6534 236.424 81.6738 236.419C81.6941 236.413 81.7157 236.416 81.7342 236.426C81.7528 236.436 81.767 236.452 81.774 236.472C81.774 236.532 81.81 236.598 81.834 236.664C82.478 238.956 83.116 241.25 83.748 243.546C86.156 252.258 88.476 260.992 90.708 269.748Z" fill="#263238"/>
<path d="M123.246 223.41L120.798 235.668L118.8 245.724L115.386 262.854L115.02 264.6L114.42 267.528L113.982 269.742H81.372C80.91 267.9 80.448 266.094 79.998 264.342C79.474 262.302 78.966 260.302 78.474 258.342C78.366 257.91 78.252 257.472 78.144 257.046C77.766 255.558 77.4 254.106 77.04 252.702C76.824 251.838 76.602 250.998 76.398 250.158C76.194 249.318 75.96 248.466 75.75 247.65L75.6 247.02C75.54 246.78 75.48 246.552 75.426 246.318C75.372 246.084 75.282 245.76 75.21 245.478C75.126 245.184 75.054 244.878 74.982 244.608C74.838 244.056 74.7 243.516 74.574 242.988C74.37 242.208 74.178 241.446 73.974 240.702C73.89 240.366 73.812 240.048 73.728 239.73C73.59 239.214 73.464 238.704 73.338 238.206C73.254 237.876 73.176 237.552 73.092 237.234C72.756 235.926 72.444 234.698 72.156 233.55C72.078 233.244 72.006 232.95 71.922 232.662C71.802 232.162 71.682 231.682 71.562 231.222C71.484 230.934 71.412 230.622 71.346 230.382C71.094 229.398 70.86 228.504 70.668 227.712C70.608 227.502 70.56 227.304 70.512 227.112C70.38 226.596 70.254 226.134 70.158 225.72C70.11 225.552 70.074 225.396 70.032 225.252L69.918 224.796C69.918 224.694 69.864 224.592 69.846 224.508C69.828 224.424 69.774 224.232 69.744 224.118C69.714 224.004 69.744 223.992 69.702 223.944C69.612 223.602 69.57 223.428 69.57 223.428L123.246 223.41Z" fill="#263238"/>
<path d="M123.252 223.392C123.252 223.698 123.018 226.992 122.484 232.056C122.334 233.526 122.154 235.146 121.944 236.856C121.62 239.592 121.212 242.61 120.714 245.802C119.862 251.37 118.752 257.442 117.306 263.382C116.796 265.518 116.232 267.636 115.632 269.706H44.028C44.868 258.798 45.642 248.928 46.26 241.146C47.118 230.202 47.664 223.344 47.664 223.344H112.62L123.252 223.392Z" fill="#37474F"/>
<path d="M123.102 229.968C123.018 232.536 122.91 235.092 122.748 237.642C122.574 240.408 122.322 243.162 121.956 245.922C121.95 246.025 121.938 246.127 121.92 246.228C121.584 248.816 121.198 251.394 120.762 253.962C120.348 256.362 120.042 258.942 118.962 261.162C118.558 262.02 117.987 262.789 117.282 263.424C116.64 264.019 115.851 264.433 114.996 264.624C114.856 264.66 114.714 264.684 114.57 264.696H114.444C114.472 264.711 114.494 264.733 114.508 264.761C114.522 264.789 114.527 264.821 114.522 264.852C114.522 265.71 114.522 266.586 114.426 267.438C114.423 267.474 114.423 267.51 114.426 267.546C114.342 268.29 114.204 269.022 114.066 269.76H112.836C112.836 269.76 112.836 269.73 112.836 269.718C113.052 268.908 113.232 268.092 113.436 267.276C113.64 266.46 113.928 265.632 114.12 264.786C114.129 264.753 114.151 264.725 114.18 264.708C113.4 264.745 112.627 264.542 111.965 264.127C111.303 263.712 110.784 263.104 110.478 262.386C110.07 261.288 110.256 260.148 110.424 259.02C110.646 257.556 110.862 256.092 111.09 254.622C111.504 251.928 112.05 249.264 112.524 246.588L112.74 245.388C113.7 239.934 114.708 234.486 115.914 229.08C115.956 228.858 116.004 228.636 116.058 228.408C116.112 228.18 116.328 228.3 116.316 228.444C116.28 228.81 116.244 229.176 116.202 229.536C115.99 231.612 115.742 233.678 115.458 235.734C115.11 238.134 114.858 240.588 114.534 243.006C114.414 243.828 114.3 244.65 114.18 245.478C113.622 249.456 113.046 253.434 112.38 257.4C112.062 259.242 110.91 262.542 113.58 263.112C114.188 263.246 114.823 263.167 115.38 262.89C116.549 262.183 117.422 261.077 117.84 259.776C118.59 257.664 118.86 255.342 119.25 253.176C119.682 250.746 120.066 248.322 120.402 245.886C120.84 242.844 121.284 239.814 121.764 236.778C121.998 235.236 122.244 233.688 122.49 232.146C122.61 231.426 122.724 230.712 122.838 229.998C122.862 229.8 123.102 229.8 123.102 229.968Z" fill="#263238"/>
<path d="M59.736 249C62.7184 248.967 65.6851 248.564 68.568 247.8C69.9 247.458 71.214 247.032 72.522 246.6C73.8134 246.236 75.0218 245.625 76.08 244.8C78.09 243.066 79.026 240.336 79.896 237.918C80.8474 235.198 81.6171 232.418 82.2 229.596C82.2 229.458 82.434 229.506 82.44 229.638C82.51 232.842 82.1056 236.038 81.24 239.124C80.52 241.74 79.548 244.662 77.436 246.498C75.21 248.424 72.186 249.108 69.336 249.456C66.1438 249.827 62.9169 249.782 59.736 249.324C59.6931 249.324 59.6519 249.307 59.6215 249.276C59.5911 249.246 59.574 249.205 59.574 249.162C59.574 249.119 59.5911 249.078 59.6215 249.047C59.6519 249.017 59.6931 249 59.736 249Z" fill="#263238"/>
<path d="M54.774 229.68C54.612 233.688 54.45 237.702 54.264 241.716C53.864 251.06 53.414 260.404 52.914 269.748H51.6C52.22 260.384 52.868 251.024 53.544 241.668C53.844 237.666 54.144 233.676 54.456 229.668C54.4708 229.638 54.494 229.612 54.523 229.595C54.5519 229.578 54.5852 229.569 54.6189 229.57C54.6526 229.572 54.6851 229.583 54.7127 229.602C54.7402 229.622 54.7615 229.649 54.774 229.68Z" fill="#263238"/>
<path d="M103.83 139.494C119.148 141.39 167.91 147.894 177.63 163.446C184.71 174.75 176.922 184.728 166.578 182.646C158.04 180.942 115.266 161.532 104.574 154.17C94.416 147.18 88.8 137.628 103.83 139.494Z" fill="#D3766A"/>
<path d="M131.202 172.56L152.748 142.2C152.748 142.2 112.182 136.698 99.798 138.45C85.854 140.418 89.91 147.114 100.536 155.25C111.162 163.386 131.202 172.56 131.202 172.56Z" fill="#4E77F7"/>
<path d="M144.33 142.65C143.418 143.586 136.53 152.94 135.108 155.004C133.686 157.068 127.662 165.456 126.348 167.712C126.333 167.731 126.326 167.755 126.329 167.78C126.332 167.804 126.344 167.826 126.363 167.841C126.382 167.856 126.406 167.863 126.431 167.86C126.455 167.857 126.477 167.845 126.492 167.826C128.202 165.864 134.292 157.422 135.792 155.352C137.292 153.282 143.898 143.874 144.474 142.752C144.528 142.638 144.39 142.584 144.33 142.65Z" fill="#263238"/>
<path opacity="0.1" d="M136.614 164.934L131.214 172.56C131.214 172.56 111.168 163.392 100.548 155.256C91.398 148.248 87.12 142.308 95.016 139.542L136.614 164.934Z" fill="black"/>
<path d="M137.298 248.16L42.498 253.404C42.498 253.404 50.616 174.942 85.314 141.804C89.598 137.712 99.636 138.234 106.314 141.234C108.714 142.302 117.492 153.696 120.294 164.67C123.096 175.644 137.55 247.8 137.298 248.16Z" fill="#4E77F7"/>
<path opacity="0.1" d="M103.458 140.202L86.058 141.198C86.4013 140.946 86.7622 140.72 87.138 140.52L101.586 139.686C102.216 139.836 102.846 140.01 103.458 140.202ZM108.132 142.812L82.872 144.264C82.662 144.48 82.458 144.696 82.272 144.918L108.672 143.4C108.492 143.19 108.312 142.992 108.132 142.8V142.812ZM110.922 146.154L79.584 147.954C79.398 148.17 79.224 148.386 79.044 148.602L111.36 146.748L110.922 146.154ZM113.256 149.514L76.686 151.62C76.518 151.83 76.362 152.046 76.206 152.262L113.64 150.114C113.514 149.91 113.4 149.712 113.256 149.514ZM115.308 152.898L74.076 155.268L73.644 155.91L115.644 153.51L115.308 152.898ZM117.108 156.294L71.724 158.898L71.328 159.546L117.396 156.894L117.108 156.294ZM118.62 159.708L69.552 162.528C69.426 162.738 69.3 162.954 69.18 163.17L118.854 160.314C118.764 160.11 118.68 159.912 118.602 159.708H118.62ZM119.82 163.134L67.542 166.134L67.2 166.8L120 163.764C119.934 163.542 119.874 163.338 119.802 163.134H119.82ZM120.72 166.584L65.67 169.746L65.352 170.382L120.864 167.196C120.798 166.986 120.75 166.8 120.702 166.584H120.72ZM121.5 170.04L63.93 173.346L63.6 174L121.608 170.664C121.572 170.442 121.53 170.238 121.482 170.04H121.5ZM122.262 173.49L62.28 176.94C62.184 177.15 62.094 177.366 61.998 177.576L122.4 174.102C122.328 173.892 122.286 173.688 122.244 173.49H122.262ZM123.006 176.952L60.762 180.552C60.678 180.762 60.588 180.978 60.498 181.188L123.132 177.588L123.006 176.952ZM123.738 180.408L59.298 184.11C59.22 184.32 59.136 184.536 59.052 184.746L123.852 181.02C123.804 180.816 123.762 180.6 123.72 180.408H123.738ZM124.464 183.864L57.936 187.686L57.702 188.322L124.578 184.476C124.53 184.272 124.488 184.068 124.446 183.864H124.464ZM125.19 187.326L56.646 191.262L56.4 191.892L125.274 187.938L125.19 187.326ZM125.91 190.782L55.422 194.826C55.356 195.042 55.284 195.252 55.212 195.462L126 191.4L125.91 190.782ZM126.618 194.238L54.264 198.396C54.198 198.612 54.132 198.822 54.072 199.032L126.732 194.832C126.69 194.646 126.648 194.442 126.6 194.238H126.618ZM127.332 197.694L53.172 201.96C53.106 202.17 53.04 202.38 52.98 202.56L127.44 198.282L127.332 197.694ZM128.046 201.156L52.146 205.518C52.082 205.73 52.022 205.94 51.966 206.148L128.166 201.768L128.046 201.156ZM128.748 204.618L51.132 209.076C51.078 209.286 51.018 209.496 50.964 209.706L128.856 205.23L128.748 204.618ZM129.456 208.074L50.196 212.628C50.136 212.84 50.082 213.05 50.034 213.258L129.558 208.686C129.522 208.482 129.48 208.278 129.438 208.074H129.456ZM130.158 211.53L49.296 216.18C49.248 216.39 49.194 216.6 49.14 216.81L130.26 212.148C130.2 211.944 130.2 211.734 130.14 211.53H130.158ZM130.86 214.992L48.45 219.726C48.402 219.936 48.348 220.146 48.3 220.356L130.962 215.604C130.92 215.4 130.878 215.196 130.842 214.992H130.86ZM131.556 218.448L47.664 223.248C47.616 223.458 47.568 223.668 47.526 223.878L131.676 219.036C131.616 218.856 131.574 218.652 131.538 218.448H131.556ZM132.252 221.91L46.884 226.8C46.836 227.01 46.794 227.22 46.746 227.4L132.354 222.48C132.312 222.318 132.27 222.114 132.234 221.91H132.252ZM132.942 225.372L46.176 230.352C46.134 230.562 46.092 230.772 46.056 230.982L133.056 225.984C133.008 225.78 132.966 225.6 132.924 225.372H132.942ZM133.632 228.828L45.492 233.898C45.456 234.108 45.414 234.318 45.378 234.498L133.752 229.416C133.692 229.236 133.656 229.032 133.614 228.828H133.632ZM134.322 232.284L44.832 237.432L44.724 238.032L134.4 232.902C134.4 232.698 134.34 232.494 134.304 232.284H134.322ZM135 235.752L44.238 240.966L44.13 241.566L135.102 236.34C135.066 236.16 135 235.956 135 235.752ZM135.678 239.208L43.674 244.5C43.644 244.71 43.608 244.92 43.578 245.1L135.78 239.802C135.738 239.622 135.702 239.4 135.66 239.208H135.678ZM136.344 242.67L43.158 248.028C43.128 248.244 43.098 248.454 43.068 248.628L136.446 243.258C136.404 243.084 136.368 242.88 136.326 242.67H136.344ZM136.998 246.132L42.714 251.532C42.714 251.76 42.66 251.97 42.636 252.132L137.106 246.702C137.058 246.546 137.016 246.356 136.98 246.132H136.998Z" fill="black"/>
<path d="M79.2 147.27C69.66 159.42 27.048 211.56 33.666 236.148C37.134 249.024 58.956 240 64.866 231.24C69.714 224.004 86.646 170.994 89.034 158.232C91.272 146.088 88.536 135.336 79.2 147.27Z" fill="#D3766A"/>
<path d="M83.1 190.02L46.416 183.702C46.416 183.702 71.292 151.188 81.306 143.694C92.58 135.258 94.428 142.866 92.634 156.126C90.84 169.386 83.1 190.02 83.1 190.02Z" fill="#4E77F7"/>
<path d="M52.698 178.074C54 178.074 65.46 179.874 67.944 180.33C70.428 180.786 80.598 182.49 83.124 183.162C83.1479 183.162 83.1708 183.171 83.1877 183.188C83.2045 183.205 83.214 183.228 83.214 183.252C83.214 183.276 83.2045 183.299 83.1877 183.316C83.1708 183.332 83.1479 183.342 83.124 183.342C80.526 183.156 70.272 181.458 67.728 181.062C65.184 180.666 53.892 178.662 52.68 178.242C52.554 178.2 52.608 178.074 52.698 178.074Z" fill="#263238"/>
<path d="M80.052 189.498C81.084 189.588 82.104 189.72 83.13 189.834L82.92 189.96C83.58 187.696 84.262 185.444 84.966 183.204C85.67 180.964 86.38 178.724 87.096 176.484L89.256 169.77C89.976 167.532 90.708 165.3 91.35 163.032C90.9913 165.365 90.5026 167.677 89.886 169.956C89.29 172.236 88.64 174.5 87.936 176.748C87.232 178.996 86.496 181.232 85.728 183.456C84.96 185.684 84.142 187.884 83.274 190.056L83.214 190.218L83.064 190.182C82.062 189.972 81.054 189.756 80.052 189.498Z" fill="#263238"/>
<path d="M89.244 171.342C89.6169 170.377 90.0643 169.442 90.582 168.546C91.086 167.652 91.602 166.782 92.208 165.918C92.01 166.948 91.6366 167.936 91.104 168.84C90.6051 169.758 89.9789 170.6 89.244 171.342Z" fill="#263238"/>
<path d="M107.652 155.004C102.654 156.504 93.486 149.28 89.652 143.208C89.394 142.794 89.778 138.216 89.988 132.636C90.102 129.246 90.144 125.472 89.94 122.022C89.892 121.314 111.882 125.976 111.882 125.976C111.882 125.976 110.19 133.332 110.586 139.344C110.618 139.818 110.696 140.289 110.82 140.748C110.839 140.825 110.853 140.903 110.862 140.982C111.486 143.64 112.476 153.546 107.652 155.004Z" fill="#D3766A"/>
<path d="M108.672 141.228C109.416 141.207 110.156 141.125 110.886 140.982C110.886 140.886 110.85 140.814 110.838 140.748C110.719 140.286 110.643 139.814 110.61 139.338C110.214 133.338 111.9 125.982 111.9 125.982C111.9 125.982 94.056 122.196 90.552 121.956C91.458 125.904 95.904 141.714 108.672 141.228Z" fill="#263238"/>
<path d="M85.356 96.048C83.43 103.848 88.686 125.784 94.41 130.428C102.708 137.16 115.692 137.136 121.26 127.302C126.66 117.762 119.304 89.298 112.968 85.14C103.632 79.014 88.2 84.528 85.356 96.048Z" fill="#D3766A"/>
<path d="M105.18 109.53C105.18 109.476 105.084 109.626 105.102 109.686C105.534 111.144 105.78 112.884 104.58 113.724C104.544 113.724 104.58 113.82 104.58 113.802C106.2 113.148 105.822 110.838 105.18 109.53Z" fill="#263238"/>
<path d="M103.464 108.336C101.064 108.774 102.108 113.568 104.346 113.136C106.584 112.704 105.486 108 103.464 108.336Z" fill="#263238"/>
<path d="M114.342 107.046C114.342 106.986 114.474 107.094 114.486 107.154C114.762 108.648 115.338 110.31 116.79 110.508C116.832 110.508 116.844 110.586 116.79 110.592C115.104 110.724 114.366 108.504 114.342 107.046Z" fill="#263238"/>
<path d="M115.326 105.204C117.672 104.496 118.926 109.242 116.742 109.896C114.558 110.55 113.358 105.798 115.326 105.204Z" fill="#263238"/>
<path d="M101.292 105.396C101.962 105.432 102.632 105.432 103.302 105.396C104.076 105.396 104.694 105.468 105.36 105.012C105.525 104.863 105.638 104.664 105.681 104.446C105.725 104.227 105.696 104.001 105.6 103.8C105.126 102.936 104.178 102.708 103.248 102.678C102.311 102.612 101.384 102.902 100.65 103.488C100.494 103.633 100.383 103.819 100.331 104.025C100.278 104.231 100.287 104.448 100.354 104.649C100.422 104.851 100.547 105.029 100.713 105.161C100.879 105.293 101.08 105.375 101.292 105.396Z" fill="#263238"/>
<path d="M117.564 103.356C116.935 103.588 116.294 103.789 115.644 103.956C114.906 104.184 114.336 104.436 113.568 104.202C113.361 104.109 113.19 103.95 113.082 103.751C112.974 103.552 112.934 103.322 112.968 103.098C113.166 102.132 114 101.634 114.882 101.298C115.759 100.962 116.729 100.962 117.606 101.298C117.809 101.385 117.982 101.531 118.102 101.717C118.222 101.903 118.284 102.12 118.279 102.341C118.275 102.562 118.204 102.777 118.077 102.958C117.949 103.139 117.771 103.277 117.564 103.356Z" fill="#263238"/>
<path d="M107.106 123C107.538 123.27 107.994 123.672 108.546 123.6C109.095 123.467 109.611 123.22 110.058 122.874C110.062 122.869 110.067 122.865 110.072 122.861C110.078 122.858 110.084 122.856 110.091 122.855C110.097 122.854 110.104 122.855 110.11 122.856C110.116 122.858 110.122 122.861 110.127 122.865C110.132 122.869 110.136 122.874 110.14 122.879C110.143 122.885 110.145 122.891 110.146 122.898C110.147 122.904 110.146 122.91 110.144 122.917C110.143 122.923 110.14 122.929 110.136 122.934C109.985 123.268 109.747 123.555 109.448 123.766C109.148 123.977 108.797 124.104 108.432 124.134C108.112 124.12 107.803 124.013 107.544 123.825C107.285 123.637 107.087 123.378 106.974 123.078C106.938 123 107.04 123 107.106 123Z" fill="#263238"/>
<path d="M107.814 120.744C111.258 119.514 114.27 118.944 114.264 118.77C114.264 118.716 113.466 115.62 113.466 115.62C113.928 115.74 116.268 116.22 116.106 115.62C114.72 110.742 113.178 105.318 110.772 100.764C110.754 100.736 110.728 100.716 110.697 100.705C110.666 100.695 110.632 100.695 110.602 100.706C110.571 100.718 110.545 100.739 110.528 100.767C110.511 100.795 110.504 100.828 110.508 100.86C111.654 105.6 113.622 110.106 114.852 114.846C114.018 114.66 113.161 114.594 112.308 114.648C112.152 114.732 113.142 117.522 113.202 118.044C111.244 118.582 109.347 119.324 107.544 120.258C107.328 120.378 107.532 120.828 107.814 120.744Z" fill="#263238"/>
<path opacity="0.2" d="M86.214 111.252C87.558 110.706 89.814 105.252 90.798 103.014C91.782 100.776 90.294 90.576 89.904 88.266C87.7439 90.243 86.1879 92.7913 85.416 95.616C84.516 99 84.966 105.09 86.214 111.252Z" fill="#263238"/>
<path d="M109.104 92.586C108.485 93.6834 107.597 94.6049 106.523 95.2632C105.449 95.9215 104.225 96.2949 102.966 96.348C100.47 96.432 97.74 95.226 96.408 93.054C96.3989 93.0431 96.3862 93.0358 96.3722 93.0334C96.3583 93.031 96.3439 93.0337 96.3316 93.0408C96.3194 93.048 96.3101 93.0593 96.3054 93.0727C96.3007 93.0861 96.301 93.1007 96.306 93.114C97.728 95.442 100.17 97.11 102.978 96.948C104.308 96.8487 105.589 96.4018 106.693 95.6521C107.796 94.9024 108.684 93.8762 109.266 92.676C109.278 92.6545 109.281 92.6292 109.274 92.6055C109.267 92.5819 109.252 92.5619 109.23 92.55C109.209 92.5381 109.183 92.5351 109.16 92.5419C109.136 92.5486 109.116 92.5645 109.104 92.586Z" fill="#263238"/>
<path d="M98.088 76.2C93.888 77.118 90.504 80.202 89.532 83.364C88.9955 85.158 89.0844 87.0811 89.784 88.818C89.784 88.89 89.952 88.818 89.934 88.77C89.5346 87.1875 89.5678 85.5266 90.0301 83.9613C90.4924 82.396 91.3669 80.9836 92.562 79.872C93.857 78.6043 95.428 77.6537 97.1518 77.0947C98.8756 76.5357 100.706 76.3835 102.498 76.65C104.242 76.891 105.845 77.7411 107.022 79.05C107.136 79.188 107.43 79.05 107.334 78.888C105.678 76.428 101.874 75.336 98.088 76.2Z" fill="#263238"/>
<path d="M124.272 80.4779C123.179 78.5393 121.433 77.0511 119.346 76.2779C116.454 75.1859 113.586 75.9959 110.754 76.8779C110.738 76.8827 110.725 76.8936 110.717 76.9082C110.709 76.9228 110.707 76.94 110.712 76.9559C110.717 76.9718 110.728 76.9852 110.742 76.9931C110.757 77.001 110.774 77.0027 110.79 76.9979C113.19 76.2779 115.698 75.6779 118.188 76.3979C120.245 76.9782 122.04 78.2495 123.27 79.9979C124.473 81.8095 124.983 83.9942 124.705 86.151C124.427 88.3079 123.381 90.2923 121.758 91.7399C120.804 92.5513 119.693 93.1585 118.495 93.5238C117.297 93.8891 116.037 94.0049 114.792 93.8639C114.696 93.8639 114.654 94.0019 114.75 94.0139C116.447 94.271 118.182 94.0504 119.76 93.3769C121.339 92.7034 122.698 91.6036 123.687 90.2008C124.676 88.798 125.254 87.1475 125.357 85.4345C125.461 83.7214 125.085 82.0134 124.272 80.5019V80.4779Z" fill="#263238"/>
<path d="M84.852 100.062C84.852 100.062 79.416 93.312 81.918 88.314C83.334 85.482 89.67 84.606 89.67 84.606C89.67 84.606 91.002 80.61 95.97 78.42C100.938 76.23 107.826 78.084 107.826 78.084C107.826 78.084 112.266 74.274 117.426 76.044C124.656 78.522 125.742 88.602 119.796 93.048C115.596 96.168 108.588 93.294 108.588 93.294C107.988 93.492 102.558 98.382 96.852 93.78C96.852 93.78 93.714 97.866 89.868 96.18C89.892 96.162 88.8 99.9 84.852 100.062Z" fill="#263238"/>
<path d="M90.6 113.928C90.6 113.928 85.068 107.142 81.954 109.17C78.84 111.198 83.376 121.29 87.294 122.424C87.7861 122.604 88.3096 122.683 88.8329 122.655C89.3562 122.627 89.8684 122.494 90.3388 122.263C90.8092 122.032 91.2279 121.708 91.5698 121.311C91.9116 120.914 92.1695 120.451 92.328 119.952L90.6 113.928Z" fill="#D3766A"/>
<path d="M83.322 112.032C83.3114 112.036 83.3022 112.043 83.2957 112.052C83.2892 112.061 83.2858 112.072 83.2858 112.083C83.2858 112.094 83.2892 112.105 83.2957 112.114C83.3022 112.123 83.3114 112.13 83.322 112.134C86.076 113.016 87.666 115.392 88.848 117.888C87.978 116.958 86.856 116.496 85.602 117.54C85.536 117.594 85.602 117.702 85.68 117.678C86.139 117.494 86.6436 117.457 87.1247 117.571C87.6058 117.684 88.04 117.944 88.368 118.314C88.911 118.938 89.3857 119.617 89.784 120.342C89.928 120.576 90.348 120.414 90.24 120.144V120.084C90 116.67 87 112.098 83.322 112.032Z" fill="#263238"/>
<path d="M43.254 243.834C32.604 242.838 30.204 229.134 36.054 224.472C49.758 213.546 70.956 206.556 86.544 203.712C91.566 202.8 96.402 235.164 91.662 237.864C86.694 240.69 61.332 245.532 43.254 243.834Z" fill="#D3766A"/>
<path d="M117.702 213.732V213.852C117.699 213.872 117.699 213.892 117.702 213.912C116.202 220.134 113.898 226.284 111.414 229.476C107.736 234.612 90.258 238.242 90.258 238.242L77.658 206.112C77.658 206.112 85.734 203.04 86.154 196.884C86.154 196.884 86.976 187.692 88.266 184.746C89.958 180.888 97.458 164.49 99.414 163.644C101.37 162.798 103.668 165.576 102.342 171.786C101.016 177.996 96.342 189.648 96.246 190.422C96.2431 190.681 96.2612 190.94 96.3 191.196C96.438 191.514 98.91 201.426 102.3 203.688C103.101 204.098 104.021 204.213 104.898 204.012C107.778 201.51 108.036 197.178 108.312 195.012C108.756 191.478 109.308 180.408 114.66 179.724C120.012 179.04 117.498 191.724 118.026 199.668C118.2 203.25 118.926 208.59 117.702 213.732Z" fill="#D3766A"/>
<path d="M89.244 200.634C89.244 200.634 89.172 185.172 91.002 182.526C92.832 179.88 101.394 162.318 103.35 161.472C105.306 160.626 107.604 163.404 106.278 169.614C104.952 175.824 100.278 187.47 100.176 188.25C100.074 189.03 102.36 202.452 102.192 203.754C102.024 205.056 89.244 200.634 89.244 200.634Z" fill="#D3766A"/>
<path d="M89.472 192.144C89.538 190.452 89.688 188.772 89.844 187.086C89.932 186.246 90.04 185.406 90.168 184.566C90.24 184.146 90.312 183.726 90.408 183.306C90.4548 183.087 90.5149 182.87 90.588 182.658C90.636 182.544 90.69 182.412 90.738 182.316L90.882 182.034C92.442 179.034 94.062 176.088 95.682 173.136C97.302 170.184 98.946 167.256 100.68 164.334C101.136 163.591 101.682 162.908 102.306 162.3C102.626 161.99 102.988 161.725 103.38 161.514C103.795 161.279 104.275 161.186 104.748 161.25C104.98 161.301 105.199 161.397 105.394 161.533C105.589 161.669 105.755 161.842 105.882 162.042C106.121 162.41 106.296 162.816 106.398 163.242C106.6 164.07 106.686 164.922 106.656 165.774C106.59 164.938 106.427 164.112 106.17 163.314C106.043 162.929 105.852 162.568 105.606 162.246C105.498 162.095 105.36 161.968 105.201 161.872C105.042 161.776 104.866 161.714 104.682 161.688C103.956 161.61 103.248 162.144 102.702 162.708C102.147 163.307 101.668 163.972 101.274 164.688C99.702 167.646 98.082 170.634 96.474 173.586C94.866 176.538 93.186 179.484 91.482 182.394L91.326 182.664C91.278 182.754 91.254 182.82 91.212 182.898C91.146 183.066 91.08 183.264 91.026 183.456C90.918 183.852 90.828 184.26 90.738 184.656C90.57 185.478 90.432 186.306 90.288 187.134C90 188.802 89.742 190.476 89.472 192.144Z" fill="#263238"/>
<path d="M91.632 203.184C91.632 203.184 91.632 186.234 93.432 183.588C95.232 180.942 103.824 163.38 105.78 162.534C107.736 161.688 110.034 164.472 108.708 170.676C107.382 176.88 102.708 188.538 102.606 189.312C102.504 190.086 104.79 203.514 104.622 204.816C104.454 206.118 91.632 203.184 91.632 203.184Z" fill="#D3766A"/>
<path d="M90.954 195C91.158 192.942 91.452 190.896 91.782 188.85C91.962 187.83 92.154 186.816 92.382 185.802C92.502 185.292 92.634 184.788 92.802 184.278C92.8821 184.013 92.9865 183.756 93.114 183.51L93.486 182.826C95.478 179.226 97.482 175.596 99.516 172.026L102.594 166.626L103.38 165.288C103.642 164.823 103.934 164.376 104.256 163.95C104.591 163.514 104.98 163.123 105.414 162.786C105.88 162.408 106.458 162.197 107.058 162.186C107.371 162.21 107.672 162.313 107.934 162.486C108.196 162.66 108.408 162.897 108.552 163.176C108.817 163.658 109 164.181 109.092 164.724C109.274 165.761 109.341 166.816 109.29 167.868C109.209 169.935 108.772 171.973 108 173.892C108.617 171.928 108.915 169.878 108.882 167.82C108.883 166.812 108.779 165.806 108.57 164.82C108.471 164.346 108.294 163.892 108.048 163.476C107.951 163.296 107.81 163.143 107.638 163.033C107.466 162.923 107.268 162.858 107.064 162.846C106.618 162.88 106.196 163.061 105.864 163.362C105.496 163.668 105.166 164.017 104.88 164.4C104.588 164.806 104.323 165.231 104.088 165.672L103.332 167.022L100.302 172.422C98.262 176.022 96.228 179.622 94.122 183.162L93.72 183.822C93.6056 184.032 93.5074 184.251 93.426 184.476C93.252 184.944 93.102 185.43 92.964 185.922C92.688 186.912 92.454 187.914 92.232 188.922C91.764 190.92 91.368 192.948 90.954 195Z" fill="#263238"/>
<path d="M91.104 203.058C91.104 203.058 91.104 187.284 92.802 184.818C94.5 182.352 103.038 171.06 104.862 170.274C106.686 169.488 108.816 172.074 107.586 177.852C106.356 183.63 101.43 189.426 101.34 190.152C101.25 190.878 103.368 203.4 103.2 204.6C103.032 205.8 91.104 203.058 91.104 203.058Z" fill="#D3766A"/>
<path d="M90.654 197.7C90.774 196.024 90.922 194.352 91.098 192.684C91.272 191.01 91.452 189.342 91.698 187.674C91.77 187.254 91.836 186.84 91.932 186.42C92.0088 185.984 92.1483 185.562 92.346 185.166C92.7664 184.425 93.2313 183.709 93.738 183.024C94.722 181.656 95.754 180.324 96.798 179.004C98.89 176.372 101.058 173.8 103.302 171.288C103.584 170.97 103.902 170.688 104.166 170.352C104.322 170.196 104.454 170.052 104.652 169.884C104.858 169.703 105.102 169.572 105.366 169.5C105.66 169.431 105.968 169.454 106.248 169.566C106.494 169.672 106.717 169.828 106.902 170.022C107.223 170.366 107.484 170.762 107.676 171.192C108.032 172.006 108.258 172.87 108.348 173.754C108.437 174.629 108.398 175.512 108.234 176.376C107.661 179.759 106.394 182.986 104.514 185.856C104.016 186.57 103.542 187.206 103.092 187.92C102.642 188.634 102.21 189.336 101.808 190.056C101.76 190.14 101.7 190.242 101.676 190.296C101.676 190.248 101.676 190.386 101.676 190.47C101.676 190.662 101.676 190.866 101.676 191.07C101.676 191.478 101.718 191.892 101.754 192.306C101.82 193.128 101.922 193.956 102.048 194.778C102.51 198.078 103.632 201.252 104.49 204.504C104.922 206.13 105.336 207.756 105.69 209.4C106.1 211.033 106.323 212.708 106.356 214.392C106.226 212.72 105.927 211.065 105.462 209.454C105.042 207.834 104.562 206.226 104.064 204.624L102.6 199.8C102.092 198.188 101.691 196.545 101.4 194.88C101.256 194.048 101.136 193.208 101.04 192.36C100.998 191.94 100.956 191.514 100.938 191.088C100.938 190.872 100.938 190.656 100.938 190.428C100.935 190.275 100.958 190.123 101.004 189.978C101.052 189.871 101.106 189.767 101.166 189.666C101.58 188.916 102.012 188.196 102.462 187.476C102.912 186.756 103.416 186.042 103.872 185.382C105.668 182.609 106.87 179.493 107.4 176.232C107.549 175.441 107.588 174.633 107.514 173.832C107.438 173.041 107.236 172.267 106.914 171.54C106.768 171.198 106.565 170.884 106.314 170.61C106.233 170.499 106.123 170.413 105.996 170.36C105.869 170.307 105.73 170.29 105.594 170.31C105.279 170.437 105.001 170.644 104.79 170.91C104.502 171.204 104.22 171.51 103.938 171.816C101.682 174.288 99.522 176.862 97.38 179.43C96.312 180.72 95.25 182.022 94.248 183.354C93.7388 184.005 93.2699 184.686 92.844 185.394C92.6597 185.747 92.5283 186.125 92.454 186.516C92.346 186.912 92.268 187.326 92.19 187.716C91.548 191.04 91.122 194.4 90.654 197.7Z" fill="#263238"/>
<path d="M79.542 205.2C77.916 205.686 76.29 206.166 74.688 206.7C73.086 207.234 71.466 207.738 69.888 208.284C66.696 209.394 63.516 210.54 60.378 211.788C57.24 213.036 54.132 214.356 51.06 215.748L48.756 216.816L46.494 217.95C44.952 218.658 43.494 219.528 41.982 220.284C44.7946 218.381 47.7244 216.658 50.754 215.124C53.7802 213.579 56.8821 212.187 60.048 210.954C63.216 209.718 66.42 208.584 69.648 207.63C71.28 207.156 72.912 206.694 74.556 206.28C76.2 205.866 77.868 205.476 79.542 205.2Z" fill="#263238"/>
<path d="M174.15 181.656C184.518 179.046 180.66 165.048 174.534 160.776C160.134 150.756 139.044 148.572 123.306 146.742C118.236 146.142 115.002 175.344 119.904 177.732C125.034 180.228 153.114 186.954 174.15 181.656Z" fill="#D3766A"/>
<path d="M127.302 179.754C133.11 177.27 139.992 162.798 139.992 162.798L131.34 147.702C131.34 147.702 113.226 145.152 101.07 146.712C97.71 147.144 66.36 153.912 65.178 155.658C63.996 157.404 66.15 160.224 72.492 160.266C78.834 160.308 91.23 158.256 92.01 158.328C92.2626 158.386 92.5111 158.46 92.754 158.55C93.036 158.748 99.864 166.65 103.176 169.026C105.18 170.466 109.062 173.64 112.806 175.026C119.904 177.732 126.36 180.432 127.302 179.754Z" fill="#D3766A"/>
<path d="M103.476 153.75C103.476 153.75 88.392 150.348 85.416 151.566C82.44 152.784 63.444 157.356 62.196 159.084C60.948 160.812 63.168 163.656 69.516 163.698C75.864 163.74 88.248 161.682 89.028 161.754C89.808 161.826 102.426 166.944 103.734 167.064C105.042 167.184 103.476 153.75 103.476 153.75Z" fill="#D3766A"/>
<path d="M95.256 150.63L90.21 151.2C89.37 151.296 88.53 151.38 87.696 151.494C86.8822 151.571 86.0782 151.73 85.296 151.968C82.068 153.054 78.828 154.002 75.588 154.968C72.348 155.934 69.072 156.846 65.832 157.74C65.0433 157.968 64.2856 158.293 63.576 158.706C63.2278 158.872 62.9191 159.11 62.6707 159.405C62.4223 159.7 62.24 160.045 62.136 160.416C62.121 160.602 62.143 160.788 62.2007 160.966C62.2584 161.143 62.3506 161.307 62.472 161.448C62.7345 161.758 63.0467 162.021 63.396 162.228C64.1221 162.653 64.8954 162.991 65.7 163.236C64.8673 163.081 64.0598 162.812 63.3 162.438C62.9043 162.243 62.545 161.981 62.238 161.664C62.0693 161.496 61.9366 161.296 61.8479 161.075C61.7591 160.854 61.7163 160.618 61.722 160.38C61.7628 159.905 61.9613 159.457 62.286 159.108C62.5778 158.767 62.9173 158.47 63.294 158.226C64.0259 157.749 64.8138 157.364 65.64 157.08C68.88 156.018 72.108 155.076 75.354 154.08C78.6 153.084 81.864 152.202 85.104 151.29C85.29 151.23 85.53 151.17 85.758 151.122C85.986 151.074 86.19 151.05 86.4 151.032C86.832 150.978 87.252 150.942 87.678 150.906C88.524 150.834 89.37 150.78 90.216 150.738C91.866 150.702 93.558 150.63 95.256 150.63Z" fill="#263238"/>
<path d="M105.45 156.63C105.45 156.63 88.908 152.964 85.926 154.182C82.944 155.4 63.954 159.972 62.706 161.706C61.458 163.44 63.678 166.272 70.026 166.314C76.374 166.356 88.758 164.304 89.538 164.376C90.318 164.448 102.936 169.566 104.244 169.686C105.552 169.806 105.45 156.63 105.45 156.63Z" fill="#D3766A"/>
<path d="M97.746 152.586L91.584 153.486C90.558 153.636 89.532 153.792 88.512 153.966C88.008 154.056 87.498 154.152 87 154.26C86.5042 154.366 86.0169 154.508 85.542 154.686C81.6 156 77.628 157.2 73.662 158.4L67.704 160.2C66.72 160.512 65.682 160.764 64.788 161.148C64.3428 161.342 63.9219 161.588 63.534 161.88C63.1652 162.13 62.8857 162.492 62.736 162.912C62.6896 163.111 62.6987 163.32 62.7621 163.514C62.8256 163.709 62.941 163.882 63.096 164.016C63.4475 164.353 63.8531 164.629 64.296 164.832C65.2227 165.256 66.1923 165.58 67.188 165.798C69.2005 166.277 71.2768 166.431 73.338 166.254C71.2719 166.604 69.1607 166.594 67.098 166.224C66.0545 166.044 65.0342 165.748 64.056 165.342C63.545 165.127 63.0743 164.827 62.664 164.454C62.441 164.243 62.2651 163.988 62.148 163.704C62.0275 163.401 62.0044 163.067 62.082 162.75C62.2506 162.172 62.5996 161.663 63.078 161.298C63.5054 160.949 63.9776 160.658 64.482 160.434C64.9691 160.215 65.4702 160.028 65.982 159.876L67.464 159.396L73.41 157.536C77.378 156.336 81.354 155.148 85.338 153.972C85.8447 153.809 86.3619 153.68 86.886 153.588C87.402 153.498 87.918 153.426 88.44 153.36C89.472 153.222 90.504 153.108 91.542 153.006C93.6 152.856 95.67 152.682 97.746 152.586Z" fill="#263238"/>
<path d="M105.444 156.09C105.444 156.09 90.336 156.27 87.564 157.398C84.792 158.526 71.622 160.842 70.464 162.456C69.306 164.07 71.37 166.704 77.28 166.752C83.19 166.8 90.198 166.818 90.924 166.89C91.65 166.962 103.104 168.132 104.322 168.24C105.54 168.348 105.444 156.09 105.444 156.09Z" fill="#D3766A"/>
<path d="M101.4 154.89L90.858 156.276C89.982 156.39 89.1 156.498 88.236 156.624C87.372 156.75 86.544 157.044 85.704 157.29C84.012 157.8 82.332 158.352 80.658 158.922C78.984 159.492 77.316 160.062 75.66 160.674C74.832 160.98 74.004 161.274 73.194 161.628C72.3872 161.936 71.6015 162.297 70.842 162.708C70.506 162.912 70.296 163.152 70.296 163.392C70.3278 163.725 70.4842 164.034 70.734 164.256C71.3263 164.829 72.0284 165.276 72.798 165.57C73.5716 165.902 74.3946 166.105 75.234 166.17C76.098 166.224 76.992 166.248 77.868 166.278C81.408 166.382 84.948 166.46 88.488 166.512C89.382 166.512 90.234 166.512 91.152 166.512C92.07 166.512 92.952 166.68 93.822 166.782L99.096 167.424C99.5647 167.457 100.026 167.56 100.464 167.73C100.877 167.903 101.278 168.103 101.664 168.33C102.45 168.774 103.194 169.26 103.938 169.752C105.414 170.724 106.884 171.708 108.396 172.62C111.414 174.47 114.653 175.929 118.038 176.964C114.596 176.069 111.29 174.715 108.21 172.938C106.656 172.08 105.156 171.138 103.662 170.172C102.912 169.704 102.168 169.23 101.4 168.816C101.013 168.608 100.612 168.427 100.2 168.276C99.8148 168.133 99.4102 168.051 99 168.03L93.714 167.514C92.838 167.436 91.944 167.34 91.092 167.286C90.24 167.232 89.322 167.286 88.446 167.286C84.906 167.258 81.362 167.208 77.814 167.136C76.926 167.136 76.05 167.094 75.144 167.046C74.2098 166.981 73.2932 166.76 72.432 166.392C71.5479 166.044 70.7451 165.517 70.074 164.844C69.8728 164.652 69.7115 164.423 69.5993 164.168C69.487 163.914 69.4261 163.64 69.42 163.362C69.4322 163.048 69.5507 162.748 69.756 162.51C69.9253 162.307 70.1283 162.134 70.356 162C71.1556 161.569 71.9835 161.192 72.834 160.872C73.662 160.548 74.496 160.236 75.33 159.936C77.004 159.336 78.684 158.736 80.376 158.232C82.068 157.728 83.766 157.188 85.482 156.714C86.346 156.486 87.186 156.246 88.104 156.114C89.022 155.982 89.868 155.922 90.756 155.832C94.344 155.484 97.872 155.16 101.4 154.89Z" fill="#263238"/>
<path d="M165.054 155.586C162.195 154.429 159.252 153.488 156.252 152.772C153.268 151.996 150.268 151.326 147.252 150.762C141.204 149.61 135.102 148.554 129 147.882C122.898 147.21 116.706 146.802 110.55 146.604C109.014 146.562 107.472 146.52 105.936 146.562C104.404 146.569 102.875 146.68 101.358 146.892C98.316 147.402 95.28 147.978 92.232 148.476C95.232 147.78 98.232 147.12 101.28 146.46C102.813 146.194 104.363 146.037 105.918 145.992C107.466 145.914 109.02 145.908 110.568 145.908C113.664 145.908 116.754 146.082 119.838 146.268C122.922 146.454 126.006 146.7 129.09 146.988C130.632 147.126 132.174 147.384 133.698 147.588C135.222 147.792 136.752 148.068 138.282 148.326C141.324 148.848 144.372 149.394 147.39 150.072C150.408 150.75 153.39 151.47 156.39 152.334C159.364 153.174 162.262 154.261 165.054 155.586Z" fill="#263238"/>
<path d="M163.074 251.472C160.41 251.568 157.428 251.718 155.22 249.99C153.18 248.394 151.356 246.012 151.62 243.276C151.698 242.496 151.878 242.016 152.718 242.346C153.99 242.856 154.968 244.26 155.85 245.244C156.972 246.529 158.211 247.706 159.552 248.76C160.506 249.486 161.526 250.116 162.498 250.818L162.858 251.088L162.996 251.196H163.074C163.095 251.195 163.116 251.2 163.135 251.209C163.154 251.219 163.17 251.233 163.182 251.25C163.187 251.266 163.187 251.282 163.182 251.298C163.187 251.317 163.189 251.336 163.186 251.355C163.183 251.374 163.177 251.393 163.167 251.409C163.156 251.425 163.143 251.439 163.127 251.45C163.111 251.461 163.093 251.469 163.074 251.472Z" fill="#455A64"/>
<path d="M163.2 251.298C160.854 251.256 158.322 251.364 156.45 249.774C155.587 249.01 154.85 248.115 154.266 247.122C153.996 246.684 153.186 245.37 153.522 244.842C154.122 243.894 156.924 247.758 157.314 248.13C158.779 249.461 160.566 250.387 162.498 250.818L162.858 251.088C161.5 250.805 160.196 250.303 159 249.6C157.338 248.61 156.414 247.14 155.106 245.766C154.83 245.472 153.978 244.476 153.66 245.094C153.45 245.502 154.23 246.792 154.404 247.068C154.957 248.006 155.651 248.854 156.462 249.582C158.334 251.22 160.854 251.16 163.218 251.256C163.216 251.271 163.21 251.286 163.2 251.298Z" fill="white"/>
<path d="M165.318 246.324C165.368 245.08 165.239 243.835 164.934 242.628C164.826 242.208 164.304 240.228 163.626 240.258C163.188 240.288 163.11 241.152 163.074 241.458C162.924 242.658 163.314 243.906 163.548 245.088C164.021 247.487 164.316 249.918 164.43 252.36C164.43 252.516 164.388 252.672 164.37 252.822C164.352 252.972 164.334 253.08 164.322 253.212V253.344C164.322 253.374 164.322 253.41 164.322 253.446C164.335 253.47 164.356 253.489 164.381 253.499C164.406 253.508 164.434 253.509 164.46 253.5C164.46 253.398 164.49 253.302 164.502 253.2C164.502 253.284 164.502 253.362 164.502 253.446L164.556 253.188C164.553 253.17 164.553 253.152 164.556 253.134C164.556 252.996 164.556 252.858 164.556 252.726C164.936 250.609 165.191 248.471 165.318 246.324ZM164.508 251.82C164.442 250.392 164.298 248.97 164.094 247.554C163.938 246.414 163.722 245.286 163.494 244.158C163.338 243.526 163.236 242.881 163.188 242.232C163.188 241.734 163.236 239.898 164.184 241.032C164.868 241.86 165.03 243.618 165.114 244.632C165.197 245.76 165.175 246.893 165.048 248.016C164.91 249.288 164.694 250.554 164.508 251.82Z" fill="white"/>
<path d="M165.984 260.43H165.888C163.446 260.304 160.194 260.532 158.166 258.918C156.666 257.718 155.166 255.366 155.664 253.368C156.204 251.112 159.264 253.818 160.056 254.472C162.165 256.296 164.168 258.24 166.056 260.292V260.334C166.092 260.4 166.038 260.4 165.984 260.43Z" fill="#455A64"/>
<path d="M166.068 260.358L165.648 260.094C164.048 259.082 162.492 258 160.98 256.848C160.596 256.56 157.848 254.112 157.434 254.988C157.188 255.516 158.094 256.59 158.382 256.956C158.905 257.606 159.532 258.165 160.236 258.612C161.862 259.626 163.836 259.842 165.678 260.334C165.766 260.348 165.852 260.37 165.936 260.4H165.984C166.044 260.4 166.092 260.4 166.068 260.358ZM161.268 258.966C160.49 258.615 159.778 258.135 159.162 257.544C158.748 257.154 157.308 255.696 157.692 255.096C157.896 254.772 158.064 254.946 158.454 255.132C158.628 255.222 158.802 255.324 158.97 255.432C159.378 255.702 159.756 256.032 160.134 256.32C160.806 256.854 161.484 257.37 162.18 257.88C163.314 258.708 164.478 259.482 165.672 260.226C164.184 259.8 162.636 259.596 161.244 258.966H161.268Z" fill="white"/>
<path d="M170.442 255.402C169.801 258.2 168.339 260.743 166.242 262.704L166.2 262.734C166.177 262.739 166.152 262.738 166.13 262.729C166.107 262.721 166.088 262.706 166.074 262.686C166.055 262.667 166.044 262.641 166.044 262.614C166.044 262.587 166.055 262.561 166.074 262.542C166.117 262.505 166.157 262.465 166.194 262.422C166.602 259.104 167.046 255.822 167.394 252.474C167.472 251.694 168.09 246.702 169.62 247.512C170.568 248.016 170.634 250.062 170.712 250.98C170.851 252.459 170.76 253.951 170.442 255.402Z" fill="#455A64"/>
<path d="M169.56 250.95C169.476 250.674 169.332 250.386 169.02 250.584C168.42 250.956 168.186 253.302 168.09 253.95C167.682 256.626 167.046 259.2 166.404 261.822L166.242 262.488L166.092 262.686C166.106 262.706 166.125 262.721 166.148 262.729C166.17 262.738 166.195 262.74 166.218 262.734V262.662C166.284 262.578 166.356 262.488 166.416 262.398C167.455 260.962 168.265 259.373 168.816 257.688C169.178 256.621 169.428 255.519 169.56 254.4C169.68 253.374 169.866 251.958 169.56 250.95ZM166.428 262.2C166.398 262.248 166.362 262.29 166.338 262.332C166.338 262.242 166.392 262.158 166.416 262.068C167.048 260.071 167.548 258.035 167.91 255.972C168.09 254.928 168.204 253.872 168.414 252.834C168.51 252.396 168.72 251.142 169.086 250.938C169.452 250.734 169.44 251.226 169.482 251.508C169.524 251.79 169.482 252.078 169.482 252.27C169.539 255.82 168.47 259.296 166.428 262.2Z" fill="white"/>
<path d="M166.668 269.862H166.2C166.2 269.43 166.2 268.998 166.2 268.572C166.14 266.838 166.068 265.104 165.966 263.37C165.906 262.386 165.84 261.402 165.732 260.43C165.732 260.4 165.732 260.364 165.732 260.334C165.732 260.304 165.732 260.172 165.702 260.094C165.672 260.016 165.702 259.92 165.672 259.836C165.449 257.637 164.882 255.487 163.992 253.464C163.686 252.786 163.344 252.132 162.99 251.478L162.882 251.292C162.885 251.276 162.885 251.26 162.882 251.244L162.774 251.046L162.69 250.902C161.562 248.916 160.29 247.014 159.042 245.106C158.694 244.56 158.34 244.008 157.998 243.456C157.974 243.427 157.954 243.395 157.938 243.36C157.908 243.324 157.884 243.282 157.854 243.24C156.318 240.84 154.806 238.362 153.204 235.98C153.144 235.89 153.288 235.812 153.348 235.902C154.428 237.48 155.544 239.034 156.654 240.6C156.804 240.804 156.948 241.02 157.098 241.2L157.968 242.436C158.568 243.264 159.12 244.092 159.678 244.932C161.324 247.261 162.825 249.69 164.172 252.204C164.268 252.39 164.358 252.582 164.448 252.774C164.538 252.966 164.562 253.014 164.616 253.134C164.67 253.254 164.742 253.416 164.802 253.554C165.797 256 166.354 258.601 166.446 261.24L166.482 261.798C166.482 261.882 166.482 261.966 166.482 262.056C166.479 262.1 166.479 262.144 166.482 262.188C166.482 262.248 166.482 262.308 166.482 262.368C166.482 262.41 166.482 262.452 166.482 262.5V262.974C166.554 264.708 166.602 266.442 166.638 268.17C166.626 268.752 166.644 269.304 166.668 269.862Z" fill="#455A64"/>
<path d="M152.1 238.452C150.762 236.652 149.052 232.95 151.02 231.024C151.378 230.652 151.86 230.425 152.375 230.387C152.89 230.348 153.4 230.5 153.81 230.814C154.848 231.57 155.316 232.992 155.652 234.168C156.558 237.312 157.152 240.516 158.28 243.594C158.28 243.594 158.376 243.858 158.406 243.924C158.436 243.99 158.328 244.02 158.304 243.924C158.28 243.828 158.226 243.726 158.19 243.624C156.06 242.112 153.684 240.6 152.1 238.452Z" fill="#455A64"/>
<path d="M158.298 243.6C158.289 243.581 158.279 243.563 158.268 243.546C157.806 242.79 157.389 242.006 157.02 241.2C156.27 239.527 155.629 237.807 155.1 236.052C154.884 235.38 153.9 232.08 152.742 233.394C152.25 233.946 152.316 234.93 152.394 235.608C152.529 236.697 152.878 237.749 153.42 238.704C154.554 240.546 156.067 242.125 157.86 243.336L158.094 243.516L158.142 243.594L158.178 243.648C158.188 243.653 158.198 243.656 158.209 243.656C158.22 243.657 158.231 243.655 158.241 243.651C158.252 243.647 158.261 243.641 158.268 243.633C158.276 243.626 158.282 243.616 158.286 243.606C158.29 243.604 158.294 243.602 158.298 243.6ZM157.776 243.234C156.342 242.172 155.075 240.899 154.02 239.46C153.496 238.691 153.092 237.848 152.82 236.958C152.697 236.566 152.607 236.165 152.55 235.758C152.505 235.452 152.487 235.143 152.496 234.834C152.496 234.156 152.802 233.412 153.204 233.346C153.606 233.28 153.864 233.544 154.188 234.114C154.301 234.307 154.399 234.507 154.482 234.714C154.695 235.226 154.881 235.749 155.04 236.28C155.316 237.15 155.598 238.02 155.91 238.884C156.126 239.484 156.348 240.042 156.6 240.612C157.022 241.593 157.511 242.543 158.064 243.456L157.776 243.234Z" fill="white"/>
<path d="M257.292 243.48C257.07 245.28 256.728 247.02 256.368 248.778C256.164 249.774 255.948 250.77 255.768 251.778C255.546 252.876 255.216 253.992 255.516 255.102C255.522 255.152 255.522 255.202 255.516 255.252C255.501 255.27 255.482 255.285 255.46 255.293C255.438 255.302 255.415 255.305 255.391 255.301C255.368 255.297 255.346 255.288 255.328 255.273C255.31 255.258 255.296 255.238 255.288 255.216C255.286 255.19 255.286 255.164 255.288 255.138C255.126 254.845 254.997 254.535 254.904 254.214C254.558 253.375 254.264 252.515 254.022 251.64C253.504 249.854 253.214 248.009 253.158 246.15C253.107 244.484 253.281 242.819 253.674 241.2C253.992 239.904 254.442 237.978 255.408 237C256.278 236.106 257.01 237.54 257.262 238.266C257.772 239.892 257.502 241.8 257.292 243.48Z" fill="#455A64"/>
<path d="M255.696 239.7C255.048 239.7 254.574 241.794 254.346 242.7C253.981 244.127 253.794 245.595 253.788 247.068C253.794 249.713 254.248 252.339 255.132 254.832C255.168 254.934 255.198 255.036 255.234 255.132C255.27 255.228 255.234 255.132 255.234 255.132C255.234 255.132 255.234 255.174 255.234 255.198C255.239 255.222 255.252 255.244 255.27 255.261C255.287 255.278 255.31 255.29 255.334 255.294C255.358 255.299 255.383 255.296 255.406 255.286C255.429 255.277 255.448 255.261 255.462 255.24C255.42 255.024 255.39 254.808 255.366 254.586C255.342 254.364 255.318 254.196 255.306 253.986C255.213 251.836 255.346 249.682 255.702 247.56C256.062 245.124 256.554 239.7 255.696 239.7ZM255.228 254.448C255.264 254.736 255.306 255.048 255.36 255.306C255.294 255.096 255.228 254.892 255.168 254.706C254.461 252.489 254.057 250.186 253.968 247.86C253.924 246.55 254.018 245.238 254.25 243.948C254.378 243.255 254.547 242.57 254.754 241.896C254.85 241.614 255.318 239.862 255.72 239.952C256.002 240.012 256.068 241.59 256.074 241.626C256.074 241.938 256.074 242.256 256.074 242.574C256.074 243.228 256.02 243.882 255.966 244.536C255.84 245.946 255.636 247.35 255.468 248.736C255.166 250.624 255.086 252.541 255.228 254.448Z" fill="white"/>
<path d="M265.674 248.4C265.11 247.836 263.442 249.234 263.022 249.558C261.779 250.577 260.625 251.699 259.572 252.912C257.779 254.794 256.293 256.947 255.168 259.29L255.108 259.362V259.482V259.518C255.098 259.531 255.092 259.547 255.092 259.563C255.092 259.579 255.098 259.595 255.108 259.608L255.192 259.512C255.402 259.254 255.618 259.008 255.84 258.762L255.954 258.642C257.574 257.015 259.298 255.494 261.114 254.088C262.359 253.085 263.508 251.968 264.546 250.752C264.78 250.446 266.154 248.88 265.674 248.4ZM265.152 249.648C263.748 251.982 261.312 253.686 259.242 255.384C257.816 256.496 256.502 257.743 255.318 259.11C256.414 257.027 257.785 255.1 259.392 253.38C260.273 252.367 261.21 251.406 262.2 250.5C262.731 250.004 263.298 249.548 263.898 249.138C264.258 248.895 264.645 248.694 265.05 248.538C265.836 248.286 265.392 249.252 265.152 249.654V249.648Z" fill="white"/>
<path d="M254.826 265.152C254.813 265.173 254.796 265.189 254.775 265.201C254.754 265.213 254.73 265.218 254.706 265.218L254.736 265.26C254.74 265.264 254.743 265.269 254.745 265.274C254.747 265.279 254.749 265.284 254.749 265.29C254.749 265.296 254.747 265.301 254.745 265.306C254.743 265.311 254.74 265.316 254.736 265.32C254.732 265.324 254.727 265.327 254.722 265.329C254.717 265.332 254.712 265.333 254.706 265.333C254.7 265.333 254.695 265.332 254.69 265.329C254.685 265.327 254.68 265.324 254.676 265.32C252.474 263.076 250.35 260.352 249.276 257.382C248.803 256.129 248.537 254.808 248.49 253.47C248.49 252.558 248.412 250.716 249.198 250.044C250.776 248.706 252.198 254.394 252.42 255.252C252.816 256.812 253.068 258.402 253.428 259.974C253.824 261.69 254.346 263.376 254.862 265.062C254.863 265.079 254.86 265.095 254.854 265.111C254.848 265.127 254.838 265.141 254.826 265.152Z" fill="#455A64"/>
<path d="M254.826 265.152C254.742 265.008 254.658 264.864 254.58 264.714C253.245 262.33 252.288 259.753 251.742 257.076C251.505 255.723 251.153 254.392 250.692 253.098C250.566 252.786 250.17 251.574 249.654 252.186C249.384 252.504 249.606 254.802 249.714 255.39C249.975 256.74 250.404 258.053 250.992 259.296C251.942 261.395 253.152 263.366 254.592 265.164L254.718 265.32C254.722 265.317 254.725 265.312 254.727 265.308C254.729 265.303 254.73 265.298 254.73 265.293C254.73 265.288 254.729 265.283 254.727 265.278C254.725 265.274 254.722 265.269 254.718 265.266C254.712 265.25 254.701 265.235 254.688 265.224C254.715 265.226 254.743 265.22 254.767 265.207C254.791 265.195 254.812 265.176 254.826 265.152ZM251.628 260.268C250.994 259.06 250.487 257.789 250.116 256.476C249.973 255.951 249.862 255.418 249.786 254.88C249.717 254.461 249.681 254.038 249.678 253.614C249.678 252.576 249.768 252.306 249.942 252.27C250.116 252.234 250.2 252.36 250.506 252.978C250.693 253.383 250.84 253.805 250.944 254.238C251.106 254.838 251.25 255.438 251.382 256.092C251.652 257.328 251.904 258.57 252.264 259.788C252.77 261.533 253.504 263.204 254.448 264.756C253.387 263.34 252.444 261.839 251.628 260.268Z" fill="white"/>
<path d="M261.894 259.704C261.635 260.797 261.142 261.821 260.448 262.704C259.14 264.504 257.448 266.016 256.038 267.726C255.828 267.978 255.618 268.236 255.438 268.506C255.438 268.536 255.252 268.914 255.252 268.878C255.252 268.842 255.252 268.728 255.324 268.488C255.558 267.288 256.308 263.688 257.244 261.834C257.806 260.664 258.507 259.566 259.332 258.564C259.74 258.108 260.688 257.118 261.408 257.334C262.128 257.55 262.008 259.128 261.894 259.704Z" fill="#455A64"/>
<path d="M260.73 258.972C259.968 258.492 257.994 262.02 257.73 262.476C256.745 264.17 255.987 265.985 255.474 267.876C255.414 268.086 255.36 268.296 255.306 268.512C255.252 268.728 255.234 268.896 255.234 268.902C255.234 268.908 255.396 268.56 255.42 268.524L255.522 268.392C255.69 268.17 255.864 267.954 256.038 267.75C256.896 266.466 257.778 265.194 258.606 263.892C259.216 262.961 259.75 261.982 260.202 260.964C260.304 260.706 261.066 259.2 260.73 258.972ZM260.514 259.962C259.422 263.028 257.202 265.446 255.504 268.17C255.474 268.212 255.448 268.256 255.426 268.302C255.426 268.224 255.468 268.14 255.492 268.062C255.949 266.516 256.551 265.017 257.292 263.586C257.745 262.713 258.252 261.869 258.81 261.06C259.094 260.601 259.409 260.162 259.752 259.746C259.908 259.572 260.352 259.116 260.514 259.194C260.676 259.272 260.58 259.758 260.514 259.962Z" fill="white"/>
<path d="M269.58 234.396C267.306 239.622 261.336 242.052 258.75 247.092L258.522 247.56C258.515 247.576 258.505 247.589 258.492 247.6C258.478 247.61 258.463 247.617 258.446 247.62C258.429 247.623 258.412 247.622 258.396 247.617C258.38 247.612 258.366 247.602 258.354 247.59C258.345 247.577 258.34 247.561 258.34 247.545C258.34 247.529 258.345 247.513 258.354 247.5L258.408 247.386C258.92 244.18 260.001 241.091 261.6 238.266C262.908 235.866 264.696 233.604 267.174 232.338C267.774 232.02 268.974 231.36 269.664 231.876C270.354 232.392 269.862 233.754 269.58 234.396Z" fill="#455A64"/>
<path d="M267.534 234.6C267.246 234.39 266.808 234.648 266.556 234.774C265.937 235.105 265.359 235.508 264.834 235.974C263.758 236.921 262.83 238.023 262.08 239.244C260.73 241.302 259.639 243.518 258.834 245.844C258.66 246.372 258.51 246.9 258.384 247.44C258.384 247.506 258.354 247.572 258.342 247.638C258.353 247.651 258.366 247.661 258.381 247.668C258.396 247.675 258.412 247.678 258.429 247.678C258.446 247.678 258.462 247.675 258.477 247.668C258.492 247.661 258.505 247.651 258.516 247.638C258.582 247.476 258.654 247.332 258.726 247.182C258.727 247.168 258.727 247.154 258.726 247.14C259.168 246.09 259.711 245.086 260.346 244.14C261.395 242.722 262.533 241.374 263.754 240.102C264.24 239.562 268.536 235.356 267.534 234.6ZM267.168 235.8C266.391 236.984 265.488 238.081 264.474 239.07C263.526 240.126 262.572 241.17 261.648 242.238C260.906 243.084 260.24 243.994 259.656 244.956C259.166 245.755 258.749 246.597 258.408 247.47C258.652 246.58 258.95 245.707 259.302 244.854C259.302 244.854 259.302 244.854 259.302 244.824C259.946 243.316 260.684 241.849 261.51 240.432C261.518 240.413 261.528 240.395 261.54 240.378C262.233 239.111 263.078 237.932 264.054 236.868C264.593 236.292 265.197 235.78 265.854 235.344C266.598 234.858 267.252 234.546 267.438 234.786C267.624 235.026 267.378 235.47 267.168 235.83V235.8Z" fill="white"/>
<path d="M261.636 240.522C260.952 241.992 260.304 243.486 259.656 244.986C259.35 245.688 259.056 246.39 258.75 247.092C258.751 247.106 258.751 247.12 258.75 247.134C258.648 247.386 258.534 247.644 258.426 247.896C257.348 250.174 256.455 252.536 255.756 254.958C255.455 256.249 255.273 257.564 255.21 258.888C255.21 259.026 255.21 259.158 255.21 259.296C255.21 259.368 255.21 259.446 255.21 259.518C255.207 259.56 255.207 259.602 255.21 259.644C255.168 260.79 255.21 261.936 255.21 263.058C255.24 264.618 255.372 266.166 255.516 267.708C255.513 267.754 255.513 267.8 255.516 267.846C255.516 267.912 255.516 267.984 255.516 268.056C255.519 268.092 255.519 268.128 255.516 268.164V268.362C255.564 268.854 255.612 269.352 255.654 269.856H255.18C254.862 268.34 254.662 266.801 254.58 265.254C254.577 265.222 254.577 265.19 254.58 265.158C254.58 265.008 254.58 264.858 254.58 264.708C254.58 264.558 254.58 264.336 254.58 264.15C254.58 263.706 254.55 263.262 254.538 262.824C254.418 260.243 254.603 257.657 255.09 255.12C255.102 255.051 255.118 254.983 255.138 254.916C255.135 254.886 255.135 254.856 255.138 254.826L255.174 254.676L255.234 254.442C255.27 254.304 255.312 254.16 255.354 254.022L255.39 253.902C256.116 251.731 256.988 249.613 258 247.56C258.174 247.188 258.348 246.816 258.528 246.444C258.624 246.234 258.726 246.03 258.822 245.844L259.29 244.908C259.29 244.908 259.29 244.908 259.29 244.878C260.022 243.414 260.778 241.962 261.498 240.486C261.552 240.396 261.672 240.45 261.636 240.522Z" fill="#455A64"/>
<path d="M256.74 142.62H163.404V149.292H256.74V142.62Z" fill="#4E77F7"/>
<path d="M252.126 149.292H168.012V153.474H252.126V149.292Z" fill="#4E77F7"/>
<path opacity="0.2" d="M252.126 150.924L168.012 151.842V149.292H252.126V150.924Z" fill="black"/>
<path d="M163.398 270.012H256.734V263.34H163.398V270.012Z" fill="#4E77F7"/>
<path d="M168.012 263.34H252.126V259.158H168.012V263.34Z" fill="#4E77F7"/>
<path opacity="0.2" d="M168.012 261.708L252.126 260.79V263.34H168.012V261.708Z" fill="black"/>
<g opacity="0.4">
<path d="M241.458 232.596C244.824 237.276 246.33 259.164 246.33 259.164H173.808C173.808 259.164 175.308 237.276 178.68 232.596C184.08 225.12 206.88 209.052 206.88 205.368V204C206.706 200.232 184.08 184.26 178.68 176.82C175.314 172.134 173.808 153.468 173.808 153.468H246.33C246.33 153.468 244.83 172.134 241.458 176.82C236.058 184.29 213.258 200.358 213.258 204.042V205.416C213.456 209.178 236.1 225.15 241.458 232.596Z" fill="#EBEBEB"/>
<path d="M246.492 259.314H173.646V259.152C173.706 258.258 175.188 237.174 178.548 232.506C181.086 228.978 187.416 223.602 193.548 218.412C200.016 212.922 206.7 207.252 206.7 205.368V204C206.61 202.086 200.268 196.704 193.554 191.01C187.428 185.814 181.092 180.438 178.554 176.904C175.2 172.242 173.712 154.248 173.652 153.504V153.342H246.492V153.504C246.432 154.272 244.95 172.266 241.59 176.904C239.052 180.438 232.722 185.808 226.59 190.998C220.122 196.488 213.438 202.158 213.438 204.042V205.416C213.528 207.33 219.87 212.706 226.584 218.4C232.71 223.602 239.046 228.972 241.584 232.506C244.944 237.174 246.426 258.258 246.486 259.152L246.492 259.314ZM174 259.014H246.168C246.024 257.01 244.494 237.066 241.368 232.68C238.8 229.2 232.494 223.8 226.38 218.628C219.324 212.628 213.228 207.474 213.132 205.428V204.048C213.132 202.026 219.276 196.812 226.392 190.776C232.5 185.598 238.818 180.234 241.338 176.736C244.482 172.368 246.012 155.472 246.138 153.624H174C174.156 155.472 175.692 172.368 178.83 176.736C181.35 180.24 187.674 185.604 193.788 190.788C200.844 196.788 206.94 201.948 207.036 203.988V205.368C207.036 207.39 200.892 212.604 193.776 218.64C187.638 223.8 181.32 229.2 178.8 232.68C175.644 237.066 174.114 257.01 174 259.014Z" fill="#C7C7C7"/>
</g>
<path opacity="0.8" d="M237.768 231.042C240.936 235.452 242.352 259.158 242.352 259.158H178.248C178.248 259.158 179.658 235.452 182.832 231.042C187.896 224.01 209.346 208.89 209.346 205.422V204.132C209.184 200.592 187.872 185.532 182.832 178.56C179.664 174.15 178.248 153.36 178.248 153.36H242.352C242.352 153.36 240.942 174.144 237.768 178.56C232.704 185.592 211.248 200.712 211.248 204.18V205.47C211.416 209.01 232.728 224.04 237.768 231.042Z" fill="#EBEBEB"/>
<path d="M241.59 259.164H178.548C178.548 259.164 204.258 227.898 210.066 227.898C215.874 227.898 241.59 259.164 241.59 259.164Z" fill="#4E77F7"/>
<path opacity="0.1" d="M241.59 259.164H178.548C178.548 259.164 204.258 227.898 210.066 227.898C215.874 227.898 241.59 259.164 241.59 259.164Z" fill="black"/>
<g opacity="0.1">
<path d="M225.126 253.908C225.126 253.996 225.1 254.082 225.051 254.155C225.002 254.228 224.933 254.285 224.852 254.318C224.771 254.352 224.682 254.361 224.595 254.343C224.509 254.326 224.43 254.284 224.368 254.222C224.306 254.16 224.264 254.081 224.247 253.995C224.229 253.908 224.238 253.819 224.272 253.738C224.305 253.657 224.362 253.588 224.435 253.539C224.508 253.49 224.594 253.464 224.682 253.464C224.74 253.464 224.798 253.475 224.852 253.498C224.906 253.52 224.955 253.553 224.996 253.594C225.037 253.635 225.07 253.684 225.092 253.738C225.115 253.792 225.126 253.85 225.126 253.908Z" fill="black"/>
<path d="M193.356 248.286C193.354 248.404 193.306 248.517 193.222 248.6C193.138 248.683 193.024 248.73 192.906 248.73C192.788 248.73 192.675 248.683 192.592 248.6C192.509 248.517 192.462 248.404 192.462 248.286C192.462 248.168 192.509 248.055 192.592 247.972C192.675 247.889 192.788 247.842 192.906 247.842C193.024 247.842 193.138 247.889 193.222 247.972C193.306 248.055 193.354 248.168 193.356 248.286Z" fill="black"/>
<path d="M226.164 252.096C226.165 252.163 226.147 252.228 226.11 252.284C226.074 252.34 226.022 252.384 225.961 252.411C225.9 252.437 225.832 252.445 225.766 252.432C225.701 252.42 225.64 252.388 225.593 252.342C225.545 252.295 225.512 252.235 225.499 252.17C225.486 252.104 225.492 252.037 225.517 251.975C225.542 251.913 225.585 251.86 225.641 251.823C225.696 251.786 225.761 251.766 225.828 251.766C225.916 251.766 226.001 251.801 226.064 251.862C226.126 251.924 226.162 252.008 226.164 252.096Z" fill="black"/>
<path d="M221.928 240.06C221.928 240.148 221.893 240.233 221.832 240.296C221.77 240.358 221.686 240.394 221.598 240.396C221.531 240.397 221.466 240.379 221.41 240.342C221.354 240.306 221.31 240.254 221.283 240.193C221.257 240.132 221.249 240.064 221.262 239.998C221.274 239.933 221.306 239.872 221.352 239.825C221.399 239.777 221.459 239.744 221.524 239.731C221.59 239.718 221.657 239.724 221.719 239.749C221.781 239.774 221.834 239.817 221.871 239.873C221.908 239.928 221.928 239.993 221.928 240.06Z" fill="black"/>
<path d="M186.318 255.246C186.319 255.313 186.301 255.378 186.264 255.434C186.228 255.49 186.176 255.534 186.115 255.561C186.054 255.587 185.986 255.595 185.92 255.582C185.855 255.57 185.794 255.538 185.747 255.492C185.699 255.445 185.666 255.385 185.653 255.32C185.64 255.254 185.646 255.187 185.671 255.125C185.696 255.063 185.739 255.01 185.795 254.973C185.85 254.936 185.915 254.916 185.982 254.916C186.07 254.916 186.155 254.951 186.217 255.012C186.28 255.074 186.316 255.158 186.318 255.246Z" fill="black"/>
<path d="M205.632 237.768C205.632 237.811 205.623 237.854 205.607 237.894C205.59 237.934 205.566 237.971 205.535 238.001C205.505 238.032 205.468 238.056 205.428 238.073C205.388 238.09 205.345 238.098 205.302 238.098C205.259 238.098 205.216 238.09 205.176 238.073C205.136 238.056 205.099 238.032 205.069 238.001C205.038 237.971 205.014 237.934 204.997 237.894C204.981 237.854 204.972 237.811 204.972 237.768C204.971 237.724 204.979 237.681 204.995 237.641C205.012 237.6 205.036 237.564 205.067 237.533C205.098 237.502 205.134 237.478 205.175 237.462C205.215 237.445 205.258 237.437 205.302 237.438C205.39 237.438 205.473 237.473 205.535 237.535C205.597 237.597 205.632 237.681 205.632 237.768Z" fill="black"/>
<path d="M204.972 235.446C204.97 235.507 204.945 235.565 204.901 235.608C204.858 235.65 204.799 235.674 204.738 235.674C204.678 235.674 204.62 235.65 204.577 235.607C204.534 235.564 204.51 235.506 204.51 235.446C204.51 235.386 204.534 235.328 204.577 235.285C204.62 235.242 204.678 235.218 204.738 235.218C204.799 235.218 204.858 235.242 204.901 235.284C204.945 235.327 204.97 235.385 204.972 235.446Z" fill="black"/>
<path d="M209.766 251.538C209.767 251.585 209.754 251.63 209.73 251.67C209.705 251.709 209.668 251.74 209.626 251.758C209.583 251.777 209.536 251.783 209.49 251.774C209.444 251.766 209.402 251.744 209.369 251.712C209.335 251.679 209.313 251.637 209.303 251.592C209.293 251.546 209.298 251.499 209.315 251.456C209.333 251.413 209.363 251.376 209.401 251.35C209.44 251.324 209.485 251.31 209.532 251.31C209.562 251.309 209.593 251.315 209.621 251.326C209.649 251.337 209.675 251.353 209.697 251.375C209.719 251.396 209.736 251.421 209.748 251.449C209.76 251.477 209.766 251.508 209.766 251.538Z" fill="black"/>
<path d="M195.51 253.068C195.511 253.115 195.498 253.16 195.474 253.2C195.449 253.239 195.412 253.27 195.37 253.288C195.327 253.307 195.28 253.313 195.234 253.304C195.188 253.296 195.146 253.274 195.113 253.242C195.079 253.209 195.057 253.168 195.047 253.122C195.038 253.076 195.042 253.029 195.059 252.986C195.077 252.943 195.107 252.906 195.145 252.88C195.184 252.854 195.229 252.84 195.276 252.84C195.306 252.839 195.337 252.845 195.365 252.856C195.393 252.867 195.419 252.883 195.441 252.905C195.463 252.926 195.48 252.951 195.492 252.979C195.504 253.007 195.51 253.038 195.51 253.068Z" fill="black"/>
<path d="M224.466 243.528C224.466 243.573 224.453 243.617 224.428 243.655C224.403 243.692 224.367 243.721 224.325 243.739C224.284 243.756 224.238 243.76 224.194 243.752C224.149 243.743 224.109 243.721 224.077 243.689C224.045 243.657 224.023 243.617 224.014 243.573C224.006 243.528 224.01 243.482 224.027 243.441C224.045 243.399 224.074 243.364 224.111 243.338C224.149 243.313 224.193 243.3 224.238 243.3C224.298 243.3 224.356 243.324 224.399 243.367C224.442 243.41 224.466 243.468 224.466 243.528Z" fill="black"/>
<path d="M230.496 255.246C230.622 255.246 230.724 255.144 230.724 255.018C230.724 254.892 230.622 254.79 230.496 254.79C230.37 254.79 230.268 254.892 230.268 255.018C230.268 255.144 230.37 255.246 230.496 255.246Z" fill="black"/>
</g>
<path d="M210.6 225.378C210.6 226.644 211.98 229.122 211.98 229.122H208.614C208.614 229.122 209.994 226.644 209.994 225.378V210.288C209.994 202.272 209.34 201.162 208.71 200.202C207.072 199.212 204.756 197.112 202.278 194.604H218.316C215.832 197.118 213.516 199.224 211.878 200.208C211.278 201.162 210.606 202.302 210.606 210.282L210.6 225.378Z" fill="#4E77F7"/>
<path opacity="0.1" d="M210.6 225.378C210.6 226.644 211.98 229.122 211.98 229.122H208.614C208.614 229.122 209.994 226.644 209.994 225.378V210.288C209.994 202.272 209.34 201.162 208.71 200.202C207.072 199.212 204.756 197.112 202.278 194.604H218.316C215.832 197.118 213.516 199.224 211.878 200.208C211.278 201.162 210.606 202.302 210.606 210.282L210.6 225.378Z" fill="black"/>
<g opacity="0.1">
<path d="M208.2 196.554C208.199 196.487 208.218 196.421 208.254 196.365C208.291 196.309 208.343 196.265 208.405 196.239C208.466 196.213 208.534 196.205 208.6 196.218C208.666 196.231 208.726 196.263 208.774 196.31C208.821 196.358 208.853 196.418 208.866 196.484C208.879 196.55 208.871 196.618 208.845 196.679C208.819 196.741 208.775 196.793 208.719 196.83C208.663 196.866 208.597 196.885 208.53 196.884C208.442 196.884 208.359 196.849 208.297 196.787C208.235 196.725 208.2 196.642 208.2 196.554Z" fill="black"/>
<path d="M206.658 197.706C206.667 197.651 206.695 197.601 206.737 197.565C206.78 197.529 206.833 197.509 206.889 197.509C206.945 197.509 206.998 197.529 207.041 197.565C207.083 197.601 207.111 197.651 207.12 197.706C207.125 197.739 207.123 197.774 207.114 197.806C207.105 197.839 207.089 197.869 207.067 197.895C207.045 197.921 207.018 197.941 206.987 197.956C206.956 197.97 206.923 197.977 206.889 197.977C206.855 197.977 206.822 197.97 206.791 197.956C206.76 197.941 206.733 197.921 206.711 197.895C206.689 197.869 206.673 197.839 206.664 197.806C206.655 197.774 206.653 197.739 206.658 197.706Z" fill="black"/>
<path d="M215.208 195.996C215.208 195.935 215.232 195.876 215.274 195.833C215.317 195.789 215.375 195.764 215.436 195.762C215.498 195.763 215.556 195.789 215.6 195.832C215.643 195.876 215.668 195.934 215.67 195.996C215.668 196.057 215.643 196.115 215.599 196.158C215.556 196.2 215.497 196.224 215.436 196.224C215.376 196.224 215.318 196.2 215.275 196.157C215.232 196.114 215.208 196.056 215.208 195.996Z" fill="black"/>
</g>
<path d="M181.338 255.828C181.084 251.684 181.136 247.526 181.494 243.39C181.662 241.32 181.896 239.262 182.268 237.162C182.382 236.616 182.466 236.112 182.628 235.542L182.748 235.116L182.802 234.906C182.802 234.828 182.874 234.726 182.91 234.636C183.038 234.307 183.195 233.99 183.378 233.688C183.98 232.74 184.656 231.841 185.4 231C188.167 227.879 191.176 224.982 194.4 222.336C197.578 219.664 200.949 217.232 204.486 215.058C201.9 218.334 199.128 221.382 196.344 224.394C193.56 227.406 190.698 230.334 188.1 233.322C187.479 234.015 186.907 234.75 186.39 235.524C186.302 235.659 186.222 235.799 186.15 235.944C186.133 235.972 186.118 236.002 186.108 236.034L186.054 236.19L185.958 236.502C185.814 236.916 185.712 237.42 185.574 237.876C185.106 239.802 184.692 241.806 184.26 243.798C183.414 247.8 182.532 251.826 181.338 255.828Z" fill="white"/>
<path d="M204.51 195.336C201.161 192.974 197.946 190.428 194.88 187.71C191.808 185.026 188.832 182.248 185.952 179.376L185.412 178.836L185.142 178.566L184.824 178.236C184.384 177.722 184.018 177.148 183.738 176.532C183.282 175.521 182.907 174.476 182.616 173.406C182.069 171.393 181.65 169.347 181.362 167.28C180.755 163.204 180.534 159.08 180.702 154.962C182.01 158.88 183.054 162.816 184.152 166.686C184.71 168.618 185.244 170.55 185.892 172.386C186.179 173.268 186.528 174.128 186.936 174.96C187.077 175.269 187.259 175.557 187.476 175.818L188.502 176.838C191.374 179.71 194.16 182.674 196.86 185.73C199.588 188.787 202.142 191.994 204.51 195.336Z" fill="white"/>
<path d="M25.35 270.012L56.514 269.862L87.672 269.814L150 269.712L212.328 269.814L243.486 269.862L274.65 270.012L243.486 270.156L212.328 270.21L150 270.312L87.672 270.21L56.514 270.156L25.35 270.012Z" fill="#263238"/>
</svg>
