<svg width="24" height="25" viewBox="0 0 24 25" xmlns="http://www.w3.org/2000/svg">
<path
        d="M20 1.5H4C3.20435 1.5 2.44129 1.81607 1.87868 2.37868C1.31607 2.94129 1 3.70435 1 4.5V20.5C1 21.2957 1.31607 22.0587 1.87868 22.6213C2.44129 23.1839 3.20435 23.5 4 23.5H20C20.7957 23.5 21.5587 23.1839 22.1213 22.6213C22.6839 22.0587 23 21.2957 23 20.5V4.5C23 3.70435 22.6839 2.94129 22.1213 2.37868C21.5587 1.81607 20.7957 1.5 20 1.5ZM7 18.5H6C5.73479 18.5 5.48043 18.3947 5.2929 18.2071C5.10536 18.0196 5 17.7652 5 17.5C5 17.2348 5.10536 16.9804 5.2929 16.7929C5.48043 16.6054 5.73479 16.5 6 16.5H7C7.26522 16.5 7.51957 16.6054 7.70711 16.7929C7.89465 16.9804 8 17.2348 8 17.5C8 17.7652 7.89465 18.0196 7.70711 18.2071C7.51957 18.3947 7.26522 18.5 7 18.5ZM7 13.5H6C5.73479 13.5 5.48043 13.3947 5.2929 13.2071C5.10536 13.0196 5 12.7652 5 12.5C5 12.2348 5.10536 11.9804 5.2929 11.7929C5.48043 11.6054 5.73479 11.5 6 11.5H7C7.26522 11.5 7.51957 11.6054 7.70711 11.7929C7.89465 11.9804 8 12.2348 8 12.5C8 12.7652 7.89465 13.0196 7.70711 13.2071C7.51957 13.3947 7.26522 13.5 7 13.5ZM7 8.5H6C5.73479 8.5 5.48043 8.39465 5.2929 8.20711C5.10536 8.01957 5 7.76522 5 7.5C5 7.23479 5.10536 6.98043 5.2929 6.7929C5.48043 6.60536 5.73479 6.5 6 6.5H7C7.26522 6.5 7.51957 6.60536 7.70711 6.7929C7.89465 6.98043 8 7.23479 8 7.5C8 7.76522 7.89465 8.01957 7.70711 8.20711C7.51957 8.39465 7.26522 8.5 7 8.5ZM18 18.5H11C10.7348 18.5 10.4804 18.3947 10.2929 18.2071C10.1054 18.0196 10 17.7652 10 17.5C10 17.2348 10.1054 16.9804 10.2929 16.7929C10.4804 16.6054 10.7348 16.5 11 16.5H18C18.2652 16.5 18.5196 16.6054 18.7071 16.7929C18.8947 16.9804 19 17.2348 19 17.5C19 17.7652 18.8947 18.0196 18.7071 18.2071C18.5196 18.3947 18.2652 18.5 18 18.5ZM18 13.5H11C10.7348 13.5 10.4804 13.3947 10.2929 13.2071C10.1054 13.0196 10 12.7652 10 12.5C10 12.2348 10.1054 11.9804 10.2929 11.7929C10.4804 11.6054 10.7348 11.5 11 11.5H18C18.2652 11.5 18.5196 11.6054 18.7071 11.7929C18.8947 11.9804 19 12.2348 19 12.5C19 12.7652 18.8947 13.0196 18.7071 13.2071C18.5196 13.3947 18.2652 13.5 18 13.5ZM18 8.5H11C10.7348 8.5 10.4804 8.39465 10.2929 8.20711C10.1054 8.01957 10 7.76522 10 7.5C10 7.23479 10.1054 6.98043 10.2929 6.7929C10.4804 6.60536 10.7348 6.5 11 6.5H18C18.2652 6.5 18.5196 6.60536 18.7071 6.7929C18.8947 6.98043 19 7.23479 19 7.5C19 7.76522 18.8947 8.01957 18.7071 8.20711C18.5196 8.39465 18.2652 8.5 18 8.5Z" />
</svg>
