<svg width="14" height="21" viewBox="0 0 14 21" fill="none" xmlns="http://www.w3.org/2000/svg">
    <path d="M6.83076 0.635742C3.23709 0.635742 0.313354 3.6987 0.313354 7.4635C0.313354 12.1955 6.83717 20.2786 6.83717 20.2786C6.83717 20.2786 13.3482 11.9628 13.3482 7.4635C13.3482 3.6987 10.4246 0.635742 6.83076 0.635742ZM8.7972 9.46268C8.25498 10.0306 7.54293 10.3146 6.83076 10.3146C6.11871 10.3146 5.40643 10.0306 4.86444 9.46268C3.78011 8.32684 3.78011 6.4786 4.86444 5.34264C5.3895 4.79234 6.08793 4.48926 6.83076 4.48926C7.5736 4.48926 8.27192 4.79246 8.7972 5.34264C9.88153 6.4786 9.88153 8.32684 8.7972 9.46268Z" />
</svg>
