<svg width="28" height="41" viewBox="0 0 28 41" fill="none" xmlns="http://www.w3.org/2000/svg">
    <path fill-rule="evenodd" clip-rule="evenodd" d="M10.1454 11.7605C4.54226 11.7605 0 16.2387 0 21.763V40.2366C0 40.9648 0.93695 41.2781 1.3862 40.7L8.15618 31.9892C8.33042 31.765 8.61587 31.6566 8.90023 31.6909C9.3083 31.7402 9.72386 31.7655 10.1454 31.7655C15.7486 31.7655 20.2908 27.2872 20.2908 21.763C20.2908 16.2387 15.7486 11.7605 10.1454 11.7605ZM10.1456 26.6852C7.3885 26.6852 5.15343 24.4816 5.15343 21.7633C5.15343 19.045 7.3885 16.8414 10.1456 16.8414C12.9027 16.8414 15.1378 19.045 15.1378 21.7633C15.1378 24.4816 12.9027 26.6852 10.1456 26.6852Z" />
    <path d="M14.3698 0.0153262C17.0403 0.422935 19.6056 1.35623 21.9106 2.76474C24.2157 4.17326 26.2049 6.02292 27.7634 8.19943C28.2132 8.82757 27.9961 9.68695 27.3291 10.0854C26.662 10.4838 25.7983 10.2698 25.3413 9.64671C24.0186 7.84357 22.349 6.30843 20.4228 5.13147C18.4967 3.9545 16.3593 3.16337 14.1329 2.79789C13.3636 2.6716 12.7849 2.0042 12.85 1.23798C12.9151 0.471773 13.5991 -0.102309 14.3698 0.0153262Z" />
    <path d="M13.8946 5.80631C15.6355 6.12503 17.3055 6.76055 18.8176 7.68452C20.3297 8.60849 21.6501 9.80023 22.7142 11.1956C23.1889 11.818 22.9676 12.6901 22.292 13.0936C21.6165 13.4972 20.7437 13.2776 20.2534 12.6671C19.4339 11.6466 18.4391 10.7709 17.3108 10.0815C16.1826 9.39208 14.9445 8.90341 13.6529 8.63386C12.8802 8.4726 12.2924 7.79966 12.3583 7.02366C12.4243 6.24765 13.118 5.66414 13.8946 5.80631Z" />
</svg>
