<svg width="24" height="25" viewBox="0 0 24 25" fill="none" xmlns="http://www.w3.org/2000/svg">
<g clip-path="url(#clip0_660_10866)">
<path
        d="M15 13.5C14.447 13.5 14 13.948 14 14.5V18.5C14 19.051 13.552 19.5 13 19.5H10V4.5C10 3.646 9.456 2.883 8.638 2.599L8.342 2.5H13C13.552 2.5 14 2.949 14 3.5V6.5C14 7.052 14.447 7.5 15 7.5C15.553 7.5 16 7.052 16 6.5V3.5C16 1.846 14.654 0.5 13 0.5H2.25C2.212 0.5 2.18 0.517 2.143 0.522C2.095 0.518 2.049 0.5 2 0.5C0.897 0.5 0 1.397 0 2.5V20.5C0 21.354 0.544 22.117 1.362 22.401L7.38 24.407C7.584 24.47 7.787 24.5 8 24.5C9.103 24.5 10 23.603 10 22.5V21.5H13C14.654 21.5 16 20.154 16 18.5V14.5C16 13.948 15.553 13.5 15 13.5Z" />
<path d="M13.293 11.2029L17.293 15.2029C17.579 15.4889 18.009 15.5749 18.383 15.4199C18.756 15.2649 19 14.8999 19 14.4959L19 11.4959L23 11.4959C23.552 11.4959 24 11.0479 24 10.4959C24 9.9439 23.552 9.4959 23 9.4959L19 9.4959L19 6.4959C19 6.0919 18.756 5.7269 18.383 5.5719C18.009 5.4169 17.579 5.5029 17.293 5.7889L13.293 9.7889C12.902 10.1799 12.902 10.8119 13.293 11.2029Z"/>
</g>
<defs>
<clipPath id="clip0_660_10866">
<rect width="24" height="24" fill="white" transform="translate(0 0.5)"/>
</clipPath>
</defs>
</svg>
