<svg width="27" height="27" viewBox="0 0 27 27" fill="none" xmlns="http://www.w3.org/2000/svg">
    <path fill-rule="evenodd" clip-rule="evenodd" d="M16.7568 19.0936C16.8164 19.0904 16.8768 19.0926 16.937 19.0998C19.5469 19.416 21.608 20.1135 22.6198 20.9222C23.3122 21.4755 23.6191 22.1187 23.6191 22.7472C23.6191 23.5013 23.1483 24.3046 22.0966 24.9315C20.4836 25.8926 17.2428 26.5951 13.5002 26.5951C9.75763 26.5951 6.51682 25.8926 4.90377 24.9315C3.85211 24.3046 3.38135 23.5013 3.38135 22.7472C3.38135 22.1187 3.68824 21.4755 4.38062 20.9222C5.39245 20.1135 7.45354 19.416 10.0634 19.0998C10.1236 19.0926 10.184 19.0904 10.2436 19.0936L10.3468 20.8986C10.4425 22.5702 11.8259 23.8769 13.5002 23.8769C15.1745 23.8767 16.5579 22.5702 16.6536 20.8986L16.7568 19.0936ZM11.0109 16.1178H10.0963C9.64241 16.1178 9.26013 15.7788 9.2056 15.3283C9.02488 13.8329 8.63111 10.5731 8.41003 8.74382C8.36967 8.411 8.47392 8.07684 8.69634 7.82609C8.91875 7.57534 9.23794 7.43152 9.57317 7.43152H17.4272C17.7625 7.43152 18.0816 7.57534 18.3041 7.82609C18.5265 8.07684 18.6307 8.411 18.5904 8.74382C18.3693 10.5731 17.9755 13.8329 17.7948 15.3283C17.7403 15.7788 17.358 16.1178 16.9041 16.1178H15.9895L15.7195 20.8452C15.6522 22.0214 14.6786 22.941 13.5002 22.941C12.3218 22.941 11.3482 22.0214 11.2809 20.8449L11.0109 16.1175V16.1178ZM13.5002 0.404297C15.0181 0.404297 16.2502 1.63641 16.2502 3.15429C16.2502 4.67217 15.0181 5.90454 13.5002 5.90454C11.9823 5.90454 10.7502 4.67217 10.7502 3.15429C10.7502 1.63641 11.9823 0.404297 13.5002 0.404297Z" />
</svg>
