<svg width="16" height="23" viewBox="0 0 16 23" fill="none" xmlns="http://www.w3.org/2000/svg">
    <path fill-rule="evenodd" clip-rule="evenodd" d="M10.6419 16.0622C10.6868 16.0595 10.7324 16.0613 10.7778 16.0674C12.7469 16.3334 14.3019 16.9201 15.0653 17.6004C15.5876 18.0659 15.8192 18.607 15.8192 19.1357C15.8192 19.77 15.464 20.4458 14.6706 20.9732C13.4536 21.7816 11.0085 22.3726 8.18492 22.3726C5.3613 22.3726 2.91625 21.7816 1.69927 20.9732C0.90583 20.4458 0.550659 19.77 0.550659 19.1357C0.550659 18.607 0.782196 18.0659 1.30457 17.6004C2.06795 16.9201 3.62296 16.3334 5.59203 16.0674C5.63741 16.0613 5.68299 16.0595 5.72797 16.0622L5.80582 17.5806C5.87802 18.9868 6.92175 20.086 8.18492 20.086C9.44809 20.0858 10.4918 18.9868 10.564 17.5806L10.6419 16.0622ZM6.30681 13.5588H5.61684C5.27437 13.5588 4.98596 13.2737 4.94482 12.8948C4.80848 11.6368 4.51139 8.89458 4.3446 7.35572C4.31414 7.07574 4.3928 6.79464 4.5606 6.5837C4.72841 6.37276 4.96922 6.25178 5.22214 6.25178H11.1477C11.4006 6.25178 11.6414 6.37276 11.8092 6.5837C11.977 6.79464 12.0557 7.07574 12.0252 7.35572C11.8584 8.89458 11.5614 11.6368 11.425 12.8948C11.3839 13.2737 11.0955 13.5588 10.753 13.5588H10.063L9.85933 17.5356C9.8085 18.5251 9.07396 19.2987 8.18492 19.2987C7.29588 19.2987 6.56134 18.5251 6.51051 17.5354L6.30681 13.5586V13.5588ZM8.18492 0.340332C9.3301 0.340332 10.2597 1.37681 10.2597 2.65368C10.2597 3.93056 9.3301 4.96726 8.18492 4.96726C7.03974 4.96726 6.11017 3.93056 6.11017 2.65368C6.11017 1.37681 7.03974 0.340332 8.18492 0.340332Z" />
</svg>
