<svg width="20" height="20" viewBox="0 0 20 20" fill="none" xmlns="http://www.w3.org/2000/svg">
    <g clip-path="url(#clip0_2851_51806)">
        <path d="M19.8854 7.30184C19.7876 7.18251 19.6416 7.11287 19.4885 7.11287H17.542C17.0617 5.8459 16.4359 4.60455 15.7246 4.13596C13.2639 2.51718 6.73725 2.51718 4.27662 4.13596C3.5648 4.60506 2.94158 5.84795 2.45867 7.11287H0.512186C0.357533 7.11287 0.212097 7.18251 0.11531 7.30184C0.0180113 7.42065 -0.0209081 7.57786 0.010842 7.72894L0.299153 9.12598C0.348315 9.36411 0.558275 9.53413 0.800498 9.53413H1.37712C0.820469 10.1763 0.550594 10.9849 0.547009 11.7941C0.543424 12.7937 0.922889 13.6971 1.61678 14.3362C1.62446 14.3429 1.63215 14.3475 1.63931 14.3541V16.3089C1.63931 16.7324 1.98345 17.077 2.40746 17.077H4.20288C4.6269 17.077 4.97103 16.7324 4.97103 16.3089V15.5233H15.0292V16.3089C15.0292 16.7324 15.3733 17.077 15.7973 17.077H17.5927C18.0157 17.077 18.3609 16.7324 18.3609 16.3089V14.3925C19.0973 13.7181 19.4491 12.7901 19.4537 11.8637C19.4568 11.0269 19.1746 10.1886 18.5852 9.53311H19.2002C19.4434 9.53311 19.6534 9.36308 19.7015 9.12444L19.9904 7.72791C20.0201 7.57786 19.9827 7.42167 19.8854 7.30184ZM5.12005 5.4188C7.08138 4.12777 12.9188 4.12777 14.8791 5.4188C15.2601 5.66871 15.7502 6.67911 16.1993 7.91637H3.80088C4.24897 6.67962 4.73905 5.66974 5.12005 5.4188ZM2.82277 11.9866C2.82277 11.1519 3.49977 10.4759 4.33398 10.4759C5.16921 10.4759 5.84518 11.1519 5.84518 11.9866C5.84518 12.8214 5.16921 13.4979 4.33398 13.4979C3.49977 13.4979 2.82277 12.8214 2.82277 11.9866ZM15.6862 13.4979C14.852 13.4979 14.175 12.8214 14.175 11.9866C14.175 11.1519 14.852 10.4759 15.6862 10.4759C16.5214 10.4759 17.1974 11.1519 17.1974 11.9866C17.1974 12.8214 16.5204 13.4979 15.6862 13.4979Z"/>
    </g>
    <defs>
        <clipPath id="clip0_2851_51806">
            <rect width="20" height="20" fill="white"/>
        </clipPath>
    </defs>
</svg>
