<svg width="35" height="35" viewBox="0 0 35 35" fill="none" xmlns="http://www.w3.org/2000/svg">
    <rect width="35" height="35" rx="3" fill="#4E77F7"/>
    <path d="M23.404 15.324C23.404 15.996 23.242 16.626 22.918 17.214C22.606 17.802 22.108 18.276 21.424 18.636C20.752 18.996 19.9 19.176 18.868 19.176H16.762V24H14.242V11.436H18.868C19.84 11.436 20.668 11.604 21.352 11.94C22.036 12.276 22.546 12.738 22.882 13.326C23.23 13.914 23.404 14.58 23.404 15.324ZM18.76 17.142C19.456 17.142 19.972 16.986 20.308 16.674C20.644 16.35 20.812 15.9 20.812 15.324C20.812 14.1 20.128 13.488 18.76 13.488H16.762V17.142H18.76Z" fill="white"/>
</svg>
