<svg width="25" height="25" viewBox="0 0 25 25" fill="none" xmlns="http://www.w3.org/2000/svg">
    <rect width="25" height="25" rx="3" fill="#4E77F7" />
    <path d="M16.092 10.252C16.092 10.7747 15.966 11.2647 15.714 11.722C15.4713 12.1793 15.084 12.548 14.552 12.828C14.0293 13.108 13.3667 13.248 12.564 13.248H10.926V17H8.966V7.228H12.564C13.32 7.228 13.964 7.35867 14.496 7.62C15.028 7.88133 15.4247 8.24067 15.686 8.698C15.9567 9.15533 16.092 9.67333 16.092 10.252ZM12.48 11.666C13.0213 11.666 13.4227 11.5447 13.684 11.302C13.9453 11.05 14.076 10.7 14.076 10.252C14.076 9.3 13.544 8.824 12.48 8.824H10.926V11.666H12.48Z" fill="white"/>
</svg>