<svg width="12" height="12" viewBox="0 0 12 12" fill="none" xmlns="http://www.w3.org/2000/svg">
<g clip-path="url(#clip0_1224_19241)">
<path d="M7.4104 2.01562L0.807834 8.61867C0.774617 8.65198 0.750632 8.69405 0.73921 8.73926L0.00737864 11.6767C-0.0145125 11.7651 0.0114714 11.8591 0.0760027 11.9237C0.12483 11.9725 0.19136 11.9995 0.259413 11.9995C0.280257 11.9995 0.301577 11.997 0.322326 11.9917L3.25974 11.2598C3.30552 11.2484 3.34712 11.2245 3.38033 11.1913L9.98347 4.5887L7.4104 2.01562Z"/>
<path d="M11.6198 1.11542L10.8848 0.380443C10.3936 -0.110776 9.53743 -0.1103 9.04678 0.380443L8.14648 1.28074L10.7195 3.85372L11.6198 2.95342C11.8651 2.70814 12.0003 2.38168 12.0003 2.03446C12.0003 1.68725 11.8651 1.36079 11.6198 1.11542Z" />
</g>
<defs>
<clipPath id="clip0_1224_19241">
<rect width="12" height="12" fill="white"/>
</clipPath>
</defs>
</svg>
