<svg width="20" height="19" viewBox="0 0 20 19" fill="none" xmlns="http://www.w3.org/2000/svg">
<path d="M18.7083 6.33334C18.2713 6.33334 17.9167 5.97946 17.9167 5.54167V2.375C17.9167 1.938 17.5612 1.58333 17.125 1.58333H13.9583C13.5213 1.58333 13.1667 1.22946 13.1667 0.791667C13.1667 0.353875 13.5213 0 13.9583 0H17.125C18.4344 0 19.5 1.06558 19.5 2.375V5.54167C19.5 5.97946 19.1453 6.33334 18.7083 6.33334Z" fill="white"/>
<path d="M17.125 19H13.9583C13.5213 19 13.1667 18.6461 13.1667 18.2083C13.1667 17.7705 13.5213 17.4166 13.9583 17.4166H17.125C17.5612 17.4166 17.9167 17.062 17.9167 16.625V13.4583C17.9167 13.0205 18.2713 12.6666 18.7083 12.6666C19.1453 12.6666 19.5 13.0205 19.5 13.4583V16.625C19.5 17.9344 18.4344 19 17.125 19Z" fill="white"/>
<path d="M6.04167 19H2.875C1.56558 19 0.5 17.9344 0.5 16.625V13.4583C0.5 13.0205 0.854667 12.6666 1.29167 12.6666C1.72867 12.6666 2.08333 13.0205 2.08333 13.4583V16.625C2.08333 17.062 2.43879 17.4166 2.875 17.4166H6.04167C6.47867 17.4166 6.83334 17.7705 6.83334 18.2083C6.83334 18.6461 6.47867 19 6.04167 19Z" fill="white"/>
<path d="M1.29167 6.33333C0.854667 6.33333 0.5 5.97946 0.5 5.54167V2.375C0.5 1.06558 1.56558 0 2.875 0H6.04167C6.47867 0 6.83333 0.353875 6.83333 0.791667C6.83333 1.22946 6.47867 1.58333 6.04167 1.58333H2.875C2.43879 1.58333 2.08333 1.938 2.08333 2.375V5.54167C2.08333 5.97946 1.72867 6.33333 1.29167 6.33333Z" fill="white"/>
<path d="M14.75 8.70838C14.313 8.70838 13.9583 8.3545 13.9583 7.91671V5.54171H6.04167V7.91671C6.04167 8.3545 5.687 8.70838 5.25 8.70838C4.813 8.70838 4.45833 8.3545 4.45833 7.91671V5.54171C4.45833 4.6685 5.16846 3.95837 6.04167 3.95837H13.9583C14.8315 3.95837 15.5417 4.6685 15.5417 5.54171V7.91671C15.5417 8.3545 15.187 8.70838 14.75 8.70838Z" fill="white"/>
<path d="M17.125 11.0833C17.125 11.5211 16.7703 11.875 16.3333 11.875H15.5417V13.4583C15.5417 14.3315 14.8315 15.0416 13.9583 15.0416H6.04167C5.16846 15.0416 4.45833 14.3315 4.45833 13.4583V11.875H3.66667C3.22967 11.875 2.875 11.5211 2.875 11.0833C2.875 10.6455 3.22967 10.2916 3.66667 10.2916H16.3333C16.7703 10.2916 17.125 10.6455 17.125 11.0833Z" fill="white"/>
</svg>
