<svg width="24" height="24" viewBox="0 0 24 24" fill="none" xmlns="http://www.w3.org/2000/svg">
    <path d="M19.2617 17.6626L15.6916 13.9496C16.6096 12.8584 17.1125 11.4855 17.1125 10.0562C17.1125 6.71688 14.3956 4 11.0562 4C7.71688 4 5 6.71688 5 10.0562C5 13.3956 7.71688 16.1125 11.0562 16.1125C12.3099 16.1125 13.5045 15.7344 14.5259 15.0166L18.1231 18.7578C18.2734 18.9139 18.4757 19 18.6924 19C18.8975 19 19.0921 18.9218 19.2398 18.7796C19.5537 18.4776 19.5637 17.9768 19.2617 17.6626ZM11.0562 5.57989C13.5246 5.57989 15.5326 7.58793 15.5326 10.0562C15.5326 12.5246 13.5246 14.5326 11.0562 14.5326C8.58793 14.5326 6.57989 12.5246 6.57989 10.0562C6.57989 7.58793 8.58793 5.57989 11.0562 5.57989Z" />
</svg>
