<svg width="15" height="15" viewBox="0 0 15 15" fill="none" xmlns="http://www.w3.org/2000/svg">
    <path d="M14.5195 13.6626L10.9495 9.94962C11.8674 8.85844 12.3703 7.48552 12.3703 6.05624C12.3703 2.71688 9.65342 0 6.31406 0C2.9747 0 0.257812 2.71688 0.257812 6.05624C0.257812 9.3956 2.9747 12.1125 6.31406 12.1125C7.5677 12.1125 8.76236 11.7344 9.78376 11.0166L13.3809 14.7578C13.5313 14.9139 13.7335 15 13.9502 15C14.1553 15 14.3499 14.9218 14.4976 14.7796C14.8115 14.4776 14.8215 13.9768 14.5195 13.6626ZM6.31406 1.57989C8.78237 1.57989 10.7904 3.58793 10.7904 6.05624C10.7904 8.52456 8.78237 10.5326 6.31406 10.5326C3.84574 10.5326 1.8377 8.52456 1.8377 6.05624C1.8377 3.58793 3.84574 1.57989 6.31406 1.57989Z" />
</svg>
