<svg width="123" height="123" viewBox="0 0 123 123" fill="none" xmlns="http://www.w3.org/2000/svg">
    <path d="M117.933 66.1222C119.468 68.1641 120.379 70.6986 120.379 73.4445C120.379 75.5225 119.858 77.4804 118.935 79.1933C118.058 80.8341 116.811 82.2515 115.312 83.3373C116.848 85.3769 117.758 87.9138 117.758 90.6597C117.758 94.7245 115.762 98.3328 112.696 100.555C114.229 102.595 115.137 105.129 115.137 107.872C115.137 114.606 109.66 120.084 102.928 120.084H64.486C58.1535 120.084 51.9386 118.957 46.0096 116.735L26.7812 109.525V58.7037H27.8119C42.2692 43.4296 57.9733 26.0703 60.3492 22.2698V8.09596C60.3492 5.23957 62.6723 2.9165 65.5286 2.9165C77.3097 2.9165 86.8951 12.4995 86.8951 24.2805V30.6732L83.0297 44.0182H110.789C117.523 44.0182 123 49.4955 123 56.2293C123 60.2941 121.001 63.9 117.933 66.1222Z" fill="#FFBD86"/>
    <path d="M112.696 100.555C114.229 102.595 115.137 105.129 115.137 107.873C115.137 114.606 109.66 120.084 102.928 120.084H64.486C58.1535 120.084 51.9386 118.957 46.0096 116.735L26.7812 109.525V79.1934H118.935C118.058 80.8342 116.811 82.2515 115.312 83.3374C116.848 85.377 117.758 87.9139 117.758 90.6597C117.758 94.7245 115.762 98.3328 112.696 100.555Z" fill="#F6A96C"/>
    <path d="M33.9884 41.6423H0V117.729H33.9884V41.6423Z" fill="#6288FF"/>
    <path d="M33.9884 79.1934H0V117.729H33.9884V79.1934Z" fill="#4E77F7"/>
</svg>
