<svg width="200" height="200" viewBox="0 0 200 200" fill="none" xmlns="http://www.w3.org/2000/svg">
<path d="M191.762 107.516C194.258 110.836 195.738 114.957 195.738 119.422C195.738 122.801 194.891 125.984 193.391 128.77C191.965 131.437 189.937 133.742 187.5 135.508C189.996 138.824 191.477 142.949 191.477 147.414C191.477 154.023 188.23 159.891 183.246 163.504C185.738 166.82 187.215 170.941 187.215 175.402C187.215 186.352 178.309 195.258 167.363 195.258H104.855C94.5586 195.258 84.4531 193.426 74.8125 189.812L43.5469 178.09V95.4531H45.2227C68.7305 70.6172 94.2656 42.3906 98.1289 36.2109V13.1641C98.1289 8.51953 101.906 4.74219 106.551 4.74219C125.707 4.74219 141.293 20.3242 141.293 39.4805V49.875L135.008 71.5742H180.145C191.094 71.5742 200 80.4805 200 91.4297C200 98.0391 196.75 103.902 191.762 107.516Z" fill="#FFBD86"/>
<path d="M183.246 163.504C185.738 166.82 187.215 170.941 187.215 175.402C187.215 186.352 178.309 195.258 167.363 195.258H104.855C94.5586 195.258 84.4531 193.426 74.8125 189.813L43.5469 178.09V128.77H193.391C191.965 131.437 189.937 133.742 187.5 135.508C189.996 138.824 191.477 142.949 191.477 147.414C191.477 154.023 188.23 159.891 183.246 163.504Z" fill="#F6A96C"/>
<path d="M55.2656 67.7109H0V191.43H55.2656V67.7109Z" fill="#6288FF"/>
<path d="M55.2656 128.77H0V191.43H55.2656V128.77Z" fill="#4E77F7"/>
</svg>
