<svg width="13" height="18" viewBox="0 0 13 18" fill="none" xmlns="http://www.w3.org/2000/svg">
<path d="M1.59198 7.38273C1.79901 7.38273 1.99691 7.42221 2.1785 7.49396C2.36278 6.82287 2.98167 6.32804 3.71455 6.32804C3.92158 6.32804 4.11948 6.36752 4.30107 6.43928C4.38697 6.12646 4.56739 5.85203 4.80965 5.64805C4.44258 5.06541 4.24517 4.38974 4.24517 3.69136C4.24517 1.65593 5.91155 0 7.95976 0C10.008 0 11.6743 1.65593 11.6743 3.69136C11.6743 5.12524 10.8352 6.42124 9.55174 7.0267V10.0461L9.83055 9.7691C10.5546 9.04955 11.7328 9.04952 12.4569 9.7691C13.181 10.4887 13.181 11.6595 12.4569 12.3791L9.46757 15.3498L8.44641 17.683C8.36217 17.8755 8.17103 18 7.95976 18L1.58972 17.9998C1.36121 17.9998 1.15836 17.8543 1.08623 17.6388C0.375602 15.5159 9.53674e-07 13.1869 9.53674e-07 10.9036V8.96472C3.62396e-05 8.09239 0.714163 7.38273 1.59198 7.38273ZM9.55174 3.69136V5.80081C10.2068 5.31126 10.6131 4.53466 10.6131 3.69136C10.6131 2.23752 9.42279 1.05469 7.95979 1.05469C6.4968 1.05469 5.30653 2.23752 5.30653 3.69136C5.30653 4.26589 5.49353 4.81875 5.83719 5.27336C6.02317 5.27336 6.20179 5.30521 6.36785 5.36371V3.69136C6.36785 2.81903 7.08201 2.10937 7.95979 2.10937C8.83761 2.10934 9.55174 2.81903 9.55174 3.69136ZM1.06129 10.9036C1.06129 12.9463 1.3771 15.0266 1.9765 16.9451L7.61189 16.9452L8.53446 14.8373C8.561 14.7766 8.59878 14.7215 8.64587 14.6747L11.7065 11.6333C12.0177 11.324 12.0177 10.8241 11.7065 10.5148C11.3952 10.2056 10.8922 10.2055 10.581 10.5148L9.39632 11.6921C9.24456 11.8429 9.0163 11.888 8.81801 11.8064C8.61972 11.7247 8.49042 11.5325 8.49042 11.3192V3.69136C8.49042 3.40059 8.25236 3.16402 7.95976 3.16402C7.66715 3.16402 7.4291 3.40059 7.4291 3.69136C7.4291 3.90107 7.4291 8.71922 7.4291 8.96472C7.4291 9.25595 7.1915 9.49206 6.89844 9.49206C6.60537 9.49206 6.36778 9.25595 6.36778 8.96472C6.36778 8.74116 6.36778 7.07894 6.36778 6.85539C6.36778 6.56461 6.12972 6.32804 5.83712 6.32804C5.54451 6.32804 5.30646 6.56461 5.30646 6.85539C5.30646 7.07894 5.30646 8.74116 5.30646 8.96472C5.30646 9.25595 5.06886 9.49206 4.7758 9.49206C4.48273 9.49206 4.24514 9.25595 4.24514 8.96472V7.91004C4.24514 7.61926 4.00712 7.38269 3.71448 7.38269C3.42187 7.38269 3.18382 7.61926 3.18382 7.91004V8.96472C3.18382 9.25595 2.94622 9.49206 2.65316 9.49206C2.36009 9.49206 2.1225 9.25595 2.1225 8.96472C2.1225 8.67394 1.88444 8.43738 1.59184 8.43738C1.29923 8.43738 1.06118 8.67394 1.06118 8.96472V10.9036H1.06129Z" fill="#4E77F7"/>
</svg>
