<svg width="15" height="15" viewBox="0 0 15 15" xmlns="http://www.w3.org/2000/svg">
<path d="M9.54133 5.43457C9.35021 5.43457 9.19531 5.59183 9.19531 5.78586V12.4252C9.19531 12.6191 9.35021 12.7765 9.54133 12.7765C9.73245 12.7765 9.88735 12.6191 9.88735 12.4252V5.78586C9.88735 5.59183 9.73245 5.43457 9.54133 5.43457Z" />
<path d="M5.45832 5.43457C5.2672 5.43457 5.1123 5.59183 5.1123 5.78586V12.4252C5.1123 12.6191 5.2672 12.7765 5.45832 12.7765C5.64944 12.7765 5.80434 12.6191 5.80434 12.4252V5.78586C5.80434 5.59183 5.64944 5.43457 5.45832 5.43457Z" />
<path d="M2.48275 4.46564V13.1206C2.48275 13.6322 2.66751 14.1126 2.99028 14.4573C3.31157 14.8029 3.75869 14.9992 4.22662 15H10.7734C11.2415 14.9992 11.6886 14.8029 12.0097 14.4573C12.3325 14.1126 12.5173 13.6322 12.5173 13.1206V4.46564C13.1589 4.29275 13.5746 3.66345 13.4888 2.99504C13.4028 2.32677 12.8421 1.82688 12.1781 1.82674H10.4065V1.38763C10.4086 1.01837 10.2648 0.663786 10.0073 0.402928C9.74979 0.142208 9.39999 -0.00297272 9.03626 4.61562e-05H5.96374C5.60001 -0.00297272 5.25021 0.142208 4.99272 0.402928C4.73524 0.663786 4.59143 1.01837 4.59345 1.38763V1.82674H2.82187C2.15795 1.82688 1.59716 2.32677 1.51119 2.99504C1.42537 3.66345 1.84113 4.29275 2.48275 4.46564ZM10.7734 14.2974H4.22662C3.63501 14.2974 3.17478 13.7815 3.17478 13.1206V4.49652H11.8252V13.1206C11.8252 13.7815 11.365 14.2974 10.7734 14.2974ZM5.28549 1.38763C5.28319 1.20471 5.35402 1.02866 5.48188 0.899533C5.60961 0.770408 5.78343 0.699464 5.96374 0.70262H9.03626C9.21657 0.699464 9.39039 0.770408 9.51812 0.899533C9.64598 1.02852 9.71681 1.20471 9.71451 1.38763V1.82674H5.28549V1.38763ZM2.82187 2.52931H12.1781C12.5221 2.52931 12.801 2.8124 12.801 3.16163C12.801 3.51086 12.5221 3.79395 12.1781 3.79395H2.82187C2.47788 3.79395 2.19904 3.51086 2.19904 3.16163C2.19904 2.8124 2.47788 2.52931 2.82187 2.52931Z" />
<path d="M7.49983 5.43457C7.30871 5.43457 7.15381 5.59183 7.15381 5.78586V12.4252C7.15381 12.6191 7.30871 12.7765 7.49983 12.7765C7.69095 12.7765 7.84585 12.6191 7.84585 12.4252V5.78586C7.84585 5.59183 7.69095 5.43457 7.49983 5.43457Z" />
</svg>
