<svg width="20" height="20" viewBox="0 0 20 20" fill="none" xmlns="http://www.w3.org/2000/svg">
<path d="M12.7221 7.24609C12.4673 7.24609 12.2607 7.45577 12.2607 7.71448V16.5669C12.2607 16.8255 12.4673 17.0353 12.7221 17.0353C12.9769 17.0353 13.1835 16.8255 13.1835 16.5669V7.71448C13.1835 7.45577 12.9769 7.24609 12.7221 7.24609Z" fill=""/>
<path d="M7.27776 7.24609C7.02294 7.24609 6.81641 7.45577 6.81641 7.71448V16.5669C6.81641 16.8255 7.02294 17.0353 7.27776 17.0353C7.53259 17.0353 7.73912 16.8255 7.73912 16.5669V7.71448C7.73912 7.45577 7.53259 7.24609 7.27776 7.24609Z" fill=""/>
<path d="M3.31033 5.95419V17.4942C3.31033 18.1762 3.55669 18.8168 3.98704 19.2764C4.41542 19.7373 5.01158 19.9989 5.63549 20H14.3645C14.9886 19.9989 15.5848 19.7373 16.013 19.2764C16.4433 18.8168 16.6897 18.1762 16.6897 17.4942V5.95419C17.5452 5.72366 18.0995 4.8846 17.9851 3.99339C17.8705 3.10236 17.1227 2.43583 16.2375 2.43565H13.8754V1.85017C13.8781 1.35782 13.6863 0.885049 13.343 0.537238C12.9997 0.18961 12.5333 -0.00396362 12.0484 6.15416e-05H7.95165C7.46668 -0.00396362 7.00028 0.18961 6.65697 0.537238C6.31365 0.885049 6.1219 1.35782 6.1246 1.85017V2.43565H3.76249C2.87727 2.43583 2.12954 3.10236 2.01493 3.99339C1.90049 4.8846 2.45484 5.72366 3.31033 5.95419V5.95419ZM14.3645 19.0632H5.63549C4.84668 19.0632 4.23304 18.3753 4.23304 17.4942V5.99536H15.767V17.4942C15.767 18.3753 15.1533 19.0632 14.3645 19.0632ZM7.04732 1.85017C7.04425 1.60628 7.13869 1.37154 7.30917 1.19938C7.47948 1.02721 7.71124 0.932619 7.95165 0.936827H12.0484C12.2888 0.932619 12.5205 1.02721 12.6908 1.19938C12.8613 1.37136 12.9557 1.60628 12.9527 1.85017V2.43565H7.04732V1.85017ZM3.76249 3.37242H16.2375C16.6962 3.37242 17.0679 3.74987 17.0679 4.21551C17.0679 4.68114 16.6962 5.05859 16.2375 5.05859H3.76249C3.30384 5.05859 2.93205 4.68114 2.93205 4.21551C2.93205 3.74987 3.30384 3.37242 3.76249 3.37242V3.37242Z" fill=""/>
<path d="M9.99944 7.24609C9.74462 7.24609 9.53809 7.45577 9.53809 7.71448V16.5669C9.53809 16.8255 9.74462 17.0353 9.99944 17.0353C10.2543 17.0353 10.4608 16.8255 10.4608 16.5669V7.71448C10.4608 7.45577 10.2543 7.24609 9.99944 7.24609Z" fill=""/>
</svg>
