<svg width="15" height="16" viewBox="0 0 15 16" fill="none" xmlns="http://www.w3.org/2000/svg">
<g clip-path="url(#clip0_2155_10973)">
<path d="M7.39317 7.72554C8.38583 7.72554 9.2454 7.36952 9.94772 6.66708C10.65 5.96476 11.0061 5.10543 11.0061 4.11266C11.0061 3.12023 10.65 2.26078 9.94761 1.55823C9.24517 0.856024 8.38572 0.5 7.39317 0.5C6.4004 0.5 5.54106 0.856024 4.83874 1.55835C4.13641 2.26067 3.78027 3.12011 3.78027 4.11266C3.78027 5.10543 4.13641 5.96488 4.83885 6.6672C5.54129 7.3694 6.40074 7.72554 7.39317 7.72554V7.72554Z" fill="#CBD4EE"/>
<path d="M13.7147 12.0348C13.6945 11.7425 13.6535 11.4236 13.5932 11.087C13.5323 10.7478 13.4539 10.4271 13.3601 10.134C13.2631 9.83109 13.1313 9.53194 12.9683 9.24526C12.7992 8.94772 12.6005 8.68863 12.3776 8.47542C12.1445 8.25238 11.8591 8.07305 11.529 7.94224C11.2001 7.81213 10.8356 7.74621 10.4457 7.74621C10.2926 7.74621 10.1445 7.80904 9.85851 7.99523C9.6825 8.11001 9.47662 8.24277 9.24683 8.38959C9.05033 8.51479 8.78414 8.63209 8.45535 8.73829C8.13457 8.84209 7.80888 8.89473 7.48741 8.89473C7.16595 8.89473 6.84036 8.84209 6.51924 8.73829C6.1908 8.63221 5.92461 8.51491 5.72834 8.38971C5.50072 8.24425 5.29472 8.1115 5.11608 7.99512C4.83044 7.80892 4.68224 7.74609 4.52911 7.74609C4.1391 7.74609 3.77472 7.81213 3.44593 7.94236C3.11611 8.07294 2.83058 8.25226 2.59724 8.47554C2.37442 8.68885 2.17564 8.94783 2.00672 9.24526C1.84387 9.53194 1.71204 9.83097 1.61499 10.1341C1.52126 10.4272 1.44287 10.7478 1.38199 11.087C1.32168 11.4232 1.28071 11.7421 1.26045 12.0351C1.24054 12.3221 1.23047 12.62 1.23047 12.9209C1.23047 13.7039 1.47938 14.3378 1.97021 14.8052C2.45499 15.2666 3.09643 15.5006 3.87646 15.5006H11.0991C11.8791 15.5006 12.5203 15.2667 13.0052 14.8052C13.4961 14.3381 13.745 13.7041 13.745 12.9208C13.7449 12.6185 13.7347 12.3204 13.7147 12.0348V12.0348Z" fill="#CBD4EE"/>
</g>
<defs>
<clipPath id="clip0_2155_10973">
<rect width="15" height="15" fill="white" transform="translate(0 0.5)"/>
</clipPath>
</defs>
</svg>
